%TF.GenerationSoftware,KiCad,Pcbnew,8.0.5*%
%TF.CreationDate,2024-10-25T17:03:13+02:00*%
%TF.ProjectId,Keyboard_PCB,4b657962-6f61-4726-945f-5043422e6b69,rev?*%
%TF.SameCoordinates,Original*%
%TF.FileFunction,Soldermask,Top*%
%TF.FilePolarity,Negative*%
%FSLAX46Y46*%
G04 Gerber Fmt 4.6, Leading zero omitted, Abs format (unit mm)*
G04 Created by KiCad (PCBNEW 8.0.5) date 2024-10-25 17:03:13*
%MOMM*%
%LPD*%
G01*
G04 APERTURE LIST*
G04 Aperture macros list*
%AMRoundRect*
0 Rectangle with rounded corners*
0 $1 Rounding radius*
0 $2 $3 $4 $5 $6 $7 $8 $9 X,Y pos of 4 corners*
0 Add a 4 corners polygon primitive as box body*
4,1,4,$2,$3,$4,$5,$6,$7,$8,$9,$2,$3,0*
0 Add four circle primitives for the rounded corners*
1,1,$1+$1,$2,$3*
1,1,$1+$1,$4,$5*
1,1,$1+$1,$6,$7*
1,1,$1+$1,$8,$9*
0 Add four rect primitives between the rounded corners*
20,1,$1+$1,$2,$3,$4,$5,0*
20,1,$1+$1,$4,$5,$6,$7,0*
20,1,$1+$1,$6,$7,$8,$9,0*
20,1,$1+$1,$8,$9,$2,$3,0*%
%AMRotRect*
0 Rectangle, with rotation*
0 The origin of the aperture is its center*
0 $1 length*
0 $2 width*
0 $3 Rotation angle, in degrees counterclockwise*
0 Add horizontal line*
21,1,$1,$2,0,0,$3*%
%AMFreePoly0*
4,1,6,1.000000,0.000000,0.500000,-0.750000,-0.500000,-0.750000,-0.500000,0.750000,0.500000,0.750000,1.000000,0.000000,1.000000,0.000000,$1*%
%AMFreePoly1*
4,1,6,0.500000,-0.750000,-0.650000,-0.750000,-0.150000,0.000000,-0.650000,0.750000,0.500000,0.750000,0.500000,-0.750000,0.500000,-0.750000,$1*%
G04 Aperture macros list end*
%ADD10RoundRect,0.200000X0.200000X0.275000X-0.200000X0.275000X-0.200000X-0.275000X0.200000X-0.275000X0*%
%ADD11RoundRect,0.225000X-0.017678X0.335876X-0.335876X0.017678X0.017678X-0.335876X0.335876X-0.017678X0*%
%ADD12RoundRect,0.225000X-0.225000X-0.250000X0.225000X-0.250000X0.225000X0.250000X-0.225000X0.250000X0*%
%ADD13RoundRect,0.225000X0.250000X-0.225000X0.250000X0.225000X-0.250000X0.225000X-0.250000X-0.225000X0*%
%ADD14RoundRect,0.225000X0.225000X0.375000X-0.225000X0.375000X-0.225000X-0.375000X0.225000X-0.375000X0*%
%ADD15RoundRect,0.150000X-0.150000X0.650000X-0.150000X-0.650000X0.150000X-0.650000X0.150000X0.650000X0*%
%ADD16R,0.762000X0.406400*%
%ADD17C,1.700000*%
%ADD18C,4.000000*%
%ADD19C,2.200000*%
%ADD20RoundRect,0.250000X-0.375000X-0.625000X0.375000X-0.625000X0.375000X0.625000X-0.375000X0.625000X0*%
%ADD21RoundRect,0.225000X-0.335876X-0.017678X-0.017678X-0.335876X0.335876X0.017678X0.017678X0.335876X0*%
%ADD22R,3.000000X0.350000*%
%ADD23RoundRect,0.225000X0.225000X0.250000X-0.225000X0.250000X-0.225000X-0.250000X0.225000X-0.250000X0*%
%ADD24RoundRect,0.218750X0.218750X0.256250X-0.218750X0.256250X-0.218750X-0.256250X0.218750X-0.256250X0*%
%ADD25RoundRect,0.225000X0.017678X-0.335876X0.335876X-0.017678X-0.017678X0.335876X-0.335876X0.017678X0*%
%ADD26C,0.650000*%
%ADD27RoundRect,0.150000X-0.500000X0.150000X-0.500000X-0.150000X0.500000X-0.150000X0.500000X0.150000X0*%
%ADD28RoundRect,0.075000X-0.575000X0.075000X-0.575000X-0.075000X0.575000X-0.075000X0.575000X0.075000X0*%
%ADD29O,2.100000X1.000000*%
%ADD30O,1.600000X1.000000*%
%ADD31RoundRect,0.218750X-0.218750X-0.381250X0.218750X-0.381250X0.218750X0.381250X-0.218750X0.381250X0*%
%ADD32R,1.700000X1.700000*%
%ADD33O,1.700000X1.700000*%
%ADD34RotRect,1.400000X1.200000X45.000000*%
%ADD35C,0.700000*%
%ADD36C,4.400000*%
%ADD37RoundRect,0.062500X-0.350000X-0.062500X0.350000X-0.062500X0.350000X0.062500X-0.350000X0.062500X0*%
%ADD38R,1.580000X2.350000*%
%ADD39C,2.000000*%
%ADD40RoundRect,0.200000X-0.200000X-0.275000X0.200000X-0.275000X0.200000X0.275000X-0.200000X0.275000X0*%
%ADD41RoundRect,0.200000X-0.275000X0.200000X-0.275000X-0.200000X0.275000X-0.200000X0.275000X0.200000X0*%
%ADD42R,1.050000X0.650000*%
%ADD43RoundRect,0.218750X0.256250X-0.218750X0.256250X0.218750X-0.256250X0.218750X-0.256250X-0.218750X0*%
%ADD44RoundRect,0.150000X-0.587500X-0.150000X0.587500X-0.150000X0.587500X0.150000X-0.587500X0.150000X0*%
%ADD45RoundRect,0.225000X0.335876X0.017678X0.017678X0.335876X-0.335876X-0.017678X-0.017678X-0.335876X0*%
%ADD46RotRect,1.000000X1.800000X315.000000*%
%ADD47RoundRect,0.200000X0.275000X-0.200000X0.275000X0.200000X-0.275000X0.200000X-0.275000X-0.200000X0*%
%ADD48RoundRect,0.062500X-0.062500X0.337500X-0.062500X-0.337500X0.062500X-0.337500X0.062500X0.337500X0*%
%ADD49RoundRect,0.062500X-0.337500X0.062500X-0.337500X-0.062500X0.337500X-0.062500X0.337500X0.062500X0*%
%ADD50R,2.700000X2.700000*%
%ADD51FreePoly0,90.000000*%
%ADD52FreePoly1,90.000000*%
%ADD53RoundRect,0.200000X0.053033X-0.335876X0.335876X-0.053033X-0.053033X0.335876X-0.335876X0.053033X0*%
%ADD54FreePoly0,0.000000*%
%ADD55FreePoly1,0.000000*%
%ADD56C,1.500000*%
%ADD57R,2.000000X2.000000*%
%ADD58R,3.200000X2.000000*%
%ADD59RoundRect,0.200000X-0.053033X0.335876X-0.335876X0.053033X0.053033X-0.335876X0.335876X-0.053033X0*%
%ADD60RoundRect,0.218750X-0.114905X0.424264X-0.424264X0.114905X0.114905X-0.424264X0.424264X-0.114905X0*%
%ADD61RoundRect,0.225000X-0.250000X0.225000X-0.250000X-0.225000X0.250000X-0.225000X0.250000X0.225000X0*%
%ADD62RoundRect,0.062500X0.309359X-0.220971X-0.220971X0.309359X-0.309359X0.220971X0.220971X-0.309359X0*%
%ADD63RoundRect,0.062500X0.309359X0.220971X0.220971X0.309359X-0.309359X-0.220971X-0.220971X-0.309359X0*%
%ADD64RotRect,5.600000X5.600000X135.000000*%
G04 APERTURE END LIST*
D10*
%TO.C,R15*%
X103878750Y-206602500D03*
X102228750Y-206602500D03*
%TD*%
D11*
%TO.C,C13*%
X109216758Y-209729492D03*
X108120742Y-210825508D03*
%TD*%
D12*
%TO.C,C10*%
X115643750Y-208427500D03*
X117193750Y-208427500D03*
%TD*%
D13*
%TO.C,C19*%
X124903750Y-204627500D03*
X124903750Y-203077500D03*
%TD*%
D12*
%TO.C,C20*%
X105078750Y-194652500D03*
X106628750Y-194652500D03*
%TD*%
D14*
%TO.C,D3*%
X97718750Y-203827500D03*
X94418750Y-203827500D03*
%TD*%
D15*
%TO.C,U7*%
X121873750Y-220677500D03*
X120603750Y-220677500D03*
X119333750Y-220677500D03*
X118063750Y-220677500D03*
X118063750Y-227877500D03*
X119333750Y-227877500D03*
X120603750Y-227877500D03*
X121873750Y-227877500D03*
%TD*%
D10*
%TO.C,R13*%
X103878750Y-203502500D03*
X102228750Y-203502500D03*
%TD*%
D16*
%TO.C,FL1*%
X91293751Y-207352499D03*
X91293751Y-208165299D03*
X93143749Y-208165299D03*
X93143749Y-207352499D03*
%TD*%
D17*
%TO.C,SW2*%
X91038751Y-239952500D03*
D18*
X96118751Y-239952500D03*
D17*
X101198751Y-239952500D03*
D19*
X98658751Y-234872500D03*
X92308751Y-237412500D03*
%TD*%
D20*
%TO.C,F1*%
X94718751Y-201427500D03*
X97518749Y-201427500D03*
%TD*%
D21*
%TO.C,C35*%
X106545742Y-223104492D03*
X107641758Y-224200508D03*
%TD*%
D22*
%TO.C,J4*%
X87968750Y-227377500D03*
X87968750Y-226877500D03*
X87968750Y-226377500D03*
X87968750Y-225877500D03*
X87968750Y-225377500D03*
X87968750Y-224877500D03*
X87968750Y-224377500D03*
X87968750Y-223877500D03*
X87968750Y-223377500D03*
X87968750Y-222877500D03*
X87968750Y-222377500D03*
X87968750Y-221877500D03*
X87968750Y-221377500D03*
X87968750Y-220877500D03*
X87968750Y-220377500D03*
X87968750Y-219877500D03*
X87968750Y-219377500D03*
X87968750Y-218877500D03*
X87968750Y-218377500D03*
X87968750Y-217877500D03*
X87968750Y-217377500D03*
X87968750Y-216877500D03*
X87968750Y-216377500D03*
X87968750Y-215877500D03*
X87968750Y-215377500D03*
X87968750Y-214877500D03*
X87968750Y-214377500D03*
X87968750Y-213877500D03*
X87968750Y-213377500D03*
X87968750Y-212877500D03*
%TD*%
D23*
%TO.C,C2*%
X124893750Y-240227500D03*
X123343750Y-240227500D03*
%TD*%
D24*
%TO.C,D10*%
X100791251Y-205052500D03*
X99216249Y-205052500D03*
%TD*%
D25*
%TO.C,C6*%
X99545742Y-214175508D03*
X100641758Y-213079492D03*
%TD*%
D10*
%TO.C,R14*%
X103878750Y-205052500D03*
X102228750Y-205052500D03*
%TD*%
D23*
%TO.C,C21*%
X109728750Y-194652500D03*
X108178750Y-194652500D03*
%TD*%
D10*
%TO.C,R10*%
X103878750Y-198302500D03*
X102228750Y-198302500D03*
%TD*%
D11*
%TO.C,C7*%
X104166758Y-221054492D03*
X103070742Y-222150508D03*
%TD*%
D26*
%TO.C,J2*%
X91073750Y-197737500D03*
X91073750Y-203517500D03*
D27*
X92213750Y-197427500D03*
X92213750Y-198227500D03*
D28*
X92213749Y-199377500D03*
X92213750Y-200377500D03*
X92213750Y-200877500D03*
X92213749Y-201877500D03*
D27*
X92213750Y-203027500D03*
X92213750Y-203827500D03*
X92213750Y-203827500D03*
X92213750Y-203027500D03*
D28*
X92213750Y-202377500D03*
X92213750Y-201377500D03*
X92213750Y-199877500D03*
X92213750Y-198877500D03*
D27*
X92213750Y-198227500D03*
X92213750Y-197427500D03*
D29*
X91573750Y-196307500D03*
D30*
X87393750Y-196307500D03*
D29*
X91573750Y-204947500D03*
D30*
X87393750Y-204947500D03*
%TD*%
D31*
%TO.C,L3*%
X120391250Y-201377500D03*
X122516250Y-201377500D03*
%TD*%
D10*
%TO.C,R9*%
X103878750Y-196752500D03*
X102228750Y-196752500D03*
%TD*%
D32*
%TO.C,J1*%
X92993750Y-229702500D03*
D33*
X95533750Y-229702500D03*
X98073749Y-229702500D03*
X100613750Y-229702500D03*
%TD*%
D32*
%TO.C,J5*%
X124793750Y-220477500D03*
D33*
X124793750Y-223017500D03*
X124793750Y-225557499D03*
X124793750Y-228097500D03*
%TD*%
D13*
%TO.C,C15*%
X124903750Y-195927500D03*
X124903750Y-194377500D03*
%TD*%
D23*
%TO.C,C16*%
X123353750Y-199727500D03*
X121803750Y-199727500D03*
%TD*%
D34*
%TO.C,Y1*%
X112066973Y-222431358D03*
X113622608Y-220875723D03*
X112420527Y-219673642D03*
X110864892Y-221229277D03*
%TD*%
D35*
%TO.C,H4*%
X122318750Y-248627500D03*
X122802024Y-247460774D03*
X122802024Y-249794226D03*
X123968750Y-246977500D03*
D36*
X123968750Y-248627500D03*
D35*
X123968750Y-250277500D03*
X125135476Y-247460774D03*
X125135476Y-249794226D03*
X125618750Y-248627500D03*
%TD*%
D25*
%TO.C,C5*%
X106970742Y-209675508D03*
X108066758Y-208579492D03*
%TD*%
D10*
%TO.C,R2*%
X98683751Y-232422500D03*
X97033751Y-232422500D03*
%TD*%
D25*
%TO.C,C8*%
X113620742Y-218300508D03*
X114716758Y-217204492D03*
%TD*%
D32*
%TO.C,BT1*%
X112953750Y-195467500D03*
D33*
X112953750Y-198007500D03*
%TD*%
D23*
%TO.C,C14*%
X117978750Y-198177500D03*
X116428750Y-198177500D03*
%TD*%
D37*
%TO.C,U5*%
X105966250Y-196252500D03*
X105966250Y-196752500D03*
X105966250Y-197252500D03*
X105966250Y-197752500D03*
X105966250Y-198252500D03*
X108841250Y-198252500D03*
X108841250Y-197752500D03*
X108841250Y-197252500D03*
X108841250Y-196752500D03*
X108841250Y-196252500D03*
D38*
X107403750Y-197252500D03*
%TD*%
D24*
%TO.C,D7*%
X100791251Y-198312500D03*
X99216249Y-198312500D03*
%TD*%
D39*
%TO.C,TP1*%
X96968750Y-198327500D03*
%TD*%
D40*
%TO.C,R23*%
X112518750Y-208427499D03*
X114168750Y-208427499D03*
%TD*%
D10*
%TO.C,R11*%
X103878750Y-199852500D03*
X102228750Y-199852500D03*
%TD*%
D41*
%TO.C,TH1*%
X110353750Y-197527500D03*
X110353750Y-199177500D03*
%TD*%
D42*
%TO.C,SW4*%
X117268750Y-210027500D03*
X121418750Y-210027500D03*
X117268750Y-212177500D03*
X121418750Y-212177500D03*
%TD*%
D35*
%TO.C,H2*%
X86318750Y-209127500D03*
X86802024Y-207960774D03*
X86802024Y-210294226D03*
X87968750Y-207477500D03*
D36*
X87968750Y-209127500D03*
D35*
X87968750Y-210777500D03*
X89135476Y-207960774D03*
X89135476Y-210294226D03*
X89618750Y-209127500D03*
%TD*%
D43*
%TO.C,D1*%
X123993751Y-217877501D03*
X123993751Y-216302499D03*
%TD*%
D44*
%TO.C,D5*%
X115853750Y-203377500D03*
X115853750Y-205277500D03*
X117728750Y-204327500D03*
%TD*%
D24*
%TO.C,D6*%
X100791251Y-196752500D03*
X99216249Y-196752500D03*
%TD*%
D45*
%TO.C,C30*%
X109789766Y-226348516D03*
X108693750Y-225252500D03*
%TD*%
D46*
%TO.C,Y2*%
X110877633Y-224595266D03*
X109109867Y-222827500D03*
%TD*%
D47*
%TO.C,R1*%
X103893750Y-236277500D03*
X103893750Y-234627500D03*
%TD*%
D11*
%TO.C,C4*%
X105266758Y-222154492D03*
X104170742Y-223250508D03*
%TD*%
D31*
%TO.C,L2*%
X120391250Y-192677500D03*
X122516250Y-192677500D03*
%TD*%
D23*
%TO.C,C23*%
X109728750Y-201402500D03*
X108178750Y-201402500D03*
%TD*%
%TO.C,C17*%
X117978750Y-206877500D03*
X116428750Y-206877500D03*
%TD*%
D24*
%TO.C,D11*%
X100791251Y-206602500D03*
X99216249Y-206602500D03*
%TD*%
D48*
%TO.C,U2*%
X122453750Y-194327500D03*
X121953750Y-194327500D03*
X121453750Y-194327500D03*
X120953750Y-194327500D03*
X120453750Y-194327500D03*
D49*
X119503750Y-195277500D03*
X119503750Y-195777500D03*
X119503750Y-196277500D03*
X119503750Y-196777500D03*
X119503750Y-197277500D03*
D48*
X120453750Y-198227500D03*
X120953750Y-198227500D03*
X121453750Y-198227500D03*
X121953750Y-198227500D03*
X122453750Y-198227500D03*
D49*
X123403750Y-197277500D03*
X123403750Y-196777500D03*
X123403750Y-196277500D03*
X123403750Y-195777500D03*
X123403750Y-195277500D03*
D50*
X121453750Y-196277500D03*
%TD*%
D41*
%TO.C,TH2*%
X110353750Y-204277500D03*
X110353750Y-205927500D03*
%TD*%
D10*
%TO.C,R22*%
X120318750Y-208427500D03*
X118668750Y-208427500D03*
%TD*%
D41*
%TO.C,R5*%
X123368750Y-235602500D03*
X123368750Y-237252500D03*
%TD*%
D51*
%TO.C,JP2*%
X103818750Y-230577500D03*
D52*
X103818750Y-229127502D03*
%TD*%
D53*
%TO.C,R29*%
X109860387Y-219835863D03*
X111027113Y-218669137D03*
%TD*%
D41*
%TO.C,R6*%
X124893750Y-235602500D03*
X124893750Y-237252500D03*
%TD*%
D54*
%TO.C,JP1*%
X124043752Y-211190000D03*
D55*
X125493750Y-211190000D03*
%TD*%
D32*
%TO.C,J3*%
X95558750Y-225977500D03*
D33*
X93018750Y-225977500D03*
X95558750Y-223437500D03*
X93018750Y-223437500D03*
X95558750Y-220897501D03*
X93018750Y-220897500D03*
X95558750Y-218357500D03*
X93018750Y-218357500D03*
%TD*%
D56*
%TO.C,TP2*%
X125318750Y-200977500D03*
%TD*%
D57*
%TO.C,SW1*%
X121068750Y-241977500D03*
D39*
X121068750Y-236977500D03*
X121068750Y-239477500D03*
D58*
X113568750Y-245077500D03*
X113568750Y-233877500D03*
D39*
X106568750Y-236977500D03*
X106568750Y-241977500D03*
%TD*%
D42*
%TO.C,SW3*%
X111418750Y-210027500D03*
X115568750Y-210027500D03*
X111418750Y-212177500D03*
X115568750Y-212177500D03*
%TD*%
D40*
%TO.C,R12*%
X107178750Y-206602500D03*
X108828750Y-206602500D03*
%TD*%
D59*
%TO.C,R30*%
X108802113Y-220894137D03*
X107635387Y-222060863D03*
%TD*%
D60*
%TO.C,L1*%
X113470051Y-216051199D03*
X111967449Y-217553801D03*
%TD*%
D47*
%TO.C,R3*%
X123368750Y-243327500D03*
X123368750Y-241677500D03*
%TD*%
D44*
%TO.C,D4*%
X115853750Y-194677500D03*
X115853750Y-196577500D03*
X117728750Y-195627500D03*
%TD*%
D32*
%TO.C,BT2*%
X112953750Y-202217500D03*
D33*
X112953750Y-204757500D03*
%TD*%
D41*
%TO.C,R24*%
X123993751Y-213190000D03*
X123993751Y-214840000D03*
%TD*%
D37*
%TO.C,U6*%
X105966250Y-203002500D03*
X105966250Y-203502500D03*
X105966250Y-204002500D03*
X105966250Y-204502500D03*
X105966250Y-205002500D03*
X108841250Y-205002500D03*
X108841250Y-204502500D03*
X108841250Y-204002500D03*
X108841250Y-203502500D03*
X108841250Y-203002500D03*
D38*
X107403750Y-204002500D03*
%TD*%
D23*
%TO.C,C9*%
X124893750Y-238702500D03*
X123343750Y-238702500D03*
%TD*%
D35*
%TO.C,H3*%
X86318750Y-248627500D03*
X86802024Y-247460774D03*
X86802024Y-249794226D03*
X87968750Y-246977500D03*
D36*
X87968750Y-248627500D03*
D35*
X87968750Y-250277500D03*
X89135476Y-247460774D03*
X89135476Y-249794226D03*
X89618750Y-248627500D03*
%TD*%
D40*
%TO.C,R8*%
X107178750Y-199852500D03*
X108828750Y-199852500D03*
%TD*%
D56*
%TO.C,TP3*%
X125318750Y-206627500D03*
%TD*%
D61*
%TO.C,C1*%
X103893750Y-237727500D03*
X103893750Y-239277500D03*
%TD*%
D23*
%TO.C,C3*%
X101683751Y-232422500D03*
X100133751Y-232422500D03*
%TD*%
D24*
%TO.C,D8*%
X100791251Y-199862500D03*
X99216249Y-199862500D03*
%TD*%
%TO.C,D9*%
X100791251Y-203502500D03*
X99216249Y-203502500D03*
%TD*%
D41*
%TO.C,R25*%
X125568751Y-213190000D03*
X125568751Y-214840000D03*
%TD*%
D47*
%TO.C,R4*%
X124893750Y-243327500D03*
X124893750Y-241677500D03*
%TD*%
D21*
%TO.C,C29*%
X114720742Y-219354492D03*
X115816758Y-220450508D03*
%TD*%
D12*
%TO.C,C22*%
X105078750Y-201402500D03*
X106628750Y-201402500D03*
%TD*%
D23*
%TO.C,C18*%
X123353750Y-208427500D03*
X121803750Y-208427500D03*
%TD*%
D43*
%TO.C,D2*%
X125568751Y-217877501D03*
X125568751Y-216302499D03*
%TD*%
D35*
%TO.C,H1*%
X86318750Y-192127500D03*
X86802024Y-190960774D03*
X86802024Y-193294226D03*
X87968750Y-190477500D03*
D36*
X87968750Y-192127500D03*
D35*
X87968750Y-193777500D03*
X89135476Y-190960774D03*
X89135476Y-193294226D03*
X89618750Y-192127500D03*
%TD*%
D41*
%TO.C,R7*%
X94168750Y-195952500D03*
X94168750Y-197602500D03*
%TD*%
D25*
%TO.C,C28*%
X113922734Y-222973516D03*
X115018750Y-221877500D03*
%TD*%
D62*
%TO.C,U1*%
X106329886Y-220002723D03*
X106683439Y-219649170D03*
X107036993Y-219295616D03*
X107390546Y-218942063D03*
X107744099Y-218588510D03*
X108097653Y-218234956D03*
X108451206Y-217881403D03*
X108804760Y-217527849D03*
X109158313Y-217174296D03*
X109511866Y-216820743D03*
X109865420Y-216467189D03*
X110218973Y-216113636D03*
D63*
X110218973Y-215141364D03*
X109865420Y-214787811D03*
X109511866Y-214434257D03*
X109158313Y-214080704D03*
X108804760Y-213727151D03*
X108451206Y-213373597D03*
X108097653Y-213020044D03*
X107744099Y-212666490D03*
X107390546Y-212312937D03*
X107036993Y-211959384D03*
X106683439Y-211605830D03*
X106329886Y-211252277D03*
D62*
X105357614Y-211252277D03*
X105004061Y-211605830D03*
X104650507Y-211959384D03*
X104296954Y-212312937D03*
X103943401Y-212666490D03*
X103589847Y-213020044D03*
X103236294Y-213373597D03*
X102882740Y-213727151D03*
X102529187Y-214080704D03*
X102175634Y-214434257D03*
X101822080Y-214787811D03*
X101468527Y-215141364D03*
D63*
X101468527Y-216113636D03*
X101822080Y-216467189D03*
X102175634Y-216820743D03*
X102529187Y-217174296D03*
X102882740Y-217527849D03*
X103236294Y-217881403D03*
X103589847Y-218234956D03*
X103943401Y-218588510D03*
X104296954Y-218942063D03*
X104650507Y-219295616D03*
X105004061Y-219649170D03*
X105357614Y-220002723D03*
D64*
X105843750Y-215627500D03*
%TD*%
D48*
%TO.C,U4*%
X122453750Y-203027500D03*
X121953750Y-203027500D03*
X121453750Y-203027500D03*
X120953750Y-203027500D03*
X120453750Y-203027500D03*
D49*
X119503750Y-203977500D03*
X119503750Y-204477500D03*
X119503750Y-204977500D03*
X119503750Y-205477500D03*
X119503750Y-205977500D03*
D48*
X120453750Y-206927500D03*
X120953750Y-206927500D03*
X121453750Y-206927500D03*
X121953750Y-206927500D03*
X122453750Y-206927500D03*
D49*
X123403750Y-205977500D03*
X123403750Y-205477500D03*
X123403750Y-204977500D03*
X123403750Y-204477500D03*
X123403750Y-203977500D03*
D50*
X121453750Y-204977500D03*
%TD*%
M02*
