%TF.GenerationSoftware,KiCad,Pcbnew,8.0.5*%
%TF.CreationDate,2024-10-25T17:03:13+02:00*%
%TF.ProjectId,Keyboard_PCB,4b657962-6f61-4726-945f-5043422e6b69,rev?*%
%TF.SameCoordinates,Original*%
%TF.FileFunction,Soldermask,Bot*%
%TF.FilePolarity,Negative*%
%FSLAX46Y46*%
G04 Gerber Fmt 4.6, Leading zero omitted, Abs format (unit mm)*
G04 Created by KiCad (PCBNEW 8.0.5) date 2024-10-25 17:03:13*
%MOMM*%
%LPD*%
G01*
G04 APERTURE LIST*
G04 Aperture macros list*
%AMRoundRect*
0 Rectangle with rounded corners*
0 $1 Rounding radius*
0 $2 $3 $4 $5 $6 $7 $8 $9 X,Y pos of 4 corners*
0 Add a 4 corners polygon primitive as box body*
4,1,4,$2,$3,$4,$5,$6,$7,$8,$9,$2,$3,0*
0 Add four circle primitives for the rounded corners*
1,1,$1+$1,$2,$3*
1,1,$1+$1,$4,$5*
1,1,$1+$1,$6,$7*
1,1,$1+$1,$8,$9*
0 Add four rect primitives between the rounded corners*
20,1,$1+$1,$2,$3,$4,$5,0*
20,1,$1+$1,$4,$5,$6,$7,0*
20,1,$1+$1,$6,$7,$8,$9,0*
20,1,$1+$1,$8,$9,$2,$3,0*%
%AMFreePoly0*
4,1,6,1.000000,0.000000,0.500000,-0.750000,-0.500000,-0.750000,-0.500000,0.750000,0.500000,0.750000,1.000000,0.000000,1.000000,0.000000,$1*%
%AMFreePoly1*
4,1,6,0.500000,-0.750000,-0.650000,-0.750000,-0.150000,0.000000,-0.650000,0.750000,0.500000,0.750000,0.500000,-0.750000,0.500000,-0.750000,$1*%
G04 Aperture macros list end*
%ADD10FreePoly0,270.000000*%
%ADD11FreePoly1,270.000000*%
%ADD12C,1.700000*%
%ADD13C,4.000000*%
%ADD14C,2.200000*%
%ADD15C,0.650000*%
%ADD16O,2.100000X1.000000*%
%ADD17O,1.600000X1.000000*%
%ADD18R,1.700000X1.700000*%
%ADD19O,1.700000X1.700000*%
%ADD20C,0.700000*%
%ADD21C,4.400000*%
%ADD22R,2.000000X2.000000*%
%ADD23C,2.000000*%
%ADD24R,3.200000X2.000000*%
%ADD25RoundRect,0.200000X0.275000X-0.200000X0.275000X0.200000X-0.275000X0.200000X-0.275000X-0.200000X0*%
%ADD26RoundRect,0.150000X-0.150000X0.587500X-0.150000X-0.587500X0.150000X-0.587500X0.150000X0.587500X0*%
%ADD27RoundRect,0.225000X0.250000X-0.225000X0.250000X0.225000X-0.250000X0.225000X-0.250000X-0.225000X0*%
%ADD28RoundRect,0.150000X0.512500X0.150000X-0.512500X0.150000X-0.512500X-0.150000X0.512500X-0.150000X0*%
%ADD29RoundRect,0.200000X-0.200000X-0.275000X0.200000X-0.275000X0.200000X0.275000X-0.200000X0.275000X0*%
%ADD30RoundRect,0.200000X-0.275000X0.200000X-0.275000X-0.200000X0.275000X-0.200000X0.275000X0.200000X0*%
G04 APERTURE END LIST*
D10*
%TO.C,JP3*%
X125318750Y-207802501D03*
D11*
X125318750Y-209252499D03*
%TD*%
D12*
%TO.C,SW2*%
X91038751Y-239952500D03*
D13*
X96118751Y-239952500D03*
D12*
X101198751Y-239952500D03*
D14*
X98658751Y-234872500D03*
X92308751Y-237412500D03*
%TD*%
D15*
%TO.C,J2*%
X91073750Y-197737500D03*
X91073750Y-203517500D03*
D16*
X91573750Y-196307500D03*
D17*
X87393750Y-196307500D03*
D16*
X91573750Y-204947500D03*
D17*
X87393750Y-204947500D03*
%TD*%
D18*
%TO.C,J1*%
X92993750Y-229702500D03*
D19*
X95533750Y-229702500D03*
X98073749Y-229702500D03*
X100613750Y-229702500D03*
%TD*%
D18*
%TO.C,J5*%
X124793750Y-220477500D03*
D19*
X124793750Y-223017500D03*
X124793750Y-225557499D03*
X124793750Y-228097500D03*
%TD*%
D20*
%TO.C,H4*%
X122318750Y-248627500D03*
X122802024Y-247460774D03*
X122802024Y-249794226D03*
X123968750Y-246977500D03*
D21*
X123968750Y-248627500D03*
D20*
X123968750Y-250277500D03*
X125135476Y-247460774D03*
X125135476Y-249794226D03*
X125618750Y-248627500D03*
%TD*%
D18*
%TO.C,BT1*%
X112953750Y-195467500D03*
D19*
X112953750Y-198007500D03*
%TD*%
D20*
%TO.C,H2*%
X86318750Y-209127500D03*
X86802024Y-207960774D03*
X86802024Y-210294226D03*
X87968750Y-207477500D03*
D21*
X87968750Y-209127500D03*
D20*
X87968750Y-210777500D03*
X89135476Y-207960774D03*
X89135476Y-210294226D03*
X89618750Y-209127500D03*
%TD*%
D18*
%TO.C,J3*%
X95558750Y-225977500D03*
D19*
X93018750Y-225977500D03*
X95558750Y-223437500D03*
X93018750Y-223437500D03*
X95558750Y-220897501D03*
X93018750Y-220897500D03*
X95558750Y-218357500D03*
X93018750Y-218357500D03*
%TD*%
D22*
%TO.C,SW1*%
X121068750Y-241977500D03*
D23*
X121068750Y-236977500D03*
X121068750Y-239477500D03*
D24*
X113568750Y-245077500D03*
X113568750Y-233877500D03*
D23*
X106568750Y-236977500D03*
X106568750Y-241977500D03*
%TD*%
D18*
%TO.C,BT2*%
X112953750Y-202217500D03*
D19*
X112953750Y-204757500D03*
%TD*%
D20*
%TO.C,H3*%
X86318750Y-248627500D03*
X86802024Y-247460774D03*
X86802024Y-249794226D03*
X87968750Y-246977500D03*
D21*
X87968750Y-248627500D03*
D20*
X87968750Y-250277500D03*
X89135476Y-247460774D03*
X89135476Y-249794226D03*
X89618750Y-248627500D03*
%TD*%
%TO.C,H1*%
X86318750Y-192127500D03*
X86802024Y-190960774D03*
X86802024Y-193294226D03*
X87968750Y-190477500D03*
D21*
X87968750Y-192127500D03*
D20*
X87968750Y-193777500D03*
X89135476Y-190960774D03*
X89135476Y-193294226D03*
X89618750Y-192127500D03*
%TD*%
D25*
%TO.C,R27*%
X90718750Y-213652500D03*
X90718750Y-212002500D03*
%TD*%
D26*
%TO.C,Q1*%
X92318750Y-213940000D03*
X94218750Y-213940000D03*
X93268750Y-215815001D03*
%TD*%
D27*
%TO.C,C12*%
X90718750Y-219727500D03*
X90718750Y-218177500D03*
%TD*%
D28*
%TO.C,U3*%
X89356250Y-199677501D03*
X89356250Y-200627500D03*
X89356250Y-201577499D03*
X87081250Y-201577499D03*
X87081250Y-200627500D03*
X87081250Y-199677501D03*
%TD*%
D29*
%TO.C,R26*%
X92243750Y-212077500D03*
X93893750Y-212077500D03*
%TD*%
D27*
%TO.C,C11*%
X90968750Y-227002500D03*
X90968750Y-225452500D03*
%TD*%
D30*
%TO.C,R28*%
X90718750Y-215102500D03*
X90718750Y-216752500D03*
%TD*%
M02*
