M48
METRIC,TZ
T1C0.200
T2C0.300
T3C0.400
T4C0.600
T5C1.000
T6C1.500
T7C2.200
%
G90
G05
T1
X120354Y-195178
X120354Y-197378
X120354Y-203878
X120354Y-206077
X122554Y-195178
X122554Y-197378
X122554Y-203878
X122554Y-206077
T2
X86069Y-215378
X86069Y-219128
X86069Y-220628
X86069Y-222128
X86069Y-223378
X86469Y-212128
X86469Y-228128
X87969Y-200628
X87969Y-230628
X87969Y-235628
X87969Y-240628
X87969Y-245628
X89469Y-212128
X89469Y-228128
X89744Y-216629
X89869Y-217878
X89869Y-219128
X89869Y-220628
X89869Y-222128
X89869Y-226378
X90138Y-222881
X90219Y-194628
X90564Y-200628
X90960Y-224503
X90969Y-192128
X90969Y-193628
X90969Y-209628
X90969Y-228128
X90969Y-233128
X90971Y-243121
X91069Y-199678
X91069Y-201578
X91294Y-208728
X91513Y-213653
X91719Y-192878
X91719Y-194628
X91719Y-210378
X91819Y-206509
X91969Y-216628
X92194Y-219628
X92468Y-193627
X92469Y-192128
X92469Y-209628
X92619Y-206509
X93144Y-212077
X93169Y-203828
X93219Y-192878
X93219Y-194628
X93219Y-205378
X93319Y-199528
X93469Y-210378
X93469Y-235628
X93469Y-240628
X93469Y-245628
X93469Y-248628
X93619Y-219628
X93619Y-222177
X93969Y-192128
X93969Y-193628
X93969Y-204628
X93969Y-206128
X94119Y-207628
X94219Y-208728
X94219Y-215077
X94469Y-228378
X94719Y-192878
X94719Y-194628
X94719Y-205378
X94719Y-206878
X94969Y-210378
X94969Y-211378
X94969Y-219628
X94969Y-222177
X95468Y-199516
X95469Y-192128
X95469Y-193628
X95469Y-195628
X95469Y-197128
X95469Y-198628
X95469Y-203128
X95469Y-204628
X95469Y-206128
X95469Y-207628
X95969Y-201428
X95969Y-243128
X96219Y-192878
X96219Y-194628
X96219Y-196378
X96219Y-206878
X96219Y-210378
X96219Y-211378
X96359Y-232423
X96719Y-228378
X96969Y-192128
X96969Y-193628
X96969Y-195628
X96969Y-207628
X96969Y-217878
X96969Y-220378
X97144Y-206003
X97469Y-210378
X97469Y-211378
X97684Y-232423
X97719Y-192878
X97719Y-194628
X97744Y-216478
X97869Y-206728
X97969Y-222128
X97969Y-223378
X97969Y-224628
X97969Y-225878
X97969Y-227128
X98067Y-212909
X98086Y-212109
X98369Y-217878
X98469Y-192128
X98469Y-195628
X98469Y-218878
X98469Y-245628
X98469Y-248628
X98472Y-240627
X98480Y-220629
X98481Y-228407
X98544Y-216478
X98619Y-193628
X98771Y-210774
X98969Y-207628
X98983Y-221251
X99169Y-217878
X99216Y-200378
X99216Y-201128
X99216Y-201878
X99219Y-192878
X99336Y-211340
X99469Y-194628
X99899Y-213822
X99969Y-192128
X99969Y-216478
X99969Y-217878
X100219Y-193628
X100229Y-223880
X100268Y-208948
X100469Y-207628
X100719Y-192878
X100834Y-209514
X100967Y-228125
X100969Y-194628
X100969Y-238128
X100969Y-243128
X101400Y-210080
X101469Y-192128
X101509Y-213591
X101719Y-193628
X101969Y-207628
X101969Y-221378
X101983Y-210627
X102219Y-192878
X102369Y-232427
X102469Y-194628
X102662Y-215628
X102694Y-220628
X102969Y-192128
X102969Y-193628
X103461Y-219364
X103469Y-207628
X103469Y-245628
X103469Y-248628
X103621Y-222701
X103719Y-192878
X103852Y-221394
X103879Y-199278
X103890Y-206028
X103894Y-233927
X103894Y-238777
X103894Y-239978
X103897Y-235278
X103969Y-194628
X104145Y-219989
X104219Y-208878
X104794Y-224378
X104969Y-192128
X104969Y-193628
X104969Y-198628
X104969Y-206128
X104969Y-207628
X105219Y-209878
X105594Y-224378
X105719Y-192878
X105719Y-206878
X105844Y-212446
X105859Y-220385
X105969Y-228128
X105969Y-233128
X106219Y-208878
X106469Y-192128
X106469Y-193628
X106469Y-198628
X106469Y-206128
X106469Y-207628
X107028Y-220978
X107219Y-192878
X107396Y-209252
X107653Y-220053
X107719Y-198628
X107969Y-192128
X107969Y-193628
X108069Y-207628
X108258Y-211877
X108469Y-230628
X108469Y-235628
X108469Y-240628
X108469Y-245628
X108469Y-248628
X108494Y-224403
X108592Y-209104
X108719Y-192878
X109219Y-211603
X109219Y-218653
X109469Y-192128
X109469Y-193628
X109469Y-207628
X109753Y-198350
X109753Y-205100
X109969Y-208903
X110022Y-218831
X110219Y-192878
X110219Y-206878
X110394Y-224103
X110605Y-215639
X110969Y-192128
X110969Y-193628
X110969Y-207628
X110969Y-228128
X110969Y-233128
X110969Y-238128
X110969Y-243128
X111344Y-208903
X111394Y-220702
X111405Y-215624
X111719Y-192878
X111719Y-206878
X112205Y-215628
X112219Y-212177
X112469Y-192128
X112469Y-193628
X112469Y-206128
X112469Y-211253
X112519Y-210028
X113094Y-221403
X113094Y-227128
X113219Y-192878
X113219Y-206878
X113469Y-211128
X113469Y-212177
X113469Y-230628
X113469Y-235628
X113469Y-240628
X113469Y-248628
X113670Y-216279
X113969Y-192128
X113969Y-193628
X113969Y-206128
X114236Y-211353
X114347Y-215602
X114719Y-192878
X114719Y-206878
X114819Y-226177
X114869Y-208427
X115094Y-217577
X115119Y-197178
X115119Y-204678
X115469Y-192128
X115469Y-193628
X115819Y-197178
X115819Y-204678
X115969Y-233128
X115969Y-238128
X115969Y-243128
X116127Y-217319
X116169Y-220802
X116219Y-192878
X116519Y-197178
X116519Y-204678
X116719Y-230628
X116900Y-211352
X116969Y-192128
X116969Y-193628
X116969Y-212827
X117719Y-192878
X117944Y-210028
X117969Y-191628
X117969Y-194628
X117969Y-199628
X117969Y-201128
X117969Y-202628
X118061Y-221978
X118069Y-219628
X118469Y-193628
X118469Y-214378
X118469Y-235628
X118469Y-240628
X118469Y-245628
X118469Y-248628
X118694Y-226628
X118709Y-223628
X118719Y-192378
X118719Y-200378
X118719Y-201878
X118719Y-203378
X119219Y-230628
X119344Y-212177
X119369Y-222003
X119419Y-193128
X119419Y-199628
X119419Y-201128
X119419Y-202628
X119469Y-191628
X119472Y-194627
X119734Y-217128
X119735Y-218378
X119744Y-208427
X119959Y-223628
X119969Y-215878
X119969Y-222628
X119969Y-226628
X120469Y-212177
X120594Y-218378
X120594Y-219628
X120719Y-234628
X120969Y-199628
X120969Y-222128
X121394Y-208427
X121469Y-191628
X121469Y-223628
X121869Y-226753
X121869Y-229028
X121969Y-222128
X123154Y-198428
X123154Y-199428
X123219Y-234628
X123319Y-239478
X123369Y-236603
X123369Y-242327
X123469Y-191628
X123469Y-193128
X123469Y-230628
X123654Y-197928
X123654Y-198928
X123654Y-199928
X123969Y-245628
X123994Y-212365
X123994Y-213840
X123994Y-217340
X124094Y-208427
X124154Y-198428
X124154Y-199428
X124654Y-197928
X124654Y-198928
X124654Y-199928
X124894Y-237927
X124894Y-240978
X124969Y-193128
X125154Y-198428
X125154Y-199428
X125319Y-209728
X125569Y-217340
X125969Y-194128
X125969Y-195628
X125969Y-196878
X125969Y-198128
X125969Y-202628
X125969Y-204128
X125969Y-233128
T3
X86319Y-192128
X86319Y-209128
X86319Y-248628
X86802Y-190961
X86802Y-193294
X86802Y-207961
X86802Y-210294
X86802Y-247461
X86802Y-249794
X87969Y-190478
X87969Y-193778
X87969Y-207478
X87969Y-210778
X87969Y-246978
X87969Y-250277
X89135Y-190961
X89135Y-193294
X89135Y-207961
X89135Y-210294
X89135Y-247461
X89135Y-249794
X89619Y-192128
X89619Y-209128
X89619Y-248628
X122319Y-248628
X122802Y-247461
X122802Y-249794
X123969Y-246978
X123969Y-250277
X125135Y-247461
X125135Y-249794
X125619Y-248628
T5
X92994Y-229702
X93019Y-218358
X93019Y-220898
X93019Y-223438
X93019Y-225978
X95534Y-229702
X95559Y-218358
X95559Y-220898
X95559Y-223438
X95559Y-225978
X98074Y-229702
X100614Y-229702
X106569Y-236978
X106569Y-241978
X112954Y-195468
X112954Y-198008
X112954Y-202218
X112954Y-204758
X121069Y-236978
X121069Y-239478
X121069Y-241978
X124794Y-220478
X124794Y-223017
X124794Y-225557
X124794Y-228098
T6
X92309Y-237413
X98659Y-234873
T7
X87969Y-192128
X87969Y-209128
X87969Y-248628
X123969Y-248628
T4
G00X87694Y-196308
M15
G01X87094Y-196308
M16
G05
G00X87694Y-204948
M15
G01X87094Y-204948
M16
G05
G00X92124Y-196308
M15
G01X91024Y-196308
M16
G05
G00X92124Y-204948
M15
G01X91024Y-204948
M16
G05
T6
G00X114219Y-233878
M15
G01X112919Y-233878
M16
G05
G00X114219Y-245077
M15
G01X112919Y-245077
M16
G05
M30
