%TF.GenerationSoftware,KiCad,Pcbnew,8.0.5*%
%TF.CreationDate,2024-10-25T16:55:05+02:00*%
%TF.ProjectId,Keyboard_PCB,4b657962-6f61-4726-945f-5043422e6b69,rev?*%
%TF.SameCoordinates,Original*%
%TF.FileFunction,Profile,NP*%
%FSLAX46Y46*%
G04 Gerber Fmt 4.6, Leading zero omitted, Abs format (unit mm)*
G04 Created by KiCad (PCBNEW 8.0.5) date 2024-10-25 16:55:05*
%MOMM*%
%LPD*%
G01*
G04 APERTURE LIST*
%TA.AperFunction,Profile*%
%ADD10C,0.050000*%
%TD*%
%ADD11C,0.350000*%
%ADD12O,1.700000X0.600000*%
%ADD13O,1.200000X0.600000*%
%ADD14C,0.200000*%
%ADD15O,2.800000X1.500000*%
G04 APERTURE END LIST*
D10*
X85968750Y-189127500D02*
X125968750Y-189127500D01*
X125968750Y-189127500D02*
G75*
G02*
X126968800Y-190127500I50J-1000000D01*
G01*
X84968750Y-190127500D02*
G75*
G02*
X85968750Y-189127550I999950J0D01*
G01*
X84968750Y-250627500D02*
X84968750Y-190127500D01*
X125968750Y-251627500D02*
X85968750Y-251627500D01*
X126968750Y-250627500D02*
G75*
G02*
X125968750Y-251627450I-999950J0D01*
G01*
X126968750Y-250627500D02*
X126968750Y-190127500D01*
X85968750Y-251627500D02*
G75*
G02*
X84968700Y-250627500I-50J1000000D01*
G01*
D11*
X91038751Y-239952500D03*
X96118751Y-239952500D03*
X101198751Y-239952500D03*
X98658751Y-234872500D03*
X92308751Y-237412500D03*
X91073750Y-197737500D03*
X91073750Y-203517500D03*
D12*
X91573750Y-196307500D03*
D13*
X87393750Y-196307500D03*
D12*
X91573750Y-204947500D03*
D13*
X87393750Y-204947500D03*
D11*
X92993750Y-229702500D03*
X95533750Y-229702500D03*
X98073749Y-229702500D03*
X100613750Y-229702500D03*
X124793750Y-220477500D03*
X124793750Y-223017500D03*
X124793750Y-225557499D03*
X124793750Y-228097500D03*
X122318750Y-248627500D03*
X122802024Y-247460774D03*
X122802024Y-249794226D03*
X123968750Y-246977500D03*
X123968750Y-248627500D03*
X123968750Y-250277500D03*
X125135476Y-247460774D03*
X125135476Y-249794226D03*
X125618750Y-248627500D03*
X112953750Y-195467500D03*
X112953750Y-198007500D03*
X86318750Y-209127500D03*
X86802024Y-207960774D03*
X86802024Y-210294226D03*
X87968750Y-207477500D03*
X87968750Y-209127500D03*
X87968750Y-210777500D03*
X89135476Y-207960774D03*
X89135476Y-210294226D03*
X89618750Y-209127500D03*
D14*
X122553750Y-195177500D03*
X120353750Y-195177500D03*
X122553750Y-197377500D03*
X120353750Y-197377500D03*
D11*
X95558750Y-225977500D03*
X93018750Y-225977500D03*
X95558750Y-223437500D03*
X93018750Y-223437500D03*
X95558750Y-220897501D03*
X93018750Y-220897500D03*
X95558750Y-218357500D03*
X93018750Y-218357500D03*
X121068750Y-241977500D03*
X121068750Y-236977500D03*
X121068750Y-239477500D03*
D15*
X113568750Y-245077500D03*
X113568750Y-233877500D03*
D11*
X106568750Y-236977500D03*
X106568750Y-241977500D03*
X112953750Y-202217500D03*
X112953750Y-204757500D03*
X86318750Y-248627500D03*
X86802024Y-247460774D03*
X86802024Y-249794226D03*
X87968750Y-246977500D03*
X87968750Y-248627500D03*
X87968750Y-250277500D03*
X89135476Y-247460774D03*
X89135476Y-249794226D03*
X89618750Y-248627500D03*
X86318750Y-192127500D03*
X86802024Y-190960774D03*
X86802024Y-193294226D03*
X87968750Y-190477500D03*
X87968750Y-192127500D03*
X87968750Y-193777500D03*
X89135476Y-190960774D03*
X89135476Y-193294226D03*
X89618750Y-192127500D03*
D14*
X122553750Y-203877500D03*
X120353750Y-203877500D03*
X122553750Y-206077500D03*
X120353750Y-206077500D03*
M02*
