M48
; DRILL file {KiCad 8.0.5} date 2024-10-25T16:55:05+0200
; FORMAT={-:-/ absolute / metric / decimal}
; #@! TF.CreationDate,2024-10-25T16:55:05+02:00
; #@! TF.GenerationSoftware,Kicad,Pcbnew,8.0.5
; #@! TF.FileFunction,Plated,1,4,PTH
FMAT,2
METRIC
; #@! TA.AperFunction,Plated,PTH,ComponentDrill
T1C0.200
; #@! TA.AperFunction,Plated,PTH,ViaDrill
T2C0.300
; #@! TA.AperFunction,Plated,PTH,ComponentDrill
T3C0.400
; #@! TA.AperFunction,Plated,PTH,ComponentDrill
T4C0.600
; #@! TA.AperFunction,Plated,PTH,ComponentDrill
T5C1.000
; #@! TA.AperFunction,Plated,PTH,ComponentDrill
T6C1.500
; #@! TA.AperFunction,Plated,PTH,ComponentDrill
T7C2.200
%
G90
G05
T1
X120.354Y-195.177
X120.354Y-197.377
X120.354Y-203.877
X120.354Y-206.077
X122.554Y-195.177
X122.554Y-197.377
X122.554Y-203.877
X122.554Y-206.077
T2
X86.069Y-215.377
X86.069Y-219.127
X86.069Y-220.627
X86.069Y-222.127
X86.069Y-223.377
X86.469Y-212.127
X86.469Y-228.127
X87.969Y-200.627
X87.969Y-230.627
X87.969Y-235.627
X87.969Y-240.627
X87.969Y-245.627
X89.469Y-212.127
X89.469Y-228.127
X89.744Y-216.629
X89.869Y-217.877
X89.869Y-219.127
X89.869Y-220.627
X89.869Y-222.127
X89.869Y-226.377
X90.138Y-222.881
X90.219Y-194.627
X90.564Y-200.627
X90.96Y-224.503
X90.969Y-192.127
X90.969Y-193.627
X90.969Y-209.627
X90.969Y-228.127
X90.969Y-233.127
X90.971Y-243.121
X91.069Y-199.677
X91.069Y-201.577
X91.294Y-208.727
X91.513Y-213.653
X91.719Y-192.877
X91.719Y-194.627
X91.719Y-210.377
X91.819Y-206.509
X91.969Y-216.627
X92.194Y-219.627
X92.468Y-193.627
X92.469Y-192.127
X92.469Y-209.627
X92.619Y-206.509
X93.144Y-212.077
X93.169Y-203.827
X93.219Y-192.877
X93.219Y-194.627
X93.219Y-205.377
X93.319Y-199.528
X93.469Y-210.377
X93.469Y-235.627
X93.469Y-240.627
X93.469Y-245.627
X93.469Y-248.627
X93.619Y-219.627
X93.619Y-222.177
X93.969Y-192.127
X93.969Y-193.627
X93.969Y-204.627
X93.969Y-206.127
X94.119Y-207.627
X94.219Y-208.727
X94.219Y-215.077
X94.469Y-228.377
X94.719Y-192.877
X94.719Y-194.627
X94.719Y-205.377
X94.719Y-206.877
X94.969Y-210.377
X94.969Y-211.377
X94.969Y-219.627
X94.969Y-222.177
X95.468Y-199.516
X95.469Y-192.127
X95.469Y-193.627
X95.469Y-195.627
X95.469Y-197.127
X95.469Y-198.627
X95.469Y-203.127
X95.469Y-204.627
X95.469Y-206.127
X95.469Y-207.627
X95.969Y-201.427
X95.969Y-243.127
X96.219Y-192.877
X96.219Y-194.627
X96.219Y-196.377
X96.219Y-206.877
X96.219Y-210.377
X96.219Y-211.377
X96.359Y-232.422
X96.719Y-228.377
X96.969Y-192.127
X96.969Y-193.627
X96.969Y-195.627
X96.969Y-207.627
X96.969Y-217.877
X96.969Y-220.377
X97.144Y-206.002
X97.469Y-210.377
X97.469Y-211.377
X97.684Y-232.422
X97.719Y-192.877
X97.719Y-194.627
X97.744Y-216.477
X97.869Y-206.727
X97.969Y-222.127
X97.969Y-223.377
X97.969Y-224.627
X97.969Y-225.877
X97.969Y-227.127
X98.067Y-212.909
X98.086Y-212.109
X98.369Y-217.877
X98.469Y-192.127
X98.469Y-195.627
X98.469Y-218.877
X98.469Y-245.627
X98.469Y-248.627
X98.472Y-240.627
X98.48Y-220.629
X98.481Y-228.407
X98.544Y-216.477
X98.619Y-193.627
X98.771Y-210.774
X98.969Y-207.627
X98.983Y-221.251
X99.169Y-217.877
X99.216Y-200.377
X99.216Y-201.127
X99.216Y-201.877
X99.219Y-192.877
X99.336Y-211.34
X99.469Y-194.627
X99.899Y-213.822
X99.969Y-192.127
X99.969Y-216.477
X99.969Y-217.877
X100.219Y-193.627
X100.229Y-223.88
X100.268Y-208.948
X100.469Y-207.627
X100.719Y-192.877
X100.834Y-209.514
X100.967Y-228.125
X100.969Y-194.627
X100.969Y-238.127
X100.969Y-243.127
X101.4Y-210.08
X101.469Y-192.127
X101.509Y-213.591
X101.719Y-193.627
X101.969Y-207.627
X101.969Y-221.377
X101.983Y-210.627
X102.219Y-192.877
X102.369Y-232.427
X102.469Y-194.627
X102.662Y-215.627
X102.694Y-220.627
X102.969Y-192.127
X102.969Y-193.627
X103.461Y-219.364
X103.469Y-207.627
X103.469Y-245.627
X103.469Y-248.627
X103.621Y-222.701
X103.719Y-192.877
X103.852Y-221.394
X103.879Y-199.278
X103.89Y-206.028
X103.894Y-233.927
X103.894Y-238.777
X103.894Y-239.977
X103.897Y-235.278
X103.969Y-194.627
X104.145Y-219.989
X104.219Y-208.877
X104.794Y-224.377
X104.969Y-192.127
X104.969Y-193.627
X104.969Y-198.627
X104.969Y-206.127
X104.969Y-207.627
X105.219Y-209.877
X105.594Y-224.377
X105.719Y-192.877
X105.719Y-206.877
X105.844Y-212.446
X105.859Y-220.385
X105.969Y-228.127
X105.969Y-233.127
X106.219Y-208.877
X106.469Y-192.127
X106.469Y-193.627
X106.469Y-198.627
X106.469Y-206.127
X106.469Y-207.627
X107.028Y-220.977
X107.219Y-192.877
X107.396Y-209.252
X107.653Y-220.053
X107.719Y-198.627
X107.969Y-192.127
X107.969Y-193.627
X108.069Y-207.627
X108.258Y-211.877
X108.469Y-230.627
X108.469Y-235.627
X108.469Y-240.627
X108.469Y-245.627
X108.469Y-248.627
X108.494Y-224.403
X108.592Y-209.104
X108.719Y-192.877
X109.219Y-211.602
X109.219Y-218.653
X109.469Y-192.127
X109.469Y-193.627
X109.469Y-207.627
X109.753Y-198.35
X109.753Y-205.1
X109.969Y-208.903
X110.022Y-218.831
X110.219Y-192.877
X110.219Y-206.877
X110.394Y-224.102
X110.605Y-215.639
X110.969Y-192.127
X110.969Y-193.627
X110.969Y-207.627
X110.969Y-228.127
X110.969Y-233.127
X110.969Y-238.127
X110.969Y-243.127
X111.344Y-208.903
X111.394Y-220.702
X111.405Y-215.624
X111.719Y-192.877
X111.719Y-206.877
X112.205Y-215.628
X112.219Y-212.177
X112.469Y-192.127
X112.469Y-193.627
X112.469Y-206.127
X112.469Y-211.252
X112.519Y-210.028
X113.094Y-221.403
X113.094Y-227.127
X113.219Y-192.877
X113.219Y-206.877
X113.469Y-211.127
X113.469Y-212.177
X113.469Y-230.627
X113.469Y-235.627
X113.469Y-240.627
X113.469Y-248.627
X113.67Y-216.279
X113.969Y-192.127
X113.969Y-193.627
X113.969Y-206.127
X114.236Y-211.352
X114.347Y-215.602
X114.719Y-192.877
X114.719Y-206.877
X114.819Y-226.177
X114.869Y-208.427
X115.094Y-217.577
X115.119Y-197.177
X115.119Y-204.677
X115.469Y-192.127
X115.469Y-193.627
X115.819Y-197.177
X115.819Y-204.677
X115.969Y-233.127
X115.969Y-238.127
X115.969Y-243.127
X116.127Y-217.319
X116.169Y-220.802
X116.219Y-192.877
X116.519Y-197.177
X116.519Y-204.677
X116.719Y-230.627
X116.9Y-211.352
X116.969Y-192.127
X116.969Y-193.627
X116.969Y-212.827
X117.719Y-192.877
X117.944Y-210.028
X117.969Y-191.627
X117.969Y-194.627
X117.969Y-199.627
X117.969Y-201.127
X117.969Y-202.627
X118.061Y-221.977
X118.069Y-219.627
X118.469Y-193.627
X118.469Y-214.377
X118.469Y-235.627
X118.469Y-240.627
X118.469Y-245.627
X118.469Y-248.627
X118.694Y-226.627
X118.709Y-223.627
X118.719Y-192.377
X118.719Y-200.377
X118.719Y-201.877
X118.719Y-203.377
X119.219Y-230.627
X119.344Y-212.177
X119.369Y-222.002
X119.419Y-193.127
X119.419Y-199.627
X119.419Y-201.127
X119.419Y-202.627
X119.469Y-191.627
X119.472Y-194.627
X119.734Y-217.127
X119.735Y-218.377
X119.744Y-208.427
X119.959Y-223.627
X119.969Y-215.877
X119.969Y-222.627
X119.969Y-226.627
X120.469Y-212.177
X120.594Y-218.377
X120.594Y-219.627
X120.719Y-234.627
X120.969Y-199.627
X120.969Y-222.127
X121.394Y-208.427
X121.469Y-191.627
X121.469Y-223.627
X121.869Y-226.752
X121.869Y-229.028
X121.969Y-222.127
X123.154Y-198.427
X123.154Y-199.427
X123.219Y-234.627
X123.319Y-239.477
X123.369Y-236.602
X123.369Y-242.327
X123.469Y-191.627
X123.469Y-193.127
X123.469Y-230.627
X123.654Y-197.927
X123.654Y-198.927
X123.654Y-199.927
X123.969Y-245.627
X123.994Y-212.365
X123.994Y-213.84
X123.994Y-217.34
X124.094Y-208.427
X124.154Y-198.427
X124.154Y-199.427
X124.654Y-197.927
X124.654Y-198.927
X124.654Y-199.927
X124.894Y-237.927
X124.894Y-240.977
X124.969Y-193.127
X125.154Y-198.427
X125.154Y-199.427
X125.319Y-209.727
X125.569Y-217.34
X125.969Y-194.127
X125.969Y-195.627
X125.969Y-196.877
X125.969Y-198.127
X125.969Y-202.627
X125.969Y-204.127
X125.969Y-233.127
T3
X86.319Y-192.127
X86.319Y-209.127
X86.319Y-248.627
X86.802Y-190.961
X86.802Y-193.294
X86.802Y-207.961
X86.802Y-210.294
X86.802Y-247.461
X86.802Y-249.794
X87.969Y-190.477
X87.969Y-193.778
X87.969Y-207.477
X87.969Y-210.778
X87.969Y-246.977
X87.969Y-250.277
X89.135Y-190.961
X89.135Y-193.294
X89.135Y-207.961
X89.135Y-210.294
X89.135Y-247.461
X89.135Y-249.794
X89.619Y-192.127
X89.619Y-209.127
X89.619Y-248.627
X122.319Y-248.627
X122.802Y-247.461
X122.802Y-249.794
X123.969Y-246.977
X123.969Y-250.277
X125.135Y-247.461
X125.135Y-249.794
X125.619Y-248.627
T5
X92.994Y-229.702
X93.019Y-218.357
X93.019Y-220.897
X93.019Y-223.438
X93.019Y-225.977
X95.534Y-229.702
X95.559Y-218.357
X95.559Y-220.898
X95.559Y-223.438
X95.559Y-225.977
X98.074Y-229.702
X100.614Y-229.702
X106.569Y-236.977
X106.569Y-241.977
X112.954Y-195.468
X112.954Y-198.007
X112.954Y-202.218
X112.954Y-204.757
X121.069Y-236.977
X121.069Y-239.477
X121.069Y-241.977
X124.794Y-220.477
X124.794Y-223.017
X124.794Y-225.557
X124.794Y-228.097
T6
X92.309Y-237.412
X98.659Y-234.873
T7
X87.969Y-192.127
X87.969Y-209.127
X87.969Y-248.627
X123.969Y-248.627
T4
G00X87.694Y-196.308
M15
G01X87.094Y-196.308
M16
G05
G00X87.694Y-204.947
M15
G01X87.094Y-204.947
M16
G05
G00X92.124Y-196.308
M15
G01X91.024Y-196.308
M16
G05
G00X92.124Y-204.947
M15
G01X91.024Y-204.947
M16
G05
T6
G00X114.219Y-233.877
M15
G01X112.919Y-233.877
M16
G05
G00X114.219Y-245.077
M15
G01X112.919Y-245.077
M16
G05
M30
