%TF.GenerationSoftware,KiCad,Pcbnew,8.0.5*%
%TF.CreationDate,2024-10-25T17:03:13+02:00*%
%TF.ProjectId,Keyboard_PCB,4b657962-6f61-4726-945f-5043422e6b69,rev?*%
%TF.SameCoordinates,Original*%
%TF.FileFunction,Copper,L2,Inr*%
%TF.FilePolarity,Positive*%
%FSLAX46Y46*%
G04 Gerber Fmt 4.6, Leading zero omitted, Abs format (unit mm)*
G04 Created by KiCad (PCBNEW 8.0.5) date 2024-10-25 17:03:13*
%MOMM*%
%LPD*%
G01*
G04 APERTURE LIST*
%TA.AperFunction,ComponentPad*%
%ADD10C,2.200000*%
%TD*%
%TA.AperFunction,ComponentPad*%
%ADD11O,2.100000X1.000000*%
%TD*%
%TA.AperFunction,ComponentPad*%
%ADD12O,1.600000X1.000000*%
%TD*%
%TA.AperFunction,ComponentPad*%
%ADD13R,1.700000X1.700000*%
%TD*%
%TA.AperFunction,ComponentPad*%
%ADD14O,1.700000X1.700000*%
%TD*%
%TA.AperFunction,ComponentPad*%
%ADD15C,0.700000*%
%TD*%
%TA.AperFunction,ComponentPad*%
%ADD16C,4.400000*%
%TD*%
%TA.AperFunction,HeatsinkPad*%
%ADD17C,0.500000*%
%TD*%
%TA.AperFunction,ComponentPad*%
%ADD18R,2.000000X2.000000*%
%TD*%
%TA.AperFunction,ComponentPad*%
%ADD19C,2.000000*%
%TD*%
%TA.AperFunction,ComponentPad*%
%ADD20R,3.200000X2.000000*%
%TD*%
%TA.AperFunction,ViaPad*%
%ADD21C,0.600000*%
%TD*%
%ADD22C,0.300000*%
%ADD23C,0.350000*%
%ADD24O,1.700000X0.600000*%
%ADD25O,1.200000X0.600000*%
%ADD26C,0.200000*%
%ADD27O,2.800000X1.500000*%
G04 APERTURE END LIST*
D10*
%TO.N,/WKUP*%
%TO.C,SW2*%
X98658751Y-234872500D03*
%TO.N,GND*%
X92308751Y-237412500D03*
%TD*%
D11*
%TO.N,unconnected-(J2-SHIELD-PadS1)_3*%
%TO.C,J2*%
X91573750Y-196307500D03*
D12*
%TO.N,unconnected-(J2-SHIELD-PadS1)_2*%
X87393750Y-196307500D03*
D11*
%TO.N,unconnected-(J2-SHIELD-PadS1)_1*%
X91573750Y-204947500D03*
D12*
%TO.N,unconnected-(J2-SHIELD-PadS1)*%
X87393750Y-204947500D03*
%TD*%
D13*
%TO.N,GND*%
%TO.C,J1*%
X92993750Y-229702500D03*
D14*
%TO.N,+3V3*%
X95533750Y-229702500D03*
%TO.N,/I2C_LCD_SCL*%
X98073749Y-229702500D03*
%TO.N,/I2C_LCD_SDA*%
X100613750Y-229702500D03*
%TD*%
D13*
%TO.N,+3V3*%
%TO.C,J5*%
X124793750Y-220477500D03*
D14*
%TO.N,/SWDIO*%
X124793750Y-223017500D03*
%TO.N,/SWCLK*%
X124793750Y-225557499D03*
%TO.N,GND*%
X124793750Y-228097500D03*
%TD*%
D15*
%TO.N,GND*%
%TO.C,H4*%
X122318750Y-248627500D03*
X122802024Y-247460774D03*
X122802024Y-249794226D03*
X123968750Y-246977500D03*
D16*
X123968750Y-248627500D03*
D15*
X123968750Y-250277500D03*
X125135476Y-247460774D03*
X125135476Y-249794226D03*
X125618750Y-248627500D03*
%TD*%
D13*
%TO.N,/USB_PWR/APP_BAT*%
%TO.C,BT1*%
X112953750Y-195467500D03*
D14*
%TO.N,GND*%
X112953750Y-198007500D03*
%TD*%
D15*
%TO.N,GND*%
%TO.C,H2*%
X86318750Y-209127500D03*
X86802024Y-207960774D03*
X86802024Y-210294226D03*
X87968750Y-207477500D03*
D16*
X87968750Y-209127500D03*
D15*
X87968750Y-210777500D03*
X89135476Y-207960774D03*
X89135476Y-210294226D03*
X89618750Y-209127500D03*
%TD*%
D17*
%TO.N,GND*%
%TO.C,U2*%
X122553750Y-195177500D03*
X120353750Y-195177500D03*
X122553750Y-197377500D03*
X120353750Y-197377500D03*
%TD*%
D13*
%TO.N,GND*%
%TO.C,J3*%
X95558750Y-225977500D03*
D14*
%TO.N,+3V3*%
X93018750Y-225977500D03*
%TO.N,/LCD_CLK*%
X95558750Y-223437500D03*
%TO.N,/LCD_MOSI*%
X93018750Y-223437500D03*
%TO.N,/LCD_NRST*%
X95558750Y-220897501D03*
%TO.N,/LCD_DC*%
X93018750Y-220897500D03*
%TO.N,/LCD_NCS*%
X95558750Y-218357500D03*
%TO.N,/LCD_BL*%
X93018750Y-218357500D03*
%TD*%
D18*
%TO.N,/EC11_A*%
%TO.C,SW1*%
X121068750Y-241977500D03*
D19*
%TO.N,/EC11_B*%
X121068750Y-236977500D03*
%TO.N,GND*%
X121068750Y-239477500D03*
D20*
X113568750Y-245077500D03*
X113568750Y-233877500D03*
D19*
%TO.N,/ENC_SW*%
X106568750Y-236977500D03*
%TO.N,GND*%
X106568750Y-241977500D03*
%TD*%
D13*
%TO.N,/USB_PWR/BKUP_BAT*%
%TO.C,BT2*%
X112953750Y-202217500D03*
D14*
%TO.N,GND*%
X112953750Y-204757500D03*
%TD*%
D15*
%TO.N,GND*%
%TO.C,H3*%
X86318750Y-248627500D03*
X86802024Y-247460774D03*
X86802024Y-249794226D03*
X87968750Y-246977500D03*
D16*
X87968750Y-248627500D03*
D15*
X87968750Y-250277500D03*
X89135476Y-247460774D03*
X89135476Y-249794226D03*
X89618750Y-248627500D03*
%TD*%
%TO.N,GND*%
%TO.C,H1*%
X86318750Y-192127500D03*
X86802024Y-190960774D03*
X86802024Y-193294226D03*
X87968750Y-190477500D03*
D16*
X87968750Y-192127500D03*
D15*
X87968750Y-193777500D03*
X89135476Y-190960774D03*
X89135476Y-193294226D03*
X89618750Y-192127500D03*
%TD*%
D17*
%TO.N,GND*%
%TO.C,U4*%
X122553750Y-203877500D03*
X120353750Y-203877500D03*
X122553750Y-206077500D03*
X120353750Y-206077500D03*
%TD*%
D21*
%TO.N,GND*%
X86068750Y-215377500D03*
%TO.N,+3V3*%
X125318750Y-209727500D03*
%TO.N,GND*%
X96968750Y-220377500D03*
X105968750Y-233127500D03*
X86468750Y-228127500D03*
X90968750Y-193627500D03*
X100968750Y-243127500D03*
X118718750Y-201877500D03*
X125968750Y-194127500D03*
X104968750Y-192127500D03*
X113468750Y-235627500D03*
X86468750Y-212127500D03*
X119418750Y-202627500D03*
X109968750Y-208902500D03*
X92468341Y-193627297D03*
X119418750Y-193127500D03*
X96968750Y-217877500D03*
X118468750Y-248627500D03*
X116968750Y-212827500D03*
X94718750Y-206877500D03*
X103893750Y-238777500D03*
X100968750Y-194627500D03*
X101718750Y-193627500D03*
X114718750Y-206877500D03*
X100228628Y-223880405D03*
X93968750Y-193627500D03*
X123218750Y-234627500D03*
X110968750Y-243127500D03*
X94718750Y-205377500D03*
X115468750Y-192127500D03*
X93468750Y-235627500D03*
X114868750Y-208427500D03*
X93218750Y-192877500D03*
X113093750Y-227127500D03*
X110218750Y-192877500D03*
X90968750Y-228127500D03*
X94718750Y-192877500D03*
X118693750Y-226627500D03*
X100718750Y-192877500D03*
X123968750Y-245627500D03*
X104968750Y-206127500D03*
X93218750Y-205377500D03*
X111393750Y-220702500D03*
X106468750Y-192127500D03*
X97968750Y-225877500D03*
X113468750Y-240627500D03*
X118468750Y-235627500D03*
X86068750Y-223377500D03*
X120968750Y-199627500D03*
X96968750Y-195627500D03*
X114718750Y-192877500D03*
X93468750Y-210377500D03*
X98968750Y-207627500D03*
X103893750Y-239977500D03*
X96968750Y-207627500D03*
X118708750Y-223627500D03*
X119471614Y-194627499D03*
X123468750Y-191627500D03*
X104218750Y-208877500D03*
X101968750Y-207627500D03*
X101968750Y-221377500D03*
X112468750Y-192127500D03*
X113468750Y-211127500D03*
X115968750Y-233127500D03*
X106218750Y-208877500D03*
X102468750Y-194627500D03*
X120718750Y-234627500D03*
X117968750Y-201127500D03*
X108468750Y-240627500D03*
X97718750Y-192877500D03*
X107218750Y-192877500D03*
X89468750Y-212127500D03*
X110968750Y-207627500D03*
X94968750Y-211377500D03*
X115093750Y-217577500D03*
X96968750Y-192127500D03*
X104968750Y-207627500D03*
X98468750Y-245627500D03*
X110968750Y-238127500D03*
X112468750Y-206127500D03*
X89868750Y-222127500D03*
X102368750Y-232427500D03*
X95468750Y-197127500D03*
X97968750Y-224627500D03*
X93468750Y-240627500D03*
X108468750Y-248627500D03*
X108468750Y-245627500D03*
X94118750Y-207627500D03*
X97468750Y-211377500D03*
X110968750Y-228127500D03*
X121468750Y-191627500D03*
X99968750Y-192127500D03*
X109468750Y-207627500D03*
X107968750Y-193627500D03*
X113218750Y-192877500D03*
X112468750Y-193627500D03*
X105218750Y-209877500D03*
X94468750Y-228377500D03*
X117968750Y-202627500D03*
X119958750Y-223627500D03*
X99468750Y-194627500D03*
X95468750Y-203127500D03*
X91718750Y-194627500D03*
X105718750Y-192877500D03*
X125568751Y-217339999D03*
X94718750Y-194627500D03*
X100218750Y-193627500D03*
X90218750Y-194627500D03*
X123318750Y-239477500D03*
X91968750Y-216627500D03*
X117968750Y-199627500D03*
X100966938Y-228124923D03*
X97968750Y-227127500D03*
X105718750Y-206877500D03*
X93618750Y-222177500D03*
X114818750Y-226177500D03*
X116718750Y-230627500D03*
X93468750Y-245627500D03*
X110021812Y-218830561D03*
X92468750Y-192127500D03*
X98468750Y-248627500D03*
X120968750Y-222127500D03*
X125968750Y-195627500D03*
X118468750Y-240627500D03*
X95468750Y-206127500D03*
X102693750Y-220627500D03*
X102218750Y-192877500D03*
X97143750Y-206002500D03*
X93968750Y-204627500D03*
X108468750Y-235627500D03*
X121968750Y-222127500D03*
X86068750Y-219127500D03*
X86068750Y-220627500D03*
X118468750Y-245627500D03*
X125968750Y-233127500D03*
X95468750Y-195627500D03*
X116968750Y-193627500D03*
X115468750Y-193627500D03*
X119468750Y-191627500D03*
X89868750Y-220627500D03*
X95468750Y-193627500D03*
X92468750Y-209627500D03*
X125968750Y-204127500D03*
X107718750Y-198627500D03*
X111718750Y-192877500D03*
X93218750Y-194627500D03*
X90968750Y-192127500D03*
X121468750Y-223627500D03*
X119968750Y-226627500D03*
X110968750Y-233127500D03*
X117968750Y-191627500D03*
X95968750Y-243127500D03*
X103620742Y-222700508D03*
X98468750Y-192127500D03*
X117968750Y-194627500D03*
X103468750Y-248627500D03*
X103968750Y-194627500D03*
X115968750Y-243127500D03*
X102661769Y-215627500D03*
X103468750Y-245627500D03*
X113093750Y-221402500D03*
X96218750Y-211377500D03*
X97468750Y-210377500D03*
X93968750Y-206127500D03*
X98468750Y-195627500D03*
X113968750Y-206127500D03*
X96218750Y-192877500D03*
X103468750Y-207627500D03*
X119418750Y-201127500D03*
X100468750Y-207627500D03*
X101468750Y-192127500D03*
X110218750Y-206877500D03*
X124968750Y-193127500D03*
X106468750Y-207627500D03*
X121393750Y-208427500D03*
X90968750Y-209627500D03*
X113968750Y-192127500D03*
X116168750Y-220802500D03*
X118468750Y-214377500D03*
X102968750Y-193627500D03*
X113468750Y-230627500D03*
X116968750Y-192127500D03*
X105843750Y-212445519D03*
X109468750Y-193627500D03*
X107968750Y-192127500D03*
X98468750Y-218877500D03*
X87968750Y-245627500D03*
X95468750Y-204627500D03*
X118718750Y-192377500D03*
X119418750Y-199627500D03*
X118468750Y-193627500D03*
X96718750Y-228377500D03*
X123468750Y-193127500D03*
X97968750Y-222127500D03*
X113468750Y-248627500D03*
X93168750Y-203827500D03*
X106468750Y-198627500D03*
X91718750Y-192877500D03*
X118718750Y-203377500D03*
X113218750Y-206877500D03*
X95468750Y-198627500D03*
X89468750Y-228127500D03*
X96218750Y-210377500D03*
X95468750Y-192127500D03*
X93618750Y-219627500D03*
X110968750Y-193627500D03*
X105968750Y-228127500D03*
X108468750Y-230627500D03*
X104968750Y-193627500D03*
X109468750Y-192127500D03*
X117718750Y-192877500D03*
X96218750Y-206877500D03*
X108493750Y-224402500D03*
X94968750Y-210377500D03*
X96218750Y-196377500D03*
X118068750Y-219627500D03*
X108068750Y-207627500D03*
X108591758Y-209104492D03*
X96968750Y-193627500D03*
X119968750Y-215877500D03*
X118718750Y-200377500D03*
X102968750Y-192127500D03*
X115968750Y-238127500D03*
X97718750Y-194627500D03*
X94218750Y-215077500D03*
X113968750Y-193627500D03*
X110968750Y-192127500D03*
X94968750Y-222177500D03*
X98618750Y-193627500D03*
X111343750Y-208902500D03*
X125968750Y-196877500D03*
X94968750Y-219627500D03*
X125968750Y-198127500D03*
X116218750Y-192877500D03*
X99218750Y-192877500D03*
X108718750Y-192877500D03*
X106468750Y-193627500D03*
X87968750Y-240627500D03*
X100968750Y-238127500D03*
X120468750Y-212177500D03*
X96218750Y-194627500D03*
X87968750Y-235627500D03*
X89868750Y-219127500D03*
X86068750Y-222127500D03*
X93468750Y-248627500D03*
X97868750Y-206727500D03*
X119218750Y-230627500D03*
X95468750Y-207627500D03*
X91718750Y-210377500D03*
X90968750Y-233127500D03*
X90971293Y-243121088D03*
X123468750Y-230627500D03*
X87968750Y-230627500D03*
X111718750Y-206877500D03*
X125968750Y-202627500D03*
X97968750Y-223377500D03*
X119343750Y-212177500D03*
X98471655Y-240627499D03*
X93968750Y-192127500D03*
X103718750Y-192877500D03*
X106468750Y-206127500D03*
X104968750Y-198627500D03*
%TO.N,+3V3*%
X121868750Y-226752500D03*
X124653750Y-198927500D03*
X124153750Y-198427500D03*
X89868750Y-226377500D03*
X89868750Y-217877500D03*
X103893750Y-233927500D03*
X123993751Y-212365000D03*
X123653750Y-199927500D03*
X125153750Y-198427500D03*
X124153750Y-199427500D03*
X112218750Y-212177500D03*
X93143750Y-212077500D03*
X123653750Y-197927500D03*
X123653750Y-198927500D03*
X103852221Y-221394029D03*
X119743750Y-208427500D03*
X123368750Y-236602500D03*
X125153750Y-199427500D03*
X97683750Y-232422500D03*
X113468750Y-212177500D03*
X123993751Y-213840000D03*
X113670463Y-216279213D03*
X99899296Y-213821954D03*
X107395706Y-209251944D03*
X124653750Y-199927500D03*
X123153750Y-198427500D03*
X123153750Y-199427500D03*
X103897344Y-235277500D03*
X96358751Y-232422500D03*
X121868750Y-229027500D03*
X123368750Y-242327500D03*
X124653750Y-197927500D03*
%TO.N,/NRST*%
X117943750Y-210027500D03*
X109218750Y-218652500D03*
%TO.N,/LSE_IN*%
X110393750Y-224102500D03*
X107652970Y-220053014D03*
%TO.N,/VBAT*%
X105859027Y-220385193D03*
X124093750Y-208427500D03*
%TO.N,/ENC_A*%
X98479531Y-220629085D03*
X124893750Y-240977500D03*
%TO.N,/ENC_B*%
X124893750Y-237927500D03*
X98983089Y-221250723D03*
%TO.N,/ENC_SW*%
X97743744Y-216477500D03*
X109218750Y-211602500D03*
X98480811Y-228406555D03*
%TO.N,+5V*%
X115118750Y-197177500D03*
X99216249Y-201877500D03*
X87968750Y-200627500D03*
X115118750Y-204677500D03*
X99216249Y-201127500D03*
X115818750Y-197177500D03*
X99216249Y-200377500D03*
X115818750Y-204677500D03*
X90563750Y-200627500D03*
X116518750Y-197177500D03*
X116518750Y-204677500D03*
%TO.N,/WKUP*%
X107027970Y-220977500D03*
X105593750Y-224377500D03*
%TO.N,/STATUS*%
X116126808Y-217319442D03*
X111405097Y-215624012D03*
X114347177Y-215602499D03*
X123993751Y-217339999D03*
%TO.N,/USB_DN*%
X91293750Y-208727500D03*
X94218750Y-208727500D03*
%TO.N,Net-(FL1-Pad1)*%
X91818747Y-206508899D03*
%TO.N,Net-(FL1-Pad4)*%
X92618750Y-206508899D03*
%TO.N,/SWCLK*%
X99168747Y-217877500D03*
%TO.N,/SWDIO*%
X101509131Y-213590978D03*
X99968750Y-216477500D03*
X99968750Y-217877500D03*
%TO.N,Net-(J2-D+-PadA6)*%
X91068750Y-201577500D03*
%TO.N,Net-(J2-D--PadA7)*%
X91068750Y-199677500D03*
%TO.N,/USB_SENS*%
X93318750Y-199527501D03*
X116899799Y-211352498D03*
X112205090Y-215627790D03*
X95468026Y-199515795D03*
X95968750Y-201427500D03*
X114236460Y-211352500D03*
%TO.N,/LCD_BL*%
X91512877Y-213653343D03*
X104144870Y-219989225D03*
%TO.N,/LCD_DC*%
X100268238Y-208948130D03*
X98086337Y-212108788D03*
X92193750Y-219627500D03*
%TO.N,/LCD_CLK*%
X98770650Y-210773946D03*
X100833925Y-209513817D03*
%TO.N,/LCD_NRST*%
X108258367Y-211876728D03*
X98368744Y-217877500D03*
X98543747Y-216477500D03*
%TO.N,/LCD_MOSI*%
X101983179Y-210626728D03*
X98067404Y-212908566D03*
X90137820Y-222880896D03*
%TO.N,/LCD_NCS*%
X101399612Y-210079505D03*
X99336337Y-211339633D03*
X90959867Y-224502501D03*
%TO.N,Net-(J4-Pin_21)*%
X89743750Y-216629343D03*
%TO.N,/BOOT0*%
X112518750Y-210027500D03*
X103461025Y-219364226D03*
%TO.N,/FLASH_CLK*%
X119734867Y-218377500D03*
X119368750Y-222002500D03*
%TO.N,/FLASH_NRST*%
X119968750Y-222627500D03*
X110605235Y-215638985D03*
%TO.N,/FLASH_MISO*%
X120593750Y-218377500D03*
X120593750Y-219627500D03*
%TO.N,/FLASH_MOSI*%
X118061229Y-221977500D03*
X119734025Y-217127500D03*
%TO.N,Net-(U5-~{PG})*%
X103879331Y-199277500D03*
X109752908Y-198350167D03*
%TO.N,Net-(U6-~{PG})*%
X103890203Y-206027500D03*
X109752908Y-205100167D03*
%TO.N,Net-(JP2-B)*%
X112468750Y-211252500D03*
X104793747Y-224377500D03*
%TD*%
%TA.AperFunction,Conductor*%
%TO.N,GND*%
G36*
X125917545Y-189378001D02*
G01*
X125924590Y-189378000D01*
X125924593Y-189378002D01*
X125965130Y-189378000D01*
X125972378Y-189378355D01*
X126107738Y-189391681D01*
X126121963Y-189394510D01*
X126248619Y-189432926D01*
X126262021Y-189438476D01*
X126378755Y-189500867D01*
X126390807Y-189508918D01*
X126493125Y-189592883D01*
X126503382Y-189603140D01*
X126587355Y-189705455D01*
X126595416Y-189717518D01*
X126657809Y-189834244D01*
X126663360Y-189847646D01*
X126701781Y-189974297D01*
X126704612Y-189988526D01*
X126717894Y-190123377D01*
X126718250Y-190130630D01*
X126718250Y-250623861D01*
X126717894Y-250631114D01*
X126704563Y-250766463D01*
X126701732Y-250780692D01*
X126663314Y-250907334D01*
X126657763Y-250920737D01*
X126595372Y-251037457D01*
X126587312Y-251049518D01*
X126503353Y-251151818D01*
X126493095Y-251162076D01*
X126390788Y-251246033D01*
X126378725Y-251254093D01*
X126261999Y-251316478D01*
X126248596Y-251322028D01*
X126121955Y-251360439D01*
X126107727Y-251363269D01*
X125971876Y-251376643D01*
X125964624Y-251376999D01*
X125930820Y-251376998D01*
X125924593Y-251376998D01*
X125924592Y-251376998D01*
X125917545Y-251376998D01*
X125917525Y-251377000D01*
X86019975Y-251377000D01*
X86019954Y-251376998D01*
X86012907Y-251376998D01*
X86006803Y-251376998D01*
X85972371Y-251376999D01*
X85965119Y-251376643D01*
X85829762Y-251363318D01*
X85815534Y-251360488D01*
X85688880Y-251322073D01*
X85675477Y-251316522D01*
X85558747Y-251254134D01*
X85546690Y-251246079D01*
X85444373Y-251162115D01*
X85434117Y-251151859D01*
X85350144Y-251049544D01*
X85342083Y-251037481D01*
X85342070Y-251037457D01*
X85279688Y-250920752D01*
X85274139Y-250907353D01*
X85235716Y-250780692D01*
X85232888Y-250766480D01*
X85219606Y-250631621D01*
X85219250Y-250624368D01*
X85219250Y-239853960D01*
X90038251Y-239853960D01*
X90038251Y-240051039D01*
X90076698Y-240244329D01*
X90076701Y-240244339D01*
X90152118Y-240426413D01*
X90261611Y-240590281D01*
X90400969Y-240729639D01*
X90564837Y-240839132D01*
X90725506Y-240905683D01*
X90746916Y-240914551D01*
X90940210Y-240953000D01*
X90940212Y-240953000D01*
X91137290Y-240953000D01*
X91137292Y-240953000D01*
X91330586Y-240914551D01*
X91512665Y-240839132D01*
X91676533Y-240729639D01*
X91815890Y-240590282D01*
X91925383Y-240426414D01*
X92000802Y-240244335D01*
X92039251Y-240051041D01*
X92039251Y-239853959D01*
X92030815Y-239811550D01*
X93968251Y-239811550D01*
X93968251Y-240093449D01*
X94005045Y-240372934D01*
X94078006Y-240645231D01*
X94078010Y-240645242D01*
X94185884Y-240905674D01*
X94185887Y-240905682D01*
X94309598Y-241119954D01*
X94326839Y-241149817D01*
X94498451Y-241373465D01*
X94697786Y-241572800D01*
X94921434Y-241744412D01*
X95165568Y-241885363D01*
X95426012Y-241993242D01*
X95698309Y-242066204D01*
X95698315Y-242066204D01*
X95698316Y-242066205D01*
X95698315Y-242066205D01*
X95822345Y-242082533D01*
X95977800Y-242103000D01*
X95977802Y-242103000D01*
X96259700Y-242103000D01*
X96259702Y-242103000D01*
X96539193Y-242066204D01*
X96811490Y-241993242D01*
X97071934Y-241885363D01*
X97316068Y-241744412D01*
X97539716Y-241572800D01*
X97739051Y-241373465D01*
X97910663Y-241149817D01*
X98021551Y-240957753D01*
X119868250Y-240957753D01*
X119868250Y-242997246D01*
X119879883Y-243055732D01*
X119909358Y-243099843D01*
X119924198Y-243122052D01*
X119968310Y-243151527D01*
X119990517Y-243166366D01*
X119990518Y-243166366D01*
X119990519Y-243166367D01*
X120049002Y-243178000D01*
X120049004Y-243178000D01*
X122088496Y-243178000D01*
X122088498Y-243178000D01*
X122146981Y-243166367D01*
X122213302Y-243122052D01*
X122257617Y-243055731D01*
X122269250Y-242997248D01*
X122269250Y-242327500D01*
X122863103Y-242327500D01*
X122883584Y-242469954D01*
X122943373Y-242600873D01*
X123037618Y-242709639D01*
X123037619Y-242709640D01*
X123037622Y-242709643D01*
X123158697Y-242787453D01*
X123265153Y-242818711D01*
X123296785Y-242827999D01*
X123296787Y-242828000D01*
X123296789Y-242828000D01*
X123440713Y-242828000D01*
X123440714Y-242827999D01*
X123578803Y-242787453D01*
X123699878Y-242709643D01*
X123794127Y-242600873D01*
X123853915Y-242469957D01*
X123874397Y-242327500D01*
X123853915Y-242185043D01*
X123794127Y-242054127D01*
X123699878Y-241945357D01*
X123642932Y-241908760D01*
X123578804Y-241867547D01*
X123578800Y-241867546D01*
X123440714Y-241827000D01*
X123440711Y-241827000D01*
X123296789Y-241827000D01*
X123296786Y-241827000D01*
X123158699Y-241867546D01*
X123158695Y-241867547D01*
X123037625Y-241945355D01*
X123037618Y-241945360D01*
X122943373Y-242054126D01*
X122883584Y-242185045D01*
X122863103Y-242327500D01*
X122269250Y-242327500D01*
X122269250Y-240977500D01*
X124388103Y-240977500D01*
X124408584Y-241119954D01*
X124408584Y-241119955D01*
X124408585Y-241119957D01*
X124422222Y-241149817D01*
X124468373Y-241250873D01*
X124562618Y-241359639D01*
X124562619Y-241359640D01*
X124562622Y-241359643D01*
X124683697Y-241437453D01*
X124790153Y-241468711D01*
X124821785Y-241477999D01*
X124821787Y-241478000D01*
X124821789Y-241478000D01*
X124965713Y-241478000D01*
X124965714Y-241477999D01*
X125103803Y-241437453D01*
X125224878Y-241359643D01*
X125319127Y-241250873D01*
X125378915Y-241119957D01*
X125399397Y-240977500D01*
X125378915Y-240835043D01*
X125319127Y-240704127D01*
X125224878Y-240595357D01*
X125167932Y-240558760D01*
X125103804Y-240517547D01*
X125103800Y-240517546D01*
X124965714Y-240477000D01*
X124965711Y-240477000D01*
X124821789Y-240477000D01*
X124821786Y-240477000D01*
X124683699Y-240517546D01*
X124683695Y-240517547D01*
X124562625Y-240595355D01*
X124562618Y-240595360D01*
X124468373Y-240704126D01*
X124408584Y-240835045D01*
X124388103Y-240977500D01*
X122269250Y-240977500D01*
X122269250Y-240957752D01*
X122257617Y-240899269D01*
X122213302Y-240832948D01*
X122191093Y-240818108D01*
X122146982Y-240788633D01*
X122146983Y-240788633D01*
X122117739Y-240782816D01*
X122088498Y-240777000D01*
X120049002Y-240777000D01*
X120019760Y-240782816D01*
X119990517Y-240788633D01*
X119924199Y-240832947D01*
X119924197Y-240832949D01*
X119879883Y-240899267D01*
X119868250Y-240957753D01*
X98021551Y-240957753D01*
X98051614Y-240905683D01*
X98159493Y-240645239D01*
X98232455Y-240372942D01*
X98269251Y-240093451D01*
X98269251Y-239853960D01*
X100198251Y-239853960D01*
X100198251Y-240051039D01*
X100236698Y-240244329D01*
X100236701Y-240244339D01*
X100312118Y-240426413D01*
X100421611Y-240590281D01*
X100560969Y-240729639D01*
X100724837Y-240839132D01*
X100885506Y-240905683D01*
X100906916Y-240914551D01*
X101100210Y-240953000D01*
X101100212Y-240953000D01*
X101297290Y-240953000D01*
X101297292Y-240953000D01*
X101490586Y-240914551D01*
X101672665Y-240839132D01*
X101836533Y-240729639D01*
X101975890Y-240590282D01*
X102085383Y-240426414D01*
X102160802Y-240244335D01*
X102199251Y-240051041D01*
X102199251Y-239853959D01*
X102160802Y-239660665D01*
X102085383Y-239478586D01*
X101975890Y-239314718D01*
X101836533Y-239175361D01*
X101672665Y-239065868D01*
X101672666Y-239065868D01*
X101672664Y-239065867D01*
X101490590Y-238990450D01*
X101490580Y-238990447D01*
X101361139Y-238964700D01*
X101297292Y-238952000D01*
X101100210Y-238952000D01*
X101045413Y-238962899D01*
X100906921Y-238990447D01*
X100906911Y-238990450D01*
X100724837Y-239065867D01*
X100560969Y-239175360D01*
X100560968Y-239175362D01*
X100421613Y-239314717D01*
X100421611Y-239314718D01*
X100312118Y-239478586D01*
X100236701Y-239660660D01*
X100236698Y-239660670D01*
X100198251Y-239853960D01*
X98269251Y-239853960D01*
X98269251Y-239811549D01*
X98232455Y-239532058D01*
X98159493Y-239259761D01*
X98051614Y-238999317D01*
X97910663Y-238755183D01*
X97739051Y-238531535D01*
X97539716Y-238332200D01*
X97316068Y-238160588D01*
X97316069Y-238160588D01*
X97316067Y-238160587D01*
X97071933Y-238019636D01*
X97071925Y-238019633D01*
X96811493Y-237911759D01*
X96811482Y-237911755D01*
X96578287Y-237849271D01*
X96539193Y-237838796D01*
X96539191Y-237838795D01*
X96539185Y-237838794D01*
X96539186Y-237838794D01*
X96314547Y-237809220D01*
X96259702Y-237802000D01*
X95977800Y-237802000D01*
X95922954Y-237809220D01*
X95698316Y-237838794D01*
X95426019Y-237911755D01*
X95426008Y-237911759D01*
X95165576Y-238019633D01*
X95165568Y-238019636D01*
X94921434Y-238160587D01*
X94697781Y-238332204D01*
X94498455Y-238531530D01*
X94326838Y-238755183D01*
X94185887Y-238999317D01*
X94185884Y-238999325D01*
X94078010Y-239259757D01*
X94078006Y-239259768D01*
X94005045Y-239532065D01*
X93968251Y-239811550D01*
X92030815Y-239811550D01*
X92000802Y-239660665D01*
X91925383Y-239478586D01*
X91815890Y-239314718D01*
X91676533Y-239175361D01*
X91512665Y-239065868D01*
X91512666Y-239065868D01*
X91512664Y-239065867D01*
X91330590Y-238990450D01*
X91330580Y-238990447D01*
X91201139Y-238964700D01*
X91137292Y-238952000D01*
X90940210Y-238952000D01*
X90885413Y-238962899D01*
X90746921Y-238990447D01*
X90746911Y-238990450D01*
X90564837Y-239065867D01*
X90400969Y-239175360D01*
X90400968Y-239175362D01*
X90261613Y-239314717D01*
X90261611Y-239314718D01*
X90152118Y-239478586D01*
X90076701Y-239660660D01*
X90076698Y-239660670D01*
X90038251Y-239853960D01*
X85219250Y-239853960D01*
X85219250Y-236977496D01*
X105363107Y-236977496D01*
X105363107Y-236977503D01*
X105383633Y-237199024D01*
X105383635Y-237199036D01*
X105444521Y-237413028D01*
X105494106Y-237512608D01*
X105543692Y-237612190D01*
X105543694Y-237612193D01*
X105674225Y-237785043D01*
X105677769Y-237789736D01*
X105842188Y-237939624D01*
X106031349Y-238056747D01*
X106238810Y-238137118D01*
X106457507Y-238178000D01*
X106679993Y-238178000D01*
X106898690Y-238137118D01*
X107106151Y-238056747D01*
X107295312Y-237939624D01*
X107459731Y-237789736D01*
X107593808Y-237612189D01*
X107692979Y-237413028D01*
X107753865Y-237199036D01*
X107773731Y-236984643D01*
X107774393Y-236977503D01*
X107774393Y-236977496D01*
X119863107Y-236977496D01*
X119863107Y-236977503D01*
X119883633Y-237199024D01*
X119883635Y-237199036D01*
X119944521Y-237413028D01*
X119994106Y-237512608D01*
X120043692Y-237612190D01*
X120043694Y-237612193D01*
X120174225Y-237785043D01*
X120177769Y-237789736D01*
X120342188Y-237939624D01*
X120531349Y-238056747D01*
X120738810Y-238137118D01*
X120957507Y-238178000D01*
X121179993Y-238178000D01*
X121398690Y-238137118D01*
X121606151Y-238056747D01*
X121795312Y-237939624D01*
X121808611Y-237927500D01*
X124388103Y-237927500D01*
X124408584Y-238069954D01*
X124468373Y-238200873D01*
X124562618Y-238309639D01*
X124562619Y-238309640D01*
X124562622Y-238309643D01*
X124683697Y-238387453D01*
X124790153Y-238418711D01*
X124821785Y-238427999D01*
X124821787Y-238428000D01*
X124821789Y-238428000D01*
X124965713Y-238428000D01*
X124965714Y-238427999D01*
X125103803Y-238387453D01*
X125224878Y-238309643D01*
X125319127Y-238200873D01*
X125378915Y-238069957D01*
X125399397Y-237927500D01*
X125378915Y-237785043D01*
X125319127Y-237654127D01*
X125224878Y-237545357D01*
X125167932Y-237508760D01*
X125103804Y-237467547D01*
X125103800Y-237467546D01*
X124965714Y-237427000D01*
X124965711Y-237427000D01*
X124821789Y-237427000D01*
X124821786Y-237427000D01*
X124683699Y-237467546D01*
X124683695Y-237467547D01*
X124562625Y-237545355D01*
X124562618Y-237545360D01*
X124468373Y-237654126D01*
X124408584Y-237785045D01*
X124388103Y-237927500D01*
X121808611Y-237927500D01*
X121959731Y-237789736D01*
X122093808Y-237612189D01*
X122192979Y-237413028D01*
X122253865Y-237199036D01*
X122273731Y-236984643D01*
X122274393Y-236977503D01*
X122274393Y-236977496D01*
X122253866Y-236755975D01*
X122253865Y-236755964D01*
X122210201Y-236602500D01*
X122863103Y-236602500D01*
X122883584Y-236744954D01*
X122943373Y-236875873D01*
X123037618Y-236984639D01*
X123037619Y-236984640D01*
X123037622Y-236984643D01*
X123158697Y-237062453D01*
X123265153Y-237093711D01*
X123296785Y-237102999D01*
X123296787Y-237103000D01*
X123296789Y-237103000D01*
X123440713Y-237103000D01*
X123440714Y-237102999D01*
X123578803Y-237062453D01*
X123699878Y-236984643D01*
X123794127Y-236875873D01*
X123853915Y-236744957D01*
X123874397Y-236602500D01*
X123853915Y-236460043D01*
X123794127Y-236329127D01*
X123699878Y-236220357D01*
X123633919Y-236177968D01*
X123578804Y-236142547D01*
X123578800Y-236142546D01*
X123440714Y-236102000D01*
X123440711Y-236102000D01*
X123296789Y-236102000D01*
X123296786Y-236102000D01*
X123158699Y-236142546D01*
X123158695Y-236142547D01*
X123037625Y-236220355D01*
X123037618Y-236220360D01*
X122943373Y-236329126D01*
X122883584Y-236460045D01*
X122863103Y-236602500D01*
X122210201Y-236602500D01*
X122192979Y-236541972D01*
X122093808Y-236342811D01*
X122093807Y-236342810D01*
X122093807Y-236342809D01*
X122093805Y-236342806D01*
X121993915Y-236210532D01*
X121959731Y-236165264D01*
X121795312Y-236015376D01*
X121606151Y-235898253D01*
X121539794Y-235872546D01*
X121398692Y-235817882D01*
X121179996Y-235777000D01*
X121179993Y-235777000D01*
X120957507Y-235777000D01*
X120957503Y-235777000D01*
X120738807Y-235817882D01*
X120531354Y-235898251D01*
X120531349Y-235898253D01*
X120531344Y-235898255D01*
X120531344Y-235898256D01*
X120342190Y-236015374D01*
X120342188Y-236015376D01*
X120202689Y-236142547D01*
X120177766Y-236165267D01*
X120043694Y-236342806D01*
X120043692Y-236342809D01*
X119944521Y-236541972D01*
X119944519Y-236541977D01*
X119883635Y-236755962D01*
X119883633Y-236755975D01*
X119863107Y-236977496D01*
X107774393Y-236977496D01*
X107753866Y-236755975D01*
X107753865Y-236755964D01*
X107692979Y-236541972D01*
X107593808Y-236342811D01*
X107593807Y-236342810D01*
X107593807Y-236342809D01*
X107593805Y-236342806D01*
X107493915Y-236210532D01*
X107459731Y-236165264D01*
X107295312Y-236015376D01*
X107106151Y-235898253D01*
X107039794Y-235872546D01*
X106898692Y-235817882D01*
X106679996Y-235777000D01*
X106679993Y-235777000D01*
X106457507Y-235777000D01*
X106457503Y-235777000D01*
X106238807Y-235817882D01*
X106031354Y-235898251D01*
X106031349Y-235898253D01*
X106031344Y-235898255D01*
X106031344Y-235898256D01*
X105842190Y-236015374D01*
X105842188Y-236015376D01*
X105702689Y-236142547D01*
X105677766Y-236165267D01*
X105543694Y-236342806D01*
X105543692Y-236342809D01*
X105444521Y-236541972D01*
X105444519Y-236541977D01*
X105383635Y-236755962D01*
X105383633Y-236755975D01*
X105363107Y-236977496D01*
X85219250Y-236977496D01*
X85219250Y-234872494D01*
X97353283Y-234872494D01*
X97353283Y-234872505D01*
X97373115Y-235099188D01*
X97373116Y-235099196D01*
X97432009Y-235318988D01*
X97432011Y-235318992D01*
X97432012Y-235318996D01*
X97528183Y-235525234D01*
X97528185Y-235525236D01*
X97528186Y-235525239D01*
X97622296Y-235659643D01*
X97658704Y-235711639D01*
X97819612Y-235872547D01*
X98006017Y-236003068D01*
X98212255Y-236099239D01*
X98212261Y-236099240D01*
X98212262Y-236099241D01*
X98432054Y-236158134D01*
X98432056Y-236158134D01*
X98432059Y-236158135D01*
X98513544Y-236165264D01*
X98658746Y-236177968D01*
X98658751Y-236177968D01*
X98658756Y-236177968D01*
X98784691Y-236166949D01*
X98885443Y-236158135D01*
X99105247Y-236099239D01*
X99311485Y-236003068D01*
X99497890Y-235872547D01*
X99658798Y-235711639D01*
X99789319Y-235525234D01*
X99885490Y-235318996D01*
X99896609Y-235277500D01*
X103391697Y-235277500D01*
X103412178Y-235419954D01*
X103471967Y-235550873D01*
X103566212Y-235659639D01*
X103566213Y-235659640D01*
X103566216Y-235659643D01*
X103687291Y-235737453D01*
X103793747Y-235768711D01*
X103825379Y-235777999D01*
X103825381Y-235778000D01*
X103825383Y-235778000D01*
X103969307Y-235778000D01*
X103969308Y-235777999D01*
X104107397Y-235737453D01*
X104228472Y-235659643D01*
X104322721Y-235550873D01*
X104382509Y-235419957D01*
X104402991Y-235277500D01*
X104382509Y-235135043D01*
X104322721Y-235004127D01*
X104228472Y-234895357D01*
X104171526Y-234858760D01*
X104107398Y-234817547D01*
X104107394Y-234817546D01*
X103969308Y-234777000D01*
X103969305Y-234777000D01*
X103825383Y-234777000D01*
X103825380Y-234777000D01*
X103687293Y-234817546D01*
X103687289Y-234817547D01*
X103566219Y-234895355D01*
X103566212Y-234895360D01*
X103471967Y-235004126D01*
X103412178Y-235135045D01*
X103391697Y-235277500D01*
X99896609Y-235277500D01*
X99944386Y-235099192D01*
X99962219Y-234895360D01*
X99964219Y-234872505D01*
X99964219Y-234872494D01*
X99944386Y-234645811D01*
X99944385Y-234645803D01*
X99885492Y-234426011D01*
X99885491Y-234426010D01*
X99885490Y-234426004D01*
X99789319Y-234219766D01*
X99658798Y-234033361D01*
X99552937Y-233927500D01*
X103388103Y-233927500D01*
X103408584Y-234069954D01*
X103468373Y-234200873D01*
X103562618Y-234309639D01*
X103562619Y-234309640D01*
X103562622Y-234309643D01*
X103683697Y-234387453D01*
X103790153Y-234418711D01*
X103821785Y-234427999D01*
X103821787Y-234428000D01*
X103821789Y-234428000D01*
X103965713Y-234428000D01*
X103965714Y-234427999D01*
X104103803Y-234387453D01*
X104224878Y-234309643D01*
X104319127Y-234200873D01*
X104378915Y-234069957D01*
X104399397Y-233927500D01*
X104378915Y-233785043D01*
X104319127Y-233654127D01*
X104260844Y-233586864D01*
X104224881Y-233545360D01*
X104224879Y-233545359D01*
X104224878Y-233545357D01*
X104167932Y-233508760D01*
X104103804Y-233467547D01*
X104103800Y-233467546D01*
X103965714Y-233427000D01*
X103965711Y-233427000D01*
X103821789Y-233427000D01*
X103821786Y-233427000D01*
X103683699Y-233467546D01*
X103683695Y-233467547D01*
X103562625Y-233545355D01*
X103562618Y-233545360D01*
X103468373Y-233654126D01*
X103408584Y-233785045D01*
X103388103Y-233927500D01*
X99552937Y-233927500D01*
X99497890Y-233872453D01*
X99311490Y-233741935D01*
X99311487Y-233741934D01*
X99311485Y-233741932D01*
X99105247Y-233645761D01*
X99105243Y-233645760D01*
X99105239Y-233645758D01*
X98885447Y-233586865D01*
X98885439Y-233586864D01*
X98658756Y-233567032D01*
X98658746Y-233567032D01*
X98432062Y-233586864D01*
X98432054Y-233586865D01*
X98212262Y-233645758D01*
X98212255Y-233645760D01*
X98212255Y-233645761D01*
X98194317Y-233654126D01*
X98006011Y-233741935D01*
X97819611Y-233872453D01*
X97658704Y-234033360D01*
X97528186Y-234219760D01*
X97528183Y-234219765D01*
X97528183Y-234219766D01*
X97486272Y-234309644D01*
X97432014Y-234426000D01*
X97432009Y-234426011D01*
X97373116Y-234645803D01*
X97373115Y-234645811D01*
X97353283Y-234872494D01*
X85219250Y-234872494D01*
X85219250Y-232422500D01*
X95853104Y-232422500D01*
X95873585Y-232564954D01*
X95933374Y-232695873D01*
X96027619Y-232804639D01*
X96027620Y-232804640D01*
X96027623Y-232804643D01*
X96148698Y-232882453D01*
X96255154Y-232913711D01*
X96286786Y-232922999D01*
X96286788Y-232923000D01*
X96286790Y-232923000D01*
X96430714Y-232923000D01*
X96430715Y-232922999D01*
X96568804Y-232882453D01*
X96689879Y-232804643D01*
X96784128Y-232695873D01*
X96843916Y-232564957D01*
X96864398Y-232422500D01*
X97178103Y-232422500D01*
X97198584Y-232564954D01*
X97258373Y-232695873D01*
X97352618Y-232804639D01*
X97352619Y-232804640D01*
X97352622Y-232804643D01*
X97473697Y-232882453D01*
X97580153Y-232913711D01*
X97611785Y-232922999D01*
X97611787Y-232923000D01*
X97611789Y-232923000D01*
X97755713Y-232923000D01*
X97755714Y-232922999D01*
X97893803Y-232882453D01*
X98014878Y-232804643D01*
X98109127Y-232695873D01*
X98168915Y-232564957D01*
X98189397Y-232422500D01*
X98168915Y-232280043D01*
X98109127Y-232149127D01*
X98014878Y-232040357D01*
X97957932Y-232003760D01*
X97893804Y-231962547D01*
X97893800Y-231962546D01*
X97755714Y-231922000D01*
X97755711Y-231922000D01*
X97611789Y-231922000D01*
X97611786Y-231922000D01*
X97473699Y-231962546D01*
X97473695Y-231962547D01*
X97352625Y-232040355D01*
X97352618Y-232040360D01*
X97258373Y-232149126D01*
X97198584Y-232280045D01*
X97178103Y-232422500D01*
X96864398Y-232422500D01*
X96843916Y-232280043D01*
X96784128Y-232149127D01*
X96689879Y-232040357D01*
X96632933Y-232003760D01*
X96568805Y-231962547D01*
X96568801Y-231962546D01*
X96430715Y-231922000D01*
X96430712Y-231922000D01*
X96286790Y-231922000D01*
X96286787Y-231922000D01*
X96148700Y-231962546D01*
X96148696Y-231962547D01*
X96027626Y-232040355D01*
X96027619Y-232040360D01*
X95933374Y-232149126D01*
X95873585Y-232280045D01*
X95853104Y-232422500D01*
X85219250Y-232422500D01*
X85219250Y-229702500D01*
X94478167Y-229702500D01*
X94498450Y-229908434D01*
X94558518Y-230106454D01*
X94656065Y-230288950D01*
X94787340Y-230448910D01*
X94947300Y-230580185D01*
X95129796Y-230677732D01*
X95327816Y-230737800D01*
X95533750Y-230758083D01*
X95739684Y-230737800D01*
X95937704Y-230677732D01*
X96120200Y-230580185D01*
X96280160Y-230448910D01*
X96411435Y-230288950D01*
X96508982Y-230106454D01*
X96569050Y-229908434D01*
X96589333Y-229702500D01*
X97018166Y-229702500D01*
X97038449Y-229908434D01*
X97098517Y-230106454D01*
X97196064Y-230288950D01*
X97327339Y-230448910D01*
X97487299Y-230580185D01*
X97669795Y-230677732D01*
X97867815Y-230737800D01*
X98073749Y-230758083D01*
X98279683Y-230737800D01*
X98477703Y-230677732D01*
X98660199Y-230580185D01*
X98820159Y-230448910D01*
X98951434Y-230288950D01*
X99048981Y-230106454D01*
X99109049Y-229908434D01*
X99129332Y-229702500D01*
X99558167Y-229702500D01*
X99578450Y-229908434D01*
X99638518Y-230106454D01*
X99736065Y-230288950D01*
X99867340Y-230448910D01*
X100027300Y-230580185D01*
X100209796Y-230677732D01*
X100407816Y-230737800D01*
X100613750Y-230758083D01*
X100819684Y-230737800D01*
X101017704Y-230677732D01*
X101200200Y-230580185D01*
X101360160Y-230448910D01*
X101491435Y-230288950D01*
X101588982Y-230106454D01*
X101649050Y-229908434D01*
X101669333Y-229702500D01*
X101649050Y-229496566D01*
X101588982Y-229298546D01*
X101491435Y-229116050D01*
X101418764Y-229027500D01*
X121363103Y-229027500D01*
X121383584Y-229169954D01*
X121443373Y-229300873D01*
X121537618Y-229409639D01*
X121537619Y-229409640D01*
X121537622Y-229409643D01*
X121658697Y-229487453D01*
X121765153Y-229518711D01*
X121796785Y-229527999D01*
X121796787Y-229528000D01*
X121796789Y-229528000D01*
X121940713Y-229528000D01*
X121940714Y-229527999D01*
X122078803Y-229487453D01*
X122199878Y-229409643D01*
X122294127Y-229300873D01*
X122353915Y-229169957D01*
X122374397Y-229027500D01*
X122353915Y-228885043D01*
X122294127Y-228754127D01*
X122212755Y-228660218D01*
X122199881Y-228645360D01*
X122199879Y-228645359D01*
X122199878Y-228645357D01*
X122142932Y-228608760D01*
X122078804Y-228567547D01*
X122078800Y-228567546D01*
X121940714Y-228527000D01*
X121940711Y-228527000D01*
X121796789Y-228527000D01*
X121796786Y-228527000D01*
X121658699Y-228567546D01*
X121658695Y-228567547D01*
X121537625Y-228645355D01*
X121537618Y-228645360D01*
X121443373Y-228754126D01*
X121383584Y-228885045D01*
X121363103Y-229027500D01*
X101418764Y-229027500D01*
X101360160Y-228956090D01*
X101273588Y-228885043D01*
X101200200Y-228824815D01*
X101017706Y-228727269D01*
X101017705Y-228727268D01*
X101017704Y-228727268D01*
X100905908Y-228693355D01*
X100819685Y-228667200D01*
X100613750Y-228646917D01*
X100407814Y-228667200D01*
X100209793Y-228727269D01*
X100027299Y-228824815D01*
X99867340Y-228956089D01*
X99867339Y-228956090D01*
X99736065Y-229116049D01*
X99638519Y-229298543D01*
X99578450Y-229496564D01*
X99578450Y-229496566D01*
X99558167Y-229702500D01*
X99129332Y-229702500D01*
X99109049Y-229496566D01*
X99048981Y-229298546D01*
X98951434Y-229116050D01*
X98820159Y-228956090D01*
X98780742Y-228923741D01*
X98754044Y-228873793D01*
X98770485Y-228819595D01*
X98787683Y-228804286D01*
X98811935Y-228788701D01*
X98811942Y-228788695D01*
X98865168Y-228727268D01*
X98906188Y-228679928D01*
X98965976Y-228549012D01*
X98986458Y-228406555D01*
X98965976Y-228264098D01*
X98906188Y-228133182D01*
X98811939Y-228024412D01*
X98754993Y-227987815D01*
X98690865Y-227946602D01*
X98690861Y-227946601D01*
X98552775Y-227906055D01*
X98552772Y-227906055D01*
X98408850Y-227906055D01*
X98408847Y-227906055D01*
X98270760Y-227946601D01*
X98270756Y-227946602D01*
X98149686Y-228024410D01*
X98149679Y-228024415D01*
X98055434Y-228133181D01*
X97995645Y-228264100D01*
X97975164Y-228406555D01*
X97995645Y-228549008D01*
X97995645Y-228549009D01*
X97995646Y-228549012D01*
X97998762Y-228555835D01*
X98000783Y-228612434D01*
X97962190Y-228653887D01*
X97938703Y-228660218D01*
X97867813Y-228667200D01*
X97669792Y-228727269D01*
X97487298Y-228824815D01*
X97327339Y-228956089D01*
X97327338Y-228956090D01*
X97196064Y-229116049D01*
X97098518Y-229298543D01*
X97038449Y-229496564D01*
X97038449Y-229496566D01*
X97018166Y-229702500D01*
X96589333Y-229702500D01*
X96569050Y-229496566D01*
X96508982Y-229298546D01*
X96411435Y-229116050D01*
X96280160Y-228956090D01*
X96193588Y-228885043D01*
X96120200Y-228824815D01*
X95937706Y-228727269D01*
X95937705Y-228727268D01*
X95937704Y-228727268D01*
X95825908Y-228693355D01*
X95739685Y-228667200D01*
X95533750Y-228646917D01*
X95327814Y-228667200D01*
X95129793Y-228727269D01*
X94947299Y-228824815D01*
X94787340Y-228956089D01*
X94787339Y-228956090D01*
X94656065Y-229116049D01*
X94558519Y-229298543D01*
X94498450Y-229496564D01*
X94498450Y-229496566D01*
X94478167Y-229702500D01*
X85219250Y-229702500D01*
X85219250Y-226377500D01*
X89363103Y-226377500D01*
X89383584Y-226519954D01*
X89443373Y-226650873D01*
X89537618Y-226759639D01*
X89537619Y-226759640D01*
X89537622Y-226759643D01*
X89658697Y-226837453D01*
X89765153Y-226868711D01*
X89796785Y-226877999D01*
X89796787Y-226878000D01*
X89796789Y-226878000D01*
X89940713Y-226878000D01*
X89940714Y-226877999D01*
X90078803Y-226837453D01*
X90199878Y-226759643D01*
X90294127Y-226650873D01*
X90353915Y-226519957D01*
X90374397Y-226377500D01*
X90353915Y-226235043D01*
X90294127Y-226104127D01*
X90199878Y-225995357D01*
X90172092Y-225977500D01*
X91963167Y-225977500D01*
X91983450Y-226183434D01*
X92040151Y-226370355D01*
X92043519Y-226381456D01*
X92141065Y-226563950D01*
X92181385Y-226613081D01*
X92272340Y-226723910D01*
X92432300Y-226855185D01*
X92614796Y-226952732D01*
X92812816Y-227012800D01*
X93018750Y-227033083D01*
X93224684Y-227012800D01*
X93422704Y-226952732D01*
X93605200Y-226855185D01*
X93730323Y-226752500D01*
X121363103Y-226752500D01*
X121383584Y-226894954D01*
X121383584Y-226894955D01*
X121383585Y-226894957D01*
X121409970Y-226952732D01*
X121443373Y-227025873D01*
X121537618Y-227134639D01*
X121537619Y-227134640D01*
X121537622Y-227134643D01*
X121658697Y-227212453D01*
X121765153Y-227243711D01*
X121796785Y-227252999D01*
X121796787Y-227253000D01*
X121796789Y-227253000D01*
X121940713Y-227253000D01*
X121940714Y-227252999D01*
X122078803Y-227212453D01*
X122199878Y-227134643D01*
X122294127Y-227025873D01*
X122353915Y-226894957D01*
X122374397Y-226752500D01*
X122353915Y-226610043D01*
X122294127Y-226479127D01*
X122270564Y-226451934D01*
X122199881Y-226370360D01*
X122199879Y-226370359D01*
X122199878Y-226370357D01*
X122096483Y-226303909D01*
X122078804Y-226292547D01*
X122078800Y-226292546D01*
X121940714Y-226252000D01*
X121940711Y-226252000D01*
X121796789Y-226252000D01*
X121796786Y-226252000D01*
X121658699Y-226292546D01*
X121658695Y-226292547D01*
X121537625Y-226370355D01*
X121537618Y-226370360D01*
X121443373Y-226479126D01*
X121383584Y-226610045D01*
X121363103Y-226752500D01*
X93730323Y-226752500D01*
X93765160Y-226723910D01*
X93896435Y-226563950D01*
X93993982Y-226381454D01*
X94054050Y-226183434D01*
X94074333Y-225977500D01*
X94054050Y-225771566D01*
X93993982Y-225573546D01*
X93985405Y-225557499D01*
X123738167Y-225557499D01*
X123758450Y-225763433D01*
X123805199Y-225917547D01*
X123818519Y-225961455D01*
X123916065Y-226143949D01*
X124038015Y-226292547D01*
X124047340Y-226303909D01*
X124207300Y-226435184D01*
X124389796Y-226532731D01*
X124587816Y-226592799D01*
X124793750Y-226613082D01*
X124999684Y-226592799D01*
X125197704Y-226532731D01*
X125380200Y-226435184D01*
X125540160Y-226303909D01*
X125671435Y-226143949D01*
X125768982Y-225961453D01*
X125829050Y-225763433D01*
X125849333Y-225557499D01*
X125829050Y-225351565D01*
X125768982Y-225153545D01*
X125671435Y-224971049D01*
X125540160Y-224811089D01*
X125477472Y-224759643D01*
X125380200Y-224679814D01*
X125197706Y-224582268D01*
X125197705Y-224582267D01*
X125197704Y-224582267D01*
X125085908Y-224548354D01*
X124999685Y-224522199D01*
X124793750Y-224501916D01*
X124587814Y-224522199D01*
X124389793Y-224582268D01*
X124207299Y-224679814D01*
X124047340Y-224811088D01*
X124047339Y-224811089D01*
X123916065Y-224971048D01*
X123818519Y-225153542D01*
X123758450Y-225351563D01*
X123758450Y-225351565D01*
X123738167Y-225557499D01*
X93985405Y-225557499D01*
X93896435Y-225391050D01*
X93765160Y-225231090D01*
X93605200Y-225099815D01*
X93424075Y-225003001D01*
X93422706Y-225002269D01*
X93422705Y-225002268D01*
X93422704Y-225002268D01*
X93310908Y-224968355D01*
X93224685Y-224942200D01*
X93018750Y-224921917D01*
X92812814Y-224942200D01*
X92614793Y-225002269D01*
X92432299Y-225099815D01*
X92272340Y-225231089D01*
X92272339Y-225231090D01*
X92141065Y-225391049D01*
X92043519Y-225573543D01*
X91983450Y-225771564D01*
X91964747Y-225961455D01*
X91963167Y-225977500D01*
X90172092Y-225977500D01*
X90142932Y-225958760D01*
X90078804Y-225917547D01*
X90078800Y-225917546D01*
X89940714Y-225877000D01*
X89940711Y-225877000D01*
X89796789Y-225877000D01*
X89796786Y-225877000D01*
X89658699Y-225917546D01*
X89658695Y-225917547D01*
X89537625Y-225995355D01*
X89537618Y-225995360D01*
X89443373Y-226104126D01*
X89383584Y-226235045D01*
X89363103Y-226377500D01*
X85219250Y-226377500D01*
X85219250Y-224502501D01*
X90454220Y-224502501D01*
X90474701Y-224644955D01*
X90474701Y-224644956D01*
X90474702Y-224644958D01*
X90527078Y-224759644D01*
X90534490Y-224775874D01*
X90628735Y-224884640D01*
X90628736Y-224884641D01*
X90628739Y-224884644D01*
X90749814Y-224962454D01*
X90856270Y-224993712D01*
X90887902Y-225003000D01*
X90887904Y-225003001D01*
X90887906Y-225003001D01*
X91031830Y-225003001D01*
X91031831Y-225003000D01*
X91034324Y-225002268D01*
X91169920Y-224962454D01*
X91290995Y-224884644D01*
X91385244Y-224775874D01*
X91445032Y-224644958D01*
X91465514Y-224502501D01*
X91445032Y-224360044D01*
X91385244Y-224229128D01*
X91290995Y-224120358D01*
X91220169Y-224074841D01*
X91169921Y-224042548D01*
X91169917Y-224042547D01*
X91031831Y-224002001D01*
X91031828Y-224002001D01*
X90887906Y-224002001D01*
X90887903Y-224002001D01*
X90749816Y-224042547D01*
X90749812Y-224042548D01*
X90628742Y-224120356D01*
X90628735Y-224120361D01*
X90534490Y-224229127D01*
X90474701Y-224360046D01*
X90454220Y-224502501D01*
X85219250Y-224502501D01*
X85219250Y-223437500D01*
X91963167Y-223437500D01*
X91983362Y-223642546D01*
X91983450Y-223643434D01*
X92039778Y-223829126D01*
X92043519Y-223841456D01*
X92141065Y-224023950D01*
X92220184Y-224120358D01*
X92272340Y-224183910D01*
X92432300Y-224315185D01*
X92614796Y-224412732D01*
X92812816Y-224472800D01*
X93018750Y-224493083D01*
X93224684Y-224472800D01*
X93422704Y-224412732D01*
X93605200Y-224315185D01*
X93765160Y-224183910D01*
X93896435Y-224023950D01*
X93993982Y-223841454D01*
X94054050Y-223643434D01*
X94074333Y-223437500D01*
X94503167Y-223437500D01*
X94523362Y-223642546D01*
X94523450Y-223643434D01*
X94579778Y-223829126D01*
X94583519Y-223841456D01*
X94681065Y-224023950D01*
X94760184Y-224120358D01*
X94812340Y-224183910D01*
X94972300Y-224315185D01*
X95154796Y-224412732D01*
X95352816Y-224472800D01*
X95558750Y-224493083D01*
X95764684Y-224472800D01*
X95962704Y-224412732D01*
X96028618Y-224377500D01*
X104288100Y-224377500D01*
X104308581Y-224519954D01*
X104308581Y-224519955D01*
X104308582Y-224519957D01*
X104346507Y-224603000D01*
X104368370Y-224650873D01*
X104462615Y-224759639D01*
X104462616Y-224759640D01*
X104462619Y-224759643D01*
X104583694Y-224837453D01*
X104690150Y-224868711D01*
X104721782Y-224877999D01*
X104721784Y-224878000D01*
X104721786Y-224878000D01*
X104865710Y-224878000D01*
X104865711Y-224877999D01*
X105003800Y-224837453D01*
X105124875Y-224759643D01*
X105137820Y-224744702D01*
X105188465Y-224719349D01*
X105242204Y-224737233D01*
X105249671Y-224744699D01*
X105262616Y-224759638D01*
X105262621Y-224759642D01*
X105262622Y-224759643D01*
X105383697Y-224837453D01*
X105490153Y-224868711D01*
X105521785Y-224877999D01*
X105521787Y-224878000D01*
X105521789Y-224878000D01*
X105665713Y-224878000D01*
X105665714Y-224877999D01*
X105803803Y-224837453D01*
X105924878Y-224759643D01*
X106019127Y-224650873D01*
X106078915Y-224519957D01*
X106099397Y-224377500D01*
X106078915Y-224235043D01*
X106019127Y-224104127D01*
X106017717Y-224102500D01*
X109888103Y-224102500D01*
X109908584Y-224244954D01*
X109908584Y-224244955D01*
X109908585Y-224244957D01*
X109961144Y-224360044D01*
X109968373Y-224375873D01*
X110062618Y-224484639D01*
X110062619Y-224484640D01*
X110062622Y-224484643D01*
X110183697Y-224562453D01*
X110290153Y-224593711D01*
X110321785Y-224602999D01*
X110321787Y-224603000D01*
X110321789Y-224603000D01*
X110465713Y-224603000D01*
X110465714Y-224602999D01*
X110603803Y-224562453D01*
X110724878Y-224484643D01*
X110819127Y-224375873D01*
X110878915Y-224244957D01*
X110899397Y-224102500D01*
X110878915Y-223960043D01*
X110819127Y-223829127D01*
X110724878Y-223720357D01*
X110667932Y-223683760D01*
X110603804Y-223642547D01*
X110603800Y-223642546D01*
X110465714Y-223602000D01*
X110465711Y-223602000D01*
X110321789Y-223602000D01*
X110321786Y-223602000D01*
X110183699Y-223642546D01*
X110183695Y-223642547D01*
X110062625Y-223720355D01*
X110062618Y-223720360D01*
X109968373Y-223829126D01*
X109908584Y-223960045D01*
X109888103Y-224102500D01*
X106017717Y-224102500D01*
X105974652Y-224052800D01*
X105924881Y-223995360D01*
X105924879Y-223995359D01*
X105924878Y-223995357D01*
X105867932Y-223958760D01*
X105803804Y-223917547D01*
X105803800Y-223917546D01*
X105665714Y-223877000D01*
X105665711Y-223877000D01*
X105521789Y-223877000D01*
X105521786Y-223877000D01*
X105383699Y-223917546D01*
X105383695Y-223917547D01*
X105262621Y-223995357D01*
X105262619Y-223995359D01*
X105249671Y-224010301D01*
X105199023Y-224035651D01*
X105145286Y-224017762D01*
X105137822Y-224010298D01*
X105124878Y-223995359D01*
X105124875Y-223995357D01*
X105003801Y-223917547D01*
X105003797Y-223917546D01*
X104865711Y-223877000D01*
X104865708Y-223877000D01*
X104721786Y-223877000D01*
X104721783Y-223877000D01*
X104583696Y-223917546D01*
X104583692Y-223917547D01*
X104462622Y-223995355D01*
X104462615Y-223995360D01*
X104368370Y-224104126D01*
X104308581Y-224235045D01*
X104288100Y-224377500D01*
X96028618Y-224377500D01*
X96145200Y-224315185D01*
X96305160Y-224183910D01*
X96436435Y-224023950D01*
X96533982Y-223841454D01*
X96594050Y-223643434D01*
X96614333Y-223437500D01*
X96594050Y-223231566D01*
X96533982Y-223033546D01*
X96436435Y-222851050D01*
X96305160Y-222691090D01*
X96203331Y-222607522D01*
X96145200Y-222559815D01*
X95962706Y-222462269D01*
X95962705Y-222462268D01*
X95962704Y-222462268D01*
X95826469Y-222420942D01*
X95764685Y-222402200D01*
X95558750Y-222381917D01*
X95352814Y-222402200D01*
X95154793Y-222462269D01*
X94972299Y-222559815D01*
X94812340Y-222691089D01*
X94812339Y-222691090D01*
X94681065Y-222851049D01*
X94583519Y-223033543D01*
X94523450Y-223231564D01*
X94503167Y-223437500D01*
X94074333Y-223437500D01*
X94054050Y-223231566D01*
X93993982Y-223033546D01*
X93896435Y-222851050D01*
X93765160Y-222691090D01*
X93663331Y-222607522D01*
X93605200Y-222559815D01*
X93422706Y-222462269D01*
X93422705Y-222462268D01*
X93422704Y-222462268D01*
X93286469Y-222420942D01*
X93224685Y-222402200D01*
X93018750Y-222381917D01*
X92812814Y-222402200D01*
X92614793Y-222462269D01*
X92432299Y-222559815D01*
X92272340Y-222691089D01*
X92272339Y-222691090D01*
X92141065Y-222851049D01*
X92043519Y-223033543D01*
X91983450Y-223231564D01*
X91963167Y-223437500D01*
X85219250Y-223437500D01*
X85219250Y-222880896D01*
X89632173Y-222880896D01*
X89652654Y-223023350D01*
X89652654Y-223023351D01*
X89652655Y-223023353D01*
X89681929Y-223087453D01*
X89712443Y-223154269D01*
X89806688Y-223263035D01*
X89806689Y-223263036D01*
X89806692Y-223263039D01*
X89927767Y-223340849D01*
X90034223Y-223372107D01*
X90065855Y-223381395D01*
X90065857Y-223381396D01*
X90065859Y-223381396D01*
X90209783Y-223381396D01*
X90209784Y-223381395D01*
X90347873Y-223340849D01*
X90468948Y-223263039D01*
X90563197Y-223154269D01*
X90622985Y-223023353D01*
X90643467Y-222880896D01*
X90622985Y-222738439D01*
X90563197Y-222607523D01*
X90521858Y-222559815D01*
X90468951Y-222498756D01*
X90468949Y-222498755D01*
X90468948Y-222498753D01*
X90412002Y-222462156D01*
X90347874Y-222420943D01*
X90347870Y-222420942D01*
X90209784Y-222380396D01*
X90209781Y-222380396D01*
X90065859Y-222380396D01*
X90065856Y-222380396D01*
X89927769Y-222420942D01*
X89927765Y-222420943D01*
X89806695Y-222498751D01*
X89806688Y-222498756D01*
X89712443Y-222607522D01*
X89652654Y-222738441D01*
X89632173Y-222880896D01*
X85219250Y-222880896D01*
X85219250Y-221977500D01*
X117555582Y-221977500D01*
X117576063Y-222119954D01*
X117576063Y-222119955D01*
X117576064Y-222119957D01*
X117597798Y-222167547D01*
X117635852Y-222250873D01*
X117730097Y-222359639D01*
X117730098Y-222359640D01*
X117730101Y-222359643D01*
X117822703Y-222419154D01*
X117841212Y-222431050D01*
X117851176Y-222437453D01*
X117957632Y-222468711D01*
X117989264Y-222477999D01*
X117989266Y-222478000D01*
X117989268Y-222478000D01*
X118133192Y-222478000D01*
X118133193Y-222477999D01*
X118271282Y-222437453D01*
X118392357Y-222359643D01*
X118486606Y-222250873D01*
X118546394Y-222119957D01*
X118563282Y-222002500D01*
X118863103Y-222002500D01*
X118883584Y-222144954D01*
X118943373Y-222275873D01*
X119037618Y-222384639D01*
X119037619Y-222384640D01*
X119037622Y-222384643D01*
X119109833Y-222431050D01*
X119158410Y-222462269D01*
X119158697Y-222462453D01*
X119254718Y-222490647D01*
X119296785Y-222502999D01*
X119296787Y-222503000D01*
X119395603Y-222503000D01*
X119447929Y-222524674D01*
X119469603Y-222577000D01*
X119468850Y-222587524D01*
X119465975Y-222607523D01*
X119463103Y-222627500D01*
X119483584Y-222769954D01*
X119483584Y-222769955D01*
X119483585Y-222769957D01*
X119520619Y-222851049D01*
X119543373Y-222900873D01*
X119637618Y-223009639D01*
X119637619Y-223009640D01*
X119637622Y-223009643D01*
X119758697Y-223087453D01*
X119865153Y-223118711D01*
X119896785Y-223127999D01*
X119896787Y-223128000D01*
X119896789Y-223128000D01*
X120040713Y-223128000D01*
X120040714Y-223127999D01*
X120178803Y-223087453D01*
X120287652Y-223017500D01*
X123738167Y-223017500D01*
X123758450Y-223223434D01*
X123806366Y-223381395D01*
X123818519Y-223421456D01*
X123916065Y-223603950D01*
X124011595Y-223720355D01*
X124047340Y-223763910D01*
X124207300Y-223895185D01*
X124389796Y-223992732D01*
X124587816Y-224052800D01*
X124793750Y-224073083D01*
X124999684Y-224052800D01*
X125197704Y-223992732D01*
X125380200Y-223895185D01*
X125540160Y-223763910D01*
X125671435Y-223603950D01*
X125768982Y-223421454D01*
X125829050Y-223223434D01*
X125849333Y-223017500D01*
X125829050Y-222811566D01*
X125768982Y-222613546D01*
X125671435Y-222431050D01*
X125540160Y-222271090D01*
X125515525Y-222250873D01*
X125380200Y-222139815D01*
X125197706Y-222042269D01*
X125197705Y-222042268D01*
X125197704Y-222042268D01*
X125066602Y-222002499D01*
X124999685Y-221982200D01*
X124793750Y-221961917D01*
X124587814Y-221982200D01*
X124389793Y-222042269D01*
X124207299Y-222139815D01*
X124047340Y-222271089D01*
X124047339Y-222271090D01*
X123916065Y-222431049D01*
X123818519Y-222613543D01*
X123758450Y-222811564D01*
X123758450Y-222811566D01*
X123738167Y-223017500D01*
X120287652Y-223017500D01*
X120299878Y-223009643D01*
X120394127Y-222900873D01*
X120453915Y-222769957D01*
X120474397Y-222627500D01*
X120453915Y-222485043D01*
X120394127Y-222354127D01*
X120299878Y-222245357D01*
X120242932Y-222208760D01*
X120178804Y-222167547D01*
X120178800Y-222167546D01*
X120040714Y-222127000D01*
X120040711Y-222127000D01*
X119941897Y-222127000D01*
X119889571Y-222105326D01*
X119867897Y-222053000D01*
X119868650Y-222042468D01*
X119868679Y-222042268D01*
X119874397Y-222002500D01*
X119853915Y-221860043D01*
X119794127Y-221729127D01*
X119770564Y-221701934D01*
X119699881Y-221620360D01*
X119699879Y-221620359D01*
X119699878Y-221620357D01*
X119642932Y-221583760D01*
X119578804Y-221542547D01*
X119578800Y-221542546D01*
X119440714Y-221502000D01*
X119440711Y-221502000D01*
X119296789Y-221502000D01*
X119296786Y-221502000D01*
X119158699Y-221542546D01*
X119158695Y-221542547D01*
X119037625Y-221620355D01*
X119037618Y-221620360D01*
X118943373Y-221729126D01*
X118883584Y-221860045D01*
X118863103Y-222002500D01*
X118563282Y-222002500D01*
X118566876Y-221977500D01*
X118546394Y-221835043D01*
X118486606Y-221704127D01*
X118434427Y-221643909D01*
X118392360Y-221595360D01*
X118392358Y-221595359D01*
X118392357Y-221595357D01*
X118310183Y-221542547D01*
X118271283Y-221517547D01*
X118271279Y-221517546D01*
X118133193Y-221477000D01*
X118133190Y-221477000D01*
X117989268Y-221477000D01*
X117989265Y-221477000D01*
X117851178Y-221517546D01*
X117851174Y-221517547D01*
X117730104Y-221595355D01*
X117730097Y-221595360D01*
X117635852Y-221704126D01*
X117576063Y-221835045D01*
X117555582Y-221977500D01*
X85219250Y-221977500D01*
X85219250Y-219627500D01*
X91688103Y-219627500D01*
X91708584Y-219769954D01*
X91708584Y-219769955D01*
X91708585Y-219769957D01*
X91750712Y-219862201D01*
X91768373Y-219900873D01*
X91862618Y-220009639D01*
X91862619Y-220009640D01*
X91862622Y-220009643D01*
X91983697Y-220087453D01*
X92067655Y-220112105D01*
X92121785Y-220127999D01*
X92121787Y-220128000D01*
X92134830Y-220128000D01*
X92187156Y-220149674D01*
X92208830Y-220202000D01*
X92192033Y-220248945D01*
X92141065Y-220311049D01*
X92043519Y-220493543D01*
X92043519Y-220493544D01*
X92043518Y-220493546D01*
X92037627Y-220512966D01*
X91983450Y-220691564D01*
X91963167Y-220897500D01*
X91983450Y-221103435D01*
X92043519Y-221301456D01*
X92067996Y-221347248D01*
X92141065Y-221483950D01*
X92272340Y-221643910D01*
X92432300Y-221775185D01*
X92614796Y-221872732D01*
X92812816Y-221932800D01*
X93018750Y-221953083D01*
X93224684Y-221932800D01*
X93422704Y-221872732D01*
X93605200Y-221775185D01*
X93765160Y-221643910D01*
X93896435Y-221483950D01*
X93993982Y-221301454D01*
X94054050Y-221103434D01*
X94074333Y-220897501D01*
X94503167Y-220897501D01*
X94523450Y-221103436D01*
X94531611Y-221130338D01*
X94568386Y-221251572D01*
X94583519Y-221301457D01*
X94681065Y-221483951D01*
X94803275Y-221632866D01*
X94812340Y-221643911D01*
X94972300Y-221775186D01*
X95154796Y-221872733D01*
X95352816Y-221932801D01*
X95558750Y-221953084D01*
X95764684Y-221932801D01*
X95962704Y-221872733D01*
X96145200Y-221775186D01*
X96305160Y-221643911D01*
X96436435Y-221483951D01*
X96533982Y-221301455D01*
X96594050Y-221103435D01*
X96614333Y-220897501D01*
X96594050Y-220691567D01*
X96575097Y-220629085D01*
X97973884Y-220629085D01*
X97994365Y-220771539D01*
X97994365Y-220771540D01*
X97994366Y-220771542D01*
X98023366Y-220835043D01*
X98054154Y-220902458D01*
X98148399Y-221011224D01*
X98148400Y-221011225D01*
X98148403Y-221011228D01*
X98269478Y-221089038D01*
X98374769Y-221119954D01*
X98407566Y-221129584D01*
X98407568Y-221129585D01*
X98407570Y-221129585D01*
X98409458Y-221129585D01*
X98410462Y-221130001D01*
X98412806Y-221130338D01*
X98412720Y-221130936D01*
X98461784Y-221151259D01*
X98483458Y-221203585D01*
X98482705Y-221214116D01*
X98477442Y-221250722D01*
X98497923Y-221393177D01*
X98497923Y-221393178D01*
X98497924Y-221393180D01*
X98539378Y-221483950D01*
X98557712Y-221524096D01*
X98651957Y-221632862D01*
X98651958Y-221632863D01*
X98651961Y-221632866D01*
X98744563Y-221692377D01*
X98762845Y-221704127D01*
X98773036Y-221710676D01*
X98879492Y-221741934D01*
X98911124Y-221751222D01*
X98911126Y-221751223D01*
X98911128Y-221751223D01*
X99055052Y-221751223D01*
X99055053Y-221751222D01*
X99193142Y-221710676D01*
X99314217Y-221632866D01*
X99408466Y-221524096D01*
X99467866Y-221394029D01*
X103346574Y-221394029D01*
X103367055Y-221536483D01*
X103367055Y-221536484D01*
X103367056Y-221536486D01*
X103416116Y-221643911D01*
X103426844Y-221667402D01*
X103521089Y-221776168D01*
X103521090Y-221776169D01*
X103521093Y-221776172D01*
X103642168Y-221853982D01*
X103748624Y-221885240D01*
X103780256Y-221894528D01*
X103780258Y-221894529D01*
X103780260Y-221894529D01*
X103924184Y-221894529D01*
X103924185Y-221894528D01*
X104062274Y-221853982D01*
X104183349Y-221776172D01*
X104277598Y-221667402D01*
X104337386Y-221536486D01*
X104357868Y-221394029D01*
X104337386Y-221251572D01*
X104277598Y-221120656D01*
X104183349Y-221011886D01*
X104129843Y-220977500D01*
X106522323Y-220977500D01*
X106542804Y-221119954D01*
X106542804Y-221119955D01*
X106542805Y-221119957D01*
X106602524Y-221250722D01*
X106602593Y-221250873D01*
X106696838Y-221359639D01*
X106696839Y-221359640D01*
X106696842Y-221359643D01*
X106817917Y-221437453D01*
X106924373Y-221468711D01*
X106956005Y-221477999D01*
X106956007Y-221478000D01*
X106956009Y-221478000D01*
X107099933Y-221478000D01*
X107099934Y-221477999D01*
X107238023Y-221437453D01*
X107359098Y-221359643D01*
X107453347Y-221250873D01*
X107513135Y-221119957D01*
X107533617Y-220977500D01*
X107513135Y-220835043D01*
X107453347Y-220704127D01*
X107399776Y-220642302D01*
X107381892Y-220588566D01*
X107407243Y-220537919D01*
X107460982Y-220520034D01*
X107476551Y-220522843D01*
X107581005Y-220553513D01*
X107581007Y-220553514D01*
X107581009Y-220553514D01*
X107724933Y-220553514D01*
X107724934Y-220553513D01*
X107863023Y-220512967D01*
X107984098Y-220435157D01*
X108078347Y-220326387D01*
X108138135Y-220195471D01*
X108158617Y-220053014D01*
X108138135Y-219910557D01*
X108078347Y-219779641D01*
X107984098Y-219670871D01*
X107916611Y-219627500D01*
X120088103Y-219627500D01*
X120108584Y-219769954D01*
X120108584Y-219769955D01*
X120108585Y-219769957D01*
X120150712Y-219862201D01*
X120168373Y-219900873D01*
X120262618Y-220009639D01*
X120262619Y-220009640D01*
X120262622Y-220009643D01*
X120383697Y-220087453D01*
X120467655Y-220112105D01*
X120521785Y-220127999D01*
X120521787Y-220128000D01*
X120521789Y-220128000D01*
X120665713Y-220128000D01*
X120665714Y-220127999D01*
X120803803Y-220087453D01*
X120924878Y-220009643D01*
X121019127Y-219900873D01*
X121078915Y-219769957D01*
X121099397Y-219627500D01*
X121096558Y-219607753D01*
X123743250Y-219607753D01*
X123743250Y-221347246D01*
X123754883Y-221405732D01*
X123776079Y-221437453D01*
X123799198Y-221472052D01*
X123817006Y-221483951D01*
X123865517Y-221516366D01*
X123865518Y-221516366D01*
X123865519Y-221516367D01*
X123924002Y-221528000D01*
X123924004Y-221528000D01*
X125663496Y-221528000D01*
X125663498Y-221528000D01*
X125721981Y-221516367D01*
X125788302Y-221472052D01*
X125832617Y-221405731D01*
X125844250Y-221347248D01*
X125844250Y-219607752D01*
X125832617Y-219549269D01*
X125788302Y-219482948D01*
X125730286Y-219444182D01*
X125721982Y-219438633D01*
X125721983Y-219438633D01*
X125692739Y-219432816D01*
X125663498Y-219427000D01*
X123924002Y-219427000D01*
X123894760Y-219432816D01*
X123865517Y-219438633D01*
X123799199Y-219482947D01*
X123799197Y-219482949D01*
X123754883Y-219549267D01*
X123743250Y-219607753D01*
X121096558Y-219607753D01*
X121078915Y-219485043D01*
X121019127Y-219354127D01*
X120924878Y-219245357D01*
X120867932Y-219208760D01*
X120803804Y-219167547D01*
X120803800Y-219167546D01*
X120665714Y-219127000D01*
X120665711Y-219127000D01*
X120521789Y-219127000D01*
X120521786Y-219127000D01*
X120383699Y-219167546D01*
X120383695Y-219167547D01*
X120262625Y-219245355D01*
X120262618Y-219245360D01*
X120168373Y-219354126D01*
X120108584Y-219485045D01*
X120088103Y-219627500D01*
X107916611Y-219627500D01*
X107863024Y-219593061D01*
X107863020Y-219593060D01*
X107724934Y-219552514D01*
X107724931Y-219552514D01*
X107581009Y-219552514D01*
X107581006Y-219552514D01*
X107442919Y-219593060D01*
X107442915Y-219593061D01*
X107321845Y-219670869D01*
X107321838Y-219670874D01*
X107227593Y-219779640D01*
X107167804Y-219910559D01*
X107147323Y-220053014D01*
X107167804Y-220195468D01*
X107167804Y-220195469D01*
X107167805Y-220195471D01*
X107227593Y-220326387D01*
X107281162Y-220388210D01*
X107299047Y-220441947D01*
X107273696Y-220492594D01*
X107219957Y-220510479D01*
X107204388Y-220507671D01*
X107099931Y-220477000D01*
X106956009Y-220477000D01*
X106956006Y-220477000D01*
X106817919Y-220517546D01*
X106817915Y-220517547D01*
X106696845Y-220595355D01*
X106696838Y-220595360D01*
X106602593Y-220704126D01*
X106542804Y-220835045D01*
X106522323Y-220977500D01*
X104129843Y-220977500D01*
X104126403Y-220975289D01*
X104062275Y-220934076D01*
X104062271Y-220934075D01*
X103924185Y-220893529D01*
X103924182Y-220893529D01*
X103780260Y-220893529D01*
X103780257Y-220893529D01*
X103642170Y-220934075D01*
X103642166Y-220934076D01*
X103521096Y-221011884D01*
X103521089Y-221011889D01*
X103426844Y-221120655D01*
X103367055Y-221251574D01*
X103346574Y-221394029D01*
X99467866Y-221394029D01*
X99468254Y-221393180D01*
X99488736Y-221250723D01*
X99468254Y-221108266D01*
X99408466Y-220977350D01*
X99339276Y-220897500D01*
X99314220Y-220868583D01*
X99314218Y-220868582D01*
X99314217Y-220868580D01*
X99257271Y-220831983D01*
X99193143Y-220790770D01*
X99193139Y-220790769D01*
X99055053Y-220750223D01*
X99055050Y-220750223D01*
X99053162Y-220750223D01*
X99052157Y-220749806D01*
X99049814Y-220749470D01*
X99049899Y-220748871D01*
X99000836Y-220728549D01*
X98979162Y-220676223D01*
X98979915Y-220665692D01*
X98983277Y-220642305D01*
X98985178Y-220629085D01*
X98964696Y-220486628D01*
X98904908Y-220355712D01*
X98866209Y-220311051D01*
X98810662Y-220246945D01*
X98810660Y-220246944D01*
X98810659Y-220246942D01*
X98740728Y-220202000D01*
X98689585Y-220169132D01*
X98689581Y-220169131D01*
X98551495Y-220128585D01*
X98551492Y-220128585D01*
X98407570Y-220128585D01*
X98407567Y-220128585D01*
X98269480Y-220169131D01*
X98269476Y-220169132D01*
X98148406Y-220246940D01*
X98148399Y-220246945D01*
X98054154Y-220355711D01*
X97994365Y-220486630D01*
X97973884Y-220629085D01*
X96575097Y-220629085D01*
X96533982Y-220493547D01*
X96436435Y-220311051D01*
X96305160Y-220151091D01*
X96303433Y-220149674D01*
X96145200Y-220019816D01*
X95962706Y-219922270D01*
X95962705Y-219922269D01*
X95962704Y-219922269D01*
X95812106Y-219876586D01*
X95764685Y-219862201D01*
X95558750Y-219841918D01*
X95352814Y-219862201D01*
X95197678Y-219909261D01*
X95154800Y-219922268D01*
X95154793Y-219922270D01*
X94972299Y-220019816D01*
X94812340Y-220151090D01*
X94812339Y-220151091D01*
X94681065Y-220311050D01*
X94583519Y-220493544D01*
X94523450Y-220691565D01*
X94503167Y-220897501D01*
X94074333Y-220897501D01*
X94074333Y-220897500D01*
X94054050Y-220691566D01*
X93993982Y-220493546D01*
X93896435Y-220311050D01*
X93765160Y-220151090D01*
X93741507Y-220131679D01*
X93605200Y-220019815D01*
X93422706Y-219922269D01*
X93422705Y-219922268D01*
X93422704Y-219922268D01*
X93310908Y-219888355D01*
X93224685Y-219862200D01*
X93018750Y-219841917D01*
X92812812Y-219862200D01*
X92765390Y-219876586D01*
X92709026Y-219871034D01*
X92673096Y-219827252D01*
X92676598Y-219775030D01*
X92678915Y-219769957D01*
X92699397Y-219627500D01*
X92678915Y-219485043D01*
X92676597Y-219479967D01*
X92674576Y-219423366D01*
X92713170Y-219381914D01*
X92765391Y-219378414D01*
X92812816Y-219392800D01*
X93018750Y-219413083D01*
X93224684Y-219392800D01*
X93422704Y-219332732D01*
X93605200Y-219235185D01*
X93765160Y-219103910D01*
X93896435Y-218943950D01*
X93993982Y-218761454D01*
X94054050Y-218563434D01*
X94074333Y-218357500D01*
X94503167Y-218357500D01*
X94519167Y-218519954D01*
X94523450Y-218563434D01*
X94582967Y-218759639D01*
X94583519Y-218761456D01*
X94681065Y-218943950D01*
X94801623Y-219090852D01*
X94812340Y-219103910D01*
X94972300Y-219235185D01*
X95154796Y-219332732D01*
X95352816Y-219392800D01*
X95558750Y-219413083D01*
X95764684Y-219392800D01*
X95858881Y-219364226D01*
X102955378Y-219364226D01*
X102975859Y-219506680D01*
X102975859Y-219506681D01*
X102975860Y-219506683D01*
X103015308Y-219593061D01*
X103035648Y-219637599D01*
X103129893Y-219746365D01*
X103129894Y-219746366D01*
X103129897Y-219746369D01*
X103250972Y-219824179D01*
X103327911Y-219846770D01*
X103389060Y-219864725D01*
X103389062Y-219864726D01*
X103389064Y-219864726D01*
X103532986Y-219864726D01*
X103552111Y-219859110D01*
X103608422Y-219865162D01*
X103643962Y-219909261D01*
X103646207Y-219940642D01*
X103639223Y-219989223D01*
X103639223Y-219989225D01*
X103641211Y-220003050D01*
X103659704Y-220131679D01*
X103659704Y-220131680D01*
X103659705Y-220131682D01*
X103688837Y-220195471D01*
X103719493Y-220262598D01*
X103813738Y-220371364D01*
X103813739Y-220371365D01*
X103813742Y-220371368D01*
X103934817Y-220449178D01*
X104029571Y-220477000D01*
X104072905Y-220489724D01*
X104072907Y-220489725D01*
X104072909Y-220489725D01*
X104216833Y-220489725D01*
X104216834Y-220489724D01*
X104354923Y-220449178D01*
X104454486Y-220385193D01*
X105353380Y-220385193D01*
X105373861Y-220527647D01*
X105373861Y-220527648D01*
X105373862Y-220527650D01*
X105420186Y-220629085D01*
X105433650Y-220658566D01*
X105527895Y-220767332D01*
X105527896Y-220767333D01*
X105527899Y-220767336D01*
X105620501Y-220826847D01*
X105633256Y-220835045D01*
X105648974Y-220845146D01*
X105755430Y-220876404D01*
X105787062Y-220885692D01*
X105787064Y-220885693D01*
X105787066Y-220885693D01*
X105930990Y-220885693D01*
X105930991Y-220885692D01*
X106069080Y-220845146D01*
X106190155Y-220767336D01*
X106284404Y-220658566D01*
X106344192Y-220527650D01*
X106364674Y-220385193D01*
X106344192Y-220242736D01*
X106284404Y-220111820D01*
X106195868Y-220009643D01*
X106190158Y-220003053D01*
X106190156Y-220003052D01*
X106190155Y-220003050D01*
X106133209Y-219966453D01*
X106069081Y-219925240D01*
X106069077Y-219925239D01*
X105930991Y-219884693D01*
X105930988Y-219884693D01*
X105787066Y-219884693D01*
X105787063Y-219884693D01*
X105648976Y-219925239D01*
X105648972Y-219925240D01*
X105527902Y-220003048D01*
X105527895Y-220003053D01*
X105433650Y-220111819D01*
X105373861Y-220242738D01*
X105353380Y-220385193D01*
X104454486Y-220385193D01*
X104475998Y-220371368D01*
X104570247Y-220262598D01*
X104630035Y-220131682D01*
X104650517Y-219989225D01*
X104630035Y-219846768D01*
X104570247Y-219715852D01*
X104493690Y-219627500D01*
X104476001Y-219607085D01*
X104475999Y-219607084D01*
X104475998Y-219607082D01*
X104419052Y-219570485D01*
X104354924Y-219529272D01*
X104354920Y-219529271D01*
X104216834Y-219488725D01*
X104216831Y-219488725D01*
X104072909Y-219488725D01*
X104072904Y-219488725D01*
X104053779Y-219494340D01*
X103997467Y-219488284D01*
X103961931Y-219444182D01*
X103959687Y-219412806D01*
X103966672Y-219364226D01*
X103946190Y-219221769D01*
X103886402Y-219090853D01*
X103792153Y-218982083D01*
X103732817Y-218943950D01*
X103671079Y-218904273D01*
X103671075Y-218904272D01*
X103532989Y-218863726D01*
X103532986Y-218863726D01*
X103389064Y-218863726D01*
X103389061Y-218863726D01*
X103250974Y-218904272D01*
X103250970Y-218904273D01*
X103129900Y-218982081D01*
X103129893Y-218982086D01*
X103035648Y-219090852D01*
X102975859Y-219221771D01*
X102955378Y-219364226D01*
X95858881Y-219364226D01*
X95962704Y-219332732D01*
X96145200Y-219235185D01*
X96305160Y-219103910D01*
X96436435Y-218943950D01*
X96533982Y-218761454D01*
X96567032Y-218652500D01*
X108713103Y-218652500D01*
X108733584Y-218794954D01*
X108733584Y-218794955D01*
X108733585Y-218794957D01*
X108771510Y-218878000D01*
X108793373Y-218925873D01*
X108887618Y-219034639D01*
X108887619Y-219034640D01*
X108887622Y-219034643D01*
X109008697Y-219112453D01*
X109112371Y-219142894D01*
X109146785Y-219152999D01*
X109146787Y-219153000D01*
X109146789Y-219153000D01*
X109290713Y-219153000D01*
X109290714Y-219152999D01*
X109428803Y-219112453D01*
X109549878Y-219034643D01*
X109644127Y-218925873D01*
X109703915Y-218794957D01*
X109724397Y-218652500D01*
X109703915Y-218510043D01*
X109644127Y-218379127D01*
X109642717Y-218377500D01*
X119229220Y-218377500D01*
X119249701Y-218519954D01*
X119309490Y-218650873D01*
X119403735Y-218759639D01*
X119403736Y-218759640D01*
X119403739Y-218759643D01*
X119524814Y-218837453D01*
X119614293Y-218863726D01*
X119662902Y-218877999D01*
X119662904Y-218878000D01*
X119662906Y-218878000D01*
X119806830Y-218878000D01*
X119806831Y-218877999D01*
X119944920Y-218837453D01*
X120065995Y-218759643D01*
X120108384Y-218710722D01*
X120159028Y-218685372D01*
X120212767Y-218703257D01*
X120220234Y-218710724D01*
X120262618Y-218759639D01*
X120262619Y-218759640D01*
X120262622Y-218759643D01*
X120383697Y-218837453D01*
X120473176Y-218863726D01*
X120521785Y-218877999D01*
X120521787Y-218878000D01*
X120521789Y-218878000D01*
X120665713Y-218878000D01*
X120665714Y-218877999D01*
X120803803Y-218837453D01*
X120924878Y-218759643D01*
X121019127Y-218650873D01*
X121078915Y-218519957D01*
X121099397Y-218377500D01*
X121078915Y-218235043D01*
X121019127Y-218104127D01*
X120967266Y-218044276D01*
X120924881Y-217995360D01*
X120924879Y-217995359D01*
X120924878Y-217995357D01*
X120859814Y-217953543D01*
X120803804Y-217917547D01*
X120803800Y-217917546D01*
X120665714Y-217877000D01*
X120665711Y-217877000D01*
X120521789Y-217877000D01*
X120521786Y-217877000D01*
X120383699Y-217917546D01*
X120383695Y-217917547D01*
X120262625Y-217995355D01*
X120262617Y-217995361D01*
X120220233Y-218044276D01*
X120169587Y-218069627D01*
X120115848Y-218051741D01*
X120108382Y-218044275D01*
X120065998Y-217995360D01*
X120065996Y-217995359D01*
X120065995Y-217995357D01*
X120000931Y-217953543D01*
X119944921Y-217917547D01*
X119944917Y-217917546D01*
X119806831Y-217877000D01*
X119806828Y-217877000D01*
X119662906Y-217877000D01*
X119662903Y-217877000D01*
X119524816Y-217917546D01*
X119524812Y-217917547D01*
X119403742Y-217995355D01*
X119403735Y-217995360D01*
X119309490Y-218104126D01*
X119249701Y-218235045D01*
X119229220Y-218377500D01*
X109642717Y-218377500D01*
X109549878Y-218270357D01*
X109470508Y-218219349D01*
X109428804Y-218192547D01*
X109428800Y-218192546D01*
X109290714Y-218152000D01*
X109290711Y-218152000D01*
X109146789Y-218152000D01*
X109146786Y-218152000D01*
X109008699Y-218192546D01*
X109008695Y-218192547D01*
X108887625Y-218270355D01*
X108887618Y-218270360D01*
X108793373Y-218379126D01*
X108733584Y-218510045D01*
X108713103Y-218652500D01*
X96567032Y-218652500D01*
X96594050Y-218563434D01*
X96614333Y-218357500D01*
X96594050Y-218151566D01*
X96533982Y-217953546D01*
X96493334Y-217877500D01*
X97863097Y-217877500D01*
X97883578Y-218019954D01*
X97883578Y-218019955D01*
X97883579Y-218019957D01*
X97906263Y-218069627D01*
X97943367Y-218150873D01*
X98037612Y-218259639D01*
X98037613Y-218259640D01*
X98037616Y-218259643D01*
X98158691Y-218337453D01*
X98226966Y-218357500D01*
X98296779Y-218377999D01*
X98296781Y-218378000D01*
X98296783Y-218378000D01*
X98440707Y-218378000D01*
X98440708Y-218377999D01*
X98578797Y-218337453D01*
X98699872Y-218259643D01*
X98712817Y-218244702D01*
X98763462Y-218219349D01*
X98817201Y-218237233D01*
X98824668Y-218244699D01*
X98837613Y-218259638D01*
X98837618Y-218259642D01*
X98837619Y-218259643D01*
X98958694Y-218337453D01*
X99026969Y-218357500D01*
X99096782Y-218377999D01*
X99096784Y-218378000D01*
X99096786Y-218378000D01*
X99240710Y-218378000D01*
X99240711Y-218377999D01*
X99378800Y-218337453D01*
X99499875Y-218259643D01*
X99512820Y-218244702D01*
X99563465Y-218219349D01*
X99617204Y-218237233D01*
X99624671Y-218244699D01*
X99637616Y-218259638D01*
X99637621Y-218259642D01*
X99637622Y-218259643D01*
X99758697Y-218337453D01*
X99826972Y-218357500D01*
X99896785Y-218377999D01*
X99896787Y-218378000D01*
X99896789Y-218378000D01*
X100040713Y-218378000D01*
X100040714Y-218377999D01*
X100178803Y-218337453D01*
X100299878Y-218259643D01*
X100394127Y-218150873D01*
X100453915Y-218019957D01*
X100474397Y-217877500D01*
X100453915Y-217735043D01*
X100394127Y-217604127D01*
X100312827Y-217510301D01*
X100299881Y-217495360D01*
X100299879Y-217495359D01*
X100299878Y-217495357D01*
X100242932Y-217458760D01*
X100178804Y-217417547D01*
X100178800Y-217417546D01*
X100040714Y-217377000D01*
X100040711Y-217377000D01*
X99896789Y-217377000D01*
X99896786Y-217377000D01*
X99758699Y-217417546D01*
X99758695Y-217417547D01*
X99637621Y-217495357D01*
X99637619Y-217495359D01*
X99624671Y-217510301D01*
X99574023Y-217535651D01*
X99520286Y-217517762D01*
X99512822Y-217510298D01*
X99499878Y-217495359D01*
X99499875Y-217495357D01*
X99378801Y-217417547D01*
X99378797Y-217417546D01*
X99240711Y-217377000D01*
X99240708Y-217377000D01*
X99096786Y-217377000D01*
X99096783Y-217377000D01*
X98958696Y-217417546D01*
X98958692Y-217417547D01*
X98837618Y-217495357D01*
X98837616Y-217495359D01*
X98824668Y-217510301D01*
X98774020Y-217535651D01*
X98720283Y-217517762D01*
X98712819Y-217510298D01*
X98699875Y-217495359D01*
X98699872Y-217495357D01*
X98578798Y-217417547D01*
X98578794Y-217417546D01*
X98440708Y-217377000D01*
X98440705Y-217377000D01*
X98296783Y-217377000D01*
X98296780Y-217377000D01*
X98158693Y-217417546D01*
X98158689Y-217417547D01*
X98037619Y-217495355D01*
X98037612Y-217495360D01*
X97943367Y-217604126D01*
X97883578Y-217735045D01*
X97863097Y-217877500D01*
X96493334Y-217877500D01*
X96436435Y-217771050D01*
X96305160Y-217611090D01*
X96145200Y-217479815D01*
X95962704Y-217382268D01*
X95823360Y-217339999D01*
X95764685Y-217322200D01*
X95736683Y-217319442D01*
X115621161Y-217319442D01*
X115641642Y-217461896D01*
X115641642Y-217461897D01*
X115641643Y-217461899D01*
X115698982Y-217587452D01*
X115701431Y-217592815D01*
X115795676Y-217701581D01*
X115795677Y-217701582D01*
X115795680Y-217701585D01*
X115916755Y-217779395D01*
X115986767Y-217799952D01*
X116054843Y-217819941D01*
X116054845Y-217819942D01*
X116054847Y-217819942D01*
X116198771Y-217819942D01*
X116198772Y-217819941D01*
X116336861Y-217779395D01*
X116457936Y-217701585D01*
X116552185Y-217592815D01*
X116611973Y-217461899D01*
X116632455Y-217319442D01*
X116611973Y-217176985D01*
X116589374Y-217127500D01*
X119228378Y-217127500D01*
X119248859Y-217269954D01*
X119248859Y-217269955D01*
X119248860Y-217269957D01*
X119300151Y-217382268D01*
X119308648Y-217400873D01*
X119402893Y-217509639D01*
X119402894Y-217509640D01*
X119402897Y-217509643D01*
X119523972Y-217587453D01*
X119612245Y-217613372D01*
X119662060Y-217627999D01*
X119662062Y-217628000D01*
X119662064Y-217628000D01*
X119805988Y-217628000D01*
X119805989Y-217627999D01*
X119944078Y-217587453D01*
X120065153Y-217509643D01*
X120159402Y-217400873D01*
X120187203Y-217339999D01*
X123488104Y-217339999D01*
X123508585Y-217482453D01*
X123508585Y-217482454D01*
X123508586Y-217482456D01*
X123521301Y-217510298D01*
X123568374Y-217613372D01*
X123662619Y-217722138D01*
X123662620Y-217722139D01*
X123662623Y-217722142D01*
X123783698Y-217799952D01*
X123890154Y-217831210D01*
X123921786Y-217840498D01*
X123921788Y-217840499D01*
X123921790Y-217840499D01*
X124065714Y-217840499D01*
X124065715Y-217840498D01*
X124203804Y-217799952D01*
X124324879Y-217722142D01*
X124419128Y-217613372D01*
X124478916Y-217482456D01*
X124499398Y-217339999D01*
X124478916Y-217197542D01*
X124419128Y-217066626D01*
X124348438Y-216985045D01*
X124324882Y-216957859D01*
X124324880Y-216957858D01*
X124324879Y-216957856D01*
X124267933Y-216921259D01*
X124203805Y-216880046D01*
X124203801Y-216880045D01*
X124065715Y-216839499D01*
X124065712Y-216839499D01*
X123921790Y-216839499D01*
X123921787Y-216839499D01*
X123783700Y-216880045D01*
X123783696Y-216880046D01*
X123662626Y-216957854D01*
X123662619Y-216957859D01*
X123568374Y-217066625D01*
X123508585Y-217197544D01*
X123488104Y-217339999D01*
X120187203Y-217339999D01*
X120219190Y-217269957D01*
X120239672Y-217127500D01*
X120219190Y-216985043D01*
X120159402Y-216854127D01*
X120095308Y-216780158D01*
X120065156Y-216745360D01*
X120065154Y-216745359D01*
X120065153Y-216745357D01*
X120008207Y-216708760D01*
X119944079Y-216667547D01*
X119944075Y-216667546D01*
X119805989Y-216627000D01*
X119805986Y-216627000D01*
X119662064Y-216627000D01*
X119662061Y-216627000D01*
X119523974Y-216667546D01*
X119523970Y-216667547D01*
X119402900Y-216745355D01*
X119402893Y-216745360D01*
X119308648Y-216854126D01*
X119248859Y-216985045D01*
X119228378Y-217127500D01*
X116589374Y-217127500D01*
X116552185Y-217046069D01*
X116499306Y-216985043D01*
X116457939Y-216937302D01*
X116457937Y-216937301D01*
X116457936Y-216937299D01*
X116400990Y-216900702D01*
X116336862Y-216859489D01*
X116336858Y-216859488D01*
X116198772Y-216818942D01*
X116198769Y-216818942D01*
X116054847Y-216818942D01*
X116054844Y-216818942D01*
X115916757Y-216859488D01*
X115916753Y-216859489D01*
X115795683Y-216937297D01*
X115795676Y-216937302D01*
X115701431Y-217046068D01*
X115641642Y-217176987D01*
X115621161Y-217319442D01*
X95736683Y-217319442D01*
X95558750Y-217301917D01*
X95352814Y-217322200D01*
X95180366Y-217374511D01*
X95172163Y-217377000D01*
X95154793Y-217382269D01*
X94972299Y-217479815D01*
X94812340Y-217611089D01*
X94812339Y-217611090D01*
X94681065Y-217771049D01*
X94583519Y-217953543D01*
X94523450Y-218151564D01*
X94503167Y-218357500D01*
X94074333Y-218357500D01*
X94054050Y-218151566D01*
X93993982Y-217953546D01*
X93896435Y-217771050D01*
X93765160Y-217611090D01*
X93605200Y-217479815D01*
X93422704Y-217382268D01*
X93283360Y-217339999D01*
X93224685Y-217322200D01*
X93018750Y-217301917D01*
X92812814Y-217322200D01*
X92640366Y-217374511D01*
X92632163Y-217377000D01*
X92614793Y-217382269D01*
X92432299Y-217479815D01*
X92272340Y-217611089D01*
X92272339Y-217611090D01*
X92141065Y-217771049D01*
X92043519Y-217953543D01*
X91983450Y-218151564D01*
X91963167Y-218357500D01*
X91979167Y-218519954D01*
X91983450Y-218563434D01*
X92042967Y-218759639D01*
X92043519Y-218761456D01*
X92141065Y-218943950D01*
X92192033Y-219006055D01*
X92208474Y-219060254D01*
X92181775Y-219110203D01*
X92134830Y-219127000D01*
X92121786Y-219127000D01*
X91983699Y-219167546D01*
X91983695Y-219167547D01*
X91862625Y-219245355D01*
X91862618Y-219245360D01*
X91768373Y-219354126D01*
X91708584Y-219485045D01*
X91688103Y-219627500D01*
X85219250Y-219627500D01*
X85219250Y-217877500D01*
X89363103Y-217877500D01*
X89383584Y-218019954D01*
X89383584Y-218019955D01*
X89383585Y-218019957D01*
X89406269Y-218069627D01*
X89443373Y-218150873D01*
X89537618Y-218259639D01*
X89537619Y-218259640D01*
X89537622Y-218259643D01*
X89658697Y-218337453D01*
X89726972Y-218357500D01*
X89796785Y-218377999D01*
X89796787Y-218378000D01*
X89796789Y-218378000D01*
X89940713Y-218378000D01*
X89940714Y-218377999D01*
X90078803Y-218337453D01*
X90199878Y-218259643D01*
X90294127Y-218150873D01*
X90353915Y-218019957D01*
X90374397Y-217877500D01*
X90353915Y-217735043D01*
X90294127Y-217604127D01*
X90212827Y-217510301D01*
X90199881Y-217495360D01*
X90199879Y-217495359D01*
X90199878Y-217495357D01*
X90142932Y-217458760D01*
X90078804Y-217417547D01*
X90078800Y-217417546D01*
X89940714Y-217377000D01*
X89940711Y-217377000D01*
X89796789Y-217377000D01*
X89796786Y-217377000D01*
X89658699Y-217417546D01*
X89658695Y-217417547D01*
X89537625Y-217495355D01*
X89537618Y-217495360D01*
X89443373Y-217604126D01*
X89383584Y-217735045D01*
X89363103Y-217877500D01*
X85219250Y-217877500D01*
X85219250Y-216629343D01*
X89238103Y-216629343D01*
X89258584Y-216771797D01*
X89258584Y-216771798D01*
X89258585Y-216771800D01*
X89308019Y-216880045D01*
X89318373Y-216902716D01*
X89412618Y-217011482D01*
X89412619Y-217011483D01*
X89412622Y-217011486D01*
X89533697Y-217089296D01*
X89640153Y-217120554D01*
X89671785Y-217129842D01*
X89671787Y-217129843D01*
X89671789Y-217129843D01*
X89815713Y-217129843D01*
X89815714Y-217129842D01*
X89953803Y-217089296D01*
X90074878Y-217011486D01*
X90169127Y-216902716D01*
X90228915Y-216771800D01*
X90249397Y-216629343D01*
X90228915Y-216486886D01*
X90224629Y-216477500D01*
X97238097Y-216477500D01*
X97258578Y-216619954D01*
X97258578Y-216619955D01*
X97258579Y-216619957D01*
X97280313Y-216667547D01*
X97318367Y-216750873D01*
X97412612Y-216859639D01*
X97412613Y-216859640D01*
X97412616Y-216859643D01*
X97533691Y-216937453D01*
X97640147Y-216968711D01*
X97671779Y-216977999D01*
X97671781Y-216978000D01*
X97671783Y-216978000D01*
X97815707Y-216978000D01*
X97815708Y-216977999D01*
X97953797Y-216937453D01*
X98074872Y-216859643D01*
X98087817Y-216844702D01*
X98138462Y-216819349D01*
X98192201Y-216837233D01*
X98199668Y-216844699D01*
X98212613Y-216859638D01*
X98212618Y-216859642D01*
X98212619Y-216859643D01*
X98333694Y-216937453D01*
X98440150Y-216968711D01*
X98471782Y-216977999D01*
X98471784Y-216978000D01*
X98471786Y-216978000D01*
X98615710Y-216978000D01*
X98615711Y-216977999D01*
X98753800Y-216937453D01*
X98874875Y-216859643D01*
X98969124Y-216750873D01*
X99028912Y-216619957D01*
X99049394Y-216477500D01*
X99463103Y-216477500D01*
X99483584Y-216619954D01*
X99483584Y-216619955D01*
X99483585Y-216619957D01*
X99505319Y-216667547D01*
X99543373Y-216750873D01*
X99637618Y-216859639D01*
X99637619Y-216859640D01*
X99637622Y-216859643D01*
X99758697Y-216937453D01*
X99865153Y-216968711D01*
X99896785Y-216977999D01*
X99896787Y-216978000D01*
X99896789Y-216978000D01*
X100040713Y-216978000D01*
X100040714Y-216977999D01*
X100178803Y-216937453D01*
X100299878Y-216859643D01*
X100394127Y-216750873D01*
X100453915Y-216619957D01*
X100474397Y-216477500D01*
X100453915Y-216335043D01*
X100428418Y-216279213D01*
X113164816Y-216279213D01*
X113185297Y-216421667D01*
X113185297Y-216421668D01*
X113185298Y-216421670D01*
X113245086Y-216552586D01*
X113339331Y-216661352D01*
X113339332Y-216661353D01*
X113339335Y-216661356D01*
X113460410Y-216739166D01*
X113566866Y-216770424D01*
X113598498Y-216779712D01*
X113598500Y-216779713D01*
X113598502Y-216779713D01*
X113742426Y-216779713D01*
X113742427Y-216779712D01*
X113880516Y-216739166D01*
X114001591Y-216661356D01*
X114095840Y-216552586D01*
X114155628Y-216421670D01*
X114176110Y-216279213D01*
X114161676Y-216178822D01*
X114175683Y-216123945D01*
X114224392Y-216095045D01*
X114255772Y-216097290D01*
X114275214Y-216102999D01*
X114275216Y-216102999D01*
X114419140Y-216102999D01*
X114419141Y-216102998D01*
X114557230Y-216062452D01*
X114678305Y-215984642D01*
X114772554Y-215875872D01*
X114832342Y-215744956D01*
X114852824Y-215602499D01*
X114832342Y-215460042D01*
X114772554Y-215329126D01*
X114717993Y-215266159D01*
X114678308Y-215220359D01*
X114678306Y-215220358D01*
X114678305Y-215220356D01*
X114621359Y-215183759D01*
X114557231Y-215142546D01*
X114557227Y-215142545D01*
X114419141Y-215101999D01*
X114419138Y-215101999D01*
X114275216Y-215101999D01*
X114275213Y-215101999D01*
X114137126Y-215142545D01*
X114137122Y-215142546D01*
X114016052Y-215220354D01*
X114016045Y-215220359D01*
X113921800Y-215329125D01*
X113862011Y-215460044D01*
X113841530Y-215602499D01*
X113855963Y-215702888D01*
X113841956Y-215757766D01*
X113793247Y-215786666D01*
X113761869Y-215784422D01*
X113742425Y-215778713D01*
X113742424Y-215778713D01*
X113598502Y-215778713D01*
X113598499Y-215778713D01*
X113460412Y-215819259D01*
X113460408Y-215819260D01*
X113339338Y-215897068D01*
X113339331Y-215897073D01*
X113245086Y-216005839D01*
X113185297Y-216136758D01*
X113164816Y-216279213D01*
X100428418Y-216279213D01*
X100394127Y-216204127D01*
X100328894Y-216128843D01*
X100299881Y-216095360D01*
X100299879Y-216095359D01*
X100299878Y-216095357D01*
X100226836Y-216048416D01*
X100178804Y-216017547D01*
X100178800Y-216017546D01*
X100040714Y-215977000D01*
X100040711Y-215977000D01*
X99896789Y-215977000D01*
X99896786Y-215977000D01*
X99758699Y-216017546D01*
X99758695Y-216017547D01*
X99637625Y-216095355D01*
X99637618Y-216095360D01*
X99543373Y-216204126D01*
X99483584Y-216335045D01*
X99463103Y-216477500D01*
X99049394Y-216477500D01*
X99028912Y-216335043D01*
X98969124Y-216204127D01*
X98903891Y-216128843D01*
X98874878Y-216095360D01*
X98874876Y-216095359D01*
X98874875Y-216095357D01*
X98801833Y-216048416D01*
X98753801Y-216017547D01*
X98753797Y-216017546D01*
X98615711Y-215977000D01*
X98615708Y-215977000D01*
X98471786Y-215977000D01*
X98471783Y-215977000D01*
X98333696Y-216017546D01*
X98333692Y-216017547D01*
X98212618Y-216095357D01*
X98212616Y-216095359D01*
X98199668Y-216110301D01*
X98149020Y-216135651D01*
X98095283Y-216117762D01*
X98087819Y-216110298D01*
X98074875Y-216095359D01*
X98074872Y-216095357D01*
X97953798Y-216017547D01*
X97953794Y-216017546D01*
X97815708Y-215977000D01*
X97815705Y-215977000D01*
X97671783Y-215977000D01*
X97671780Y-215977000D01*
X97533693Y-216017546D01*
X97533689Y-216017547D01*
X97412619Y-216095355D01*
X97412612Y-216095360D01*
X97318367Y-216204126D01*
X97258578Y-216335045D01*
X97238097Y-216477500D01*
X90224629Y-216477500D01*
X90169127Y-216355970D01*
X90074878Y-216247200D01*
X90007855Y-216204127D01*
X89953804Y-216169390D01*
X89953800Y-216169389D01*
X89815714Y-216128843D01*
X89815711Y-216128843D01*
X89671789Y-216128843D01*
X89671786Y-216128843D01*
X89533699Y-216169389D01*
X89533695Y-216169390D01*
X89412625Y-216247198D01*
X89412618Y-216247203D01*
X89318373Y-216355969D01*
X89258584Y-216486888D01*
X89238103Y-216629343D01*
X85219250Y-216629343D01*
X85219250Y-215638985D01*
X110099588Y-215638985D01*
X110120069Y-215781439D01*
X110120069Y-215781440D01*
X110120070Y-215781442D01*
X110174745Y-215901163D01*
X110179858Y-215912358D01*
X110274103Y-216021124D01*
X110274104Y-216021125D01*
X110274107Y-216021128D01*
X110338407Y-216062451D01*
X110392617Y-216097290D01*
X110395182Y-216098938D01*
X110495147Y-216128290D01*
X110533270Y-216139484D01*
X110533272Y-216139485D01*
X110533274Y-216139485D01*
X110677198Y-216139485D01*
X110677199Y-216139484D01*
X110686490Y-216136756D01*
X110815288Y-216098938D01*
X110936363Y-216021128D01*
X110955727Y-215998779D01*
X111006370Y-215973428D01*
X111060110Y-215991312D01*
X111067576Y-215998778D01*
X111073963Y-216006149D01*
X111073965Y-216006150D01*
X111073969Y-216006155D01*
X111195044Y-216083965D01*
X111301500Y-216115223D01*
X111333132Y-216124511D01*
X111333134Y-216124512D01*
X111333136Y-216124512D01*
X111477060Y-216124512D01*
X111477061Y-216124511D01*
X111478989Y-216123945D01*
X111615150Y-216083965D01*
X111736225Y-216006155D01*
X111747529Y-215993108D01*
X111798174Y-215967755D01*
X111851913Y-215985639D01*
X111859381Y-215993106D01*
X111873957Y-216009928D01*
X111873958Y-216009929D01*
X111873962Y-216009933D01*
X111966564Y-216069444D01*
X111989156Y-216083964D01*
X111995037Y-216087743D01*
X112097274Y-216117762D01*
X112133125Y-216128289D01*
X112133127Y-216128290D01*
X112133129Y-216128290D01*
X112277053Y-216128290D01*
X112277054Y-216128289D01*
X112415143Y-216087743D01*
X112536218Y-216009933D01*
X112630467Y-215901163D01*
X112690255Y-215770247D01*
X112710737Y-215627790D01*
X112690255Y-215485333D01*
X112630467Y-215354417D01*
X112603450Y-215323237D01*
X112536221Y-215245650D01*
X112536219Y-215245649D01*
X112536218Y-215245647D01*
X112479272Y-215209050D01*
X112415144Y-215167837D01*
X112415140Y-215167836D01*
X112277054Y-215127290D01*
X112277051Y-215127290D01*
X112133129Y-215127290D01*
X112133126Y-215127290D01*
X111995039Y-215167836D01*
X111995035Y-215167837D01*
X111873961Y-215245647D01*
X111873956Y-215245651D01*
X111862653Y-215258696D01*
X111812006Y-215284047D01*
X111758268Y-215266159D01*
X111750808Y-215258699D01*
X111736225Y-215241869D01*
X111679279Y-215205272D01*
X111615151Y-215164059D01*
X111615147Y-215164058D01*
X111477061Y-215123512D01*
X111477058Y-215123512D01*
X111333136Y-215123512D01*
X111333133Y-215123512D01*
X111195046Y-215164058D01*
X111195042Y-215164059D01*
X111073968Y-215241869D01*
X111073967Y-215241870D01*
X111054602Y-215264218D01*
X111003955Y-215289569D01*
X110950217Y-215271681D01*
X110942754Y-215264218D01*
X110938346Y-215259130D01*
X110936365Y-215256844D01*
X110936364Y-215256843D01*
X110936363Y-215256842D01*
X110879417Y-215220245D01*
X110815289Y-215179032D01*
X110815285Y-215179031D01*
X110677199Y-215138485D01*
X110677196Y-215138485D01*
X110533274Y-215138485D01*
X110533271Y-215138485D01*
X110395184Y-215179031D01*
X110395180Y-215179032D01*
X110274110Y-215256840D01*
X110274103Y-215256845D01*
X110179858Y-215365611D01*
X110120069Y-215496530D01*
X110099588Y-215638985D01*
X85219250Y-215638985D01*
X85219250Y-213653343D01*
X91007230Y-213653343D01*
X91027711Y-213795797D01*
X91027711Y-213795798D01*
X91027712Y-213795800D01*
X91047898Y-213840000D01*
X91087500Y-213926716D01*
X91181745Y-214035482D01*
X91181746Y-214035483D01*
X91181749Y-214035486D01*
X91302824Y-214113296D01*
X91409280Y-214144554D01*
X91440912Y-214153842D01*
X91440914Y-214153843D01*
X91440916Y-214153843D01*
X91584840Y-214153843D01*
X91584841Y-214153842D01*
X91722930Y-214113296D01*
X91844005Y-214035486D01*
X91938254Y-213926716D01*
X91986098Y-213821954D01*
X99393649Y-213821954D01*
X99414130Y-213964408D01*
X99414130Y-213964409D01*
X99414131Y-213964411D01*
X99446590Y-214035486D01*
X99473919Y-214095327D01*
X99568164Y-214204093D01*
X99568165Y-214204094D01*
X99568168Y-214204097D01*
X99689243Y-214281907D01*
X99795699Y-214313165D01*
X99827331Y-214322453D01*
X99827333Y-214322454D01*
X99827335Y-214322454D01*
X99971259Y-214322454D01*
X99971260Y-214322453D01*
X100109349Y-214281907D01*
X100230424Y-214204097D01*
X100324673Y-214095327D01*
X100384461Y-213964411D01*
X100404943Y-213821954D01*
X100384461Y-213679497D01*
X100344035Y-213590978D01*
X101003484Y-213590978D01*
X101023965Y-213733432D01*
X101023965Y-213733433D01*
X101023966Y-213733435D01*
X101064392Y-213821954D01*
X101083754Y-213864351D01*
X101177999Y-213973117D01*
X101178000Y-213973118D01*
X101178003Y-213973121D01*
X101299078Y-214050931D01*
X101405534Y-214082189D01*
X101437166Y-214091477D01*
X101437168Y-214091478D01*
X101437170Y-214091478D01*
X101581094Y-214091478D01*
X101581095Y-214091477D01*
X101719184Y-214050931D01*
X101840259Y-213973121D01*
X101934508Y-213864351D01*
X101945629Y-213840000D01*
X123488104Y-213840000D01*
X123508585Y-213982454D01*
X123508585Y-213982455D01*
X123508586Y-213982457D01*
X123558374Y-214091477D01*
X123568374Y-214113373D01*
X123662619Y-214222139D01*
X123662620Y-214222140D01*
X123662623Y-214222143D01*
X123783698Y-214299953D01*
X123890154Y-214331211D01*
X123921786Y-214340499D01*
X123921788Y-214340500D01*
X123921790Y-214340500D01*
X124065714Y-214340500D01*
X124065715Y-214340499D01*
X124203804Y-214299953D01*
X124324879Y-214222143D01*
X124419128Y-214113373D01*
X124478916Y-213982457D01*
X124499398Y-213840000D01*
X124478916Y-213697543D01*
X124419128Y-213566627D01*
X124324879Y-213457857D01*
X124248957Y-213409065D01*
X124203805Y-213380047D01*
X124203801Y-213380046D01*
X124065715Y-213339500D01*
X124065712Y-213339500D01*
X123921790Y-213339500D01*
X123921787Y-213339500D01*
X123783700Y-213380046D01*
X123783696Y-213380047D01*
X123662626Y-213457855D01*
X123662619Y-213457860D01*
X123568374Y-213566626D01*
X123508585Y-213697545D01*
X123488104Y-213840000D01*
X101945629Y-213840000D01*
X101994296Y-213733435D01*
X102014778Y-213590978D01*
X101994296Y-213448521D01*
X101934508Y-213317605D01*
X101894298Y-213271200D01*
X101840262Y-213208838D01*
X101840260Y-213208837D01*
X101840259Y-213208835D01*
X101753134Y-213152843D01*
X101719185Y-213131025D01*
X101719181Y-213131024D01*
X101581095Y-213090478D01*
X101581092Y-213090478D01*
X101437170Y-213090478D01*
X101437167Y-213090478D01*
X101299080Y-213131024D01*
X101299076Y-213131025D01*
X101178006Y-213208833D01*
X101177999Y-213208838D01*
X101083754Y-213317604D01*
X101023965Y-213448523D01*
X101003484Y-213590978D01*
X100344035Y-213590978D01*
X100324673Y-213548581D01*
X100292010Y-213510886D01*
X100230427Y-213439814D01*
X100230425Y-213439813D01*
X100230424Y-213439811D01*
X100173478Y-213403214D01*
X100109350Y-213362001D01*
X100109346Y-213362000D01*
X99971260Y-213321454D01*
X99971257Y-213321454D01*
X99827335Y-213321454D01*
X99827332Y-213321454D01*
X99689245Y-213362000D01*
X99689241Y-213362001D01*
X99568171Y-213439809D01*
X99568164Y-213439814D01*
X99473919Y-213548580D01*
X99414130Y-213679499D01*
X99393649Y-213821954D01*
X91986098Y-213821954D01*
X91998042Y-213795800D01*
X92018524Y-213653343D01*
X91998042Y-213510886D01*
X91938254Y-213379970D01*
X91884214Y-213317604D01*
X91844008Y-213271203D01*
X91844006Y-213271202D01*
X91844005Y-213271200D01*
X91746968Y-213208838D01*
X91722931Y-213193390D01*
X91722927Y-213193389D01*
X91584841Y-213152843D01*
X91584838Y-213152843D01*
X91440916Y-213152843D01*
X91440913Y-213152843D01*
X91302826Y-213193389D01*
X91302822Y-213193390D01*
X91181752Y-213271198D01*
X91181745Y-213271203D01*
X91087500Y-213379969D01*
X91027711Y-213510888D01*
X91007230Y-213653343D01*
X85219250Y-213653343D01*
X85219250Y-212908566D01*
X97561757Y-212908566D01*
X97582238Y-213051020D01*
X97642027Y-213181939D01*
X97736272Y-213290705D01*
X97736273Y-213290706D01*
X97736276Y-213290709D01*
X97828878Y-213350220D01*
X97847208Y-213362001D01*
X97857351Y-213368519D01*
X97963807Y-213399777D01*
X97995439Y-213409065D01*
X97995441Y-213409066D01*
X97995443Y-213409066D01*
X98139367Y-213409066D01*
X98139368Y-213409065D01*
X98277457Y-213368519D01*
X98398532Y-213290709D01*
X98492781Y-213181939D01*
X98552569Y-213051023D01*
X98573051Y-212908566D01*
X98552569Y-212766109D01*
X98492781Y-212635193D01*
X98434610Y-212568059D01*
X98416726Y-212514323D01*
X98434609Y-212471144D01*
X98511714Y-212382161D01*
X98571502Y-212251245D01*
X98591984Y-212108788D01*
X98571502Y-211966331D01*
X98530581Y-211876728D01*
X107752720Y-211876728D01*
X107773201Y-212019182D01*
X107773201Y-212019183D01*
X107773202Y-212019185D01*
X107814123Y-212108788D01*
X107832990Y-212150101D01*
X107927235Y-212258867D01*
X107927236Y-212258868D01*
X107927239Y-212258871D01*
X108048314Y-212336681D01*
X108144761Y-212365000D01*
X108186402Y-212377227D01*
X108186404Y-212377228D01*
X108186406Y-212377228D01*
X108330330Y-212377228D01*
X108330331Y-212377227D01*
X108468420Y-212336681D01*
X108589495Y-212258871D01*
X108660003Y-212177500D01*
X111713103Y-212177500D01*
X111733584Y-212319954D01*
X111733584Y-212319955D01*
X111733585Y-212319957D01*
X111741223Y-212336681D01*
X111793373Y-212450873D01*
X111887618Y-212559639D01*
X111887619Y-212559640D01*
X111887622Y-212559643D01*
X112008697Y-212637453D01*
X112115153Y-212668711D01*
X112146785Y-212677999D01*
X112146787Y-212678000D01*
X112146789Y-212678000D01*
X112290713Y-212678000D01*
X112290714Y-212677999D01*
X112428803Y-212637453D01*
X112549878Y-212559643D01*
X112644127Y-212450873D01*
X112703915Y-212319957D01*
X112724397Y-212177500D01*
X112963103Y-212177500D01*
X112983584Y-212319954D01*
X112983584Y-212319955D01*
X112983585Y-212319957D01*
X112991223Y-212336681D01*
X113043373Y-212450873D01*
X113137618Y-212559639D01*
X113137619Y-212559640D01*
X113137622Y-212559643D01*
X113258697Y-212637453D01*
X113365153Y-212668711D01*
X113396785Y-212677999D01*
X113396787Y-212678000D01*
X113396789Y-212678000D01*
X113540713Y-212678000D01*
X113540714Y-212677999D01*
X113678803Y-212637453D01*
X113799878Y-212559643D01*
X113894127Y-212450873D01*
X113933344Y-212365000D01*
X123488104Y-212365000D01*
X123508585Y-212507454D01*
X123508585Y-212507455D01*
X123508586Y-212507457D01*
X123522285Y-212537453D01*
X123568374Y-212638373D01*
X123662619Y-212747139D01*
X123662620Y-212747140D01*
X123662623Y-212747143D01*
X123783698Y-212824953D01*
X123890154Y-212856211D01*
X123921786Y-212865499D01*
X123921788Y-212865500D01*
X123921790Y-212865500D01*
X124065714Y-212865500D01*
X124065715Y-212865499D01*
X124203804Y-212824953D01*
X124324879Y-212747143D01*
X124419128Y-212638373D01*
X124478916Y-212507457D01*
X124499398Y-212365000D01*
X124478916Y-212222543D01*
X124419128Y-212091627D01*
X124356354Y-212019181D01*
X124324882Y-211982860D01*
X124324880Y-211982859D01*
X124324879Y-211982857D01*
X124250479Y-211935043D01*
X124203805Y-211905047D01*
X124203801Y-211905046D01*
X124065715Y-211864500D01*
X124065712Y-211864500D01*
X123921790Y-211864500D01*
X123921787Y-211864500D01*
X123783700Y-211905046D01*
X123783696Y-211905047D01*
X123662626Y-211982855D01*
X123662619Y-211982860D01*
X123568374Y-212091626D01*
X123508585Y-212222545D01*
X123488104Y-212365000D01*
X113933344Y-212365000D01*
X113953915Y-212319957D01*
X113974397Y-212177500D01*
X113953915Y-212035043D01*
X113894127Y-211904127D01*
X113894126Y-211904126D01*
X113894126Y-211904125D01*
X113889144Y-211898376D01*
X113885678Y-211894377D01*
X113867791Y-211840640D01*
X113893142Y-211789993D01*
X113946880Y-211772105D01*
X113981610Y-211783664D01*
X114026407Y-211812453D01*
X114120674Y-211840132D01*
X114164495Y-211852999D01*
X114164497Y-211853000D01*
X114164499Y-211853000D01*
X114308423Y-211853000D01*
X114308424Y-211852999D01*
X114446513Y-211812453D01*
X114567588Y-211734643D01*
X114661837Y-211625873D01*
X114721625Y-211494957D01*
X114742107Y-211352500D01*
X114742107Y-211352498D01*
X116394152Y-211352498D01*
X116414633Y-211494952D01*
X116414633Y-211494953D01*
X116414634Y-211494955D01*
X116426352Y-211520613D01*
X116474422Y-211625871D01*
X116568667Y-211734637D01*
X116568668Y-211734638D01*
X116568671Y-211734641D01*
X116654801Y-211789993D01*
X116676793Y-211804127D01*
X116689746Y-211812451D01*
X116785750Y-211840640D01*
X116827834Y-211852997D01*
X116827836Y-211852998D01*
X116827838Y-211852998D01*
X116971762Y-211852998D01*
X116971763Y-211852997D01*
X117109852Y-211812451D01*
X117230927Y-211734641D01*
X117325176Y-211625871D01*
X117384964Y-211494955D01*
X117405446Y-211352498D01*
X117384964Y-211210041D01*
X117325176Y-211079125D01*
X117238527Y-210979126D01*
X117230930Y-210970358D01*
X117230928Y-210970357D01*
X117230927Y-210970355D01*
X117146976Y-210916403D01*
X117109853Y-210892545D01*
X117109849Y-210892544D01*
X116971763Y-210851998D01*
X116971760Y-210851998D01*
X116827838Y-210851998D01*
X116827835Y-210851998D01*
X116689748Y-210892544D01*
X116689744Y-210892545D01*
X116568674Y-210970353D01*
X116568667Y-210970358D01*
X116474422Y-211079124D01*
X116414633Y-211210043D01*
X116394152Y-211352498D01*
X114742107Y-211352498D01*
X114721625Y-211210043D01*
X114661837Y-211079127D01*
X114600961Y-211008872D01*
X114567591Y-210970360D01*
X114567589Y-210970359D01*
X114567588Y-210970357D01*
X114483629Y-210916400D01*
X114446514Y-210892547D01*
X114446510Y-210892546D01*
X114308424Y-210852000D01*
X114308421Y-210852000D01*
X114164499Y-210852000D01*
X114164496Y-210852000D01*
X114026409Y-210892546D01*
X114026405Y-210892547D01*
X113905335Y-210970355D01*
X113905328Y-210970360D01*
X113811083Y-211079126D01*
X113751294Y-211210045D01*
X113730813Y-211352500D01*
X113751294Y-211494954D01*
X113751294Y-211494955D01*
X113751295Y-211494957D01*
X113811083Y-211625873D01*
X113819531Y-211635623D01*
X113837418Y-211689360D01*
X113812067Y-211740007D01*
X113758328Y-211757894D01*
X113723599Y-211746335D01*
X113685377Y-211721772D01*
X113678803Y-211717547D01*
X113678800Y-211717546D01*
X113540714Y-211677000D01*
X113540711Y-211677000D01*
X113396789Y-211677000D01*
X113396786Y-211677000D01*
X113258699Y-211717546D01*
X113258695Y-211717547D01*
X113137625Y-211795355D01*
X113137618Y-211795360D01*
X113043373Y-211904126D01*
X112983584Y-212035045D01*
X112963103Y-212177500D01*
X112724397Y-212177500D01*
X112703915Y-212035043D01*
X112644127Y-211904127D01*
X112594164Y-211846466D01*
X112576279Y-211792727D01*
X112601631Y-211742081D01*
X112629237Y-211727006D01*
X112678803Y-211712453D01*
X112799878Y-211634643D01*
X112894127Y-211525873D01*
X112953915Y-211394957D01*
X112974397Y-211252500D01*
X112953915Y-211110043D01*
X112894127Y-210979127D01*
X112819103Y-210892544D01*
X112799881Y-210870360D01*
X112799879Y-210870359D01*
X112799878Y-210870357D01*
X112717567Y-210817459D01*
X112678804Y-210792547D01*
X112678800Y-210792546D01*
X112540714Y-210752000D01*
X112540711Y-210752000D01*
X112396789Y-210752000D01*
X112396786Y-210752000D01*
X112258699Y-210792546D01*
X112258695Y-210792547D01*
X112137625Y-210870355D01*
X112137618Y-210870360D01*
X112043373Y-210979126D01*
X111983584Y-211110045D01*
X111963103Y-211252500D01*
X111983584Y-211394954D01*
X111983584Y-211394955D01*
X111983585Y-211394957D01*
X112029086Y-211494589D01*
X112043373Y-211525873D01*
X112093335Y-211583533D01*
X112111220Y-211637272D01*
X112085868Y-211687918D01*
X112058258Y-211702994D01*
X112008698Y-211717546D01*
X112008695Y-211717547D01*
X111887625Y-211795355D01*
X111887618Y-211795360D01*
X111793373Y-211904126D01*
X111733584Y-212035045D01*
X111713103Y-212177500D01*
X108660003Y-212177500D01*
X108683744Y-212150101D01*
X108743532Y-212019185D01*
X108745237Y-212007325D01*
X108774135Y-211958616D01*
X108829012Y-211944607D01*
X108874410Y-211969395D01*
X108887618Y-211984639D01*
X108887619Y-211984640D01*
X108887622Y-211984643D01*
X109008697Y-212062453D01*
X109108052Y-212091626D01*
X109146785Y-212102999D01*
X109146787Y-212103000D01*
X109146789Y-212103000D01*
X109290713Y-212103000D01*
X109290714Y-212102999D01*
X109428803Y-212062453D01*
X109549878Y-211984643D01*
X109644127Y-211875873D01*
X109703915Y-211744957D01*
X109724397Y-211602500D01*
X109703915Y-211460043D01*
X109644127Y-211329127D01*
X109620564Y-211301934D01*
X109549881Y-211220360D01*
X109549879Y-211220359D01*
X109549878Y-211220357D01*
X109492932Y-211183760D01*
X109428804Y-211142547D01*
X109428800Y-211142546D01*
X109290714Y-211102000D01*
X109290711Y-211102000D01*
X109146789Y-211102000D01*
X109146786Y-211102000D01*
X109008699Y-211142546D01*
X109008695Y-211142547D01*
X108887625Y-211220355D01*
X108887618Y-211220360D01*
X108793373Y-211329126D01*
X108733583Y-211460047D01*
X108731878Y-211471906D01*
X108702977Y-211520613D01*
X108648098Y-211534618D01*
X108602707Y-211509832D01*
X108589499Y-211494589D01*
X108589497Y-211494587D01*
X108589495Y-211494585D01*
X108532549Y-211457988D01*
X108468421Y-211416775D01*
X108468417Y-211416774D01*
X108330331Y-211376228D01*
X108330328Y-211376228D01*
X108186406Y-211376228D01*
X108186403Y-211376228D01*
X108048316Y-211416774D01*
X108048312Y-211416775D01*
X107927242Y-211494583D01*
X107927235Y-211494588D01*
X107832990Y-211603354D01*
X107773201Y-211734273D01*
X107752720Y-211876728D01*
X98530581Y-211876728D01*
X98511714Y-211835415D01*
X98440302Y-211753000D01*
X98417468Y-211726648D01*
X98417466Y-211726647D01*
X98417465Y-211726645D01*
X98359448Y-211689360D01*
X98296391Y-211648835D01*
X98296387Y-211648834D01*
X98158301Y-211608288D01*
X98158298Y-211608288D01*
X98014376Y-211608288D01*
X98014373Y-211608288D01*
X97876286Y-211648834D01*
X97876282Y-211648835D01*
X97755212Y-211726643D01*
X97755205Y-211726648D01*
X97660960Y-211835414D01*
X97601171Y-211966333D01*
X97580690Y-212108788D01*
X97601171Y-212251242D01*
X97601171Y-212251243D01*
X97601172Y-212251245D01*
X97632551Y-212319954D01*
X97660960Y-212382161D01*
X97719129Y-212449292D01*
X97737014Y-212503030D01*
X97719129Y-212546210D01*
X97642027Y-212635191D01*
X97582238Y-212766111D01*
X97561757Y-212908566D01*
X85219250Y-212908566D01*
X85219250Y-212077500D01*
X92638103Y-212077500D01*
X92658584Y-212219954D01*
X92718373Y-212350873D01*
X92812618Y-212459639D01*
X92812619Y-212459640D01*
X92812622Y-212459643D01*
X92933697Y-212537453D01*
X93037943Y-212568062D01*
X93071785Y-212577999D01*
X93071787Y-212578000D01*
X93071789Y-212578000D01*
X93215713Y-212578000D01*
X93215714Y-212577999D01*
X93353803Y-212537453D01*
X93474878Y-212459643D01*
X93569127Y-212350873D01*
X93628915Y-212219957D01*
X93649397Y-212077500D01*
X93628915Y-211935043D01*
X93569127Y-211804127D01*
X93508919Y-211734643D01*
X93474881Y-211695360D01*
X93474879Y-211695359D01*
X93474878Y-211695357D01*
X93380407Y-211634644D01*
X93353804Y-211617547D01*
X93353800Y-211617546D01*
X93215714Y-211577000D01*
X93215711Y-211577000D01*
X93071789Y-211577000D01*
X93071786Y-211577000D01*
X92933699Y-211617546D01*
X92933695Y-211617547D01*
X92812625Y-211695355D01*
X92812618Y-211695360D01*
X92718373Y-211804126D01*
X92658584Y-211935045D01*
X92638103Y-212077500D01*
X85219250Y-212077500D01*
X85219250Y-210773946D01*
X98265003Y-210773946D01*
X98285484Y-210916400D01*
X98285484Y-210916401D01*
X98285485Y-210916403D01*
X98327712Y-211008867D01*
X98345273Y-211047319D01*
X98439518Y-211156085D01*
X98439519Y-211156086D01*
X98439522Y-211156089D01*
X98560597Y-211233899D01*
X98667053Y-211265157D01*
X98698685Y-211274445D01*
X98698687Y-211274446D01*
X98698689Y-211274446D01*
X98757196Y-211274446D01*
X98809522Y-211296120D01*
X98830443Y-211337915D01*
X98851171Y-211482087D01*
X98851171Y-211482088D01*
X98851172Y-211482090D01*
X98908805Y-211608288D01*
X98910960Y-211613006D01*
X99005205Y-211721772D01*
X99005206Y-211721773D01*
X99005209Y-211721776D01*
X99043424Y-211746335D01*
X99119703Y-211795357D01*
X99126284Y-211799586D01*
X99232740Y-211830844D01*
X99264372Y-211840132D01*
X99264374Y-211840133D01*
X99264376Y-211840133D01*
X99408300Y-211840133D01*
X99408301Y-211840132D01*
X99424366Y-211835415D01*
X99546390Y-211799586D01*
X99667465Y-211721776D01*
X99761714Y-211613006D01*
X99821502Y-211482090D01*
X99841984Y-211339633D01*
X99821502Y-211197176D01*
X99761714Y-211066260D01*
X99738151Y-211039067D01*
X99667468Y-210957493D01*
X99667466Y-210957492D01*
X99667465Y-210957490D01*
X99578166Y-210900101D01*
X99546391Y-210879680D01*
X99546387Y-210879679D01*
X99408301Y-210839133D01*
X99408298Y-210839133D01*
X99349791Y-210839133D01*
X99297465Y-210817459D01*
X99276544Y-210775664D01*
X99255815Y-210631491D01*
X99255815Y-210631489D01*
X99196027Y-210500573D01*
X99162295Y-210461644D01*
X99101781Y-210391806D01*
X99101779Y-210391805D01*
X99101778Y-210391803D01*
X99041209Y-210352878D01*
X98980704Y-210313993D01*
X98980700Y-210313992D01*
X98842614Y-210273446D01*
X98842611Y-210273446D01*
X98698689Y-210273446D01*
X98698686Y-210273446D01*
X98560599Y-210313992D01*
X98560595Y-210313993D01*
X98439525Y-210391801D01*
X98439518Y-210391806D01*
X98345273Y-210500572D01*
X98285484Y-210631491D01*
X98265003Y-210773946D01*
X85219250Y-210773946D01*
X85219250Y-208727500D01*
X90788103Y-208727500D01*
X90808584Y-208869954D01*
X90808584Y-208869955D01*
X90808585Y-208869957D01*
X90858188Y-208978571D01*
X90868373Y-209000873D01*
X90962618Y-209109639D01*
X90962619Y-209109640D01*
X90962622Y-209109643D01*
X91083697Y-209187453D01*
X91190153Y-209218711D01*
X91221785Y-209227999D01*
X91221787Y-209228000D01*
X91221789Y-209228000D01*
X91365713Y-209228000D01*
X91365714Y-209227999D01*
X91503803Y-209187453D01*
X91624878Y-209109643D01*
X91719127Y-209000873D01*
X91778915Y-208869957D01*
X91799397Y-208727500D01*
X93713103Y-208727500D01*
X93733584Y-208869954D01*
X93733584Y-208869955D01*
X93733585Y-208869957D01*
X93783188Y-208978571D01*
X93793373Y-209000873D01*
X93887618Y-209109639D01*
X93887619Y-209109640D01*
X93887622Y-209109643D01*
X94008697Y-209187453D01*
X94115153Y-209218711D01*
X94146785Y-209227999D01*
X94146787Y-209228000D01*
X94146789Y-209228000D01*
X94290713Y-209228000D01*
X94290714Y-209227999D01*
X94428803Y-209187453D01*
X94549878Y-209109643D01*
X94644127Y-209000873D01*
X94668214Y-208948130D01*
X99762591Y-208948130D01*
X99783072Y-209090584D01*
X99783072Y-209090585D01*
X99783073Y-209090587D01*
X99827310Y-209187452D01*
X99842861Y-209221503D01*
X99937106Y-209330269D01*
X99937107Y-209330270D01*
X99937110Y-209330273D01*
X100058185Y-209408083D01*
X100164641Y-209439341D01*
X100196273Y-209448629D01*
X100196275Y-209448630D01*
X100196277Y-209448630D01*
X100254784Y-209448630D01*
X100307110Y-209470304D01*
X100328031Y-209512099D01*
X100348759Y-209656271D01*
X100348759Y-209656272D01*
X100348760Y-209656274D01*
X100408548Y-209787190D01*
X100502793Y-209895956D01*
X100502794Y-209895957D01*
X100502797Y-209895960D01*
X100623872Y-209973770D01*
X100730328Y-210005028D01*
X100761960Y-210014316D01*
X100761962Y-210014317D01*
X100761964Y-210014317D01*
X100820471Y-210014317D01*
X100872797Y-210035991D01*
X100893718Y-210077786D01*
X100914446Y-210221959D01*
X100914446Y-210221960D01*
X100914447Y-210221962D01*
X100924778Y-210244583D01*
X100974235Y-210352878D01*
X101068480Y-210461644D01*
X101068481Y-210461645D01*
X101068484Y-210461648D01*
X101189559Y-210539458D01*
X101296015Y-210570716D01*
X101327647Y-210580004D01*
X101327649Y-210580005D01*
X101406693Y-210580005D01*
X101459019Y-210601679D01*
X101479940Y-210643474D01*
X101498013Y-210769182D01*
X101498013Y-210769183D01*
X101498014Y-210769185D01*
X101548476Y-210879680D01*
X101557802Y-210900101D01*
X101652047Y-211008867D01*
X101652048Y-211008868D01*
X101652051Y-211008871D01*
X101741349Y-211066259D01*
X101761371Y-211079127D01*
X101773126Y-211086681D01*
X101879582Y-211117939D01*
X101911214Y-211127227D01*
X101911216Y-211127228D01*
X101911218Y-211127228D01*
X102055142Y-211127228D01*
X102055143Y-211127227D01*
X102193232Y-211086681D01*
X102314307Y-211008871D01*
X102408556Y-210900101D01*
X102468344Y-210769185D01*
X102488826Y-210626728D01*
X102468344Y-210484271D01*
X102408556Y-210353355D01*
X102374448Y-210313992D01*
X102314310Y-210244588D01*
X102314308Y-210244587D01*
X102314307Y-210244585D01*
X102225408Y-210187453D01*
X102193233Y-210166775D01*
X102193229Y-210166774D01*
X102055143Y-210126228D01*
X102055140Y-210126228D01*
X101976098Y-210126228D01*
X101923772Y-210104554D01*
X101902851Y-210062759D01*
X101899002Y-210035991D01*
X101897781Y-210027500D01*
X112013103Y-210027500D01*
X112033584Y-210169954D01*
X112033584Y-210169955D01*
X112033585Y-210169957D01*
X112057334Y-210221959D01*
X112093373Y-210300873D01*
X112187618Y-210409639D01*
X112187619Y-210409640D01*
X112187622Y-210409643D01*
X112268544Y-210461648D01*
X112303748Y-210484273D01*
X112308697Y-210487453D01*
X112415153Y-210518711D01*
X112446785Y-210527999D01*
X112446787Y-210528000D01*
X112446789Y-210528000D01*
X112590713Y-210528000D01*
X112590714Y-210527999D01*
X112728803Y-210487453D01*
X112849878Y-210409643D01*
X112944127Y-210300873D01*
X113003915Y-210169957D01*
X113024397Y-210027500D01*
X117438103Y-210027500D01*
X117458584Y-210169954D01*
X117458584Y-210169955D01*
X117458585Y-210169957D01*
X117482334Y-210221959D01*
X117518373Y-210300873D01*
X117612618Y-210409639D01*
X117612619Y-210409640D01*
X117612622Y-210409643D01*
X117693544Y-210461648D01*
X117728748Y-210484273D01*
X117733697Y-210487453D01*
X117840153Y-210518711D01*
X117871785Y-210527999D01*
X117871787Y-210528000D01*
X117871789Y-210528000D01*
X118015713Y-210528000D01*
X118015714Y-210527999D01*
X118153803Y-210487453D01*
X118274878Y-210409643D01*
X118369127Y-210300873D01*
X118428915Y-210169957D01*
X118449397Y-210027500D01*
X118428915Y-209885043D01*
X118369127Y-209754127D01*
X118346055Y-209727500D01*
X124813103Y-209727500D01*
X124833584Y-209869954D01*
X124833584Y-209869955D01*
X124833585Y-209869957D01*
X124845461Y-209895961D01*
X124893373Y-210000873D01*
X124987618Y-210109639D01*
X124987619Y-210109640D01*
X124987622Y-210109643D01*
X125108697Y-210187453D01*
X125215153Y-210218711D01*
X125246785Y-210227999D01*
X125246787Y-210228000D01*
X125246789Y-210228000D01*
X125390713Y-210228000D01*
X125390714Y-210227999D01*
X125528803Y-210187453D01*
X125649878Y-210109643D01*
X125744127Y-210000873D01*
X125803915Y-209869957D01*
X125824397Y-209727500D01*
X125803915Y-209585043D01*
X125744127Y-209454127D01*
X125692372Y-209394398D01*
X125649881Y-209345360D01*
X125649879Y-209345359D01*
X125649878Y-209345357D01*
X125592932Y-209308760D01*
X125528804Y-209267547D01*
X125528800Y-209267546D01*
X125390714Y-209227000D01*
X125390711Y-209227000D01*
X125246789Y-209227000D01*
X125246786Y-209227000D01*
X125108699Y-209267546D01*
X125108695Y-209267547D01*
X124987625Y-209345355D01*
X124987618Y-209345360D01*
X124893373Y-209454126D01*
X124833584Y-209585045D01*
X124813103Y-209727500D01*
X118346055Y-209727500D01*
X118274878Y-209645357D01*
X118217932Y-209608760D01*
X118153804Y-209567547D01*
X118153800Y-209567546D01*
X118015714Y-209527000D01*
X118015711Y-209527000D01*
X117871789Y-209527000D01*
X117871786Y-209527000D01*
X117733699Y-209567546D01*
X117733695Y-209567547D01*
X117612625Y-209645355D01*
X117612618Y-209645360D01*
X117518373Y-209754126D01*
X117458584Y-209885045D01*
X117438103Y-210027500D01*
X113024397Y-210027500D01*
X113003915Y-209885043D01*
X112944127Y-209754127D01*
X112849878Y-209645357D01*
X112792932Y-209608760D01*
X112728804Y-209567547D01*
X112728800Y-209567546D01*
X112590714Y-209527000D01*
X112590711Y-209527000D01*
X112446789Y-209527000D01*
X112446786Y-209527000D01*
X112308699Y-209567546D01*
X112308695Y-209567547D01*
X112187625Y-209645355D01*
X112187618Y-209645360D01*
X112093373Y-209754126D01*
X112033584Y-209885045D01*
X112013103Y-210027500D01*
X101897781Y-210027500D01*
X101884777Y-209937048D01*
X101824989Y-209806132D01*
X101779926Y-209754126D01*
X101730743Y-209697365D01*
X101730741Y-209697364D01*
X101730740Y-209697362D01*
X101649823Y-209645360D01*
X101609666Y-209619552D01*
X101609662Y-209619551D01*
X101471576Y-209579005D01*
X101471573Y-209579005D01*
X101413066Y-209579005D01*
X101360740Y-209557331D01*
X101339819Y-209515536D01*
X101330990Y-209454126D01*
X101319090Y-209371360D01*
X101264554Y-209251944D01*
X106890059Y-209251944D01*
X106910540Y-209394398D01*
X106910540Y-209394399D01*
X106910541Y-209394401D01*
X106965077Y-209513817D01*
X106970329Y-209525317D01*
X107064574Y-209634083D01*
X107064575Y-209634084D01*
X107064578Y-209634087D01*
X107185653Y-209711897D01*
X107292109Y-209743155D01*
X107323741Y-209752443D01*
X107323743Y-209752444D01*
X107323745Y-209752444D01*
X107467669Y-209752444D01*
X107467670Y-209752443D01*
X107605759Y-209711897D01*
X107726834Y-209634087D01*
X107821083Y-209525317D01*
X107880871Y-209394401D01*
X107901353Y-209251944D01*
X107880871Y-209109487D01*
X107821083Y-208978571D01*
X107777263Y-208928000D01*
X107726837Y-208869804D01*
X107726835Y-208869803D01*
X107726834Y-208869801D01*
X107633228Y-208809644D01*
X107605760Y-208791991D01*
X107605756Y-208791990D01*
X107467670Y-208751444D01*
X107467667Y-208751444D01*
X107323745Y-208751444D01*
X107323742Y-208751444D01*
X107185655Y-208791990D01*
X107185651Y-208791991D01*
X107064581Y-208869799D01*
X107064574Y-208869804D01*
X106970329Y-208978570D01*
X106910540Y-209109489D01*
X106890059Y-209251944D01*
X101264554Y-209251944D01*
X101259302Y-209240444D01*
X101235739Y-209213251D01*
X101165056Y-209131677D01*
X101165054Y-209131676D01*
X101165053Y-209131674D01*
X101101116Y-209090584D01*
X101043979Y-209053864D01*
X101043975Y-209053863D01*
X100905889Y-209013317D01*
X100905886Y-209013317D01*
X100847379Y-209013317D01*
X100795053Y-208991643D01*
X100774132Y-208949848D01*
X100765161Y-208887452D01*
X100753403Y-208805673D01*
X100693615Y-208674757D01*
X100602806Y-208569957D01*
X100599369Y-208565990D01*
X100599367Y-208565989D01*
X100599366Y-208565987D01*
X100542420Y-208529390D01*
X100478292Y-208488177D01*
X100478288Y-208488176D01*
X100340202Y-208447630D01*
X100340199Y-208447630D01*
X100196277Y-208447630D01*
X100196274Y-208447630D01*
X100058187Y-208488176D01*
X100058183Y-208488177D01*
X99937113Y-208565985D01*
X99937106Y-208565990D01*
X99842861Y-208674756D01*
X99783072Y-208805675D01*
X99762591Y-208948130D01*
X94668214Y-208948130D01*
X94703915Y-208869957D01*
X94724397Y-208727500D01*
X94703915Y-208585043D01*
X94644127Y-208454127D01*
X94621055Y-208427500D01*
X119238103Y-208427500D01*
X119258584Y-208569954D01*
X119318373Y-208700873D01*
X119412618Y-208809639D01*
X119412619Y-208809640D01*
X119412622Y-208809643D01*
X119533697Y-208887453D01*
X119640153Y-208918711D01*
X119671785Y-208927999D01*
X119671787Y-208928000D01*
X119671789Y-208928000D01*
X119815713Y-208928000D01*
X119815714Y-208927999D01*
X119953803Y-208887453D01*
X120074878Y-208809643D01*
X120169127Y-208700873D01*
X120228915Y-208569957D01*
X120249397Y-208427500D01*
X123588103Y-208427500D01*
X123608584Y-208569954D01*
X123668373Y-208700873D01*
X123762618Y-208809639D01*
X123762619Y-208809640D01*
X123762622Y-208809643D01*
X123883697Y-208887453D01*
X123990153Y-208918711D01*
X124021785Y-208927999D01*
X124021787Y-208928000D01*
X124021789Y-208928000D01*
X124165713Y-208928000D01*
X124165714Y-208927999D01*
X124303803Y-208887453D01*
X124424878Y-208809643D01*
X124519127Y-208700873D01*
X124578915Y-208569957D01*
X124599397Y-208427500D01*
X124578915Y-208285043D01*
X124519127Y-208154127D01*
X124424878Y-208045357D01*
X124367932Y-208008760D01*
X124303804Y-207967547D01*
X124303800Y-207967546D01*
X124165714Y-207927000D01*
X124165711Y-207927000D01*
X124021789Y-207927000D01*
X124021786Y-207927000D01*
X123883699Y-207967546D01*
X123883695Y-207967547D01*
X123762625Y-208045355D01*
X123762618Y-208045360D01*
X123668373Y-208154126D01*
X123608584Y-208285045D01*
X123588103Y-208427500D01*
X120249397Y-208427500D01*
X120228915Y-208285043D01*
X120169127Y-208154127D01*
X120074878Y-208045357D01*
X120017932Y-208008760D01*
X119953804Y-207967547D01*
X119953800Y-207967546D01*
X119815714Y-207927000D01*
X119815711Y-207927000D01*
X119671789Y-207927000D01*
X119671786Y-207927000D01*
X119533699Y-207967546D01*
X119533695Y-207967547D01*
X119412625Y-208045355D01*
X119412618Y-208045360D01*
X119318373Y-208154126D01*
X119258584Y-208285045D01*
X119238103Y-208427500D01*
X94621055Y-208427500D01*
X94549878Y-208345357D01*
X94492932Y-208308760D01*
X94428804Y-208267547D01*
X94428800Y-208267546D01*
X94290714Y-208227000D01*
X94290711Y-208227000D01*
X94146789Y-208227000D01*
X94146786Y-208227000D01*
X94008699Y-208267546D01*
X94008695Y-208267547D01*
X93887625Y-208345355D01*
X93887618Y-208345360D01*
X93793373Y-208454126D01*
X93733584Y-208585045D01*
X93713103Y-208727500D01*
X91799397Y-208727500D01*
X91778915Y-208585043D01*
X91719127Y-208454127D01*
X91624878Y-208345357D01*
X91567932Y-208308760D01*
X91503804Y-208267547D01*
X91503800Y-208267546D01*
X91365714Y-208227000D01*
X91365711Y-208227000D01*
X91221789Y-208227000D01*
X91221786Y-208227000D01*
X91083699Y-208267546D01*
X91083695Y-208267547D01*
X90962625Y-208345355D01*
X90962618Y-208345360D01*
X90868373Y-208454126D01*
X90808584Y-208585045D01*
X90788103Y-208727500D01*
X85219250Y-208727500D01*
X85219250Y-206508899D01*
X91313100Y-206508899D01*
X91333581Y-206651353D01*
X91393370Y-206782272D01*
X91487615Y-206891038D01*
X91487616Y-206891039D01*
X91487619Y-206891042D01*
X91608694Y-206968852D01*
X91715150Y-207000110D01*
X91746782Y-207009398D01*
X91746784Y-207009399D01*
X91746786Y-207009399D01*
X91890710Y-207009399D01*
X91890711Y-207009398D01*
X92028800Y-206968852D01*
X92149875Y-206891042D01*
X92162820Y-206876101D01*
X92213465Y-206850748D01*
X92267204Y-206868632D01*
X92274671Y-206876098D01*
X92287616Y-206891037D01*
X92287621Y-206891041D01*
X92287622Y-206891042D01*
X92408697Y-206968852D01*
X92515153Y-207000110D01*
X92546785Y-207009398D01*
X92546787Y-207009399D01*
X92546789Y-207009399D01*
X92690713Y-207009399D01*
X92690714Y-207009398D01*
X92828803Y-206968852D01*
X92949878Y-206891042D01*
X93044127Y-206782272D01*
X93103915Y-206651356D01*
X93124397Y-206508899D01*
X93103915Y-206366442D01*
X93044127Y-206235526D01*
X92962827Y-206141700D01*
X92949881Y-206126759D01*
X92949879Y-206126758D01*
X92949878Y-206126756D01*
X92892932Y-206090159D01*
X92828804Y-206048946D01*
X92828800Y-206048945D01*
X92755766Y-206027500D01*
X103384556Y-206027500D01*
X103405037Y-206169954D01*
X103464826Y-206300873D01*
X103559071Y-206409639D01*
X103559072Y-206409640D01*
X103559075Y-206409643D01*
X103680150Y-206487453D01*
X103786606Y-206518711D01*
X103818238Y-206527999D01*
X103818240Y-206528000D01*
X103818242Y-206528000D01*
X103962166Y-206528000D01*
X103962167Y-206527999D01*
X104100256Y-206487453D01*
X104221331Y-206409643D01*
X104315580Y-206300873D01*
X104375368Y-206169957D01*
X104395850Y-206027500D01*
X104375368Y-205885043D01*
X104315580Y-205754127D01*
X104292017Y-205726934D01*
X104221334Y-205645360D01*
X104221332Y-205645359D01*
X104221331Y-205645357D01*
X104151790Y-205600666D01*
X104100257Y-205567547D01*
X104100253Y-205567546D01*
X103962167Y-205527000D01*
X103962164Y-205527000D01*
X103818242Y-205527000D01*
X103818239Y-205527000D01*
X103680152Y-205567546D01*
X103680148Y-205567547D01*
X103559078Y-205645355D01*
X103559071Y-205645360D01*
X103464826Y-205754126D01*
X103405037Y-205885045D01*
X103384556Y-206027500D01*
X92755766Y-206027500D01*
X92690714Y-206008399D01*
X92690711Y-206008399D01*
X92546789Y-206008399D01*
X92546786Y-206008399D01*
X92408699Y-206048945D01*
X92408695Y-206048946D01*
X92287621Y-206126756D01*
X92287619Y-206126758D01*
X92274671Y-206141700D01*
X92224023Y-206167050D01*
X92170286Y-206149161D01*
X92162822Y-206141697D01*
X92149878Y-206126758D01*
X92149875Y-206126756D01*
X92028801Y-206048946D01*
X92028797Y-206048945D01*
X91890711Y-206008399D01*
X91890708Y-206008399D01*
X91746786Y-206008399D01*
X91746783Y-206008399D01*
X91608696Y-206048945D01*
X91608692Y-206048946D01*
X91487622Y-206126754D01*
X91487615Y-206126759D01*
X91393370Y-206235525D01*
X91333581Y-206366444D01*
X91313100Y-206508899D01*
X85219250Y-206508899D01*
X85219250Y-204878508D01*
X86393250Y-204878508D01*
X86393250Y-205016491D01*
X86420168Y-205151822D01*
X86420171Y-205151832D01*
X86472973Y-205279308D01*
X86472974Y-205279310D01*
X86472975Y-205279311D01*
X86549636Y-205394042D01*
X86647208Y-205491614D01*
X86761939Y-205568275D01*
X86889422Y-205621080D01*
X87024757Y-205648000D01*
X87024759Y-205648000D01*
X87762741Y-205648000D01*
X87762743Y-205648000D01*
X87898078Y-205621080D01*
X88025561Y-205568275D01*
X88140292Y-205491614D01*
X88237864Y-205394042D01*
X88314525Y-205279311D01*
X88367330Y-205151828D01*
X88394250Y-205016493D01*
X88394250Y-204878508D01*
X90323250Y-204878508D01*
X90323250Y-205016491D01*
X90350168Y-205151822D01*
X90350171Y-205151832D01*
X90402973Y-205279308D01*
X90402974Y-205279310D01*
X90402975Y-205279311D01*
X90479636Y-205394042D01*
X90577208Y-205491614D01*
X90691939Y-205568275D01*
X90819422Y-205621080D01*
X90954757Y-205648000D01*
X90954759Y-205648000D01*
X92192741Y-205648000D01*
X92192743Y-205648000D01*
X92328078Y-205621080D01*
X92455561Y-205568275D01*
X92570292Y-205491614D01*
X92667864Y-205394042D01*
X92744525Y-205279311D01*
X92797330Y-205151828D01*
X92807606Y-205100167D01*
X109247261Y-205100167D01*
X109267742Y-205242621D01*
X109327531Y-205373540D01*
X109421776Y-205482306D01*
X109421777Y-205482307D01*
X109421780Y-205482310D01*
X109542855Y-205560120D01*
X109649311Y-205591378D01*
X109680943Y-205600666D01*
X109680945Y-205600667D01*
X109680947Y-205600667D01*
X109824871Y-205600667D01*
X109824872Y-205600666D01*
X109962961Y-205560120D01*
X110084036Y-205482310D01*
X110178285Y-205373540D01*
X110238073Y-205242624D01*
X110258555Y-205100167D01*
X110238073Y-204957710D01*
X110178285Y-204826794D01*
X110105827Y-204743172D01*
X110084039Y-204718027D01*
X110084037Y-204718026D01*
X110084036Y-204718024D01*
X110020979Y-204677500D01*
X114613103Y-204677500D01*
X114633584Y-204819954D01*
X114633584Y-204819955D01*
X114633585Y-204819957D01*
X114660324Y-204878507D01*
X114693373Y-204950873D01*
X114787618Y-205059639D01*
X114787619Y-205059640D01*
X114787622Y-205059643D01*
X114908697Y-205137453D01*
X115015153Y-205168711D01*
X115046785Y-205177999D01*
X115046787Y-205178000D01*
X115046789Y-205178000D01*
X115190713Y-205178000D01*
X115190714Y-205177999D01*
X115328803Y-205137453D01*
X115428744Y-205073224D01*
X115484480Y-205063169D01*
X115508752Y-205073222D01*
X115608697Y-205137453D01*
X115715153Y-205168711D01*
X115746785Y-205177999D01*
X115746787Y-205178000D01*
X115746789Y-205178000D01*
X115890713Y-205178000D01*
X115890714Y-205177999D01*
X116028803Y-205137453D01*
X116128744Y-205073224D01*
X116184480Y-205063169D01*
X116208752Y-205073222D01*
X116308697Y-205137453D01*
X116415153Y-205168711D01*
X116446785Y-205177999D01*
X116446787Y-205178000D01*
X116446789Y-205178000D01*
X116590713Y-205178000D01*
X116590714Y-205177999D01*
X116728803Y-205137453D01*
X116849878Y-205059643D01*
X116944127Y-204950873D01*
X117003915Y-204819957D01*
X117024397Y-204677500D01*
X117003915Y-204535043D01*
X116944127Y-204404127D01*
X116920564Y-204376934D01*
X116849881Y-204295360D01*
X116849879Y-204295359D01*
X116849878Y-204295357D01*
X116774633Y-204247000D01*
X116728804Y-204217547D01*
X116728800Y-204217546D01*
X116590714Y-204177000D01*
X116590711Y-204177000D01*
X116446789Y-204177000D01*
X116446786Y-204177000D01*
X116308699Y-204217546D01*
X116308695Y-204217548D01*
X116208757Y-204281773D01*
X116153019Y-204291829D01*
X116128743Y-204281773D01*
X116049227Y-204230672D01*
X116028803Y-204217547D01*
X116028800Y-204217546D01*
X115890714Y-204177000D01*
X115890711Y-204177000D01*
X115746789Y-204177000D01*
X115746786Y-204177000D01*
X115608699Y-204217546D01*
X115608695Y-204217548D01*
X115508757Y-204281773D01*
X115453019Y-204291829D01*
X115428743Y-204281773D01*
X115349227Y-204230672D01*
X115328803Y-204217547D01*
X115328800Y-204217546D01*
X115190714Y-204177000D01*
X115190711Y-204177000D01*
X115046789Y-204177000D01*
X115046786Y-204177000D01*
X114908699Y-204217546D01*
X114908695Y-204217547D01*
X114787625Y-204295355D01*
X114787618Y-204295360D01*
X114693373Y-204404126D01*
X114633584Y-204535045D01*
X114613103Y-204677500D01*
X110020979Y-204677500D01*
X109962962Y-204640214D01*
X109962958Y-204640213D01*
X109824872Y-204599667D01*
X109824869Y-204599667D01*
X109680947Y-204599667D01*
X109680944Y-204599667D01*
X109542857Y-204640213D01*
X109542853Y-204640214D01*
X109421783Y-204718022D01*
X109421776Y-204718027D01*
X109327531Y-204826793D01*
X109267742Y-204957712D01*
X109247261Y-205100167D01*
X92807606Y-205100167D01*
X92824250Y-205016493D01*
X92824250Y-204878507D01*
X92797330Y-204743172D01*
X92744525Y-204615689D01*
X92667864Y-204500958D01*
X92570292Y-204403386D01*
X92455561Y-204326725D01*
X92455560Y-204326724D01*
X92455558Y-204326723D01*
X92328082Y-204273921D01*
X92328072Y-204273918D01*
X92237444Y-204255891D01*
X92192743Y-204247000D01*
X90954757Y-204247000D01*
X90916392Y-204254631D01*
X90819427Y-204273918D01*
X90819417Y-204273921D01*
X90691941Y-204326723D01*
X90577211Y-204403383D01*
X90479633Y-204500961D01*
X90402973Y-204615691D01*
X90350171Y-204743167D01*
X90350168Y-204743177D01*
X90323250Y-204878508D01*
X88394250Y-204878508D01*
X88394250Y-204878507D01*
X88367330Y-204743172D01*
X88314525Y-204615689D01*
X88237864Y-204500958D01*
X88140292Y-204403386D01*
X88025561Y-204326725D01*
X88025560Y-204326724D01*
X88025558Y-204326723D01*
X87898082Y-204273921D01*
X87898072Y-204273918D01*
X87807444Y-204255891D01*
X87762743Y-204247000D01*
X87024757Y-204247000D01*
X86986392Y-204254631D01*
X86889427Y-204273918D01*
X86889417Y-204273921D01*
X86761941Y-204326723D01*
X86647211Y-204403383D01*
X86549633Y-204500961D01*
X86472973Y-204615691D01*
X86420171Y-204743167D01*
X86420168Y-204743177D01*
X86393250Y-204878508D01*
X85219250Y-204878508D01*
X85219250Y-203454896D01*
X90598250Y-203454896D01*
X90598250Y-203580103D01*
X90630654Y-203701035D01*
X90630655Y-203701036D01*
X90693255Y-203809464D01*
X90781786Y-203897995D01*
X90890214Y-203960595D01*
X90890213Y-203960595D01*
X90960036Y-203979304D01*
X91011146Y-203992999D01*
X91011147Y-203993000D01*
X91011149Y-203993000D01*
X91136353Y-203993000D01*
X91136353Y-203992999D01*
X91257286Y-203960595D01*
X91365714Y-203897995D01*
X91454245Y-203809464D01*
X91516845Y-203701036D01*
X91549249Y-203580103D01*
X91549250Y-203580103D01*
X91549250Y-203454897D01*
X91549249Y-203454896D01*
X91516845Y-203333964D01*
X91454245Y-203225536D01*
X91365713Y-203137004D01*
X91257284Y-203074404D01*
X91257286Y-203074404D01*
X91136353Y-203042000D01*
X91136351Y-203042000D01*
X91011149Y-203042000D01*
X91011147Y-203042000D01*
X90890214Y-203074404D01*
X90781786Y-203137004D01*
X90693254Y-203225536D01*
X90630654Y-203333964D01*
X90598250Y-203454896D01*
X85219250Y-203454896D01*
X85219250Y-200627500D01*
X87463103Y-200627500D01*
X87483584Y-200769954D01*
X87483584Y-200769955D01*
X87483585Y-200769957D01*
X87522022Y-200854122D01*
X87543373Y-200900873D01*
X87637618Y-201009639D01*
X87637619Y-201009640D01*
X87637622Y-201009643D01*
X87758697Y-201087453D01*
X87861186Y-201117546D01*
X87896785Y-201127999D01*
X87896787Y-201128000D01*
X87896789Y-201128000D01*
X88040713Y-201128000D01*
X88040714Y-201127999D01*
X88178803Y-201087453D01*
X88299878Y-201009643D01*
X88394127Y-200900873D01*
X88453915Y-200769957D01*
X88474397Y-200627500D01*
X90058103Y-200627500D01*
X90078584Y-200769954D01*
X90078584Y-200769955D01*
X90078585Y-200769957D01*
X90117022Y-200854122D01*
X90138373Y-200900873D01*
X90232618Y-201009639D01*
X90232619Y-201009640D01*
X90232622Y-201009643D01*
X90353697Y-201087453D01*
X90456186Y-201117546D01*
X90491785Y-201127999D01*
X90491787Y-201128000D01*
X90633950Y-201128000D01*
X90686276Y-201149674D01*
X90707950Y-201202000D01*
X90689876Y-201250459D01*
X90643373Y-201304126D01*
X90583584Y-201435045D01*
X90563103Y-201577500D01*
X90583584Y-201719954D01*
X90643373Y-201850873D01*
X90737618Y-201959639D01*
X90737619Y-201959640D01*
X90737622Y-201959643D01*
X90858697Y-202037453D01*
X90965153Y-202068711D01*
X90996785Y-202077999D01*
X90996787Y-202078000D01*
X90996789Y-202078000D01*
X91140713Y-202078000D01*
X91140714Y-202077999D01*
X91278803Y-202037453D01*
X91399878Y-201959643D01*
X91494127Y-201850873D01*
X91553915Y-201719957D01*
X91574397Y-201577500D01*
X91553915Y-201435043D01*
X91550470Y-201427500D01*
X95463103Y-201427500D01*
X95483584Y-201569954D01*
X95543373Y-201700873D01*
X95637618Y-201809639D01*
X95637619Y-201809640D01*
X95637622Y-201809643D01*
X95758697Y-201887453D01*
X95865153Y-201918711D01*
X95896785Y-201927999D01*
X95896787Y-201928000D01*
X95896789Y-201928000D01*
X96040713Y-201928000D01*
X96040714Y-201927999D01*
X96178803Y-201887453D01*
X96299878Y-201809643D01*
X96394127Y-201700873D01*
X96453915Y-201569957D01*
X96474397Y-201427500D01*
X96453915Y-201285043D01*
X96394127Y-201154127D01*
X96370564Y-201126934D01*
X96299881Y-201045360D01*
X96299879Y-201045359D01*
X96299878Y-201045357D01*
X96233969Y-201003000D01*
X96178804Y-200967547D01*
X96178800Y-200967546D01*
X96040714Y-200927000D01*
X96040711Y-200927000D01*
X95896789Y-200927000D01*
X95896786Y-200927000D01*
X95758699Y-200967546D01*
X95758695Y-200967547D01*
X95637625Y-201045355D01*
X95637618Y-201045360D01*
X95543373Y-201154126D01*
X95483584Y-201285045D01*
X95463103Y-201427500D01*
X91550470Y-201427500D01*
X91494127Y-201304127D01*
X91447624Y-201250459D01*
X91399881Y-201195360D01*
X91399879Y-201195359D01*
X91399878Y-201195357D01*
X91328794Y-201149674D01*
X91278804Y-201117547D01*
X91278800Y-201117546D01*
X91140714Y-201077000D01*
X91140711Y-201077000D01*
X90998550Y-201077000D01*
X90946224Y-201055326D01*
X90924550Y-201003000D01*
X90942624Y-200954541D01*
X90966488Y-200927000D01*
X90989127Y-200900873D01*
X91048915Y-200769957D01*
X91069397Y-200627500D01*
X91048915Y-200485043D01*
X90999801Y-200377500D01*
X98710602Y-200377500D01*
X98731083Y-200519954D01*
X98790873Y-200650875D01*
X98790874Y-200650877D01*
X98836941Y-200704041D01*
X98854826Y-200757779D01*
X98836941Y-200800959D01*
X98790874Y-200854122D01*
X98790873Y-200854124D01*
X98731083Y-200985045D01*
X98710602Y-201127500D01*
X98731083Y-201269954D01*
X98790873Y-201400875D01*
X98790874Y-201400877D01*
X98836941Y-201454041D01*
X98854826Y-201507779D01*
X98836941Y-201550959D01*
X98790874Y-201604122D01*
X98790873Y-201604124D01*
X98731083Y-201735045D01*
X98710602Y-201877500D01*
X98731083Y-202019954D01*
X98731083Y-202019955D01*
X98731084Y-202019957D01*
X98757591Y-202077999D01*
X98790872Y-202150873D01*
X98885117Y-202259639D01*
X98885118Y-202259640D01*
X98885121Y-202259643D01*
X99006196Y-202337453D01*
X99112652Y-202368711D01*
X99144284Y-202377999D01*
X99144286Y-202378000D01*
X99144288Y-202378000D01*
X99288212Y-202378000D01*
X99288213Y-202377999D01*
X99426302Y-202337453D01*
X99547377Y-202259643D01*
X99641626Y-202150873D01*
X99701414Y-202019957D01*
X99721896Y-201877500D01*
X99701414Y-201735043D01*
X99641626Y-201604127D01*
X99595556Y-201550959D01*
X99577671Y-201497221D01*
X99595556Y-201454041D01*
X99612016Y-201435045D01*
X99641626Y-201400873D01*
X99665885Y-201347753D01*
X111903250Y-201347753D01*
X111903250Y-203087246D01*
X111914883Y-203145732D01*
X111944358Y-203189843D01*
X111959198Y-203212052D01*
X111979378Y-203225536D01*
X112025517Y-203256366D01*
X112025518Y-203256366D01*
X112025519Y-203256367D01*
X112084002Y-203268000D01*
X112084004Y-203268000D01*
X113823496Y-203268000D01*
X113823498Y-203268000D01*
X113881981Y-203256367D01*
X113948302Y-203212052D01*
X113992617Y-203145731D01*
X114004250Y-203087248D01*
X114004250Y-201347752D01*
X113992617Y-201289269D01*
X113989793Y-201285043D01*
X113977777Y-201267060D01*
X113948302Y-201222948D01*
X113916952Y-201202000D01*
X113881982Y-201178633D01*
X113881983Y-201178633D01*
X113852739Y-201172816D01*
X113823498Y-201167000D01*
X112084002Y-201167000D01*
X112054760Y-201172816D01*
X112025517Y-201178633D01*
X111959199Y-201222947D01*
X111959197Y-201222949D01*
X111914883Y-201289267D01*
X111903250Y-201347753D01*
X99665885Y-201347753D01*
X99701414Y-201269957D01*
X99721896Y-201127500D01*
X99701414Y-200985043D01*
X99641626Y-200854127D01*
X99595556Y-200800959D01*
X99577671Y-200747221D01*
X99595556Y-200704041D01*
X99602549Y-200695969D01*
X99641626Y-200650873D01*
X99701414Y-200519957D01*
X99721896Y-200377500D01*
X99701414Y-200235043D01*
X99641626Y-200104127D01*
X99547377Y-199995357D01*
X99490431Y-199958760D01*
X99426303Y-199917547D01*
X99426299Y-199917546D01*
X99288213Y-199877000D01*
X99288210Y-199877000D01*
X99144288Y-199877000D01*
X99144285Y-199877000D01*
X99006198Y-199917546D01*
X99006194Y-199917547D01*
X98885124Y-199995355D01*
X98885117Y-199995360D01*
X98790872Y-200104126D01*
X98731083Y-200235045D01*
X98710602Y-200377500D01*
X90999801Y-200377500D01*
X90989127Y-200354127D01*
X90942624Y-200300459D01*
X90924739Y-200246720D01*
X90950091Y-200196074D01*
X90998550Y-200178000D01*
X91140713Y-200178000D01*
X91140714Y-200177999D01*
X91278803Y-200137453D01*
X91399878Y-200059643D01*
X91494127Y-199950873D01*
X91553915Y-199819957D01*
X91574397Y-199677500D01*
X91553915Y-199535043D01*
X91550471Y-199527501D01*
X92813103Y-199527501D01*
X92833584Y-199669955D01*
X92833584Y-199669956D01*
X92833585Y-199669958D01*
X92847704Y-199700873D01*
X92893373Y-199800874D01*
X92987618Y-199909640D01*
X92987619Y-199909641D01*
X92987622Y-199909644D01*
X93051776Y-199950873D01*
X93090480Y-199975747D01*
X93108697Y-199987454D01*
X93206918Y-200016294D01*
X93246785Y-200028000D01*
X93246787Y-200028001D01*
X93246789Y-200028001D01*
X93390713Y-200028001D01*
X93390714Y-200028000D01*
X93528803Y-199987454D01*
X93649878Y-199909644D01*
X93744127Y-199800874D01*
X93803915Y-199669958D01*
X93824397Y-199527501D01*
X93822714Y-199515795D01*
X94962379Y-199515795D01*
X94982860Y-199658249D01*
X94982860Y-199658250D01*
X94982861Y-199658252D01*
X95002326Y-199700873D01*
X95042649Y-199789168D01*
X95136894Y-199897934D01*
X95136895Y-199897935D01*
X95136898Y-199897938D01*
X95257973Y-199975748D01*
X95356034Y-200004541D01*
X95396061Y-200016294D01*
X95396063Y-200016295D01*
X95396065Y-200016295D01*
X95539989Y-200016295D01*
X95539990Y-200016294D01*
X95678079Y-199975748D01*
X95799154Y-199897938D01*
X95893403Y-199789168D01*
X95953191Y-199658252D01*
X95973673Y-199515795D01*
X95953191Y-199373338D01*
X95909423Y-199277500D01*
X103373684Y-199277500D01*
X103394165Y-199419954D01*
X103453954Y-199550873D01*
X103548199Y-199659639D01*
X103548200Y-199659640D01*
X103548203Y-199659643D01*
X103669278Y-199737453D01*
X103775734Y-199768711D01*
X103807366Y-199777999D01*
X103807368Y-199778000D01*
X103807370Y-199778000D01*
X103951294Y-199778000D01*
X103951295Y-199777999D01*
X104089384Y-199737453D01*
X104210459Y-199659643D01*
X104304708Y-199550873D01*
X104364496Y-199419957D01*
X104384978Y-199277500D01*
X104364496Y-199135043D01*
X104304708Y-199004127D01*
X104281145Y-198976934D01*
X104210462Y-198895360D01*
X104210460Y-198895359D01*
X104210459Y-198895357D01*
X104140918Y-198850666D01*
X104089385Y-198817547D01*
X104089381Y-198817546D01*
X103951295Y-198777000D01*
X103951292Y-198777000D01*
X103807370Y-198777000D01*
X103807367Y-198777000D01*
X103669280Y-198817546D01*
X103669276Y-198817547D01*
X103548206Y-198895355D01*
X103548199Y-198895360D01*
X103453954Y-199004126D01*
X103394165Y-199135045D01*
X103373684Y-199277500D01*
X95909423Y-199277500D01*
X95893403Y-199242422D01*
X95809300Y-199145361D01*
X95799157Y-199133655D01*
X95799155Y-199133654D01*
X95799154Y-199133652D01*
X95742208Y-199097055D01*
X95678080Y-199055842D01*
X95678076Y-199055841D01*
X95539990Y-199015295D01*
X95539987Y-199015295D01*
X95396065Y-199015295D01*
X95396062Y-199015295D01*
X95257975Y-199055841D01*
X95257971Y-199055842D01*
X95136901Y-199133650D01*
X95136894Y-199133655D01*
X95042649Y-199242421D01*
X94982860Y-199373340D01*
X94962379Y-199515795D01*
X93822714Y-199515795D01*
X93803915Y-199385044D01*
X93744127Y-199254128D01*
X93677296Y-199177000D01*
X93649881Y-199145361D01*
X93649879Y-199145360D01*
X93649878Y-199145358D01*
X93592932Y-199108761D01*
X93528804Y-199067548D01*
X93528800Y-199067547D01*
X93390714Y-199027001D01*
X93390711Y-199027001D01*
X93246789Y-199027001D01*
X93246786Y-199027001D01*
X93108699Y-199067547D01*
X93108695Y-199067548D01*
X92987625Y-199145356D01*
X92987618Y-199145361D01*
X92893373Y-199254127D01*
X92833584Y-199385046D01*
X92813103Y-199527501D01*
X91550471Y-199527501D01*
X91494127Y-199404127D01*
X91399878Y-199295357D01*
X91335723Y-199254127D01*
X91278804Y-199217547D01*
X91278800Y-199217546D01*
X91140714Y-199177000D01*
X91140711Y-199177000D01*
X90996789Y-199177000D01*
X90996786Y-199177000D01*
X90858699Y-199217546D01*
X90858695Y-199217547D01*
X90737625Y-199295355D01*
X90737618Y-199295360D01*
X90643373Y-199404126D01*
X90583584Y-199535045D01*
X90563103Y-199677500D01*
X90583584Y-199819954D01*
X90643373Y-199950873D01*
X90689876Y-200004541D01*
X90707761Y-200058280D01*
X90682409Y-200108926D01*
X90633950Y-200127000D01*
X90491786Y-200127000D01*
X90353699Y-200167546D01*
X90353695Y-200167547D01*
X90232625Y-200245355D01*
X90232618Y-200245360D01*
X90138373Y-200354126D01*
X90078584Y-200485045D01*
X90058103Y-200627500D01*
X88474397Y-200627500D01*
X88453915Y-200485043D01*
X88394127Y-200354127D01*
X88299878Y-200245357D01*
X88242932Y-200208760D01*
X88178804Y-200167547D01*
X88178800Y-200167546D01*
X88040714Y-200127000D01*
X88040711Y-200127000D01*
X87896789Y-200127000D01*
X87896786Y-200127000D01*
X87758699Y-200167546D01*
X87758695Y-200167547D01*
X87637625Y-200245355D01*
X87637618Y-200245360D01*
X87543373Y-200354126D01*
X87483584Y-200485045D01*
X87463103Y-200627500D01*
X85219250Y-200627500D01*
X85219250Y-198350167D01*
X109247261Y-198350167D01*
X109267742Y-198492621D01*
X109327531Y-198623540D01*
X109421776Y-198732306D01*
X109421777Y-198732307D01*
X109421780Y-198732310D01*
X109514382Y-198791821D01*
X109542112Y-198809643D01*
X109542855Y-198810120D01*
X109649311Y-198841378D01*
X109680943Y-198850666D01*
X109680945Y-198850667D01*
X109680947Y-198850667D01*
X109824871Y-198850667D01*
X109824872Y-198850666D01*
X109962961Y-198810120D01*
X110084036Y-198732310D01*
X110178285Y-198623540D01*
X110238073Y-198492624D01*
X110247436Y-198427500D01*
X122648103Y-198427500D01*
X122668584Y-198569954D01*
X122728373Y-198700873D01*
X122822618Y-198809639D01*
X122822619Y-198809640D01*
X122822622Y-198809643D01*
X122886457Y-198850667D01*
X122909144Y-198865247D01*
X122941445Y-198911770D01*
X122931389Y-198967508D01*
X122909144Y-198989752D01*
X122851185Y-199027001D01*
X122822622Y-199045357D01*
X122822618Y-199045360D01*
X122728373Y-199154126D01*
X122668584Y-199285045D01*
X122648103Y-199427500D01*
X122668584Y-199569954D01*
X122668584Y-199569955D01*
X122668585Y-199569957D01*
X122717699Y-199677500D01*
X122728373Y-199700873D01*
X122822618Y-199809639D01*
X122822619Y-199809640D01*
X122822622Y-199809643D01*
X122943697Y-199887453D01*
X123019277Y-199909645D01*
X123081785Y-199927999D01*
X123081787Y-199928000D01*
X123081789Y-199928000D01*
X123084053Y-199928000D01*
X123085257Y-199928498D01*
X123087025Y-199928753D01*
X123086960Y-199929204D01*
X123136379Y-199949674D01*
X123157300Y-199991469D01*
X123168584Y-200069954D01*
X123228373Y-200200873D01*
X123322618Y-200309639D01*
X123322619Y-200309640D01*
X123322622Y-200309643D01*
X123443697Y-200387453D01*
X123550153Y-200418711D01*
X123581785Y-200427999D01*
X123581787Y-200428000D01*
X123581789Y-200428000D01*
X123725713Y-200428000D01*
X123725714Y-200427999D01*
X123863803Y-200387453D01*
X123984878Y-200309643D01*
X124079127Y-200200873D01*
X124086437Y-200184865D01*
X124127889Y-200146272D01*
X124184490Y-200148293D01*
X124221062Y-200184865D01*
X124228373Y-200200873D01*
X124286682Y-200268166D01*
X124322618Y-200309639D01*
X124322619Y-200309640D01*
X124322622Y-200309643D01*
X124443697Y-200387453D01*
X124550153Y-200418711D01*
X124581785Y-200427999D01*
X124581787Y-200428000D01*
X124581789Y-200428000D01*
X124725713Y-200428000D01*
X124725714Y-200427999D01*
X124863803Y-200387453D01*
X124984878Y-200309643D01*
X125079127Y-200200873D01*
X125138915Y-200069957D01*
X125146630Y-200016295D01*
X125150200Y-199991469D01*
X125179100Y-199942760D01*
X125220507Y-199928978D01*
X125220475Y-199928753D01*
X125221724Y-199928573D01*
X125223447Y-199928000D01*
X125225713Y-199928000D01*
X125225714Y-199927999D01*
X125363803Y-199887453D01*
X125484878Y-199809643D01*
X125579127Y-199700873D01*
X125638915Y-199569957D01*
X125659397Y-199427500D01*
X125638915Y-199285043D01*
X125579127Y-199154127D01*
X125555564Y-199126934D01*
X125484881Y-199045360D01*
X125484879Y-199045359D01*
X125484878Y-199045357D01*
X125398355Y-198989752D01*
X125366054Y-198943230D01*
X125376110Y-198887493D01*
X125398356Y-198865247D01*
X125484878Y-198809643D01*
X125579127Y-198700873D01*
X125638915Y-198569957D01*
X125659397Y-198427500D01*
X125638915Y-198285043D01*
X125579127Y-198154127D01*
X125484878Y-198045357D01*
X125427932Y-198008760D01*
X125363804Y-197967547D01*
X125363800Y-197967546D01*
X125225714Y-197927000D01*
X125225711Y-197927000D01*
X125223447Y-197927000D01*
X125222242Y-197926501D01*
X125220475Y-197926247D01*
X125220539Y-197925795D01*
X125171121Y-197905326D01*
X125150200Y-197863531D01*
X125138915Y-197785045D01*
X125138915Y-197785043D01*
X125079127Y-197654127D01*
X124997257Y-197559643D01*
X124984881Y-197545360D01*
X124984879Y-197545359D01*
X124984878Y-197545357D01*
X124927932Y-197508760D01*
X124863804Y-197467547D01*
X124863800Y-197467546D01*
X124725714Y-197427000D01*
X124725711Y-197427000D01*
X124581789Y-197427000D01*
X124581786Y-197427000D01*
X124443699Y-197467546D01*
X124443695Y-197467547D01*
X124322625Y-197545355D01*
X124322618Y-197545360D01*
X124228372Y-197654127D01*
X124221062Y-197670135D01*
X124179609Y-197708728D01*
X124123008Y-197706705D01*
X124086438Y-197670135D01*
X124079127Y-197654127D01*
X123984881Y-197545360D01*
X123984879Y-197545359D01*
X123984878Y-197545357D01*
X123927932Y-197508760D01*
X123863804Y-197467547D01*
X123863800Y-197467546D01*
X123725714Y-197427000D01*
X123725711Y-197427000D01*
X123581789Y-197427000D01*
X123581786Y-197427000D01*
X123443699Y-197467546D01*
X123443695Y-197467547D01*
X123322625Y-197545355D01*
X123322618Y-197545360D01*
X123228373Y-197654126D01*
X123168584Y-197785045D01*
X123157300Y-197863531D01*
X123128400Y-197912240D01*
X123086992Y-197926021D01*
X123087025Y-197926247D01*
X123085775Y-197926426D01*
X123084053Y-197927000D01*
X123081786Y-197927000D01*
X122943699Y-197967546D01*
X122943695Y-197967547D01*
X122822625Y-198045355D01*
X122822618Y-198045360D01*
X122728373Y-198154126D01*
X122668584Y-198285045D01*
X122648103Y-198427500D01*
X110247436Y-198427500D01*
X110258555Y-198350167D01*
X110238073Y-198207710D01*
X110178285Y-198076794D01*
X110154722Y-198049601D01*
X110084039Y-197968027D01*
X110084037Y-197968026D01*
X110084036Y-197968024D01*
X110010920Y-197921035D01*
X109962962Y-197890214D01*
X109962958Y-197890213D01*
X109824872Y-197849667D01*
X109824869Y-197849667D01*
X109680947Y-197849667D01*
X109680944Y-197849667D01*
X109542857Y-197890213D01*
X109542853Y-197890214D01*
X109421783Y-197968022D01*
X109421776Y-197968027D01*
X109327531Y-198076793D01*
X109267742Y-198207712D01*
X109247261Y-198350167D01*
X85219250Y-198350167D01*
X85219250Y-197674896D01*
X90598250Y-197674896D01*
X90598250Y-197800103D01*
X90630654Y-197921035D01*
X90657785Y-197968027D01*
X90693255Y-198029464D01*
X90781786Y-198117995D01*
X90890214Y-198180595D01*
X90890213Y-198180595D01*
X90960036Y-198199304D01*
X91011146Y-198212999D01*
X91011147Y-198213000D01*
X91011149Y-198213000D01*
X91136353Y-198213000D01*
X91136353Y-198212999D01*
X91257286Y-198180595D01*
X91365714Y-198117995D01*
X91454245Y-198029464D01*
X91516845Y-197921036D01*
X91549249Y-197800103D01*
X91549250Y-197800103D01*
X91549250Y-197674897D01*
X91549249Y-197674896D01*
X91516845Y-197553964D01*
X91454245Y-197445536D01*
X91365713Y-197357004D01*
X91257284Y-197294404D01*
X91257286Y-197294404D01*
X91136353Y-197262000D01*
X91136351Y-197262000D01*
X91011149Y-197262000D01*
X91011147Y-197262000D01*
X90890214Y-197294404D01*
X90781786Y-197357004D01*
X90693254Y-197445536D01*
X90630654Y-197553964D01*
X90598250Y-197674896D01*
X85219250Y-197674896D01*
X85219250Y-197177500D01*
X114613103Y-197177500D01*
X114633584Y-197319954D01*
X114633584Y-197319955D01*
X114633585Y-197319957D01*
X114690936Y-197445536D01*
X114693373Y-197450873D01*
X114787618Y-197559639D01*
X114787619Y-197559640D01*
X114787622Y-197559643D01*
X114908697Y-197637453D01*
X115015153Y-197668711D01*
X115046785Y-197677999D01*
X115046787Y-197678000D01*
X115046789Y-197678000D01*
X115190713Y-197678000D01*
X115190714Y-197677999D01*
X115201272Y-197674899D01*
X115328803Y-197637453D01*
X115428744Y-197573224D01*
X115484480Y-197563169D01*
X115508752Y-197573222D01*
X115608697Y-197637453D01*
X115715153Y-197668711D01*
X115746785Y-197677999D01*
X115746787Y-197678000D01*
X115746789Y-197678000D01*
X115890713Y-197678000D01*
X115890714Y-197677999D01*
X115901272Y-197674899D01*
X116028803Y-197637453D01*
X116128744Y-197573224D01*
X116184480Y-197563169D01*
X116208752Y-197573222D01*
X116308697Y-197637453D01*
X116415153Y-197668711D01*
X116446785Y-197677999D01*
X116446787Y-197678000D01*
X116446789Y-197678000D01*
X116590713Y-197678000D01*
X116590714Y-197677999D01*
X116601272Y-197674899D01*
X116728803Y-197637453D01*
X116849878Y-197559643D01*
X116944127Y-197450873D01*
X117003915Y-197319957D01*
X117024397Y-197177500D01*
X117003915Y-197035043D01*
X116944127Y-196904127D01*
X116898625Y-196851614D01*
X116849881Y-196795360D01*
X116849879Y-196795359D01*
X116849878Y-196795357D01*
X116792932Y-196758760D01*
X116728804Y-196717547D01*
X116728800Y-196717546D01*
X116590714Y-196677000D01*
X116590711Y-196677000D01*
X116446789Y-196677000D01*
X116446786Y-196677000D01*
X116308699Y-196717546D01*
X116308695Y-196717548D01*
X116208757Y-196781773D01*
X116153019Y-196791829D01*
X116128743Y-196781773D01*
X116049227Y-196730672D01*
X116028803Y-196717547D01*
X116028800Y-196717546D01*
X115890714Y-196677000D01*
X115890711Y-196677000D01*
X115746789Y-196677000D01*
X115746786Y-196677000D01*
X115608699Y-196717546D01*
X115608695Y-196717548D01*
X115508757Y-196781773D01*
X115453019Y-196791829D01*
X115428743Y-196781773D01*
X115349227Y-196730672D01*
X115328803Y-196717547D01*
X115328800Y-196717546D01*
X115190714Y-196677000D01*
X115190711Y-196677000D01*
X115046789Y-196677000D01*
X115046786Y-196677000D01*
X114908699Y-196717546D01*
X114908695Y-196717547D01*
X114787625Y-196795355D01*
X114787618Y-196795360D01*
X114693373Y-196904126D01*
X114633584Y-197035045D01*
X114613103Y-197177500D01*
X85219250Y-197177500D01*
X85219250Y-196238508D01*
X86393250Y-196238508D01*
X86393250Y-196376491D01*
X86420168Y-196511822D01*
X86420171Y-196511832D01*
X86472973Y-196639308D01*
X86472974Y-196639310D01*
X86472975Y-196639311D01*
X86549636Y-196754042D01*
X86647208Y-196851614D01*
X86761939Y-196928275D01*
X86889422Y-196981080D01*
X87024757Y-197008000D01*
X87024759Y-197008000D01*
X87762741Y-197008000D01*
X87762743Y-197008000D01*
X87898078Y-196981080D01*
X88025561Y-196928275D01*
X88140292Y-196851614D01*
X88237864Y-196754042D01*
X88314525Y-196639311D01*
X88367330Y-196511828D01*
X88394250Y-196376493D01*
X88394250Y-196238508D01*
X90323250Y-196238508D01*
X90323250Y-196376491D01*
X90350168Y-196511822D01*
X90350171Y-196511832D01*
X90402973Y-196639308D01*
X90402974Y-196639310D01*
X90402975Y-196639311D01*
X90479636Y-196754042D01*
X90577208Y-196851614D01*
X90691939Y-196928275D01*
X90819422Y-196981080D01*
X90954757Y-197008000D01*
X90954759Y-197008000D01*
X92192741Y-197008000D01*
X92192743Y-197008000D01*
X92328078Y-196981080D01*
X92455561Y-196928275D01*
X92570292Y-196851614D01*
X92667864Y-196754042D01*
X92744525Y-196639311D01*
X92797330Y-196511828D01*
X92824250Y-196376493D01*
X92824250Y-196238507D01*
X92797330Y-196103172D01*
X92744525Y-195975689D01*
X92667864Y-195860958D01*
X92570292Y-195763386D01*
X92455561Y-195686725D01*
X92455560Y-195686724D01*
X92455558Y-195686723D01*
X92328082Y-195633921D01*
X92328072Y-195633918D01*
X92237444Y-195615891D01*
X92192743Y-195607000D01*
X90954757Y-195607000D01*
X90916392Y-195614631D01*
X90819427Y-195633918D01*
X90819417Y-195633921D01*
X90691941Y-195686723D01*
X90577211Y-195763383D01*
X90479633Y-195860961D01*
X90402973Y-195975691D01*
X90350171Y-196103167D01*
X90350168Y-196103177D01*
X90323250Y-196238508D01*
X88394250Y-196238508D01*
X88394250Y-196238507D01*
X88367330Y-196103172D01*
X88314525Y-195975689D01*
X88237864Y-195860958D01*
X88140292Y-195763386D01*
X88025561Y-195686725D01*
X88025560Y-195686724D01*
X88025558Y-195686723D01*
X87898082Y-195633921D01*
X87898072Y-195633918D01*
X87807444Y-195615891D01*
X87762743Y-195607000D01*
X87024757Y-195607000D01*
X86986392Y-195614631D01*
X86889427Y-195633918D01*
X86889417Y-195633921D01*
X86761941Y-195686723D01*
X86647211Y-195763383D01*
X86549633Y-195860961D01*
X86472973Y-195975691D01*
X86420171Y-196103167D01*
X86420168Y-196103177D01*
X86393250Y-196238508D01*
X85219250Y-196238508D01*
X85219250Y-194597753D01*
X111903250Y-194597753D01*
X111903250Y-196337246D01*
X111914883Y-196395732D01*
X111944358Y-196439843D01*
X111959198Y-196462052D01*
X112003310Y-196491527D01*
X112025517Y-196506366D01*
X112025518Y-196506366D01*
X112025519Y-196506367D01*
X112084002Y-196518000D01*
X112084004Y-196518000D01*
X113823496Y-196518000D01*
X113823498Y-196518000D01*
X113881981Y-196506367D01*
X113948302Y-196462052D01*
X113992617Y-196395731D01*
X114004250Y-196337248D01*
X114004250Y-194597752D01*
X113992617Y-194539269D01*
X113948302Y-194472948D01*
X113926093Y-194458108D01*
X113881982Y-194428633D01*
X113881983Y-194428633D01*
X113852739Y-194422816D01*
X113823498Y-194417000D01*
X112084002Y-194417000D01*
X112054760Y-194422816D01*
X112025517Y-194428633D01*
X111959199Y-194472947D01*
X111959197Y-194472949D01*
X111914883Y-194539267D01*
X111903250Y-194597753D01*
X85219250Y-194597753D01*
X85219250Y-190131138D01*
X85219606Y-190123885D01*
X85219656Y-190123377D01*
X85232938Y-189988526D01*
X85235765Y-189974315D01*
X85274187Y-189847658D01*
X85279731Y-189834273D01*
X85342132Y-189717533D01*
X85350183Y-189705485D01*
X85434152Y-189603174D01*
X85444397Y-189592929D01*
X85546718Y-189508961D01*
X85558766Y-189500911D01*
X85675503Y-189438519D01*
X85688900Y-189432971D01*
X85815548Y-189394559D01*
X85829769Y-189391730D01*
X85965634Y-189378355D01*
X85972872Y-189378000D01*
X86012907Y-189378002D01*
X86012909Y-189378000D01*
X86019954Y-189378001D01*
X86019975Y-189378000D01*
X125917525Y-189378000D01*
X125917545Y-189378001D01*
G37*
%TD.AperFunction*%
%TD*%
D22*
X86068750Y-215377500D03*
X125318750Y-209727500D03*
X96968750Y-220377500D03*
X105968750Y-233127500D03*
X86468750Y-228127500D03*
X90968750Y-193627500D03*
X100968750Y-243127500D03*
X118718750Y-201877500D03*
X125968750Y-194127500D03*
X104968750Y-192127500D03*
X113468750Y-235627500D03*
X86468750Y-212127500D03*
X119418750Y-202627500D03*
X109968750Y-208902500D03*
X92468341Y-193627297D03*
X119418750Y-193127500D03*
X96968750Y-217877500D03*
X118468750Y-248627500D03*
X116968750Y-212827500D03*
X94718750Y-206877500D03*
X103893750Y-238777500D03*
X100968750Y-194627500D03*
X101718750Y-193627500D03*
X114718750Y-206877500D03*
X100228628Y-223880405D03*
X93968750Y-193627500D03*
X123218750Y-234627500D03*
X110968750Y-243127500D03*
X94718750Y-205377500D03*
X115468750Y-192127500D03*
X93468750Y-235627500D03*
X114868750Y-208427500D03*
X93218750Y-192877500D03*
X113093750Y-227127500D03*
X110218750Y-192877500D03*
X90968750Y-228127500D03*
X94718750Y-192877500D03*
X118693750Y-226627500D03*
X100718750Y-192877500D03*
X123968750Y-245627500D03*
X104968750Y-206127500D03*
X93218750Y-205377500D03*
X111393750Y-220702500D03*
X106468750Y-192127500D03*
X97968750Y-225877500D03*
X113468750Y-240627500D03*
X118468750Y-235627500D03*
X86068750Y-223377500D03*
X120968750Y-199627500D03*
X96968750Y-195627500D03*
X114718750Y-192877500D03*
X93468750Y-210377500D03*
X98968750Y-207627500D03*
X103893750Y-239977500D03*
X96968750Y-207627500D03*
X118708750Y-223627500D03*
X119471614Y-194627499D03*
X123468750Y-191627500D03*
X104218750Y-208877500D03*
X101968750Y-207627500D03*
X101968750Y-221377500D03*
X112468750Y-192127500D03*
X113468750Y-211127500D03*
X115968750Y-233127500D03*
X106218750Y-208877500D03*
X102468750Y-194627500D03*
X120718750Y-234627500D03*
X117968750Y-201127500D03*
X108468750Y-240627500D03*
X97718750Y-192877500D03*
X107218750Y-192877500D03*
X89468750Y-212127500D03*
X110968750Y-207627500D03*
X94968750Y-211377500D03*
X115093750Y-217577500D03*
X96968750Y-192127500D03*
X104968750Y-207627500D03*
X98468750Y-245627500D03*
X110968750Y-238127500D03*
X112468750Y-206127500D03*
X89868750Y-222127500D03*
X102368750Y-232427500D03*
X95468750Y-197127500D03*
X97968750Y-224627500D03*
X93468750Y-240627500D03*
X108468750Y-248627500D03*
X108468750Y-245627500D03*
X94118750Y-207627500D03*
X97468750Y-211377500D03*
X110968750Y-228127500D03*
X121468750Y-191627500D03*
X99968750Y-192127500D03*
X109468750Y-207627500D03*
X107968750Y-193627500D03*
X113218750Y-192877500D03*
X112468750Y-193627500D03*
X105218750Y-209877500D03*
X94468750Y-228377500D03*
X117968750Y-202627500D03*
X119958750Y-223627500D03*
X99468750Y-194627500D03*
X95468750Y-203127500D03*
X91718750Y-194627500D03*
X105718750Y-192877500D03*
X125568751Y-217339999D03*
X94718750Y-194627500D03*
X100218750Y-193627500D03*
X90218750Y-194627500D03*
X123318750Y-239477500D03*
X91968750Y-216627500D03*
X117968750Y-199627500D03*
X100966938Y-228124923D03*
X97968750Y-227127500D03*
X105718750Y-206877500D03*
X93618750Y-222177500D03*
X114818750Y-226177500D03*
X116718750Y-230627500D03*
X93468750Y-245627500D03*
X110021812Y-218830561D03*
X92468750Y-192127500D03*
X98468750Y-248627500D03*
X120968750Y-222127500D03*
X125968750Y-195627500D03*
X118468750Y-240627500D03*
X95468750Y-206127500D03*
X102693750Y-220627500D03*
X102218750Y-192877500D03*
X97143750Y-206002500D03*
X93968750Y-204627500D03*
X108468750Y-235627500D03*
X121968750Y-222127500D03*
X86068750Y-219127500D03*
X86068750Y-220627500D03*
X118468750Y-245627500D03*
X125968750Y-233127500D03*
X95468750Y-195627500D03*
X116968750Y-193627500D03*
X115468750Y-193627500D03*
X119468750Y-191627500D03*
X89868750Y-220627500D03*
X95468750Y-193627500D03*
X92468750Y-209627500D03*
X125968750Y-204127500D03*
X107718750Y-198627500D03*
X111718750Y-192877500D03*
X93218750Y-194627500D03*
X90968750Y-192127500D03*
X121468750Y-223627500D03*
X119968750Y-226627500D03*
X110968750Y-233127500D03*
X117968750Y-191627500D03*
X95968750Y-243127500D03*
X103620742Y-222700508D03*
X98468750Y-192127500D03*
X117968750Y-194627500D03*
X103468750Y-248627500D03*
X103968750Y-194627500D03*
X115968750Y-243127500D03*
X102661769Y-215627500D03*
X103468750Y-245627500D03*
X113093750Y-221402500D03*
X96218750Y-211377500D03*
X97468750Y-210377500D03*
X93968750Y-206127500D03*
X98468750Y-195627500D03*
X113968750Y-206127500D03*
X96218750Y-192877500D03*
X103468750Y-207627500D03*
X119418750Y-201127500D03*
X100468750Y-207627500D03*
X101468750Y-192127500D03*
X110218750Y-206877500D03*
X124968750Y-193127500D03*
X106468750Y-207627500D03*
X121393750Y-208427500D03*
X90968750Y-209627500D03*
X113968750Y-192127500D03*
X116168750Y-220802500D03*
X118468750Y-214377500D03*
X102968750Y-193627500D03*
X113468750Y-230627500D03*
X116968750Y-192127500D03*
X105843750Y-212445519D03*
X109468750Y-193627500D03*
X107968750Y-192127500D03*
X98468750Y-218877500D03*
X87968750Y-245627500D03*
X95468750Y-204627500D03*
X118718750Y-192377500D03*
X119418750Y-199627500D03*
X118468750Y-193627500D03*
X96718750Y-228377500D03*
X123468750Y-193127500D03*
X97968750Y-222127500D03*
X113468750Y-248627500D03*
X93168750Y-203827500D03*
X106468750Y-198627500D03*
X91718750Y-192877500D03*
X118718750Y-203377500D03*
X113218750Y-206877500D03*
X95468750Y-198627500D03*
X89468750Y-228127500D03*
X96218750Y-210377500D03*
X95468750Y-192127500D03*
X93618750Y-219627500D03*
X110968750Y-193627500D03*
X105968750Y-228127500D03*
X108468750Y-230627500D03*
X104968750Y-193627500D03*
X109468750Y-192127500D03*
X117718750Y-192877500D03*
X96218750Y-206877500D03*
X108493750Y-224402500D03*
X94968750Y-210377500D03*
X96218750Y-196377500D03*
X118068750Y-219627500D03*
X108068750Y-207627500D03*
X108591758Y-209104492D03*
X96968750Y-193627500D03*
X119968750Y-215877500D03*
X118718750Y-200377500D03*
X102968750Y-192127500D03*
X115968750Y-238127500D03*
X97718750Y-194627500D03*
X94218750Y-215077500D03*
X113968750Y-193627500D03*
X110968750Y-192127500D03*
X94968750Y-222177500D03*
X98618750Y-193627500D03*
X111343750Y-208902500D03*
X125968750Y-196877500D03*
X94968750Y-219627500D03*
X125968750Y-198127500D03*
X116218750Y-192877500D03*
X99218750Y-192877500D03*
X108718750Y-192877500D03*
X106468750Y-193627500D03*
X87968750Y-240627500D03*
X100968750Y-238127500D03*
X120468750Y-212177500D03*
X96218750Y-194627500D03*
X87968750Y-235627500D03*
X89868750Y-219127500D03*
X86068750Y-222127500D03*
X93468750Y-248627500D03*
X97868750Y-206727500D03*
X119218750Y-230627500D03*
X95468750Y-207627500D03*
X91718750Y-210377500D03*
X90968750Y-233127500D03*
X90971293Y-243121088D03*
X123468750Y-230627500D03*
X87968750Y-230627500D03*
X111718750Y-206877500D03*
X125968750Y-202627500D03*
X97968750Y-223377500D03*
X119343750Y-212177500D03*
X98471655Y-240627499D03*
X93968750Y-192127500D03*
X103718750Y-192877500D03*
X106468750Y-206127500D03*
X104968750Y-198627500D03*
X121868750Y-226752500D03*
X124653750Y-198927500D03*
X124153750Y-198427500D03*
X89868750Y-226377500D03*
X89868750Y-217877500D03*
X103893750Y-233927500D03*
X123993751Y-212365000D03*
X123653750Y-199927500D03*
X125153750Y-198427500D03*
X124153750Y-199427500D03*
X112218750Y-212177500D03*
X93143750Y-212077500D03*
X123653750Y-197927500D03*
X123653750Y-198927500D03*
X103852221Y-221394029D03*
X119743750Y-208427500D03*
X123368750Y-236602500D03*
X125153750Y-199427500D03*
X97683750Y-232422500D03*
X113468750Y-212177500D03*
X123993751Y-213840000D03*
X113670463Y-216279213D03*
X99899296Y-213821954D03*
X107395706Y-209251944D03*
X124653750Y-199927500D03*
X123153750Y-198427500D03*
X123153750Y-199427500D03*
X103897344Y-235277500D03*
X96358751Y-232422500D03*
X121868750Y-229027500D03*
X123368750Y-242327500D03*
X124653750Y-197927500D03*
X117943750Y-210027500D03*
X109218750Y-218652500D03*
X110393750Y-224102500D03*
X107652970Y-220053014D03*
X105859027Y-220385193D03*
X124093750Y-208427500D03*
X98479531Y-220629085D03*
X124893750Y-240977500D03*
X124893750Y-237927500D03*
X98983089Y-221250723D03*
X97743744Y-216477500D03*
X109218750Y-211602500D03*
X98480811Y-228406555D03*
X115118750Y-197177500D03*
X99216249Y-201877500D03*
X87968750Y-200627500D03*
X115118750Y-204677500D03*
X99216249Y-201127500D03*
X115818750Y-197177500D03*
X99216249Y-200377500D03*
X115818750Y-204677500D03*
X90563750Y-200627500D03*
X116518750Y-197177500D03*
X116518750Y-204677500D03*
X107027970Y-220977500D03*
X105593750Y-224377500D03*
X116126808Y-217319442D03*
X111405097Y-215624012D03*
X114347177Y-215602499D03*
X123993751Y-217339999D03*
X91293750Y-208727500D03*
X94218750Y-208727500D03*
X91818747Y-206508899D03*
X92618750Y-206508899D03*
X99168747Y-217877500D03*
X101509131Y-213590978D03*
X99968750Y-216477500D03*
X99968750Y-217877500D03*
X91068750Y-201577500D03*
X91068750Y-199677500D03*
X93318750Y-199527501D03*
X116899799Y-211352498D03*
X112205090Y-215627790D03*
X95468026Y-199515795D03*
X95968750Y-201427500D03*
X114236460Y-211352500D03*
X91512877Y-213653343D03*
X104144870Y-219989225D03*
X100268238Y-208948130D03*
X98086337Y-212108788D03*
X92193750Y-219627500D03*
X98770650Y-210773946D03*
X100833925Y-209513817D03*
X108258367Y-211876728D03*
X98368744Y-217877500D03*
X98543747Y-216477500D03*
X101983179Y-210626728D03*
X98067404Y-212908566D03*
X90137820Y-222880896D03*
X101399612Y-210079505D03*
X99336337Y-211339633D03*
X90959867Y-224502501D03*
X89743750Y-216629343D03*
X112518750Y-210027500D03*
X103461025Y-219364226D03*
X119734867Y-218377500D03*
X119368750Y-222002500D03*
X119968750Y-222627500D03*
X110605235Y-215638985D03*
X120593750Y-218377500D03*
X120593750Y-219627500D03*
X118061229Y-221977500D03*
X119734025Y-217127500D03*
X103879331Y-199277500D03*
X109752908Y-198350167D03*
X103890203Y-206027500D03*
X109752908Y-205100167D03*
X112468750Y-211252500D03*
X104793747Y-224377500D03*
D23*
X91038751Y-239952500D03*
X96118751Y-239952500D03*
X101198751Y-239952500D03*
X98658751Y-234872500D03*
X92308751Y-237412500D03*
X91073750Y-197737500D03*
X91073750Y-203517500D03*
D24*
X91573750Y-196307500D03*
D25*
X87393750Y-196307500D03*
D24*
X91573750Y-204947500D03*
D25*
X87393750Y-204947500D03*
D23*
X92993750Y-229702500D03*
X95533750Y-229702500D03*
X98073749Y-229702500D03*
X100613750Y-229702500D03*
X124793750Y-220477500D03*
X124793750Y-223017500D03*
X124793750Y-225557499D03*
X124793750Y-228097500D03*
X122318750Y-248627500D03*
X122802024Y-247460774D03*
X122802024Y-249794226D03*
X123968750Y-246977500D03*
X123968750Y-248627500D03*
X123968750Y-250277500D03*
X125135476Y-247460774D03*
X125135476Y-249794226D03*
X125618750Y-248627500D03*
X112953750Y-195467500D03*
X112953750Y-198007500D03*
X86318750Y-209127500D03*
X86802024Y-207960774D03*
X86802024Y-210294226D03*
X87968750Y-207477500D03*
X87968750Y-209127500D03*
X87968750Y-210777500D03*
X89135476Y-207960774D03*
X89135476Y-210294226D03*
X89618750Y-209127500D03*
D26*
X122553750Y-195177500D03*
X120353750Y-195177500D03*
X122553750Y-197377500D03*
X120353750Y-197377500D03*
D23*
X95558750Y-225977500D03*
X93018750Y-225977500D03*
X95558750Y-223437500D03*
X93018750Y-223437500D03*
X95558750Y-220897501D03*
X93018750Y-220897500D03*
X95558750Y-218357500D03*
X93018750Y-218357500D03*
X121068750Y-241977500D03*
X121068750Y-236977500D03*
X121068750Y-239477500D03*
D27*
X113568750Y-245077500D03*
X113568750Y-233877500D03*
D23*
X106568750Y-236977500D03*
X106568750Y-241977500D03*
X112953750Y-202217500D03*
X112953750Y-204757500D03*
X86318750Y-248627500D03*
X86802024Y-247460774D03*
X86802024Y-249794226D03*
X87968750Y-246977500D03*
X87968750Y-248627500D03*
X87968750Y-250277500D03*
X89135476Y-247460774D03*
X89135476Y-249794226D03*
X89618750Y-248627500D03*
X86318750Y-192127500D03*
X86802024Y-190960774D03*
X86802024Y-193294226D03*
X87968750Y-190477500D03*
X87968750Y-192127500D03*
X87968750Y-193777500D03*
X89135476Y-190960774D03*
X89135476Y-193294226D03*
X89618750Y-192127500D03*
D26*
X122553750Y-203877500D03*
X120353750Y-203877500D03*
X122553750Y-206077500D03*
X120353750Y-206077500D03*
M02*
