%TF.GenerationSoftware,KiCad,Pcbnew,8.0.5*%
%TF.CreationDate,2024-10-25T16:55:04+02:00*%
%TF.ProjectId,Keyboard_PCB,4b657962-6f61-4726-945f-5043422e6b69,rev?*%
%TF.SameCoordinates,Original*%
%TF.FileFunction,Legend,Bot*%
%TF.FilePolarity,Positive*%
%FSLAX46Y46*%
G04 Gerber Fmt 4.6, Leading zero omitted, Abs format (unit mm)*
G04 Created by KiCad (PCBNEW 8.0.5) date 2024-10-25 16:55:04*
%MOMM*%
%LPD*%
G01*
G04 APERTURE LIST*
%ADD10C,0.250000*%
%ADD11C,0.150000*%
%ADD12C,0.125000*%
%ADD13C,0.120000*%
%ADD14C,0.350000*%
%ADD15O,1.700000X0.600000*%
%ADD16O,1.200000X0.600000*%
%ADD17C,0.200000*%
%ADD18O,2.800000X1.500000*%
G04 APERTURE END LIST*
D10*
X114718750Y-201749999D02*
X114718750Y-202749999D01*
X114218750Y-202252499D02*
X115218750Y-202252499D01*
X114218750Y-195467500D02*
X115218750Y-195467500D01*
X114718750Y-194965000D02*
X114718750Y-195965000D01*
D11*
X119635416Y-233339450D02*
X119542559Y-233370402D01*
X119542559Y-233370402D02*
X119387797Y-233370402D01*
X119387797Y-233370402D02*
X119325892Y-233339450D01*
X119325892Y-233339450D02*
X119294940Y-233308497D01*
X119294940Y-233308497D02*
X119263987Y-233246592D01*
X119263987Y-233246592D02*
X119263987Y-233184688D01*
X119263987Y-233184688D02*
X119294940Y-233122783D01*
X119294940Y-233122783D02*
X119325892Y-233091830D01*
X119325892Y-233091830D02*
X119387797Y-233060878D01*
X119387797Y-233060878D02*
X119511606Y-233029926D01*
X119511606Y-233029926D02*
X119573511Y-232998973D01*
X119573511Y-232998973D02*
X119604464Y-232968021D01*
X119604464Y-232968021D02*
X119635416Y-232906116D01*
X119635416Y-232906116D02*
X119635416Y-232844211D01*
X119635416Y-232844211D02*
X119604464Y-232782307D01*
X119604464Y-232782307D02*
X119573511Y-232751354D01*
X119573511Y-232751354D02*
X119511606Y-232720402D01*
X119511606Y-232720402D02*
X119356845Y-232720402D01*
X119356845Y-232720402D02*
X119263987Y-232751354D01*
X119047320Y-232720402D02*
X118892558Y-233370402D01*
X118892558Y-233370402D02*
X118768749Y-232906116D01*
X118768749Y-232906116D02*
X118644939Y-233370402D01*
X118644939Y-233370402D02*
X118490178Y-232720402D01*
X117902082Y-233370402D02*
X118273511Y-233370402D01*
X118087797Y-233370402D02*
X118087797Y-232720402D01*
X118087797Y-232720402D02*
X118149701Y-232813259D01*
X118149701Y-232813259D02*
X118211606Y-232875164D01*
X118211606Y-232875164D02*
X118273511Y-232906116D01*
G36*
X116998512Y-246082902D02*
G01*
X116843598Y-246082902D01*
X116808414Y-246065310D01*
X116794673Y-246051569D01*
X116777083Y-246016387D01*
X116777083Y-245958939D01*
X116794673Y-245923758D01*
X116804501Y-245913930D01*
X116869015Y-245892426D01*
X116998512Y-245892426D01*
X116998512Y-246082902D01*
G37*
G36*
X116998512Y-245742426D02*
G01*
X116874550Y-245742426D01*
X116839367Y-245724834D01*
X116825627Y-245711094D01*
X116808035Y-245675910D01*
X116808035Y-245649417D01*
X116825627Y-245614232D01*
X116839367Y-245600492D01*
X116874550Y-245582902D01*
X116998512Y-245582902D01*
X116998512Y-245742426D01*
G37*
G36*
X118824321Y-245600492D02*
G01*
X118862931Y-245639102D01*
X118886606Y-245733802D01*
X118886606Y-245932001D01*
X118862931Y-246026701D01*
X118824321Y-246065311D01*
X118789140Y-246082902D01*
X118700740Y-246082902D01*
X118665556Y-246065310D01*
X118626947Y-246026701D01*
X118603273Y-245932001D01*
X118603273Y-245733802D01*
X118626947Y-245639102D01*
X118665556Y-245600493D01*
X118700740Y-245582902D01*
X118789140Y-245582902D01*
X118824321Y-245600492D01*
G37*
G36*
X119505654Y-245773378D02*
G01*
X119350740Y-245773378D01*
X119315556Y-245755786D01*
X119301816Y-245742046D01*
X119284225Y-245706864D01*
X119284225Y-245649416D01*
X119301816Y-245614234D01*
X119315556Y-245600493D01*
X119350740Y-245582902D01*
X119505654Y-245582902D01*
X119505654Y-245773378D01*
G37*
G36*
X119730654Y-246462664D02*
G01*
X115406845Y-246462664D01*
X115406845Y-245507902D01*
X115481845Y-245507902D01*
X115481845Y-246157902D01*
X115482215Y-246161665D01*
X115482028Y-246163141D01*
X115482549Y-246165051D01*
X115483286Y-246172534D01*
X115487103Y-246181750D01*
X115489728Y-246191372D01*
X115492654Y-246195151D01*
X115494485Y-246199570D01*
X115501536Y-246206621D01*
X115507645Y-246214510D01*
X115511798Y-246216883D01*
X115515177Y-246220262D01*
X115524389Y-246224078D01*
X115533054Y-246229029D01*
X115537797Y-246229631D01*
X115542213Y-246231461D01*
X115552187Y-246231461D01*
X115562084Y-246232719D01*
X115566696Y-246231461D01*
X115571477Y-246231461D01*
X115580693Y-246227643D01*
X115590315Y-246225019D01*
X115594094Y-246222092D01*
X115598513Y-246220262D01*
X115605564Y-246213210D01*
X115613453Y-246207102D01*
X115617805Y-246200969D01*
X115619205Y-246199570D01*
X115619774Y-246198195D01*
X115621963Y-246195112D01*
X115853274Y-245790318D01*
X115853274Y-246157902D01*
X115854715Y-246172534D01*
X115865914Y-246199570D01*
X115886606Y-246220262D01*
X115913642Y-246231461D01*
X115942906Y-246231461D01*
X115969942Y-246220262D01*
X115990634Y-246199570D01*
X116001833Y-246172534D01*
X116003274Y-246157902D01*
X116003274Y-245507902D01*
X116002903Y-245504139D01*
X116003091Y-245502664D01*
X116002570Y-245500753D01*
X116001833Y-245493270D01*
X116071381Y-245493270D01*
X116071381Y-245522534D01*
X116082580Y-245549570D01*
X116103272Y-245570262D01*
X116130308Y-245581461D01*
X116144940Y-245582902D01*
X116255654Y-245582902D01*
X116255654Y-246157902D01*
X116257095Y-246172534D01*
X116268294Y-246199570D01*
X116288986Y-246220262D01*
X116316022Y-246231461D01*
X116345286Y-246231461D01*
X116372322Y-246220262D01*
X116393014Y-246199570D01*
X116404213Y-246172534D01*
X116405654Y-246157902D01*
X116405654Y-245941235D01*
X116627083Y-245941235D01*
X116627083Y-246034092D01*
X116628524Y-246048724D01*
X116629555Y-246051213D01*
X116629746Y-246053901D01*
X116635001Y-246067633D01*
X116665953Y-246129538D01*
X116669917Y-246135837D01*
X116670675Y-246137665D01*
X116672363Y-246139721D01*
X116673785Y-246141981D01*
X116675283Y-246143280D01*
X116680002Y-246149030D01*
X116710955Y-246179983D01*
X116716707Y-246184703D01*
X116718005Y-246186200D01*
X116720260Y-246187619D01*
X116722320Y-246189310D01*
X116724149Y-246190067D01*
X116730447Y-246194032D01*
X116792353Y-246224984D01*
X116806084Y-246230239D01*
X116808771Y-246230429D01*
X116811261Y-246231461D01*
X116825893Y-246232902D01*
X117073512Y-246232902D01*
X117088144Y-246231461D01*
X117115180Y-246220262D01*
X117135872Y-246199570D01*
X117147071Y-246172534D01*
X117148512Y-246157902D01*
X117148512Y-245507902D01*
X117147071Y-245493270D01*
X117140278Y-245476871D01*
X117215178Y-245476871D01*
X117220857Y-245505579D01*
X117227774Y-245518553D01*
X117784917Y-246354266D01*
X117794232Y-246365641D01*
X117818547Y-246381925D01*
X117847242Y-246387664D01*
X117875949Y-246381985D01*
X117900299Y-246365752D01*
X117916582Y-246341437D01*
X117922321Y-246312742D01*
X117916642Y-246284035D01*
X117909725Y-246271061D01*
X117391197Y-245493270D01*
X117897571Y-245493270D01*
X117897571Y-245522534D01*
X117908770Y-245549570D01*
X117929462Y-245570262D01*
X117956498Y-245581461D01*
X117971130Y-245582902D01*
X118081844Y-245582902D01*
X118081844Y-246157902D01*
X118083285Y-246172534D01*
X118094484Y-246199570D01*
X118115176Y-246220262D01*
X118142212Y-246231461D01*
X118171476Y-246231461D01*
X118198512Y-246220262D01*
X118219204Y-246199570D01*
X118230403Y-246172534D01*
X118231844Y-246157902D01*
X118231844Y-245724569D01*
X118453273Y-245724569D01*
X118453273Y-245941235D01*
X118453524Y-245943784D01*
X118453361Y-245944880D01*
X118454172Y-245950364D01*
X118454714Y-245955867D01*
X118455136Y-245956887D01*
X118455512Y-245959425D01*
X118486464Y-246083235D01*
X118491411Y-246097080D01*
X118494730Y-246101560D01*
X118496865Y-246106713D01*
X118506192Y-246118078D01*
X118568097Y-246179983D01*
X118573850Y-246184705D01*
X118575147Y-246186200D01*
X118577398Y-246187617D01*
X118579462Y-246189311D01*
X118581295Y-246190070D01*
X118587589Y-246194032D01*
X118649495Y-246224984D01*
X118663226Y-246230239D01*
X118665913Y-246230429D01*
X118668403Y-246231461D01*
X118683035Y-246232902D01*
X118806844Y-246232902D01*
X118821476Y-246231461D01*
X118823965Y-246230429D01*
X118826653Y-246230239D01*
X118840385Y-246224984D01*
X118902290Y-246194032D01*
X118908589Y-246190067D01*
X118910417Y-246189310D01*
X118912473Y-246187621D01*
X118914733Y-246186200D01*
X118916032Y-246184701D01*
X118921782Y-246179983D01*
X118983687Y-246118078D01*
X118993015Y-246106713D01*
X118995149Y-246101559D01*
X118998468Y-246097081D01*
X119003415Y-246083235D01*
X119034367Y-245959425D01*
X119034742Y-245956888D01*
X119035165Y-245955867D01*
X119035707Y-245950354D01*
X119036517Y-245944881D01*
X119036354Y-245943788D01*
X119036606Y-245941235D01*
X119036606Y-245724569D01*
X119036354Y-245722015D01*
X119036517Y-245720923D01*
X119035707Y-245715449D01*
X119035165Y-245709937D01*
X119034742Y-245708915D01*
X119034367Y-245706379D01*
X119015700Y-245631711D01*
X119134225Y-245631711D01*
X119134225Y-245724569D01*
X119135666Y-245739201D01*
X119136697Y-245741690D01*
X119136888Y-245744378D01*
X119142143Y-245758110D01*
X119173095Y-245820014D01*
X119177058Y-245826310D01*
X119177817Y-245828141D01*
X119179508Y-245830202D01*
X119180928Y-245832457D01*
X119182423Y-245833753D01*
X119187144Y-245839506D01*
X119218097Y-245870459D01*
X119223849Y-245875179D01*
X119225147Y-245876676D01*
X119227402Y-245878095D01*
X119229462Y-245879786D01*
X119231291Y-245880543D01*
X119237589Y-245884508D01*
X119290524Y-245910975D01*
X119147783Y-246114892D01*
X119140572Y-246127706D01*
X119134243Y-246156277D01*
X119139328Y-246185094D01*
X119155055Y-246209773D01*
X119179029Y-246226555D01*
X119207600Y-246232884D01*
X119236417Y-246227799D01*
X119261096Y-246212072D01*
X119270667Y-246200912D01*
X119464941Y-245923378D01*
X119505654Y-245923378D01*
X119505654Y-246157902D01*
X119507095Y-246172534D01*
X119518294Y-246199570D01*
X119538986Y-246220262D01*
X119566022Y-246231461D01*
X119595286Y-246231461D01*
X119622322Y-246220262D01*
X119643014Y-246199570D01*
X119654213Y-246172534D01*
X119655654Y-246157902D01*
X119655654Y-245507902D01*
X119654213Y-245493270D01*
X119643014Y-245466234D01*
X119622322Y-245445542D01*
X119595286Y-245434343D01*
X119580654Y-245432902D01*
X119333035Y-245432902D01*
X119318403Y-245434343D01*
X119315913Y-245435374D01*
X119313226Y-245435565D01*
X119299495Y-245440820D01*
X119237589Y-245471772D01*
X119231291Y-245475736D01*
X119229462Y-245476494D01*
X119227402Y-245478184D01*
X119225147Y-245479604D01*
X119223849Y-245481100D01*
X119218097Y-245485821D01*
X119187144Y-245516774D01*
X119182423Y-245522526D01*
X119180928Y-245523823D01*
X119179508Y-245526077D01*
X119177817Y-245528139D01*
X119177058Y-245529969D01*
X119173095Y-245536266D01*
X119142143Y-245598170D01*
X119136888Y-245611902D01*
X119136697Y-245614589D01*
X119135666Y-245617079D01*
X119134225Y-245631711D01*
X119015700Y-245631711D01*
X119003415Y-245582569D01*
X118998468Y-245568723D01*
X118995149Y-245564244D01*
X118993015Y-245559091D01*
X118983687Y-245547726D01*
X118921782Y-245485821D01*
X118916032Y-245481102D01*
X118914733Y-245479604D01*
X118912473Y-245478182D01*
X118910417Y-245476494D01*
X118908589Y-245475736D01*
X118902290Y-245471772D01*
X118840385Y-245440820D01*
X118826653Y-245435565D01*
X118823965Y-245435374D01*
X118821476Y-245434343D01*
X118806844Y-245432902D01*
X118683035Y-245432902D01*
X118668403Y-245434343D01*
X118665913Y-245435374D01*
X118663226Y-245435565D01*
X118649495Y-245440820D01*
X118587589Y-245471772D01*
X118581295Y-245475733D01*
X118579462Y-245476493D01*
X118577398Y-245478186D01*
X118575147Y-245479604D01*
X118573850Y-245481098D01*
X118568097Y-245485821D01*
X118506192Y-245547726D01*
X118496865Y-245559091D01*
X118494730Y-245564243D01*
X118491411Y-245568724D01*
X118486464Y-245582569D01*
X118455512Y-245706379D01*
X118455136Y-245708916D01*
X118454714Y-245709937D01*
X118454172Y-245715439D01*
X118453361Y-245720924D01*
X118453524Y-245722019D01*
X118453273Y-245724569D01*
X118231844Y-245724569D01*
X118231844Y-245582902D01*
X118342559Y-245582902D01*
X118357191Y-245581461D01*
X118384227Y-245570262D01*
X118404919Y-245549570D01*
X118416118Y-245522534D01*
X118416118Y-245493270D01*
X118404919Y-245466234D01*
X118384227Y-245445542D01*
X118357191Y-245434343D01*
X118342559Y-245432902D01*
X117971130Y-245432902D01*
X117956498Y-245434343D01*
X117929462Y-245445542D01*
X117908770Y-245466234D01*
X117897571Y-245493270D01*
X117391197Y-245493270D01*
X117352582Y-245435347D01*
X117343266Y-245423972D01*
X117318951Y-245407689D01*
X117290257Y-245401950D01*
X117261549Y-245407629D01*
X117237200Y-245423862D01*
X117220917Y-245448177D01*
X117215178Y-245476871D01*
X117140278Y-245476871D01*
X117135872Y-245466234D01*
X117115180Y-245445542D01*
X117088144Y-245434343D01*
X117073512Y-245432902D01*
X116856845Y-245432902D01*
X116842213Y-245434343D01*
X116839723Y-245435374D01*
X116837036Y-245435565D01*
X116823305Y-245440820D01*
X116761399Y-245471772D01*
X116755098Y-245475737D01*
X116753271Y-245476495D01*
X116751213Y-245478183D01*
X116748957Y-245479604D01*
X116747658Y-245481100D01*
X116741906Y-245485822D01*
X116710954Y-245516775D01*
X116706233Y-245522526D01*
X116704739Y-245523823D01*
X116703319Y-245526077D01*
X116701627Y-245528140D01*
X116700869Y-245529970D01*
X116696906Y-245536265D01*
X116665953Y-245598169D01*
X116660698Y-245611901D01*
X116660506Y-245614590D01*
X116659476Y-245617079D01*
X116658035Y-245631711D01*
X116658035Y-245693616D01*
X116659476Y-245708248D01*
X116660506Y-245710736D01*
X116660698Y-245713426D01*
X116665953Y-245727157D01*
X116696906Y-245789062D01*
X116700869Y-245795358D01*
X116701628Y-245797189D01*
X116703319Y-245799250D01*
X116704739Y-245801505D01*
X116704768Y-245801530D01*
X116680003Y-245826296D01*
X116675282Y-245832047D01*
X116673785Y-245833346D01*
X116672365Y-245835601D01*
X116670675Y-245837661D01*
X116669916Y-245839491D01*
X116665953Y-245845789D01*
X116635001Y-245907694D01*
X116629746Y-245921426D01*
X116629555Y-245924113D01*
X116628524Y-245926603D01*
X116627083Y-245941235D01*
X116405654Y-245941235D01*
X116405654Y-245582902D01*
X116516369Y-245582902D01*
X116531001Y-245581461D01*
X116558037Y-245570262D01*
X116578729Y-245549570D01*
X116589928Y-245522534D01*
X116589928Y-245493270D01*
X116578729Y-245466234D01*
X116558037Y-245445542D01*
X116531001Y-245434343D01*
X116516369Y-245432902D01*
X116144940Y-245432902D01*
X116130308Y-245434343D01*
X116103272Y-245445542D01*
X116082580Y-245466234D01*
X116071381Y-245493270D01*
X116001833Y-245493270D01*
X115998014Y-245484052D01*
X115995391Y-245474432D01*
X115992464Y-245470653D01*
X115990634Y-245466234D01*
X115983577Y-245459177D01*
X115977473Y-245451295D01*
X115973324Y-245448924D01*
X115969942Y-245445542D01*
X115960721Y-245441722D01*
X115952065Y-245436776D01*
X115947325Y-245436173D01*
X115942906Y-245434343D01*
X115932924Y-245434343D01*
X115923035Y-245433086D01*
X115918426Y-245434343D01*
X115913642Y-245434343D01*
X115904424Y-245438161D01*
X115894803Y-245440785D01*
X115891022Y-245443712D01*
X115886606Y-245445542D01*
X115879552Y-245452595D01*
X115871666Y-245458703D01*
X115867314Y-245464833D01*
X115865914Y-245466234D01*
X115865344Y-245467608D01*
X115863156Y-245470692D01*
X115631845Y-245875485D01*
X115631845Y-245507902D01*
X115630404Y-245493270D01*
X115619205Y-245466234D01*
X115598513Y-245445542D01*
X115571477Y-245434343D01*
X115542213Y-245434343D01*
X115515177Y-245445542D01*
X115494485Y-245466234D01*
X115483286Y-245493270D01*
X115481845Y-245507902D01*
X115406845Y-245507902D01*
X115406845Y-245326950D01*
X119730654Y-245326950D01*
X119730654Y-246462664D01*
G37*
D12*
X121368750Y-243577500D02*
X120781250Y-243577500D01*
X121068750Y-243277500D02*
X121368750Y-243577500D01*
X120768750Y-243577500D02*
X121068750Y-243277500D01*
X107468750Y-240777500D02*
X107468750Y-238177500D01*
X107468750Y-245377500D02*
X107468750Y-242977500D01*
X111568750Y-245377500D02*
X107468750Y-245377500D01*
X119668750Y-245377500D02*
X115568750Y-245377500D01*
X119668750Y-233577500D02*
X119668750Y-245377500D01*
X115568750Y-233577500D02*
X119668750Y-233577500D01*
X107468750Y-233577500D02*
X111568750Y-233577500D01*
X107468750Y-235977500D02*
X107468750Y-233577500D01*
D11*
G36*
X99462202Y-247670402D02*
G01*
X99307288Y-247670402D01*
X99272104Y-247652810D01*
X99258363Y-247639069D01*
X99240773Y-247603887D01*
X99240773Y-247546439D01*
X99258363Y-247511258D01*
X99268191Y-247501430D01*
X99332705Y-247479926D01*
X99462202Y-247479926D01*
X99462202Y-247670402D01*
G37*
G36*
X99462202Y-247329926D02*
G01*
X99338240Y-247329926D01*
X99303057Y-247312334D01*
X99289317Y-247298594D01*
X99271725Y-247263410D01*
X99271725Y-247236917D01*
X99289317Y-247201732D01*
X99303057Y-247187992D01*
X99338240Y-247170402D01*
X99462202Y-247170402D01*
X99462202Y-247329926D01*
G37*
G36*
X100793154Y-247360878D02*
G01*
X100638240Y-247360878D01*
X100603056Y-247343286D01*
X100589316Y-247329546D01*
X100571725Y-247294364D01*
X100571725Y-247236916D01*
X100589316Y-247201734D01*
X100603056Y-247187993D01*
X100638240Y-247170402D01*
X100793154Y-247170402D01*
X100793154Y-247360878D01*
G37*
G36*
X103153815Y-248050164D02*
G01*
X97870535Y-248050164D01*
X97870535Y-247095402D01*
X97945535Y-247095402D01*
X97945535Y-247745402D01*
X97945905Y-247749165D01*
X97945718Y-247750641D01*
X97946239Y-247752551D01*
X97946976Y-247760034D01*
X97950793Y-247769250D01*
X97953418Y-247778872D01*
X97956344Y-247782651D01*
X97958175Y-247787070D01*
X97965226Y-247794121D01*
X97971335Y-247802010D01*
X97975488Y-247804383D01*
X97978867Y-247807762D01*
X97988079Y-247811578D01*
X97996744Y-247816529D01*
X98001487Y-247817131D01*
X98005903Y-247818961D01*
X98015877Y-247818961D01*
X98025774Y-247820219D01*
X98030386Y-247818961D01*
X98035167Y-247818961D01*
X98044383Y-247815143D01*
X98054005Y-247812519D01*
X98057784Y-247809592D01*
X98062203Y-247807762D01*
X98069254Y-247800710D01*
X98077143Y-247794602D01*
X98081495Y-247788469D01*
X98082895Y-247787070D01*
X98083464Y-247785695D01*
X98085653Y-247782612D01*
X98316964Y-247377818D01*
X98316964Y-247745402D01*
X98318405Y-247760034D01*
X98329604Y-247787070D01*
X98350296Y-247807762D01*
X98377332Y-247818961D01*
X98406596Y-247818961D01*
X98433632Y-247807762D01*
X98454324Y-247787070D01*
X98465523Y-247760034D01*
X98466964Y-247745402D01*
X98466964Y-247095402D01*
X98466593Y-247091639D01*
X98466781Y-247090164D01*
X98466260Y-247088253D01*
X98465523Y-247080770D01*
X98535071Y-247080770D01*
X98535071Y-247110034D01*
X98546270Y-247137070D01*
X98566962Y-247157762D01*
X98593998Y-247168961D01*
X98608630Y-247170402D01*
X98719344Y-247170402D01*
X98719344Y-247745402D01*
X98720785Y-247760034D01*
X98731984Y-247787070D01*
X98752676Y-247807762D01*
X98779712Y-247818961D01*
X98808976Y-247818961D01*
X98836012Y-247807762D01*
X98856704Y-247787070D01*
X98867903Y-247760034D01*
X98869344Y-247745402D01*
X98869344Y-247528735D01*
X99090773Y-247528735D01*
X99090773Y-247621592D01*
X99092214Y-247636224D01*
X99093245Y-247638713D01*
X99093436Y-247641401D01*
X99098691Y-247655133D01*
X99129643Y-247717038D01*
X99133607Y-247723337D01*
X99134365Y-247725165D01*
X99136053Y-247727221D01*
X99137475Y-247729481D01*
X99138973Y-247730780D01*
X99143692Y-247736530D01*
X99174645Y-247767483D01*
X99180397Y-247772203D01*
X99181695Y-247773700D01*
X99183950Y-247775119D01*
X99186010Y-247776810D01*
X99187839Y-247777567D01*
X99194137Y-247781532D01*
X99256043Y-247812484D01*
X99269774Y-247817739D01*
X99272461Y-247817929D01*
X99274951Y-247818961D01*
X99289583Y-247820402D01*
X99537202Y-247820402D01*
X99551834Y-247818961D01*
X99578870Y-247807762D01*
X99599562Y-247787070D01*
X99610761Y-247760034D01*
X99612202Y-247745402D01*
X99612202Y-247095402D01*
X99610761Y-247080770D01*
X99603968Y-247064371D01*
X99678868Y-247064371D01*
X99684547Y-247093079D01*
X99691464Y-247106053D01*
X100248607Y-247941766D01*
X100257922Y-247953141D01*
X100282237Y-247969425D01*
X100310932Y-247975164D01*
X100339639Y-247969485D01*
X100363989Y-247953252D01*
X100380272Y-247928937D01*
X100386011Y-247900242D01*
X100380332Y-247871535D01*
X100373415Y-247858561D01*
X99947181Y-247219211D01*
X100421725Y-247219211D01*
X100421725Y-247312069D01*
X100423166Y-247326701D01*
X100424197Y-247329190D01*
X100424388Y-247331878D01*
X100429643Y-247345610D01*
X100460595Y-247407514D01*
X100464558Y-247413810D01*
X100465317Y-247415641D01*
X100467008Y-247417702D01*
X100468428Y-247419957D01*
X100469923Y-247421253D01*
X100474644Y-247427006D01*
X100505597Y-247457959D01*
X100511349Y-247462679D01*
X100512647Y-247464176D01*
X100514902Y-247465595D01*
X100516962Y-247467286D01*
X100518791Y-247468043D01*
X100525089Y-247472008D01*
X100586995Y-247502960D01*
X100600726Y-247508215D01*
X100603413Y-247508405D01*
X100605903Y-247509437D01*
X100620535Y-247510878D01*
X100793154Y-247510878D01*
X100793154Y-247745402D01*
X100794595Y-247760034D01*
X100805794Y-247787070D01*
X100826486Y-247807762D01*
X100853522Y-247818961D01*
X100882786Y-247818961D01*
X100909822Y-247807762D01*
X100930514Y-247787070D01*
X100941713Y-247760034D01*
X100943154Y-247745402D01*
X100943154Y-247095402D01*
X101102677Y-247095402D01*
X101102677Y-247621592D01*
X101104118Y-247636224D01*
X101105149Y-247638713D01*
X101105340Y-247641401D01*
X101110595Y-247655133D01*
X101141547Y-247717038D01*
X101145511Y-247723337D01*
X101146269Y-247725165D01*
X101147957Y-247727221D01*
X101149379Y-247729481D01*
X101150877Y-247730780D01*
X101155596Y-247736530D01*
X101186549Y-247767483D01*
X101192301Y-247772203D01*
X101193599Y-247773700D01*
X101195854Y-247775119D01*
X101197914Y-247776810D01*
X101199743Y-247777567D01*
X101206041Y-247781532D01*
X101267947Y-247812484D01*
X101281678Y-247817739D01*
X101284365Y-247817929D01*
X101286855Y-247818961D01*
X101301487Y-247820402D01*
X101425296Y-247820402D01*
X101439928Y-247818961D01*
X101442417Y-247817929D01*
X101445105Y-247817739D01*
X101458837Y-247812484D01*
X101520742Y-247781532D01*
X101527039Y-247777568D01*
X101528870Y-247776810D01*
X101530929Y-247775119D01*
X101533185Y-247773700D01*
X101534483Y-247772202D01*
X101540235Y-247767482D01*
X101566396Y-247741320D01*
X101752788Y-247741320D01*
X101756927Y-247770289D01*
X101771836Y-247795470D01*
X101795247Y-247813028D01*
X101823595Y-247820291D01*
X101852564Y-247816152D01*
X101877745Y-247801243D01*
X101887677Y-247790402D01*
X102114363Y-247488153D01*
X102124106Y-247497896D01*
X102124106Y-247745402D01*
X102125547Y-247760034D01*
X102136746Y-247787070D01*
X102157438Y-247807762D01*
X102184474Y-247818961D01*
X102213738Y-247818961D01*
X102240774Y-247807762D01*
X102261466Y-247787070D01*
X102272665Y-247760034D01*
X102274106Y-247745402D01*
X102274106Y-247098206D01*
X102371777Y-247098206D01*
X102373765Y-247112773D01*
X102528526Y-247762774D01*
X102530255Y-247767793D01*
X102530495Y-247769595D01*
X102531437Y-247771223D01*
X102533316Y-247776674D01*
X102539702Y-247785498D01*
X102545157Y-247794920D01*
X102548214Y-247797260D01*
X102550473Y-247800381D01*
X102559748Y-247806088D01*
X102568395Y-247812707D01*
X102572116Y-247813699D01*
X102575395Y-247815717D01*
X102586147Y-247817441D01*
X102596670Y-247820247D01*
X102600485Y-247819740D01*
X102604290Y-247820350D01*
X102614888Y-247817826D01*
X102625679Y-247816393D01*
X102629010Y-247814464D01*
X102632758Y-247813572D01*
X102641582Y-247807185D01*
X102651004Y-247801731D01*
X102653344Y-247798673D01*
X102656465Y-247796415D01*
X102662172Y-247787139D01*
X102668791Y-247778493D01*
X102670816Y-247773093D01*
X102671801Y-247771493D01*
X102672088Y-247769701D01*
X102673954Y-247764727D01*
X102725295Y-247572195D01*
X102776637Y-247764726D01*
X102778502Y-247769700D01*
X102778790Y-247771493D01*
X102779775Y-247773094D01*
X102781800Y-247778493D01*
X102788418Y-247787139D01*
X102794126Y-247796415D01*
X102797246Y-247798673D01*
X102799587Y-247801731D01*
X102809005Y-247807183D01*
X102817833Y-247813572D01*
X102821583Y-247814464D01*
X102824912Y-247816392D01*
X102835696Y-247817825D01*
X102846301Y-247820350D01*
X102850105Y-247819740D01*
X102853920Y-247820247D01*
X102864441Y-247817441D01*
X102875196Y-247815717D01*
X102878475Y-247813699D01*
X102882196Y-247812707D01*
X102890842Y-247806088D01*
X102900118Y-247800381D01*
X102902376Y-247797260D01*
X102905434Y-247794920D01*
X102910888Y-247785498D01*
X102917275Y-247776674D01*
X102919153Y-247771223D01*
X102920096Y-247769595D01*
X102920335Y-247767793D01*
X102922065Y-247762774D01*
X103076827Y-247112774D01*
X103078815Y-247098206D01*
X103074182Y-247069311D01*
X103058846Y-247044389D01*
X103035139Y-247027233D01*
X103006671Y-247020454D01*
X102977776Y-247025087D01*
X102952854Y-247040423D01*
X102935697Y-247064130D01*
X102930907Y-247078031D01*
X102844989Y-247438885D01*
X102797764Y-247261791D01*
X102796478Y-247258363D01*
X102796287Y-247256922D01*
X102795295Y-247255209D01*
X102792601Y-247248025D01*
X102786586Y-247240166D01*
X102781625Y-247231598D01*
X102777766Y-247228644D01*
X102774814Y-247224787D01*
X102766252Y-247219830D01*
X102758388Y-247213810D01*
X102753690Y-247212557D01*
X102749489Y-247210125D01*
X102739682Y-247208822D01*
X102730112Y-247206270D01*
X102725293Y-247206910D01*
X102720481Y-247206271D01*
X102710920Y-247208820D01*
X102701103Y-247210125D01*
X102696897Y-247212559D01*
X102692205Y-247213811D01*
X102684345Y-247219826D01*
X102675778Y-247224787D01*
X102672824Y-247228645D01*
X102668967Y-247231598D01*
X102664008Y-247240163D01*
X102657991Y-247248024D01*
X102655296Y-247255210D01*
X102654305Y-247256923D01*
X102654113Y-247258365D01*
X102652829Y-247261791D01*
X102605603Y-247438886D01*
X102519685Y-247078031D01*
X102514895Y-247064130D01*
X102497738Y-247040423D01*
X102472816Y-247025087D01*
X102443921Y-247020454D01*
X102415453Y-247027232D01*
X102391746Y-247044389D01*
X102376410Y-247069311D01*
X102371777Y-247098206D01*
X102274106Y-247098206D01*
X102274106Y-247095402D01*
X102272665Y-247080770D01*
X102261466Y-247053734D01*
X102240774Y-247033042D01*
X102213738Y-247021843D01*
X102184474Y-247021843D01*
X102157438Y-247033042D01*
X102136746Y-247053734D01*
X102125547Y-247080770D01*
X102124106Y-247095402D01*
X102124106Y-247285764D01*
X101880710Y-247042369D01*
X101869345Y-247033041D01*
X101842308Y-247021843D01*
X101813045Y-247021843D01*
X101786009Y-247033042D01*
X101765316Y-247053734D01*
X101754118Y-247080771D01*
X101754118Y-247110034D01*
X101765317Y-247137070D01*
X101774644Y-247148435D01*
X102007220Y-247381010D01*
X101767677Y-247700402D01*
X101760051Y-247712972D01*
X101752788Y-247741320D01*
X101566396Y-247741320D01*
X101571187Y-247736529D01*
X101575907Y-247730777D01*
X101577402Y-247729481D01*
X101578820Y-247727227D01*
X101580514Y-247725164D01*
X101581272Y-247723332D01*
X101585235Y-247717038D01*
X101616188Y-247655134D01*
X101621443Y-247641402D01*
X101621634Y-247638712D01*
X101622665Y-247636224D01*
X101624106Y-247621592D01*
X101624106Y-247095402D01*
X101622665Y-247080770D01*
X101611466Y-247053734D01*
X101590774Y-247033042D01*
X101563738Y-247021843D01*
X101534474Y-247021843D01*
X101507438Y-247033042D01*
X101486746Y-247053734D01*
X101475547Y-247080770D01*
X101474106Y-247095402D01*
X101474106Y-247603886D01*
X101456513Y-247639070D01*
X101442772Y-247652811D01*
X101407592Y-247670402D01*
X101319192Y-247670402D01*
X101284008Y-247652810D01*
X101270267Y-247639069D01*
X101252677Y-247603887D01*
X101252677Y-247095402D01*
X101251236Y-247080770D01*
X101240037Y-247053734D01*
X101219345Y-247033042D01*
X101192309Y-247021843D01*
X101163045Y-247021843D01*
X101136009Y-247033042D01*
X101115317Y-247053734D01*
X101104118Y-247080770D01*
X101102677Y-247095402D01*
X100943154Y-247095402D01*
X100941713Y-247080770D01*
X100930514Y-247053734D01*
X100909822Y-247033042D01*
X100882786Y-247021843D01*
X100868154Y-247020402D01*
X100620535Y-247020402D01*
X100605903Y-247021843D01*
X100603413Y-247022874D01*
X100600726Y-247023065D01*
X100586995Y-247028320D01*
X100525089Y-247059272D01*
X100518791Y-247063236D01*
X100516962Y-247063994D01*
X100514902Y-247065684D01*
X100512647Y-247067104D01*
X100511349Y-247068600D01*
X100505597Y-247073321D01*
X100474644Y-247104274D01*
X100469923Y-247110026D01*
X100468428Y-247111323D01*
X100467008Y-247113577D01*
X100465317Y-247115639D01*
X100464558Y-247117469D01*
X100460595Y-247123766D01*
X100429643Y-247185670D01*
X100424388Y-247199402D01*
X100424197Y-247202089D01*
X100423166Y-247204579D01*
X100421725Y-247219211D01*
X99947181Y-247219211D01*
X99816272Y-247022847D01*
X99806956Y-247011472D01*
X99782641Y-246995189D01*
X99753947Y-246989450D01*
X99725239Y-246995129D01*
X99700890Y-247011362D01*
X99684607Y-247035677D01*
X99678868Y-247064371D01*
X99603968Y-247064371D01*
X99599562Y-247053734D01*
X99578870Y-247033042D01*
X99551834Y-247021843D01*
X99537202Y-247020402D01*
X99320535Y-247020402D01*
X99305903Y-247021843D01*
X99303413Y-247022874D01*
X99300726Y-247023065D01*
X99286995Y-247028320D01*
X99225089Y-247059272D01*
X99218788Y-247063237D01*
X99216961Y-247063995D01*
X99214903Y-247065683D01*
X99212647Y-247067104D01*
X99211348Y-247068600D01*
X99205596Y-247073322D01*
X99174644Y-247104275D01*
X99169923Y-247110026D01*
X99168429Y-247111323D01*
X99167009Y-247113577D01*
X99165317Y-247115640D01*
X99164559Y-247117470D01*
X99160596Y-247123765D01*
X99129643Y-247185669D01*
X99124388Y-247199401D01*
X99124196Y-247202090D01*
X99123166Y-247204579D01*
X99121725Y-247219211D01*
X99121725Y-247281116D01*
X99123166Y-247295748D01*
X99124196Y-247298236D01*
X99124388Y-247300926D01*
X99129643Y-247314657D01*
X99160596Y-247376562D01*
X99164559Y-247382858D01*
X99165318Y-247384689D01*
X99167009Y-247386750D01*
X99168429Y-247389005D01*
X99168458Y-247389030D01*
X99143693Y-247413796D01*
X99138972Y-247419547D01*
X99137475Y-247420846D01*
X99136055Y-247423101D01*
X99134365Y-247425161D01*
X99133606Y-247426991D01*
X99129643Y-247433289D01*
X99098691Y-247495194D01*
X99093436Y-247508926D01*
X99093245Y-247511613D01*
X99092214Y-247514103D01*
X99090773Y-247528735D01*
X98869344Y-247528735D01*
X98869344Y-247170402D01*
X98980059Y-247170402D01*
X98994691Y-247168961D01*
X99021727Y-247157762D01*
X99042419Y-247137070D01*
X99053618Y-247110034D01*
X99053618Y-247080770D01*
X99042419Y-247053734D01*
X99021727Y-247033042D01*
X98994691Y-247021843D01*
X98980059Y-247020402D01*
X98608630Y-247020402D01*
X98593998Y-247021843D01*
X98566962Y-247033042D01*
X98546270Y-247053734D01*
X98535071Y-247080770D01*
X98465523Y-247080770D01*
X98461704Y-247071552D01*
X98459081Y-247061932D01*
X98456154Y-247058153D01*
X98454324Y-247053734D01*
X98447267Y-247046677D01*
X98441163Y-247038795D01*
X98437014Y-247036424D01*
X98433632Y-247033042D01*
X98424411Y-247029222D01*
X98415755Y-247024276D01*
X98411015Y-247023673D01*
X98406596Y-247021843D01*
X98396614Y-247021843D01*
X98386725Y-247020586D01*
X98382116Y-247021843D01*
X98377332Y-247021843D01*
X98368114Y-247025661D01*
X98358493Y-247028285D01*
X98354712Y-247031212D01*
X98350296Y-247033042D01*
X98343242Y-247040095D01*
X98335356Y-247046203D01*
X98331004Y-247052333D01*
X98329604Y-247053734D01*
X98329034Y-247055108D01*
X98326846Y-247058192D01*
X98095535Y-247462985D01*
X98095535Y-247095402D01*
X98094094Y-247080770D01*
X98082895Y-247053734D01*
X98062203Y-247033042D01*
X98035167Y-247021843D01*
X98005903Y-247021843D01*
X97978867Y-247033042D01*
X97958175Y-247053734D01*
X97946976Y-247080770D01*
X97945535Y-247095402D01*
X97870535Y-247095402D01*
X97870535Y-246914450D01*
X103153815Y-246914450D01*
X103153815Y-248050164D01*
G37*
X90835416Y-232689450D02*
X90742559Y-232720402D01*
X90742559Y-232720402D02*
X90587797Y-232720402D01*
X90587797Y-232720402D02*
X90525892Y-232689450D01*
X90525892Y-232689450D02*
X90494940Y-232658497D01*
X90494940Y-232658497D02*
X90463987Y-232596592D01*
X90463987Y-232596592D02*
X90463987Y-232534688D01*
X90463987Y-232534688D02*
X90494940Y-232472783D01*
X90494940Y-232472783D02*
X90525892Y-232441830D01*
X90525892Y-232441830D02*
X90587797Y-232410878D01*
X90587797Y-232410878D02*
X90711606Y-232379926D01*
X90711606Y-232379926D02*
X90773511Y-232348973D01*
X90773511Y-232348973D02*
X90804464Y-232318021D01*
X90804464Y-232318021D02*
X90835416Y-232256116D01*
X90835416Y-232256116D02*
X90835416Y-232194211D01*
X90835416Y-232194211D02*
X90804464Y-232132307D01*
X90804464Y-232132307D02*
X90773511Y-232101354D01*
X90773511Y-232101354D02*
X90711606Y-232070402D01*
X90711606Y-232070402D02*
X90556845Y-232070402D01*
X90556845Y-232070402D02*
X90463987Y-232101354D01*
X90247320Y-232070402D02*
X90092558Y-232720402D01*
X90092558Y-232720402D02*
X89968749Y-232256116D01*
X89968749Y-232256116D02*
X89844939Y-232720402D01*
X89844939Y-232720402D02*
X89690178Y-232070402D01*
X89473511Y-232132307D02*
X89442559Y-232101354D01*
X89442559Y-232101354D02*
X89380654Y-232070402D01*
X89380654Y-232070402D02*
X89225892Y-232070402D01*
X89225892Y-232070402D02*
X89163987Y-232101354D01*
X89163987Y-232101354D02*
X89133035Y-232132307D01*
X89133035Y-232132307D02*
X89102082Y-232194211D01*
X89102082Y-232194211D02*
X89102082Y-232256116D01*
X89102082Y-232256116D02*
X89133035Y-232348973D01*
X89133035Y-232348973D02*
X89504463Y-232720402D01*
X89504463Y-232720402D02*
X89102082Y-232720402D01*
D12*
X103106250Y-232965000D02*
X89131250Y-232965000D01*
X103106250Y-246940000D02*
X103106250Y-232965000D01*
X89131250Y-246940000D02*
X103106250Y-246940000D01*
X89131250Y-232965000D02*
X89131250Y-246940000D01*
D11*
G36*
X92051488Y-231770402D02*
G01*
X91983896Y-231770402D01*
X91919382Y-231748897D01*
X91878603Y-231708118D01*
X91856775Y-231664463D01*
X91830059Y-231557596D01*
X91830059Y-231483206D01*
X91856775Y-231376340D01*
X91878603Y-231332685D01*
X91919382Y-231291906D01*
X91983896Y-231270402D01*
X92051488Y-231270402D01*
X92051488Y-231770402D01*
G37*
G36*
X95526488Y-232057307D02*
G01*
X91605059Y-232057307D01*
X91605059Y-231473973D01*
X91680059Y-231473973D01*
X91680059Y-231566830D01*
X91680310Y-231569379D01*
X91680147Y-231570475D01*
X91680958Y-231575959D01*
X91681500Y-231581462D01*
X91681922Y-231582482D01*
X91682298Y-231585020D01*
X91713250Y-231708830D01*
X91713635Y-231709909D01*
X91713674Y-231710450D01*
X91716007Y-231716546D01*
X91718197Y-231722675D01*
X91718518Y-231723109D01*
X91718929Y-231724181D01*
X91749882Y-231786086D01*
X91753845Y-231792382D01*
X91754604Y-231794213D01*
X91756295Y-231796274D01*
X91757715Y-231798529D01*
X91759210Y-231799825D01*
X91763931Y-231805578D01*
X91825836Y-231867483D01*
X91837201Y-231876811D01*
X91839693Y-231877843D01*
X91841727Y-231879607D01*
X91855152Y-231885601D01*
X91948009Y-231916553D01*
X91955262Y-231918202D01*
X91957094Y-231918961D01*
X91959748Y-231919222D01*
X91962346Y-231919813D01*
X91964320Y-231919672D01*
X91971726Y-231920402D01*
X92126488Y-231920402D01*
X92141120Y-231918961D01*
X92168156Y-231907762D01*
X92188848Y-231887070D01*
X92200047Y-231860034D01*
X92200047Y-231860033D01*
X92201488Y-231845402D01*
X92201488Y-231242677D01*
X92331500Y-231242677D01*
X92331500Y-231271940D01*
X92342699Y-231298976D01*
X92363392Y-231319668D01*
X92390429Y-231330866D01*
X92419692Y-231330866D01*
X92446728Y-231319667D01*
X92458093Y-231310339D01*
X92476525Y-231291905D01*
X92541039Y-231270402D01*
X92578603Y-231270402D01*
X92643116Y-231291906D01*
X92683896Y-231332686D01*
X92705723Y-231376340D01*
X92732440Y-231483206D01*
X92732440Y-231557596D01*
X92705723Y-231664463D01*
X92683896Y-231708117D01*
X92643116Y-231748897D01*
X92578603Y-231770402D01*
X92541039Y-231770402D01*
X92476525Y-231748898D01*
X92458093Y-231730465D01*
X92446728Y-231721137D01*
X92419692Y-231709938D01*
X92390429Y-231709938D01*
X92363392Y-231721136D01*
X92342699Y-231741828D01*
X92331500Y-231768864D01*
X92331500Y-231798127D01*
X92342698Y-231825164D01*
X92352025Y-231836529D01*
X92382977Y-231867482D01*
X92394342Y-231876809D01*
X92396832Y-231877840D01*
X92398869Y-231879607D01*
X92412294Y-231885601D01*
X92505153Y-231916553D01*
X92512404Y-231918202D01*
X92514237Y-231918961D01*
X92516892Y-231919222D01*
X92519489Y-231919813D01*
X92521463Y-231919672D01*
X92528869Y-231920402D01*
X92590773Y-231920402D01*
X92598178Y-231919672D01*
X92600153Y-231919813D01*
X92602750Y-231919222D01*
X92605405Y-231918961D01*
X92607236Y-231918202D01*
X92614490Y-231916553D01*
X92707347Y-231885601D01*
X92720773Y-231879607D01*
X92722809Y-231877840D01*
X92725298Y-231876810D01*
X92736663Y-231867483D01*
X92773376Y-231830770D01*
X92919595Y-231830770D01*
X92919595Y-231860034D01*
X92930794Y-231887070D01*
X92951486Y-231907762D01*
X92978522Y-231918961D01*
X92993154Y-231920402D01*
X93302678Y-231920402D01*
X93317310Y-231918961D01*
X93344346Y-231907762D01*
X93359433Y-231892675D01*
X93383880Y-231892675D01*
X93383880Y-231921939D01*
X93395079Y-231948975D01*
X93415771Y-231969667D01*
X93442807Y-231980866D01*
X93457439Y-231982307D01*
X93952678Y-231982307D01*
X93967310Y-231980866D01*
X93994346Y-231969667D01*
X94015038Y-231948975D01*
X94026237Y-231921939D01*
X94026237Y-231892675D01*
X94015038Y-231865639D01*
X93994346Y-231844947D01*
X93967310Y-231833748D01*
X93952678Y-231832307D01*
X93457439Y-231832307D01*
X93442807Y-231833748D01*
X93415771Y-231844947D01*
X93395079Y-231865639D01*
X93383880Y-231892675D01*
X93359433Y-231892675D01*
X93365038Y-231887070D01*
X93376237Y-231860034D01*
X93376237Y-231860033D01*
X93377678Y-231845402D01*
X93377678Y-231242677D01*
X94002928Y-231242677D01*
X94002928Y-231271940D01*
X94014127Y-231298976D01*
X94034820Y-231319668D01*
X94061857Y-231330866D01*
X94091120Y-231330866D01*
X94118156Y-231319667D01*
X94129521Y-231310339D01*
X94147953Y-231291905D01*
X94212467Y-231270402D01*
X94250031Y-231270402D01*
X94314544Y-231291906D01*
X94355324Y-231332686D01*
X94377151Y-231376340D01*
X94403868Y-231483206D01*
X94403868Y-231557596D01*
X94377151Y-231664463D01*
X94355324Y-231708117D01*
X94314544Y-231748897D01*
X94250031Y-231770402D01*
X94212467Y-231770402D01*
X94147953Y-231748898D01*
X94129521Y-231730465D01*
X94118156Y-231721137D01*
X94091120Y-231709938D01*
X94061857Y-231709938D01*
X94034820Y-231721136D01*
X94014127Y-231741828D01*
X94002928Y-231768864D01*
X94002928Y-231798127D01*
X94014126Y-231825164D01*
X94023453Y-231836529D01*
X94054405Y-231867482D01*
X94065770Y-231876809D01*
X94068260Y-231877840D01*
X94070297Y-231879607D01*
X94083722Y-231885601D01*
X94176581Y-231916553D01*
X94183832Y-231918202D01*
X94185665Y-231918961D01*
X94188320Y-231919222D01*
X94190917Y-231919813D01*
X94192891Y-231919672D01*
X94200297Y-231920402D01*
X94262201Y-231920402D01*
X94269606Y-231919672D01*
X94271581Y-231919813D01*
X94274178Y-231919222D01*
X94276833Y-231918961D01*
X94278664Y-231918202D01*
X94285918Y-231916553D01*
X94378775Y-231885601D01*
X94392201Y-231879607D01*
X94394237Y-231877840D01*
X94396726Y-231876810D01*
X94408091Y-231867483D01*
X94469996Y-231805578D01*
X94474718Y-231799824D01*
X94476212Y-231798529D01*
X94477628Y-231796278D01*
X94479324Y-231794213D01*
X94480083Y-231792378D01*
X94484045Y-231786086D01*
X94514998Y-231724182D01*
X94515408Y-231723110D01*
X94515730Y-231722676D01*
X94517920Y-231716545D01*
X94520253Y-231710450D01*
X94520291Y-231709909D01*
X94520677Y-231708830D01*
X94551629Y-231585020D01*
X94552004Y-231582483D01*
X94552427Y-231581462D01*
X94552969Y-231575949D01*
X94553779Y-231570476D01*
X94553616Y-231569383D01*
X94553868Y-231566830D01*
X94553868Y-231473973D01*
X94553616Y-231471419D01*
X94553779Y-231470327D01*
X94552969Y-231464853D01*
X94552427Y-231459341D01*
X94552004Y-231458319D01*
X94551629Y-231455783D01*
X94520677Y-231331974D01*
X94520291Y-231330894D01*
X94520253Y-231330354D01*
X94517920Y-231324258D01*
X94516117Y-231319211D01*
X94651487Y-231319211D01*
X94651487Y-231381116D01*
X94652216Y-231388521D01*
X94652076Y-231390497D01*
X94652666Y-231393094D01*
X94652928Y-231395748D01*
X94653686Y-231397578D01*
X94655336Y-231404834D01*
X94686289Y-231497690D01*
X94692283Y-231511116D01*
X94694047Y-231513150D01*
X94695079Y-231515641D01*
X94704407Y-231527006D01*
X94947802Y-231770402D01*
X94726487Y-231770402D01*
X94711855Y-231771843D01*
X94684819Y-231783042D01*
X94664127Y-231803734D01*
X94652928Y-231830770D01*
X94652928Y-231860034D01*
X94664127Y-231887070D01*
X94684819Y-231907762D01*
X94711855Y-231918961D01*
X94726487Y-231920402D01*
X95128868Y-231920402D01*
X95143500Y-231918961D01*
X95170536Y-231907762D01*
X95191228Y-231887070D01*
X95202427Y-231860034D01*
X95202427Y-231830770D01*
X95191228Y-231803734D01*
X95181901Y-231792369D01*
X94822992Y-231433459D01*
X94801487Y-231368944D01*
X94801487Y-231336917D01*
X94819079Y-231301732D01*
X94832819Y-231287992D01*
X94868002Y-231270402D01*
X94987355Y-231270402D01*
X95022535Y-231287992D01*
X95044882Y-231310339D01*
X95056247Y-231319666D01*
X95083283Y-231330865D01*
X95112546Y-231330866D01*
X95139582Y-231319668D01*
X95160275Y-231298975D01*
X95171474Y-231271939D01*
X95171475Y-231242676D01*
X95160277Y-231215640D01*
X95150950Y-231204275D01*
X95142077Y-231195402D01*
X95301488Y-231195402D01*
X95301488Y-231845402D01*
X95302929Y-231860034D01*
X95314128Y-231887070D01*
X95334820Y-231907762D01*
X95361856Y-231918961D01*
X95391120Y-231918961D01*
X95418156Y-231907762D01*
X95438848Y-231887070D01*
X95450047Y-231860034D01*
X95451488Y-231845402D01*
X95451488Y-231195402D01*
X95450047Y-231180770D01*
X95438848Y-231153734D01*
X95418156Y-231133042D01*
X95391120Y-231121843D01*
X95361856Y-231121843D01*
X95334820Y-231133042D01*
X95314128Y-231153734D01*
X95302929Y-231180770D01*
X95301488Y-231195402D01*
X95142077Y-231195402D01*
X95119998Y-231173322D01*
X95114246Y-231168601D01*
X95112948Y-231167104D01*
X95110692Y-231165684D01*
X95108633Y-231163994D01*
X95106802Y-231163235D01*
X95100505Y-231159272D01*
X95038600Y-231128320D01*
X95024868Y-231123065D01*
X95022180Y-231122874D01*
X95019691Y-231121843D01*
X95005059Y-231120402D01*
X94850297Y-231120402D01*
X94835665Y-231121843D01*
X94833175Y-231122874D01*
X94830488Y-231123065D01*
X94816757Y-231128320D01*
X94754851Y-231159272D01*
X94748550Y-231163237D01*
X94746723Y-231163995D01*
X94744665Y-231165683D01*
X94742409Y-231167104D01*
X94741110Y-231168600D01*
X94735358Y-231173322D01*
X94704406Y-231204275D01*
X94699685Y-231210026D01*
X94698191Y-231211323D01*
X94696771Y-231213577D01*
X94695079Y-231215640D01*
X94694321Y-231217470D01*
X94690358Y-231223765D01*
X94659405Y-231285669D01*
X94654150Y-231299401D01*
X94653958Y-231302090D01*
X94652928Y-231304579D01*
X94651487Y-231319211D01*
X94516117Y-231319211D01*
X94515730Y-231318128D01*
X94515408Y-231317693D01*
X94514998Y-231316622D01*
X94484045Y-231254718D01*
X94480083Y-231248425D01*
X94479324Y-231246591D01*
X94477628Y-231244525D01*
X94476212Y-231242275D01*
X94474718Y-231240979D01*
X94469996Y-231235226D01*
X94408091Y-231173321D01*
X94396726Y-231163994D01*
X94394237Y-231162963D01*
X94392201Y-231161197D01*
X94378775Y-231155203D01*
X94285918Y-231124251D01*
X94278664Y-231122601D01*
X94276833Y-231121843D01*
X94274178Y-231121581D01*
X94271581Y-231120991D01*
X94269606Y-231121131D01*
X94262201Y-231120402D01*
X94200297Y-231120402D01*
X94192891Y-231121131D01*
X94190917Y-231120991D01*
X94188320Y-231121581D01*
X94185665Y-231121843D01*
X94183832Y-231122601D01*
X94176581Y-231124251D01*
X94083722Y-231155203D01*
X94070297Y-231161197D01*
X94068260Y-231162963D01*
X94065770Y-231163995D01*
X94054405Y-231173322D01*
X94023453Y-231204275D01*
X94014126Y-231215640D01*
X94002928Y-231242677D01*
X93377678Y-231242677D01*
X93377678Y-231195402D01*
X93376237Y-231180770D01*
X93365038Y-231153734D01*
X93344346Y-231133042D01*
X93317310Y-231121843D01*
X93288046Y-231121843D01*
X93261010Y-231133042D01*
X93240318Y-231153734D01*
X93229119Y-231180770D01*
X93227678Y-231195402D01*
X93227678Y-231770402D01*
X92993154Y-231770402D01*
X92978522Y-231771843D01*
X92951486Y-231783042D01*
X92930794Y-231803734D01*
X92919595Y-231830770D01*
X92773376Y-231830770D01*
X92798568Y-231805578D01*
X92803290Y-231799824D01*
X92804784Y-231798529D01*
X92806200Y-231796278D01*
X92807896Y-231794213D01*
X92808655Y-231792378D01*
X92812617Y-231786086D01*
X92843570Y-231724182D01*
X92843980Y-231723110D01*
X92844302Y-231722676D01*
X92846492Y-231716545D01*
X92848825Y-231710450D01*
X92848863Y-231709909D01*
X92849249Y-231708830D01*
X92880201Y-231585020D01*
X92880576Y-231582483D01*
X92880999Y-231581462D01*
X92881541Y-231575949D01*
X92882351Y-231570476D01*
X92882188Y-231569383D01*
X92882440Y-231566830D01*
X92882440Y-231473973D01*
X92882188Y-231471419D01*
X92882351Y-231470327D01*
X92881541Y-231464853D01*
X92880999Y-231459341D01*
X92880576Y-231458319D01*
X92880201Y-231455783D01*
X92849249Y-231331974D01*
X92848863Y-231330894D01*
X92848825Y-231330354D01*
X92846492Y-231324258D01*
X92844302Y-231318128D01*
X92843980Y-231317693D01*
X92843570Y-231316622D01*
X92812617Y-231254718D01*
X92808655Y-231248425D01*
X92807896Y-231246591D01*
X92806200Y-231244525D01*
X92804784Y-231242275D01*
X92803290Y-231240979D01*
X92798568Y-231235226D01*
X92736663Y-231173321D01*
X92725298Y-231163994D01*
X92722809Y-231162963D01*
X92720773Y-231161197D01*
X92707347Y-231155203D01*
X92614490Y-231124251D01*
X92607236Y-231122601D01*
X92605405Y-231121843D01*
X92602750Y-231121581D01*
X92600153Y-231120991D01*
X92598178Y-231121131D01*
X92590773Y-231120402D01*
X92528869Y-231120402D01*
X92521463Y-231121131D01*
X92519489Y-231120991D01*
X92516892Y-231121581D01*
X92514237Y-231121843D01*
X92512404Y-231122601D01*
X92505153Y-231124251D01*
X92412294Y-231155203D01*
X92398869Y-231161197D01*
X92396832Y-231162963D01*
X92394342Y-231163995D01*
X92382977Y-231173322D01*
X92352025Y-231204275D01*
X92342698Y-231215640D01*
X92331500Y-231242677D01*
X92201488Y-231242677D01*
X92201488Y-231195402D01*
X92200047Y-231180770D01*
X92188848Y-231153734D01*
X92168156Y-231133042D01*
X92141120Y-231121843D01*
X92126488Y-231120402D01*
X91971726Y-231120402D01*
X91964320Y-231121131D01*
X91962346Y-231120991D01*
X91959748Y-231121581D01*
X91957094Y-231121843D01*
X91955262Y-231122601D01*
X91948009Y-231124251D01*
X91855152Y-231155203D01*
X91841727Y-231161197D01*
X91839693Y-231162960D01*
X91837201Y-231163993D01*
X91825836Y-231173321D01*
X91763931Y-231235226D01*
X91759210Y-231240978D01*
X91757715Y-231242275D01*
X91756295Y-231244529D01*
X91754604Y-231246591D01*
X91753845Y-231248421D01*
X91749882Y-231254718D01*
X91718929Y-231316623D01*
X91718518Y-231317694D01*
X91718197Y-231318129D01*
X91716007Y-231324257D01*
X91713674Y-231330354D01*
X91713635Y-231330894D01*
X91713250Y-231331974D01*
X91682298Y-231455783D01*
X91681922Y-231458320D01*
X91681500Y-231459341D01*
X91680958Y-231464843D01*
X91680147Y-231470328D01*
X91680310Y-231471423D01*
X91680059Y-231473973D01*
X91605059Y-231473973D01*
X91605059Y-231045402D01*
X95526488Y-231045402D01*
X95526488Y-232057307D01*
G37*
D12*
X91668750Y-231027500D02*
X92993750Y-231027500D01*
X91668750Y-229702500D02*
X91668750Y-231027500D01*
D11*
X101660416Y-227495402D02*
X101660416Y-227959688D01*
X101660416Y-227959688D02*
X101691369Y-228052545D01*
X101691369Y-228052545D02*
X101753273Y-228114450D01*
X101753273Y-228114450D02*
X101846131Y-228145402D01*
X101846131Y-228145402D02*
X101908035Y-228145402D01*
X101010416Y-228145402D02*
X101381845Y-228145402D01*
X101196131Y-228145402D02*
X101196131Y-227495402D01*
X101196131Y-227495402D02*
X101258035Y-227588259D01*
X101258035Y-227588259D02*
X101319940Y-227650164D01*
X101319940Y-227650164D02*
X101381845Y-227681116D01*
D12*
X101943750Y-231027500D02*
X101943750Y-228377500D01*
X94268750Y-231027500D02*
X101943750Y-231027500D01*
X94268750Y-228377500D02*
X94268750Y-231027500D01*
X101931250Y-228377500D02*
X94268750Y-228377500D01*
D11*
G36*
X97661652Y-223799853D02*
G01*
X97640147Y-223864366D01*
X97599368Y-223905145D01*
X97555713Y-223926973D01*
X97448846Y-223953690D01*
X97374457Y-223953690D01*
X97267590Y-223926973D01*
X97223936Y-223905146D01*
X97183156Y-223864366D01*
X97161652Y-223799853D01*
X97161652Y-223732261D01*
X97661652Y-223732261D01*
X97661652Y-223799853D01*
G37*
G36*
X97352128Y-221256223D02*
G01*
X97334536Y-221291406D01*
X97320796Y-221305147D01*
X97285614Y-221322738D01*
X97228166Y-221322738D01*
X97192984Y-221305147D01*
X97179242Y-221291405D01*
X97161652Y-221256223D01*
X97161652Y-221101309D01*
X97352128Y-221101309D01*
X97352128Y-221256223D01*
G37*
G36*
X97948557Y-224178690D02*
G01*
X96936652Y-224178690D01*
X96936652Y-223657261D01*
X97011652Y-223657261D01*
X97011652Y-223812023D01*
X97012381Y-223819428D01*
X97012241Y-223821403D01*
X97012831Y-223824000D01*
X97013093Y-223826655D01*
X97013851Y-223828486D01*
X97015501Y-223835740D01*
X97046453Y-223928597D01*
X97052447Y-223942023D01*
X97054213Y-223944059D01*
X97055244Y-223946548D01*
X97064571Y-223957913D01*
X97126476Y-224019818D01*
X97132229Y-224024540D01*
X97133525Y-224026034D01*
X97135775Y-224027450D01*
X97137841Y-224029146D01*
X97139675Y-224029905D01*
X97145968Y-224033867D01*
X97207872Y-224064820D01*
X97208943Y-224065230D01*
X97209378Y-224065552D01*
X97215508Y-224067742D01*
X97221604Y-224070075D01*
X97222144Y-224070113D01*
X97223224Y-224070499D01*
X97347033Y-224101451D01*
X97349569Y-224101826D01*
X97350591Y-224102249D01*
X97356103Y-224102791D01*
X97361577Y-224103601D01*
X97362669Y-224103438D01*
X97365223Y-224103690D01*
X97458080Y-224103690D01*
X97460629Y-224103438D01*
X97461725Y-224103602D01*
X97467209Y-224102790D01*
X97472712Y-224102249D01*
X97473732Y-224101826D01*
X97476270Y-224101451D01*
X97600080Y-224070499D01*
X97601159Y-224070113D01*
X97601700Y-224070075D01*
X97607796Y-224067741D01*
X97613925Y-224065552D01*
X97614359Y-224065230D01*
X97615431Y-224064820D01*
X97677336Y-224033867D01*
X97683632Y-224029903D01*
X97685463Y-224029145D01*
X97687524Y-224027453D01*
X97689779Y-224026034D01*
X97691075Y-224024538D01*
X97696828Y-224019818D01*
X97758733Y-223957913D01*
X97768061Y-223946548D01*
X97769093Y-223944055D01*
X97770857Y-223942022D01*
X97776851Y-223928597D01*
X97807803Y-223835740D01*
X97809452Y-223828486D01*
X97810211Y-223826655D01*
X97810472Y-223824000D01*
X97811063Y-223821403D01*
X97810922Y-223819428D01*
X97811652Y-223812023D01*
X97811652Y-223657261D01*
X97810211Y-223642629D01*
X97799012Y-223615593D01*
X97778320Y-223594901D01*
X97751284Y-223583702D01*
X97736652Y-223582261D01*
X97086652Y-223582261D01*
X97072020Y-223583702D01*
X97044984Y-223594901D01*
X97024292Y-223615593D01*
X97013093Y-223642629D01*
X97011652Y-223657261D01*
X96936652Y-223657261D01*
X96936652Y-223192976D01*
X97011652Y-223192976D01*
X97011652Y-223254880D01*
X97012381Y-223262285D01*
X97012241Y-223264260D01*
X97012831Y-223266857D01*
X97013093Y-223269512D01*
X97013851Y-223271343D01*
X97015501Y-223278597D01*
X97046453Y-223371455D01*
X97052447Y-223384880D01*
X97054211Y-223386914D01*
X97055244Y-223389407D01*
X97064572Y-223400772D01*
X97095525Y-223431724D01*
X97106890Y-223441051D01*
X97133926Y-223452249D01*
X97163189Y-223452248D01*
X97190225Y-223441049D01*
X97210918Y-223420356D01*
X97222116Y-223393320D01*
X97222115Y-223364057D01*
X97210916Y-223337021D01*
X97201589Y-223325656D01*
X97183155Y-223307223D01*
X97161652Y-223242710D01*
X97161652Y-223205145D01*
X97183156Y-223140632D01*
X97223936Y-223099852D01*
X97267590Y-223078025D01*
X97374457Y-223051309D01*
X97448846Y-223051309D01*
X97555713Y-223078025D01*
X97599368Y-223099853D01*
X97640147Y-223140632D01*
X97661652Y-223205145D01*
X97661652Y-223242710D01*
X97640148Y-223307223D01*
X97621715Y-223325656D01*
X97612387Y-223337021D01*
X97601188Y-223364057D01*
X97601188Y-223393320D01*
X97612386Y-223420357D01*
X97633078Y-223441050D01*
X97660114Y-223452249D01*
X97689377Y-223452249D01*
X97716414Y-223441051D01*
X97727779Y-223431724D01*
X97758732Y-223400772D01*
X97768059Y-223389407D01*
X97769090Y-223386916D01*
X97770857Y-223384880D01*
X97776851Y-223371455D01*
X97807803Y-223278596D01*
X97809452Y-223271344D01*
X97810211Y-223269512D01*
X97810472Y-223266856D01*
X97811063Y-223264260D01*
X97810922Y-223262285D01*
X97811652Y-223254880D01*
X97811652Y-223192976D01*
X97810922Y-223185570D01*
X97811063Y-223183596D01*
X97810472Y-223180998D01*
X97810211Y-223178344D01*
X97809452Y-223176512D01*
X97807803Y-223169259D01*
X97776851Y-223076402D01*
X97770857Y-223062977D01*
X97769093Y-223060943D01*
X97768061Y-223058451D01*
X97758733Y-223047086D01*
X97696828Y-222985181D01*
X97691075Y-222980460D01*
X97689779Y-222978965D01*
X97687524Y-222977545D01*
X97685463Y-222975854D01*
X97683632Y-222975095D01*
X97677336Y-222971132D01*
X97615431Y-222940179D01*
X97614359Y-222939768D01*
X97613925Y-222939447D01*
X97607796Y-222937257D01*
X97601700Y-222934924D01*
X97601159Y-222934885D01*
X97600080Y-222934500D01*
X97476270Y-222903548D01*
X97473732Y-222903172D01*
X97472712Y-222902750D01*
X97467209Y-222902208D01*
X97461725Y-222901397D01*
X97460629Y-222901560D01*
X97458080Y-222901309D01*
X97365223Y-222901309D01*
X97362669Y-222901560D01*
X97361577Y-222901398D01*
X97356103Y-222902207D01*
X97350591Y-222902750D01*
X97349569Y-222903172D01*
X97347033Y-222903548D01*
X97223224Y-222934500D01*
X97222144Y-222934885D01*
X97221604Y-222934924D01*
X97215508Y-222937256D01*
X97209378Y-222939447D01*
X97208943Y-222939768D01*
X97207872Y-222940179D01*
X97145968Y-222971132D01*
X97139675Y-222975093D01*
X97137841Y-222975853D01*
X97135775Y-222977548D01*
X97133525Y-222978965D01*
X97132229Y-222980458D01*
X97126476Y-222985181D01*
X97064571Y-223047086D01*
X97055244Y-223058451D01*
X97054213Y-223060939D01*
X97052447Y-223062976D01*
X97046453Y-223076402D01*
X97015501Y-223169259D01*
X97013851Y-223176512D01*
X97013093Y-223178344D01*
X97012831Y-223180998D01*
X97012241Y-223183596D01*
X97012381Y-223185570D01*
X97011652Y-223192976D01*
X96936652Y-223192976D01*
X96936652Y-222466439D01*
X97013093Y-222466439D01*
X97013093Y-222495703D01*
X97024292Y-222522739D01*
X97044984Y-222543431D01*
X97072020Y-222554630D01*
X97086652Y-222556071D01*
X97661652Y-222556071D01*
X97661652Y-222790595D01*
X97663093Y-222805227D01*
X97674292Y-222832263D01*
X97694984Y-222852955D01*
X97722020Y-222864154D01*
X97751284Y-222864154D01*
X97778320Y-222852955D01*
X97799012Y-222832263D01*
X97810211Y-222805227D01*
X97811652Y-222790595D01*
X97811652Y-222481071D01*
X97810211Y-222466439D01*
X97799012Y-222439403D01*
X97778320Y-222418711D01*
X97751284Y-222407512D01*
X97736652Y-222406071D01*
X97086652Y-222406071D01*
X97072020Y-222407512D01*
X97044984Y-222418711D01*
X97024292Y-222439403D01*
X97013093Y-222466439D01*
X96936652Y-222466439D01*
X96936652Y-221831072D01*
X97723557Y-221831072D01*
X97723557Y-222326310D01*
X97724998Y-222340942D01*
X97736197Y-222367978D01*
X97756889Y-222388670D01*
X97783925Y-222399869D01*
X97813189Y-222399869D01*
X97840225Y-222388670D01*
X97860917Y-222367978D01*
X97872116Y-222340942D01*
X97873557Y-222326310D01*
X97873557Y-221831072D01*
X97872116Y-221816440D01*
X97860917Y-221789404D01*
X97840225Y-221768712D01*
X97813189Y-221757513D01*
X97783925Y-221757513D01*
X97756889Y-221768712D01*
X97736197Y-221789404D01*
X97724998Y-221816440D01*
X97723557Y-221831072D01*
X96936652Y-221831072D01*
X96936652Y-221661677D01*
X97013093Y-221661677D01*
X97013093Y-221690941D01*
X97024292Y-221717977D01*
X97044984Y-221738669D01*
X97072020Y-221749868D01*
X97086652Y-221751309D01*
X97736652Y-221751309D01*
X97751284Y-221749868D01*
X97778320Y-221738669D01*
X97799012Y-221717977D01*
X97810211Y-221690941D01*
X97810211Y-221661677D01*
X97799012Y-221634641D01*
X97778320Y-221613949D01*
X97751284Y-221602750D01*
X97736652Y-221601309D01*
X97086652Y-221601309D01*
X97072020Y-221602750D01*
X97044984Y-221613949D01*
X97024292Y-221634641D01*
X97013093Y-221661677D01*
X96936652Y-221661677D01*
X96936652Y-221026309D01*
X97011652Y-221026309D01*
X97011652Y-221273928D01*
X97013093Y-221288560D01*
X97014124Y-221291049D01*
X97014315Y-221293737D01*
X97019570Y-221307469D01*
X97050522Y-221369374D01*
X97054486Y-221375673D01*
X97055244Y-221377501D01*
X97056932Y-221379557D01*
X97058354Y-221381817D01*
X97059852Y-221383116D01*
X97064571Y-221388866D01*
X97095524Y-221419819D01*
X97101273Y-221424537D01*
X97102573Y-221426036D01*
X97104832Y-221427457D01*
X97106889Y-221429146D01*
X97108716Y-221429903D01*
X97115016Y-221433868D01*
X97176920Y-221464820D01*
X97190652Y-221470075D01*
X97193339Y-221470265D01*
X97195829Y-221471297D01*
X97210461Y-221472738D01*
X97303319Y-221472738D01*
X97317951Y-221471297D01*
X97320440Y-221470265D01*
X97323128Y-221470075D01*
X97336860Y-221464820D01*
X97398764Y-221433868D01*
X97405060Y-221429904D01*
X97406891Y-221429146D01*
X97408952Y-221427454D01*
X97411207Y-221426035D01*
X97412503Y-221424539D01*
X97418256Y-221419819D01*
X97449209Y-221388866D01*
X97453929Y-221383113D01*
X97455426Y-221381816D01*
X97456845Y-221379560D01*
X97458536Y-221377501D01*
X97459293Y-221375671D01*
X97463258Y-221369374D01*
X97494210Y-221307468D01*
X97499465Y-221293737D01*
X97499655Y-221291049D01*
X97500687Y-221288560D01*
X97502128Y-221273928D01*
X97502128Y-221101309D01*
X97736652Y-221101309D01*
X97751284Y-221099868D01*
X97778320Y-221088669D01*
X97799012Y-221067977D01*
X97810211Y-221040941D01*
X97810211Y-221011677D01*
X97799012Y-220984641D01*
X97778320Y-220963949D01*
X97751284Y-220952750D01*
X97736652Y-220951309D01*
X97086652Y-220951309D01*
X97072020Y-220952750D01*
X97044984Y-220963949D01*
X97024292Y-220984641D01*
X97013093Y-221011677D01*
X97011652Y-221026309D01*
X96936652Y-221026309D01*
X96936652Y-220500119D01*
X97011652Y-220500119D01*
X97011652Y-220654880D01*
X97012381Y-220662285D01*
X97012241Y-220664260D01*
X97012831Y-220666857D01*
X97013093Y-220669512D01*
X97013851Y-220671343D01*
X97015501Y-220678597D01*
X97046453Y-220771455D01*
X97052447Y-220784880D01*
X97071620Y-220806988D01*
X97097794Y-220820075D01*
X97126984Y-220822150D01*
X97154746Y-220812896D01*
X97176853Y-220793722D01*
X97189940Y-220767549D01*
X97192015Y-220738358D01*
X97188755Y-220724022D01*
X97161652Y-220642710D01*
X97161652Y-220517823D01*
X97179242Y-220482641D01*
X97192984Y-220468900D01*
X97228166Y-220451309D01*
X97254662Y-220451309D01*
X97289842Y-220468899D01*
X97303583Y-220482640D01*
X97325411Y-220526295D01*
X97354367Y-220642118D01*
X97354752Y-220643197D01*
X97354791Y-220643737D01*
X97357121Y-220649826D01*
X97359314Y-220655963D01*
X97359635Y-220656397D01*
X97360046Y-220657469D01*
X97390998Y-220719374D01*
X97394961Y-220725671D01*
X97395720Y-220727502D01*
X97397410Y-220729561D01*
X97398830Y-220731817D01*
X97400327Y-220733115D01*
X97405048Y-220738867D01*
X97436001Y-220769819D01*
X97441752Y-220774539D01*
X97443049Y-220776034D01*
X97445302Y-220777452D01*
X97447366Y-220779146D01*
X97449197Y-220779904D01*
X97455492Y-220783867D01*
X97517396Y-220814820D01*
X97531128Y-220820075D01*
X97533817Y-220820266D01*
X97536306Y-220821297D01*
X97550938Y-220822738D01*
X97612842Y-220822738D01*
X97627474Y-220821297D01*
X97629962Y-220820266D01*
X97632652Y-220820075D01*
X97646383Y-220814820D01*
X97708288Y-220783867D01*
X97714582Y-220779904D01*
X97716414Y-220779146D01*
X97718477Y-220777452D01*
X97720731Y-220776034D01*
X97722027Y-220774539D01*
X97727779Y-220769819D01*
X97758732Y-220738867D01*
X97763453Y-220733114D01*
X97764950Y-220731816D01*
X97766370Y-220729559D01*
X97768059Y-220727502D01*
X97768816Y-220725674D01*
X97772782Y-220719374D01*
X97803734Y-220657468D01*
X97808989Y-220643737D01*
X97809179Y-220641049D01*
X97810211Y-220638560D01*
X97811652Y-220623928D01*
X97811652Y-220469166D01*
X97810922Y-220461760D01*
X97811063Y-220459786D01*
X97810472Y-220457188D01*
X97810211Y-220454534D01*
X97809452Y-220452702D01*
X97807803Y-220445449D01*
X97776851Y-220352592D01*
X97770857Y-220339167D01*
X97751684Y-220317059D01*
X97725510Y-220303973D01*
X97696320Y-220301898D01*
X97668558Y-220311152D01*
X97646450Y-220330325D01*
X97633364Y-220356499D01*
X97631289Y-220385689D01*
X97634549Y-220400026D01*
X97661652Y-220481335D01*
X97661652Y-220606223D01*
X97644061Y-220641405D01*
X97630321Y-220655145D01*
X97595136Y-220672738D01*
X97568643Y-220672738D01*
X97533459Y-220655145D01*
X97519718Y-220641404D01*
X97497892Y-220597752D01*
X97468937Y-220481929D01*
X97468551Y-220480849D01*
X97468513Y-220480309D01*
X97466180Y-220474213D01*
X97463990Y-220468083D01*
X97463668Y-220467648D01*
X97463258Y-220466577D01*
X97432305Y-220404673D01*
X97428342Y-220398378D01*
X97427584Y-220396547D01*
X97425890Y-220394483D01*
X97424472Y-220392230D01*
X97422977Y-220390933D01*
X97418257Y-220385182D01*
X97387305Y-220354229D01*
X97381553Y-220349508D01*
X97380255Y-220348011D01*
X97377999Y-220346591D01*
X97375940Y-220344901D01*
X97374109Y-220344142D01*
X97367812Y-220340179D01*
X97305907Y-220309227D01*
X97292175Y-220303972D01*
X97289487Y-220303781D01*
X97286998Y-220302750D01*
X97272366Y-220301309D01*
X97210461Y-220301309D01*
X97195829Y-220302750D01*
X97193339Y-220303781D01*
X97190652Y-220303972D01*
X97176920Y-220309227D01*
X97115016Y-220340179D01*
X97108716Y-220344143D01*
X97106889Y-220344901D01*
X97104832Y-220346589D01*
X97102573Y-220348011D01*
X97101273Y-220349509D01*
X97095524Y-220354228D01*
X97064571Y-220385181D01*
X97059852Y-220390930D01*
X97058354Y-220392230D01*
X97056932Y-220394489D01*
X97055244Y-220396546D01*
X97054486Y-220398373D01*
X97050522Y-220404673D01*
X97019570Y-220466578D01*
X97014315Y-220480310D01*
X97014124Y-220482997D01*
X97013093Y-220485487D01*
X97011652Y-220500119D01*
X96936652Y-220500119D01*
X96936652Y-220226309D01*
X97948557Y-220226309D01*
X97948557Y-224178690D01*
G37*
X96610416Y-216195402D02*
X96610416Y-216659688D01*
X96610416Y-216659688D02*
X96641369Y-216752545D01*
X96641369Y-216752545D02*
X96703273Y-216814450D01*
X96703273Y-216814450D02*
X96796131Y-216845402D01*
X96796131Y-216845402D02*
X96858035Y-216845402D01*
X96362797Y-216195402D02*
X95960416Y-216195402D01*
X95960416Y-216195402D02*
X96177083Y-216443021D01*
X96177083Y-216443021D02*
X96084226Y-216443021D01*
X96084226Y-216443021D02*
X96022321Y-216473973D01*
X96022321Y-216473973D02*
X95991369Y-216504926D01*
X95991369Y-216504926D02*
X95960416Y-216566830D01*
X95960416Y-216566830D02*
X95960416Y-216721592D01*
X95960416Y-216721592D02*
X95991369Y-216783497D01*
X95991369Y-216783497D02*
X96022321Y-216814450D01*
X96022321Y-216814450D02*
X96084226Y-216845402D01*
X96084226Y-216845402D02*
X96269940Y-216845402D01*
X96269940Y-216845402D02*
X96331845Y-216814450D01*
X96331845Y-216814450D02*
X96362797Y-216783497D01*
D12*
X96893750Y-227302500D02*
X96893750Y-225977500D01*
X95556250Y-227302500D02*
X96893750Y-227302500D01*
X96893750Y-217027500D02*
X91693750Y-217027500D01*
X96893750Y-224702500D02*
X96893750Y-217027500D01*
X94293750Y-224702500D02*
X96893750Y-224702500D01*
X94293750Y-227302500D02*
X94293750Y-224715000D01*
X91693750Y-227302500D02*
X94293750Y-227302500D01*
X91693750Y-217040000D02*
X91693750Y-227302500D01*
D11*
X113479464Y-200329926D02*
X113386607Y-200360878D01*
X113386607Y-200360878D02*
X113355654Y-200391830D01*
X113355654Y-200391830D02*
X113324702Y-200453735D01*
X113324702Y-200453735D02*
X113324702Y-200546592D01*
X113324702Y-200546592D02*
X113355654Y-200608497D01*
X113355654Y-200608497D02*
X113386607Y-200639450D01*
X113386607Y-200639450D02*
X113448512Y-200670402D01*
X113448512Y-200670402D02*
X113696131Y-200670402D01*
X113696131Y-200670402D02*
X113696131Y-200020402D01*
X113696131Y-200020402D02*
X113479464Y-200020402D01*
X113479464Y-200020402D02*
X113417559Y-200051354D01*
X113417559Y-200051354D02*
X113386607Y-200082307D01*
X113386607Y-200082307D02*
X113355654Y-200144211D01*
X113355654Y-200144211D02*
X113355654Y-200206116D01*
X113355654Y-200206116D02*
X113386607Y-200268021D01*
X113386607Y-200268021D02*
X113417559Y-200298973D01*
X113417559Y-200298973D02*
X113479464Y-200329926D01*
X113479464Y-200329926D02*
X113696131Y-200329926D01*
X113138988Y-200020402D02*
X112767559Y-200020402D01*
X112953273Y-200670402D02*
X112953273Y-200020402D01*
X112581845Y-200082307D02*
X112550893Y-200051354D01*
X112550893Y-200051354D02*
X112488988Y-200020402D01*
X112488988Y-200020402D02*
X112334226Y-200020402D01*
X112334226Y-200020402D02*
X112272321Y-200051354D01*
X112272321Y-200051354D02*
X112241369Y-200082307D01*
X112241369Y-200082307D02*
X112210416Y-200144211D01*
X112210416Y-200144211D02*
X112210416Y-200206116D01*
X112210416Y-200206116D02*
X112241369Y-200298973D01*
X112241369Y-200298973D02*
X112612797Y-200670402D01*
X112612797Y-200670402D02*
X112210416Y-200670402D01*
D12*
X114278750Y-206080000D02*
X114278750Y-203492500D01*
X111628750Y-203492500D02*
X111628750Y-206080000D01*
X114278750Y-203492500D02*
X111628750Y-203492500D01*
X111628750Y-200892500D02*
X112953750Y-200892500D01*
X111628750Y-206080000D02*
X114278750Y-206080000D01*
X111628750Y-200892500D02*
X111628750Y-202217500D01*
D11*
X113454464Y-193579926D02*
X113361607Y-193610878D01*
X113361607Y-193610878D02*
X113330654Y-193641830D01*
X113330654Y-193641830D02*
X113299702Y-193703735D01*
X113299702Y-193703735D02*
X113299702Y-193796592D01*
X113299702Y-193796592D02*
X113330654Y-193858497D01*
X113330654Y-193858497D02*
X113361607Y-193889450D01*
X113361607Y-193889450D02*
X113423512Y-193920402D01*
X113423512Y-193920402D02*
X113671131Y-193920402D01*
X113671131Y-193920402D02*
X113671131Y-193270402D01*
X113671131Y-193270402D02*
X113454464Y-193270402D01*
X113454464Y-193270402D02*
X113392559Y-193301354D01*
X113392559Y-193301354D02*
X113361607Y-193332307D01*
X113361607Y-193332307D02*
X113330654Y-193394211D01*
X113330654Y-193394211D02*
X113330654Y-193456116D01*
X113330654Y-193456116D02*
X113361607Y-193518021D01*
X113361607Y-193518021D02*
X113392559Y-193548973D01*
X113392559Y-193548973D02*
X113454464Y-193579926D01*
X113454464Y-193579926D02*
X113671131Y-193579926D01*
X113113988Y-193270402D02*
X112742559Y-193270402D01*
X112928273Y-193920402D02*
X112928273Y-193270402D01*
X112185416Y-193920402D02*
X112556845Y-193920402D01*
X112371131Y-193920402D02*
X112371131Y-193270402D01*
X112371131Y-193270402D02*
X112433035Y-193363259D01*
X112433035Y-193363259D02*
X112494940Y-193425164D01*
X112494940Y-193425164D02*
X112556845Y-193456116D01*
D12*
X111631250Y-194140000D02*
X111631250Y-195465000D01*
X111631250Y-194140000D02*
X112956250Y-194140000D01*
X114281250Y-199327500D02*
X114281250Y-196740000D01*
X111631250Y-199327500D02*
X114281250Y-199327500D01*
X111631250Y-196740000D02*
X111631250Y-199327500D01*
X114281250Y-196740000D02*
X111631250Y-196740000D01*
D11*
X123060416Y-219170402D02*
X123060416Y-219634688D01*
X123060416Y-219634688D02*
X123091369Y-219727545D01*
X123091369Y-219727545D02*
X123153273Y-219789450D01*
X123153273Y-219789450D02*
X123246131Y-219820402D01*
X123246131Y-219820402D02*
X123308035Y-219820402D01*
X122441369Y-219170402D02*
X122750893Y-219170402D01*
X122750893Y-219170402D02*
X122781845Y-219479926D01*
X122781845Y-219479926D02*
X122750893Y-219448973D01*
X122750893Y-219448973D02*
X122688988Y-219418021D01*
X122688988Y-219418021D02*
X122534226Y-219418021D01*
X122534226Y-219418021D02*
X122472321Y-219448973D01*
X122472321Y-219448973D02*
X122441369Y-219479926D01*
X122441369Y-219479926D02*
X122410416Y-219541830D01*
X122410416Y-219541830D02*
X122410416Y-219696592D01*
X122410416Y-219696592D02*
X122441369Y-219758497D01*
X122441369Y-219758497D02*
X122472321Y-219789450D01*
X122472321Y-219789450D02*
X122534226Y-219820402D01*
X122534226Y-219820402D02*
X122688988Y-219820402D01*
X122688988Y-219820402D02*
X122750893Y-219789450D01*
X122750893Y-219789450D02*
X122781845Y-219758497D01*
D12*
X123468750Y-219152500D02*
X124793750Y-219152500D01*
X123468750Y-220477500D02*
X123468750Y-219152500D01*
D11*
G36*
X124674217Y-230009688D02*
G01*
X124572805Y-230009688D01*
X124623511Y-229857571D01*
X124674217Y-230009688D01*
G37*
G36*
X125948260Y-230420402D02*
G01*
X123668749Y-230420402D01*
X123668749Y-229991830D01*
X123743749Y-229991830D01*
X123743749Y-230208497D01*
X123745190Y-230223129D01*
X123750851Y-230236795D01*
X123756388Y-230250164D01*
X123765715Y-230261529D01*
X123796667Y-230292482D01*
X123808032Y-230301809D01*
X123810522Y-230302840D01*
X123812559Y-230304607D01*
X123825984Y-230310601D01*
X123918843Y-230341553D01*
X123926094Y-230343202D01*
X123927927Y-230343961D01*
X123930582Y-230344222D01*
X123933179Y-230344813D01*
X123935153Y-230344672D01*
X123942559Y-230345402D01*
X124004463Y-230345402D01*
X124011868Y-230344672D01*
X124013843Y-230344813D01*
X124016440Y-230344222D01*
X124019095Y-230343961D01*
X124020926Y-230343202D01*
X124028180Y-230341553D01*
X124121037Y-230310601D01*
X124134463Y-230304607D01*
X124136499Y-230302840D01*
X124138988Y-230301810D01*
X124150353Y-230292483D01*
X124181814Y-230261022D01*
X124332433Y-230261022D01*
X124334508Y-230290212D01*
X124347594Y-230316385D01*
X124369701Y-230335559D01*
X124397464Y-230344813D01*
X124426654Y-230342738D01*
X124452827Y-230329652D01*
X124472001Y-230307545D01*
X124477995Y-230294119D01*
X124522805Y-230159688D01*
X124724217Y-230159688D01*
X124769027Y-230294119D01*
X124775021Y-230307544D01*
X124794195Y-230329651D01*
X124820368Y-230342738D01*
X124849558Y-230344813D01*
X124877320Y-230335559D01*
X124899428Y-230316385D01*
X124912514Y-230290211D01*
X124914589Y-230261021D01*
X124911329Y-230246685D01*
X124697690Y-229605770D01*
X124890428Y-229605770D01*
X124890428Y-229635034D01*
X124901627Y-229662070D01*
X124922319Y-229682762D01*
X124949355Y-229693961D01*
X124963987Y-229695402D01*
X125074701Y-229695402D01*
X125074701Y-230270402D01*
X125076142Y-230285034D01*
X125087341Y-230312070D01*
X125108033Y-230332762D01*
X125135069Y-230343961D01*
X125164333Y-230343961D01*
X125191369Y-230332762D01*
X125212061Y-230312070D01*
X125223260Y-230285034D01*
X125224701Y-230270402D01*
X125224701Y-229695402D01*
X125335416Y-229695402D01*
X125350048Y-229693961D01*
X125377084Y-229682762D01*
X125397776Y-229662070D01*
X125408975Y-229635034D01*
X125408975Y-229620402D01*
X125477082Y-229620402D01*
X125477082Y-230084688D01*
X125477811Y-230092093D01*
X125477671Y-230094069D01*
X125478261Y-230096666D01*
X125478523Y-230099320D01*
X125479281Y-230101150D01*
X125480931Y-230108406D01*
X125511884Y-230201262D01*
X125517878Y-230214688D01*
X125519643Y-230216723D01*
X125520674Y-230219212D01*
X125530002Y-230230578D01*
X125591905Y-230292482D01*
X125603271Y-230301810D01*
X125605761Y-230302841D01*
X125607797Y-230304607D01*
X125621222Y-230310601D01*
X125714081Y-230341553D01*
X125721332Y-230343202D01*
X125723165Y-230343961D01*
X125725820Y-230344222D01*
X125728417Y-230344813D01*
X125730391Y-230344672D01*
X125737797Y-230345402D01*
X125799701Y-230345402D01*
X125814333Y-230343961D01*
X125841369Y-230332762D01*
X125862061Y-230312070D01*
X125873260Y-230285034D01*
X125873260Y-230255770D01*
X125862061Y-230228734D01*
X125841369Y-230208042D01*
X125814333Y-230196843D01*
X125799701Y-230195402D01*
X125749967Y-230195402D01*
X125685453Y-230173897D01*
X125648587Y-230137031D01*
X125627082Y-230072516D01*
X125627082Y-229620402D01*
X125625641Y-229605770D01*
X125614442Y-229578734D01*
X125593750Y-229558042D01*
X125566714Y-229546843D01*
X125537450Y-229546843D01*
X125510414Y-229558042D01*
X125489722Y-229578734D01*
X125478523Y-229605770D01*
X125477082Y-229620402D01*
X125408975Y-229620402D01*
X125408975Y-229605770D01*
X125397776Y-229578734D01*
X125377084Y-229558042D01*
X125350048Y-229546843D01*
X125335416Y-229545402D01*
X124963987Y-229545402D01*
X124949355Y-229546843D01*
X124922319Y-229558042D01*
X124901627Y-229578734D01*
X124890428Y-229605770D01*
X124697690Y-229605770D01*
X124694662Y-229596685D01*
X124688668Y-229583259D01*
X124685156Y-229579210D01*
X124682761Y-229574419D01*
X124675657Y-229568257D01*
X124669494Y-229561152D01*
X124664700Y-229558755D01*
X124660653Y-229555245D01*
X124651731Y-229552271D01*
X124643321Y-229548066D01*
X124637976Y-229547686D01*
X124632891Y-229545991D01*
X124623511Y-229546657D01*
X124614131Y-229545991D01*
X124609045Y-229547686D01*
X124603701Y-229548066D01*
X124595293Y-229552270D01*
X124586368Y-229555245D01*
X124582317Y-229558758D01*
X124577528Y-229561153D01*
X124571369Y-229568253D01*
X124564261Y-229574419D01*
X124561864Y-229579212D01*
X124558354Y-229583260D01*
X124552360Y-229596685D01*
X124335693Y-230246685D01*
X124332433Y-230261022D01*
X124181814Y-230261022D01*
X124212258Y-230230578D01*
X124216980Y-230224824D01*
X124218474Y-230223529D01*
X124219890Y-230221278D01*
X124221586Y-230219213D01*
X124222345Y-230217378D01*
X124226307Y-230211086D01*
X124257260Y-230149182D01*
X124257670Y-230148110D01*
X124257992Y-230147676D01*
X124260182Y-230141545D01*
X124262515Y-230135450D01*
X124262553Y-230134909D01*
X124262939Y-230133830D01*
X124293891Y-230010020D01*
X124294266Y-230007483D01*
X124294689Y-230006462D01*
X124295231Y-230000949D01*
X124296041Y-229995476D01*
X124295878Y-229994383D01*
X124296130Y-229991830D01*
X124296130Y-229898973D01*
X124295878Y-229896419D01*
X124296041Y-229895327D01*
X124295231Y-229889853D01*
X124294689Y-229884341D01*
X124294266Y-229883319D01*
X124293891Y-229880783D01*
X124262939Y-229756974D01*
X124262553Y-229755894D01*
X124262515Y-229755354D01*
X124260182Y-229749258D01*
X124257992Y-229743128D01*
X124257670Y-229742693D01*
X124257260Y-229741622D01*
X124226307Y-229679718D01*
X124222345Y-229673425D01*
X124221586Y-229671591D01*
X124219890Y-229669525D01*
X124218474Y-229667275D01*
X124216980Y-229665979D01*
X124212258Y-229660226D01*
X124150353Y-229598321D01*
X124138988Y-229588994D01*
X124136499Y-229587963D01*
X124134463Y-229586197D01*
X124121037Y-229580203D01*
X124028180Y-229549251D01*
X124020926Y-229547601D01*
X124019095Y-229546843D01*
X124016440Y-229546581D01*
X124013843Y-229545991D01*
X124011868Y-229546131D01*
X124004463Y-229545402D01*
X123911606Y-229545402D01*
X123896974Y-229546843D01*
X123894484Y-229547874D01*
X123891797Y-229548065D01*
X123878066Y-229553320D01*
X123816160Y-229584272D01*
X123803718Y-229592104D01*
X123784544Y-229614212D01*
X123775290Y-229641973D01*
X123777364Y-229671163D01*
X123790451Y-229697337D01*
X123812559Y-229716511D01*
X123840320Y-229725765D01*
X123869510Y-229723691D01*
X123883242Y-229718436D01*
X123929311Y-229695402D01*
X123992293Y-229695402D01*
X124056806Y-229716906D01*
X124097586Y-229757686D01*
X124119413Y-229801340D01*
X124146130Y-229908206D01*
X124146130Y-229982596D01*
X124119413Y-230089463D01*
X124097586Y-230133117D01*
X124056806Y-230173897D01*
X123992293Y-230195402D01*
X123954729Y-230195402D01*
X123893749Y-230175075D01*
X123893749Y-230066830D01*
X123942559Y-230066830D01*
X123957191Y-230065389D01*
X123984227Y-230054190D01*
X124004919Y-230033498D01*
X124016118Y-230006462D01*
X124016118Y-229977198D01*
X124004919Y-229950162D01*
X123984227Y-229929470D01*
X123957191Y-229918271D01*
X123942559Y-229916830D01*
X123818749Y-229916830D01*
X123804117Y-229918271D01*
X123777081Y-229929470D01*
X123756389Y-229950162D01*
X123745190Y-229977198D01*
X123743749Y-229991830D01*
X123668749Y-229991830D01*
X123668749Y-229470402D01*
X125948260Y-229470402D01*
X125948260Y-230420402D01*
G37*
D12*
X126118750Y-221752500D02*
X126118750Y-229427500D01*
X123468750Y-221752500D02*
X126118750Y-221752500D01*
X123468750Y-229427500D02*
X123468750Y-221752500D01*
X123468750Y-229427500D02*
X126118750Y-229427500D01*
D11*
G36*
X123677128Y-210568128D02*
G01*
X123659536Y-210603311D01*
X123645796Y-210617052D01*
X123610614Y-210634643D01*
X123553166Y-210634643D01*
X123517984Y-210617052D01*
X123504242Y-210603310D01*
X123486652Y-210568128D01*
X123486652Y-210413214D01*
X123677128Y-210413214D01*
X123677128Y-210568128D01*
G37*
G36*
X123986652Y-209360985D02*
G01*
X123969060Y-209396168D01*
X123955319Y-209409909D01*
X123920138Y-209427500D01*
X123862690Y-209427500D01*
X123827507Y-209409909D01*
X123817680Y-209400081D01*
X123796176Y-209335568D01*
X123796176Y-209206071D01*
X123986652Y-209206071D01*
X123986652Y-209360985D01*
G37*
G36*
X123646176Y-209330032D02*
G01*
X123628584Y-209365215D01*
X123614844Y-209378955D01*
X123579660Y-209396548D01*
X123553168Y-209396548D01*
X123517982Y-209378955D01*
X123504242Y-209365214D01*
X123486652Y-209330033D01*
X123486652Y-209206071D01*
X123646176Y-209206071D01*
X123646176Y-209330032D01*
G37*
G36*
X123800938Y-207757967D02*
G01*
X123648821Y-207707262D01*
X123800938Y-207656556D01*
X123800938Y-207757967D01*
G37*
G36*
X123986652Y-207163366D02*
G01*
X123969060Y-207198549D01*
X123955319Y-207212290D01*
X123920138Y-207229881D01*
X123862690Y-207229881D01*
X123827507Y-207212290D01*
X123817680Y-207202462D01*
X123796176Y-207137949D01*
X123796176Y-207008452D01*
X123986652Y-207008452D01*
X123986652Y-207163366D01*
G37*
G36*
X123646176Y-207132413D02*
G01*
X123628584Y-207167596D01*
X123614844Y-207181336D01*
X123579660Y-207198929D01*
X123553168Y-207198929D01*
X123517982Y-207181336D01*
X123504242Y-207167595D01*
X123486652Y-207132414D01*
X123486652Y-207008452D01*
X123646176Y-207008452D01*
X123646176Y-207132413D01*
G37*
G36*
X124273557Y-210859643D02*
G01*
X123261652Y-210859643D01*
X123261652Y-210338214D01*
X123336652Y-210338214D01*
X123336652Y-210585833D01*
X123338093Y-210600465D01*
X123339124Y-210602954D01*
X123339315Y-210605642D01*
X123344570Y-210619374D01*
X123375522Y-210681279D01*
X123379486Y-210687578D01*
X123380244Y-210689406D01*
X123381932Y-210691462D01*
X123383354Y-210693722D01*
X123384852Y-210695021D01*
X123389571Y-210700771D01*
X123420524Y-210731724D01*
X123426273Y-210736442D01*
X123427573Y-210737941D01*
X123429832Y-210739362D01*
X123431889Y-210741051D01*
X123433716Y-210741808D01*
X123440016Y-210745773D01*
X123501920Y-210776725D01*
X123515652Y-210781980D01*
X123518339Y-210782170D01*
X123520829Y-210783202D01*
X123535461Y-210784643D01*
X123628319Y-210784643D01*
X123642951Y-210783202D01*
X123645440Y-210782170D01*
X123648128Y-210781980D01*
X123661860Y-210776725D01*
X123723764Y-210745773D01*
X123730060Y-210741809D01*
X123731891Y-210741051D01*
X123733952Y-210739359D01*
X123736207Y-210737940D01*
X123737503Y-210736444D01*
X123743256Y-210731724D01*
X123774209Y-210700771D01*
X123778929Y-210695018D01*
X123780426Y-210693721D01*
X123781845Y-210691465D01*
X123783536Y-210689406D01*
X123784293Y-210687576D01*
X123788258Y-210681279D01*
X123819210Y-210619373D01*
X123824465Y-210605642D01*
X123824655Y-210602954D01*
X123825687Y-210600465D01*
X123827128Y-210585833D01*
X123827128Y-210413214D01*
X124061652Y-210413214D01*
X124076284Y-210411773D01*
X124103320Y-210400574D01*
X124124012Y-210379882D01*
X124135211Y-210352846D01*
X124135211Y-210323582D01*
X124124012Y-210296546D01*
X124103320Y-210275854D01*
X124076284Y-210264655D01*
X124061652Y-210263214D01*
X123411652Y-210263214D01*
X123397020Y-210264655D01*
X123369984Y-210275854D01*
X123349292Y-210296546D01*
X123338093Y-210323582D01*
X123336652Y-210338214D01*
X123261652Y-210338214D01*
X123261652Y-209689888D01*
X123336671Y-209689888D01*
X123343019Y-209718454D01*
X123359815Y-209742417D01*
X123371386Y-209751489D01*
X123612430Y-209904881D01*
X123371386Y-210058273D01*
X123359815Y-210067345D01*
X123343019Y-210091308D01*
X123336671Y-210119874D01*
X123341738Y-210148696D01*
X123357449Y-210173385D01*
X123381412Y-210190181D01*
X123409978Y-210196529D01*
X123438800Y-210191462D01*
X123451918Y-210184823D01*
X123773968Y-209979881D01*
X124061652Y-209979881D01*
X124076284Y-209978440D01*
X124103320Y-209967241D01*
X124124012Y-209946549D01*
X124135211Y-209919513D01*
X124135211Y-209890249D01*
X124124012Y-209863213D01*
X124103320Y-209842521D01*
X124076284Y-209831322D01*
X124061652Y-209829881D01*
X123773968Y-209829881D01*
X123451918Y-209624939D01*
X123438800Y-209618300D01*
X123409978Y-209613233D01*
X123381412Y-209619581D01*
X123357449Y-209636377D01*
X123341738Y-209661066D01*
X123336671Y-209689888D01*
X123261652Y-209689888D01*
X123261652Y-209131071D01*
X123336652Y-209131071D01*
X123336652Y-209347738D01*
X123338093Y-209362370D01*
X123339124Y-209364859D01*
X123339315Y-209367547D01*
X123344570Y-209381279D01*
X123375522Y-209443184D01*
X123379485Y-209449481D01*
X123380244Y-209451312D01*
X123381934Y-209453371D01*
X123383354Y-209455627D01*
X123384851Y-209456925D01*
X123389572Y-209462677D01*
X123420525Y-209493629D01*
X123426273Y-209498346D01*
X123427572Y-209499844D01*
X123429830Y-209501265D01*
X123431890Y-209502956D01*
X123433718Y-209503713D01*
X123440015Y-209507677D01*
X123501919Y-209538630D01*
X123515651Y-209543884D01*
X123518337Y-209544074D01*
X123520829Y-209545107D01*
X123535461Y-209546548D01*
X123597366Y-209546548D01*
X123611998Y-209545107D01*
X123614486Y-209544076D01*
X123617176Y-209543885D01*
X123630907Y-209538630D01*
X123692812Y-209507677D01*
X123699108Y-209503713D01*
X123700939Y-209502955D01*
X123703000Y-209501263D01*
X123705255Y-209499844D01*
X123705280Y-209499814D01*
X123730046Y-209524580D01*
X123735798Y-209529301D01*
X123737097Y-209530798D01*
X123739353Y-209532218D01*
X123741411Y-209533907D01*
X123743238Y-209534664D01*
X123749539Y-209538630D01*
X123811445Y-209569582D01*
X123825176Y-209574837D01*
X123827863Y-209575027D01*
X123830353Y-209576059D01*
X123844985Y-209577500D01*
X123937842Y-209577500D01*
X123952474Y-209576059D01*
X123954963Y-209575027D01*
X123957651Y-209574837D01*
X123971383Y-209569582D01*
X124033288Y-209538630D01*
X124039587Y-209534665D01*
X124041415Y-209533908D01*
X124043471Y-209532219D01*
X124045731Y-209530798D01*
X124047030Y-209529299D01*
X124052780Y-209524581D01*
X124083733Y-209493628D01*
X124088453Y-209487875D01*
X124089950Y-209486578D01*
X124091369Y-209484322D01*
X124093060Y-209482263D01*
X124093817Y-209480433D01*
X124097782Y-209474136D01*
X124128734Y-209412230D01*
X124133989Y-209398499D01*
X124134179Y-209395811D01*
X124135211Y-209393322D01*
X124136652Y-209378690D01*
X124136652Y-209131071D01*
X124135211Y-209116439D01*
X124124012Y-209089403D01*
X124103320Y-209068711D01*
X124076284Y-209057512D01*
X124061652Y-209056071D01*
X123411652Y-209056071D01*
X123397020Y-209057512D01*
X123369984Y-209068711D01*
X123349292Y-209089403D01*
X123338093Y-209116439D01*
X123336652Y-209131071D01*
X123261652Y-209131071D01*
X123261652Y-208047738D01*
X123336652Y-208047738D01*
X123336652Y-208419167D01*
X123338093Y-208433799D01*
X123349292Y-208460835D01*
X123369984Y-208481527D01*
X123397020Y-208492726D01*
X123426284Y-208492726D01*
X123453320Y-208481527D01*
X123453775Y-208481072D01*
X124048557Y-208481072D01*
X124048557Y-208976310D01*
X124049998Y-208990942D01*
X124061197Y-209017978D01*
X124081889Y-209038670D01*
X124108925Y-209049869D01*
X124138189Y-209049869D01*
X124165225Y-209038670D01*
X124185917Y-209017978D01*
X124197116Y-208990942D01*
X124198557Y-208976310D01*
X124198557Y-208481072D01*
X124197116Y-208466440D01*
X124185917Y-208439404D01*
X124165225Y-208418712D01*
X124138189Y-208407513D01*
X124108925Y-208407513D01*
X124081889Y-208418712D01*
X124061197Y-208439404D01*
X124049998Y-208466440D01*
X124048557Y-208481072D01*
X123453775Y-208481072D01*
X123474012Y-208460835D01*
X123485211Y-208433799D01*
X123486652Y-208419167D01*
X123486652Y-208308453D01*
X124061652Y-208308453D01*
X124076284Y-208307012D01*
X124103320Y-208295813D01*
X124124012Y-208275121D01*
X124135211Y-208248085D01*
X124135211Y-208218821D01*
X124124012Y-208191785D01*
X124103320Y-208171093D01*
X124076284Y-208159894D01*
X124061652Y-208158453D01*
X123486652Y-208158453D01*
X123486652Y-208047738D01*
X123485211Y-208033106D01*
X123474012Y-208006070D01*
X123453320Y-207985378D01*
X123426284Y-207974179D01*
X123397020Y-207974179D01*
X123369984Y-207985378D01*
X123349292Y-208006070D01*
X123338093Y-208033106D01*
X123336652Y-208047738D01*
X123261652Y-208047738D01*
X123261652Y-207697882D01*
X123337241Y-207697882D01*
X123337907Y-207707262D01*
X123337241Y-207716642D01*
X123338936Y-207721727D01*
X123339316Y-207727072D01*
X123343520Y-207735481D01*
X123346495Y-207744405D01*
X123350006Y-207748453D01*
X123352402Y-207753245D01*
X123359506Y-207759407D01*
X123365669Y-207766512D01*
X123370460Y-207768907D01*
X123374509Y-207772419D01*
X123387935Y-207778413D01*
X124037935Y-207995080D01*
X124052271Y-207998340D01*
X124081461Y-207996265D01*
X124107635Y-207983179D01*
X124126809Y-207961071D01*
X124136063Y-207933309D01*
X124133988Y-207904119D01*
X124120901Y-207877946D01*
X124098794Y-207858772D01*
X124085369Y-207852778D01*
X123950938Y-207807967D01*
X123950938Y-207606556D01*
X124085369Y-207561746D01*
X124098794Y-207555752D01*
X124120901Y-207536578D01*
X124133988Y-207510405D01*
X124136063Y-207481215D01*
X124126809Y-207453453D01*
X124107635Y-207431345D01*
X124081461Y-207418259D01*
X124052271Y-207416184D01*
X124037935Y-207419444D01*
X123387935Y-207636111D01*
X123374509Y-207642105D01*
X123370460Y-207645616D01*
X123365669Y-207648012D01*
X123359506Y-207655116D01*
X123352402Y-207661279D01*
X123350006Y-207666070D01*
X123346495Y-207670119D01*
X123343520Y-207679042D01*
X123339316Y-207687452D01*
X123338936Y-207692796D01*
X123337241Y-207697882D01*
X123261652Y-207697882D01*
X123261652Y-206933452D01*
X123336652Y-206933452D01*
X123336652Y-207150119D01*
X123338093Y-207164751D01*
X123339124Y-207167240D01*
X123339315Y-207169928D01*
X123344570Y-207183660D01*
X123375522Y-207245565D01*
X123379485Y-207251862D01*
X123380244Y-207253693D01*
X123381934Y-207255752D01*
X123383354Y-207258008D01*
X123384851Y-207259306D01*
X123389572Y-207265058D01*
X123420525Y-207296010D01*
X123426273Y-207300727D01*
X123427572Y-207302225D01*
X123429830Y-207303646D01*
X123431890Y-207305337D01*
X123433718Y-207306094D01*
X123440015Y-207310058D01*
X123501919Y-207341011D01*
X123515651Y-207346265D01*
X123518337Y-207346455D01*
X123520829Y-207347488D01*
X123535461Y-207348929D01*
X123597366Y-207348929D01*
X123611998Y-207347488D01*
X123614486Y-207346457D01*
X123617176Y-207346266D01*
X123630907Y-207341011D01*
X123692812Y-207310058D01*
X123699108Y-207306094D01*
X123700939Y-207305336D01*
X123703000Y-207303644D01*
X123705255Y-207302225D01*
X123705280Y-207302195D01*
X123730046Y-207326961D01*
X123735798Y-207331682D01*
X123737097Y-207333179D01*
X123739353Y-207334599D01*
X123741411Y-207336288D01*
X123743238Y-207337045D01*
X123749539Y-207341011D01*
X123811445Y-207371963D01*
X123825176Y-207377218D01*
X123827863Y-207377408D01*
X123830353Y-207378440D01*
X123844985Y-207379881D01*
X123937842Y-207379881D01*
X123952474Y-207378440D01*
X123954963Y-207377408D01*
X123957651Y-207377218D01*
X123971383Y-207371963D01*
X124033288Y-207341011D01*
X124039587Y-207337046D01*
X124041415Y-207336289D01*
X124043471Y-207334600D01*
X124045731Y-207333179D01*
X124047030Y-207331680D01*
X124052780Y-207326962D01*
X124083733Y-207296009D01*
X124088453Y-207290256D01*
X124089950Y-207288959D01*
X124091369Y-207286703D01*
X124093060Y-207284644D01*
X124093817Y-207282814D01*
X124097782Y-207276517D01*
X124128734Y-207214611D01*
X124133989Y-207200880D01*
X124134179Y-207198192D01*
X124135211Y-207195703D01*
X124136652Y-207181071D01*
X124136652Y-206933452D01*
X124135211Y-206918820D01*
X124124012Y-206891784D01*
X124103320Y-206871092D01*
X124076284Y-206859893D01*
X124061652Y-206858452D01*
X123411652Y-206858452D01*
X123397020Y-206859893D01*
X123369984Y-206871092D01*
X123349292Y-206891784D01*
X123338093Y-206918820D01*
X123336652Y-206933452D01*
X123261652Y-206933452D01*
X123261652Y-206274072D01*
X123337241Y-206274072D01*
X123339316Y-206303262D01*
X123352402Y-206329435D01*
X123374509Y-206348609D01*
X123387935Y-206354603D01*
X123824482Y-206500119D01*
X123387935Y-206645635D01*
X123374509Y-206651629D01*
X123352402Y-206670803D01*
X123339316Y-206696976D01*
X123337241Y-206726166D01*
X123346495Y-206753929D01*
X123365669Y-206776036D01*
X123391842Y-206789122D01*
X123421032Y-206791197D01*
X123435369Y-206787937D01*
X124085369Y-206571270D01*
X124098794Y-206565276D01*
X124102841Y-206561765D01*
X124107635Y-206559369D01*
X124113799Y-206552261D01*
X124120901Y-206546102D01*
X124123296Y-206541310D01*
X124126809Y-206537261D01*
X124129783Y-206528338D01*
X124133988Y-206519929D01*
X124134367Y-206514584D01*
X124136063Y-206509499D01*
X124135396Y-206500119D01*
X124136063Y-206490739D01*
X124134367Y-206485653D01*
X124133988Y-206480309D01*
X124129783Y-206471899D01*
X124126809Y-206462977D01*
X124123296Y-206458927D01*
X124120901Y-206454136D01*
X124113799Y-206447976D01*
X124107635Y-206440869D01*
X124102841Y-206438472D01*
X124098794Y-206434962D01*
X124085369Y-206428968D01*
X123435369Y-206212301D01*
X123421032Y-206209041D01*
X123391842Y-206211116D01*
X123365669Y-206224202D01*
X123346495Y-206246309D01*
X123337241Y-206274072D01*
X123261652Y-206274072D01*
X123261652Y-206134041D01*
X124273557Y-206134041D01*
X124273557Y-210859643D01*
G37*
X125860416Y-206270402D02*
X125860416Y-206734688D01*
X125860416Y-206734688D02*
X125891369Y-206827545D01*
X125891369Y-206827545D02*
X125953273Y-206889450D01*
X125953273Y-206889450D02*
X126046131Y-206920402D01*
X126046131Y-206920402D02*
X126108035Y-206920402D01*
X125550893Y-206920402D02*
X125550893Y-206270402D01*
X125550893Y-206270402D02*
X125303274Y-206270402D01*
X125303274Y-206270402D02*
X125241369Y-206301354D01*
X125241369Y-206301354D02*
X125210416Y-206332307D01*
X125210416Y-206332307D02*
X125179464Y-206394211D01*
X125179464Y-206394211D02*
X125179464Y-206487069D01*
X125179464Y-206487069D02*
X125210416Y-206548973D01*
X125210416Y-206548973D02*
X125241369Y-206579926D01*
X125241369Y-206579926D02*
X125303274Y-206610878D01*
X125303274Y-206610878D02*
X125550893Y-206610878D01*
X124962797Y-206270402D02*
X124560416Y-206270402D01*
X124560416Y-206270402D02*
X124777083Y-206518021D01*
X124777083Y-206518021D02*
X124684226Y-206518021D01*
X124684226Y-206518021D02*
X124622321Y-206548973D01*
X124622321Y-206548973D02*
X124591369Y-206579926D01*
X124591369Y-206579926D02*
X124560416Y-206641830D01*
X124560416Y-206641830D02*
X124560416Y-206796592D01*
X124560416Y-206796592D02*
X124591369Y-206858497D01*
X124591369Y-206858497D02*
X124622321Y-206889450D01*
X124622321Y-206889450D02*
X124684226Y-206920402D01*
X124684226Y-206920402D02*
X124869940Y-206920402D01*
X124869940Y-206920402D02*
X124931845Y-206889450D01*
X124931845Y-206889450D02*
X124962797Y-206858497D01*
X89986652Y-212409642D02*
X89677128Y-212192975D01*
X89986652Y-212038213D02*
X89336652Y-212038213D01*
X89336652Y-212038213D02*
X89336652Y-212285832D01*
X89336652Y-212285832D02*
X89367604Y-212347737D01*
X89367604Y-212347737D02*
X89398557Y-212378690D01*
X89398557Y-212378690D02*
X89460461Y-212409642D01*
X89460461Y-212409642D02*
X89553319Y-212409642D01*
X89553319Y-212409642D02*
X89615223Y-212378690D01*
X89615223Y-212378690D02*
X89646176Y-212347737D01*
X89646176Y-212347737D02*
X89677128Y-212285832D01*
X89677128Y-212285832D02*
X89677128Y-212038213D01*
X89398557Y-212657261D02*
X89367604Y-212688213D01*
X89367604Y-212688213D02*
X89336652Y-212750118D01*
X89336652Y-212750118D02*
X89336652Y-212904880D01*
X89336652Y-212904880D02*
X89367604Y-212966785D01*
X89367604Y-212966785D02*
X89398557Y-212997737D01*
X89398557Y-212997737D02*
X89460461Y-213028690D01*
X89460461Y-213028690D02*
X89522366Y-213028690D01*
X89522366Y-213028690D02*
X89615223Y-212997737D01*
X89615223Y-212997737D02*
X89986652Y-212626309D01*
X89986652Y-212626309D02*
X89986652Y-213028690D01*
X89336652Y-213245357D02*
X89336652Y-213678690D01*
X89336652Y-213678690D02*
X89986652Y-213400119D01*
X95798557Y-214815595D02*
X95767604Y-214753690D01*
X95767604Y-214753690D02*
X95705700Y-214691785D01*
X95705700Y-214691785D02*
X95612842Y-214598928D01*
X95612842Y-214598928D02*
X95581890Y-214537023D01*
X95581890Y-214537023D02*
X95581890Y-214475119D01*
X95736652Y-214506071D02*
X95705700Y-214444166D01*
X95705700Y-214444166D02*
X95643795Y-214382261D01*
X95643795Y-214382261D02*
X95519985Y-214351309D01*
X95519985Y-214351309D02*
X95303319Y-214351309D01*
X95303319Y-214351309D02*
X95179509Y-214382261D01*
X95179509Y-214382261D02*
X95117604Y-214444166D01*
X95117604Y-214444166D02*
X95086652Y-214506071D01*
X95086652Y-214506071D02*
X95086652Y-214629880D01*
X95086652Y-214629880D02*
X95117604Y-214691785D01*
X95117604Y-214691785D02*
X95179509Y-214753690D01*
X95179509Y-214753690D02*
X95303319Y-214784642D01*
X95303319Y-214784642D02*
X95519985Y-214784642D01*
X95519985Y-214784642D02*
X95643795Y-214753690D01*
X95643795Y-214753690D02*
X95705700Y-214691785D01*
X95705700Y-214691785D02*
X95736652Y-214629880D01*
X95736652Y-214629880D02*
X95736652Y-214506071D01*
X95736652Y-215403690D02*
X95736652Y-215032261D01*
X95736652Y-215217975D02*
X95086652Y-215217975D01*
X95086652Y-215217975D02*
X95179509Y-215156071D01*
X95179509Y-215156071D02*
X95241414Y-215094166D01*
X95241414Y-215094166D02*
X95272366Y-215032261D01*
X89899747Y-218534642D02*
X89930700Y-218503690D01*
X89930700Y-218503690D02*
X89961652Y-218410832D01*
X89961652Y-218410832D02*
X89961652Y-218348928D01*
X89961652Y-218348928D02*
X89930700Y-218256071D01*
X89930700Y-218256071D02*
X89868795Y-218194166D01*
X89868795Y-218194166D02*
X89806890Y-218163213D01*
X89806890Y-218163213D02*
X89683080Y-218132261D01*
X89683080Y-218132261D02*
X89590223Y-218132261D01*
X89590223Y-218132261D02*
X89466414Y-218163213D01*
X89466414Y-218163213D02*
X89404509Y-218194166D01*
X89404509Y-218194166D02*
X89342604Y-218256071D01*
X89342604Y-218256071D02*
X89311652Y-218348928D01*
X89311652Y-218348928D02*
X89311652Y-218410832D01*
X89311652Y-218410832D02*
X89342604Y-218503690D01*
X89342604Y-218503690D02*
X89373557Y-218534642D01*
X89961652Y-219153690D02*
X89961652Y-218782261D01*
X89961652Y-218967975D02*
X89311652Y-218967975D01*
X89311652Y-218967975D02*
X89404509Y-218906071D01*
X89404509Y-218906071D02*
X89466414Y-218844166D01*
X89466414Y-218844166D02*
X89497366Y-218782261D01*
X89373557Y-219401309D02*
X89342604Y-219432261D01*
X89342604Y-219432261D02*
X89311652Y-219494166D01*
X89311652Y-219494166D02*
X89311652Y-219648928D01*
X89311652Y-219648928D02*
X89342604Y-219710833D01*
X89342604Y-219710833D02*
X89373557Y-219741785D01*
X89373557Y-219741785D02*
X89435461Y-219772738D01*
X89435461Y-219772738D02*
X89497366Y-219772738D01*
X89497366Y-219772738D02*
X89590223Y-219741785D01*
X89590223Y-219741785D02*
X89961652Y-219370357D01*
X89961652Y-219370357D02*
X89961652Y-219772738D01*
X88713988Y-198170402D02*
X88713988Y-198696592D01*
X88713988Y-198696592D02*
X88683035Y-198758497D01*
X88683035Y-198758497D02*
X88652083Y-198789450D01*
X88652083Y-198789450D02*
X88590178Y-198820402D01*
X88590178Y-198820402D02*
X88466369Y-198820402D01*
X88466369Y-198820402D02*
X88404464Y-198789450D01*
X88404464Y-198789450D02*
X88373511Y-198758497D01*
X88373511Y-198758497D02*
X88342559Y-198696592D01*
X88342559Y-198696592D02*
X88342559Y-198170402D01*
X88094940Y-198170402D02*
X87692559Y-198170402D01*
X87692559Y-198170402D02*
X87909226Y-198418021D01*
X87909226Y-198418021D02*
X87816369Y-198418021D01*
X87816369Y-198418021D02*
X87754464Y-198448973D01*
X87754464Y-198448973D02*
X87723512Y-198479926D01*
X87723512Y-198479926D02*
X87692559Y-198541830D01*
X87692559Y-198541830D02*
X87692559Y-198696592D01*
X87692559Y-198696592D02*
X87723512Y-198758497D01*
X87723512Y-198758497D02*
X87754464Y-198789450D01*
X87754464Y-198789450D02*
X87816369Y-198820402D01*
X87816369Y-198820402D02*
X88002083Y-198820402D01*
X88002083Y-198820402D02*
X88063988Y-198789450D01*
X88063988Y-198789450D02*
X88094940Y-198758497D01*
X93486607Y-211345402D02*
X93703274Y-211035878D01*
X93858036Y-211345402D02*
X93858036Y-210695402D01*
X93858036Y-210695402D02*
X93610417Y-210695402D01*
X93610417Y-210695402D02*
X93548512Y-210726354D01*
X93548512Y-210726354D02*
X93517559Y-210757307D01*
X93517559Y-210757307D02*
X93486607Y-210819211D01*
X93486607Y-210819211D02*
X93486607Y-210912069D01*
X93486607Y-210912069D02*
X93517559Y-210973973D01*
X93517559Y-210973973D02*
X93548512Y-211004926D01*
X93548512Y-211004926D02*
X93610417Y-211035878D01*
X93610417Y-211035878D02*
X93858036Y-211035878D01*
X93238988Y-210757307D02*
X93208036Y-210726354D01*
X93208036Y-210726354D02*
X93146131Y-210695402D01*
X93146131Y-210695402D02*
X92991369Y-210695402D01*
X92991369Y-210695402D02*
X92929464Y-210726354D01*
X92929464Y-210726354D02*
X92898512Y-210757307D01*
X92898512Y-210757307D02*
X92867559Y-210819211D01*
X92867559Y-210819211D02*
X92867559Y-210881116D01*
X92867559Y-210881116D02*
X92898512Y-210973973D01*
X92898512Y-210973973D02*
X93269940Y-211345402D01*
X93269940Y-211345402D02*
X92867559Y-211345402D01*
X92310416Y-210695402D02*
X92434226Y-210695402D01*
X92434226Y-210695402D02*
X92496130Y-210726354D01*
X92496130Y-210726354D02*
X92527083Y-210757307D01*
X92527083Y-210757307D02*
X92588988Y-210850164D01*
X92588988Y-210850164D02*
X92619940Y-210973973D01*
X92619940Y-210973973D02*
X92619940Y-211221592D01*
X92619940Y-211221592D02*
X92588988Y-211283497D01*
X92588988Y-211283497D02*
X92558035Y-211314450D01*
X92558035Y-211314450D02*
X92496130Y-211345402D01*
X92496130Y-211345402D02*
X92372321Y-211345402D01*
X92372321Y-211345402D02*
X92310416Y-211314450D01*
X92310416Y-211314450D02*
X92279464Y-211283497D01*
X92279464Y-211283497D02*
X92248511Y-211221592D01*
X92248511Y-211221592D02*
X92248511Y-211066830D01*
X92248511Y-211066830D02*
X92279464Y-211004926D01*
X92279464Y-211004926D02*
X92310416Y-210973973D01*
X92310416Y-210973973D02*
X92372321Y-210943021D01*
X92372321Y-210943021D02*
X92496130Y-210943021D01*
X92496130Y-210943021D02*
X92558035Y-210973973D01*
X92558035Y-210973973D02*
X92588988Y-211004926D01*
X92588988Y-211004926D02*
X92619940Y-211066830D01*
X90174747Y-225809642D02*
X90205700Y-225778690D01*
X90205700Y-225778690D02*
X90236652Y-225685832D01*
X90236652Y-225685832D02*
X90236652Y-225623928D01*
X90236652Y-225623928D02*
X90205700Y-225531071D01*
X90205700Y-225531071D02*
X90143795Y-225469166D01*
X90143795Y-225469166D02*
X90081890Y-225438213D01*
X90081890Y-225438213D02*
X89958080Y-225407261D01*
X89958080Y-225407261D02*
X89865223Y-225407261D01*
X89865223Y-225407261D02*
X89741414Y-225438213D01*
X89741414Y-225438213D02*
X89679509Y-225469166D01*
X89679509Y-225469166D02*
X89617604Y-225531071D01*
X89617604Y-225531071D02*
X89586652Y-225623928D01*
X89586652Y-225623928D02*
X89586652Y-225685832D01*
X89586652Y-225685832D02*
X89617604Y-225778690D01*
X89617604Y-225778690D02*
X89648557Y-225809642D01*
X90236652Y-226428690D02*
X90236652Y-226057261D01*
X90236652Y-226242975D02*
X89586652Y-226242975D01*
X89586652Y-226242975D02*
X89679509Y-226181071D01*
X89679509Y-226181071D02*
X89741414Y-226119166D01*
X89741414Y-226119166D02*
X89772366Y-226057261D01*
X90236652Y-227047738D02*
X90236652Y-226676309D01*
X90236652Y-226862023D02*
X89586652Y-226862023D01*
X89586652Y-226862023D02*
X89679509Y-226800119D01*
X89679509Y-226800119D02*
X89741414Y-226738214D01*
X89741414Y-226738214D02*
X89772366Y-226676309D01*
X89961652Y-215509642D02*
X89652128Y-215292975D01*
X89961652Y-215138213D02*
X89311652Y-215138213D01*
X89311652Y-215138213D02*
X89311652Y-215385832D01*
X89311652Y-215385832D02*
X89342604Y-215447737D01*
X89342604Y-215447737D02*
X89373557Y-215478690D01*
X89373557Y-215478690D02*
X89435461Y-215509642D01*
X89435461Y-215509642D02*
X89528319Y-215509642D01*
X89528319Y-215509642D02*
X89590223Y-215478690D01*
X89590223Y-215478690D02*
X89621176Y-215447737D01*
X89621176Y-215447737D02*
X89652128Y-215385832D01*
X89652128Y-215385832D02*
X89652128Y-215138213D01*
X89373557Y-215757261D02*
X89342604Y-215788213D01*
X89342604Y-215788213D02*
X89311652Y-215850118D01*
X89311652Y-215850118D02*
X89311652Y-216004880D01*
X89311652Y-216004880D02*
X89342604Y-216066785D01*
X89342604Y-216066785D02*
X89373557Y-216097737D01*
X89373557Y-216097737D02*
X89435461Y-216128690D01*
X89435461Y-216128690D02*
X89497366Y-216128690D01*
X89497366Y-216128690D02*
X89590223Y-216097737D01*
X89590223Y-216097737D02*
X89961652Y-215726309D01*
X89961652Y-215726309D02*
X89961652Y-216128690D01*
X89590223Y-216500119D02*
X89559271Y-216438214D01*
X89559271Y-216438214D02*
X89528319Y-216407261D01*
X89528319Y-216407261D02*
X89466414Y-216376309D01*
X89466414Y-216376309D02*
X89435461Y-216376309D01*
X89435461Y-216376309D02*
X89373557Y-216407261D01*
X89373557Y-216407261D02*
X89342604Y-216438214D01*
X89342604Y-216438214D02*
X89311652Y-216500119D01*
X89311652Y-216500119D02*
X89311652Y-216623928D01*
X89311652Y-216623928D02*
X89342604Y-216685833D01*
X89342604Y-216685833D02*
X89373557Y-216716785D01*
X89373557Y-216716785D02*
X89435461Y-216747738D01*
X89435461Y-216747738D02*
X89466414Y-216747738D01*
X89466414Y-216747738D02*
X89528319Y-216716785D01*
X89528319Y-216716785D02*
X89559271Y-216685833D01*
X89559271Y-216685833D02*
X89590223Y-216623928D01*
X89590223Y-216623928D02*
X89590223Y-216500119D01*
X89590223Y-216500119D02*
X89621176Y-216438214D01*
X89621176Y-216438214D02*
X89652128Y-216407261D01*
X89652128Y-216407261D02*
X89714033Y-216376309D01*
X89714033Y-216376309D02*
X89837842Y-216376309D01*
X89837842Y-216376309D02*
X89899747Y-216407261D01*
X89899747Y-216407261D02*
X89930700Y-216438214D01*
X89930700Y-216438214D02*
X89961652Y-216500119D01*
X89961652Y-216500119D02*
X89961652Y-216623928D01*
X89961652Y-216623928D02*
X89930700Y-216685833D01*
X89930700Y-216685833D02*
X89899747Y-216716785D01*
X89899747Y-216716785D02*
X89837842Y-216747738D01*
X89837842Y-216747738D02*
X89714033Y-216747738D01*
X89714033Y-216747738D02*
X89652128Y-216716785D01*
X89652128Y-216716785D02*
X89621176Y-216685833D01*
X89621176Y-216685833D02*
X89590223Y-216623928D01*
D13*
%TO.C,JP3*%
X124318750Y-209927500D02*
X124318750Y-207127500D01*
X124318750Y-207127500D02*
X126318750Y-207127500D01*
X126318750Y-209927500D02*
X124318750Y-209927500D01*
X126318750Y-207127500D02*
X126318750Y-209927500D01*
%TO.C,R27*%
X90196250Y-212590242D02*
X90196250Y-213064758D01*
X91241250Y-212590242D02*
X91241250Y-213064758D01*
%TO.C,Q1*%
X91708750Y-214227500D02*
X91708749Y-214877500D01*
X91708750Y-215527500D02*
X91708749Y-214877500D01*
X94828750Y-214227500D02*
X94828751Y-214877500D01*
X94828750Y-215527500D02*
X94828751Y-214877500D01*
X91758750Y-213715000D02*
X91428751Y-213955000D01*
X91428750Y-213475000D01*
X91758750Y-213715000D01*
G36*
X91758750Y-213715000D02*
G01*
X91428751Y-213955000D01*
X91428750Y-213475000D01*
X91758750Y-213715000D01*
G37*
%TO.C,C12*%
X90208750Y-218811919D02*
X90208750Y-219093081D01*
X91228750Y-218811919D02*
X91228750Y-219093081D01*
%TO.C,U3*%
X87418750Y-199067500D02*
X88218750Y-199067499D01*
X87418750Y-202187500D02*
X88218750Y-202187501D01*
X89018750Y-199067500D02*
X88218750Y-199067499D01*
X89018750Y-202187500D02*
X88218750Y-202187501D01*
X89518750Y-199117500D02*
X89278750Y-198787500D01*
X89758750Y-198787500D01*
X89518750Y-199117500D01*
G36*
X89518750Y-199117500D02*
G01*
X89278750Y-198787500D01*
X89758750Y-198787500D01*
X89518750Y-199117500D01*
G37*
%TO.C,R26*%
X93306008Y-211555000D02*
X92831492Y-211555000D01*
X93306008Y-212600000D02*
X92831492Y-212600000D01*
%TO.C,C11*%
X90458750Y-226086919D02*
X90458750Y-226368081D01*
X91478750Y-226086919D02*
X91478750Y-226368081D01*
%TO.C,R28*%
X90196250Y-216164758D02*
X90196250Y-215690242D01*
X91241250Y-216164758D02*
X91241250Y-215690242D01*
%TD*%
D14*
X91038751Y-239952500D03*
X96118751Y-239952500D03*
X101198751Y-239952500D03*
X98658751Y-234872500D03*
X92308751Y-237412500D03*
X91073750Y-197737500D03*
X91073750Y-203517500D03*
D15*
X91573750Y-196307500D03*
D16*
X87393750Y-196307500D03*
D15*
X91573750Y-204947500D03*
D16*
X87393750Y-204947500D03*
D14*
X92993750Y-229702500D03*
X95533750Y-229702500D03*
X98073749Y-229702500D03*
X100613750Y-229702500D03*
X124793750Y-220477500D03*
X124793750Y-223017500D03*
X124793750Y-225557499D03*
X124793750Y-228097500D03*
X122318750Y-248627500D03*
X122802024Y-247460774D03*
X122802024Y-249794226D03*
X123968750Y-246977500D03*
X123968750Y-248627500D03*
X123968750Y-250277500D03*
X125135476Y-247460774D03*
X125135476Y-249794226D03*
X125618750Y-248627500D03*
X112953750Y-195467500D03*
X112953750Y-198007500D03*
X86318750Y-209127500D03*
X86802024Y-207960774D03*
X86802024Y-210294226D03*
X87968750Y-207477500D03*
X87968750Y-209127500D03*
X87968750Y-210777500D03*
X89135476Y-207960774D03*
X89135476Y-210294226D03*
X89618750Y-209127500D03*
D17*
X122553750Y-195177500D03*
X120353750Y-195177500D03*
X122553750Y-197377500D03*
X120353750Y-197377500D03*
D14*
X95558750Y-225977500D03*
X93018750Y-225977500D03*
X95558750Y-223437500D03*
X93018750Y-223437500D03*
X95558750Y-220897501D03*
X93018750Y-220897500D03*
X95558750Y-218357500D03*
X93018750Y-218357500D03*
X121068750Y-241977500D03*
X121068750Y-236977500D03*
X121068750Y-239477500D03*
D18*
X113568750Y-245077500D03*
X113568750Y-233877500D03*
D14*
X106568750Y-236977500D03*
X106568750Y-241977500D03*
X112953750Y-202217500D03*
X112953750Y-204757500D03*
X86318750Y-248627500D03*
X86802024Y-247460774D03*
X86802024Y-249794226D03*
X87968750Y-246977500D03*
X87968750Y-248627500D03*
X87968750Y-250277500D03*
X89135476Y-247460774D03*
X89135476Y-249794226D03*
X89618750Y-248627500D03*
X86318750Y-192127500D03*
X86802024Y-190960774D03*
X86802024Y-193294226D03*
X87968750Y-190477500D03*
X87968750Y-192127500D03*
X87968750Y-193777500D03*
X89135476Y-190960774D03*
X89135476Y-193294226D03*
X89618750Y-192127500D03*
D17*
X122553750Y-203877500D03*
X120353750Y-203877500D03*
X122553750Y-206077500D03*
X120353750Y-206077500D03*
M02*
